0
SECTION
2
HEADER
9
$INSUNITS
70
4
0
ENDSEC
0
SECTION
2
TABLES
0
TABLE
2
LTYPE
0
LTYPE
72
65
70
64
2
CONTINUOUS
3
______
73
0
40
0
0
ENDTAB
0
TABLE
2
LAYER
0
ENDTAB
0
ENDSEC
0
SECTION
2
ENTITIES
0
LINE
8
0
10
-9.1
20
9.1
11
9.1
21
9.1
0
LINE
8
0
10
9.1
20
9.1
11
9.1
21
-9.1
0
LINE
8
0
10
9.1
20
-9.1
11
-9.1
21
-9.1
0
LINE
8
0
10
-9.1
20
-9.1
11
-9.1
21
9.1
0
LINE
8
0
10
-9.1
20
28.15
11
9.1
21
28.15
0
LINE
8
0
10
9.1
20
28.15
11
9.1
21
9.95
0
LINE
8
0
10
9.1
20
9.95
11
-9.1
21
9.95
0
LINE
8
0
10
-9.1
20
9.95
11
-9.1
21
28.15
0
LINE
8
0
10
-9.1
20
47.2
11
9.1
21
47.2
0
LINE
8
0
10
9.1
20
47.2
11
9.1
21
29
0
LINE
8
0
10
9.1
20
29
11
-9.1
21
29
0
LINE
8
0
10
-9.1
20
29
11
-9.1
21
47.2
0
LINE
8
0
10
9.95
20
9.1
11
28.15
21
9.1
0
LINE
8
0
10
28.15
20
9.1
11
28.15
21
-9.1
0
LINE
8
0
10
28.15
20
-9.1
11
9.95
21
-9.1
0
LINE
8
0
10
9.95
20
-9.1
11
9.95
21
9.1
0
LINE
8
0
10
9.95
20
28.15
11
28.15
21
28.15
0
LINE
8
0
10
28.15
20
28.15
11
28.15
21
9.95
0
LINE
8
0
10
28.15
20
9.95
11
9.95
21
9.95
0
LINE
8
0
10
9.95
20
9.95
11
9.95
21
28.15
0
LINE
8
0
10
9.95
20
47.2
11
28.15
21
47.2
0
LINE
8
0
10
28.15
20
47.2
11
28.15
21
29
0
LINE
8
0
10
28.15
20
29
11
9.95
21
29
0
LINE
8
0
10
9.95
20
29
11
9.95
21
47.2
0
LINE
8
0
10
29
20
13.8625
11
47.2
21
13.8625
0
LINE
8
0
10
47.2
20
13.8625
11
47.2
21
-4.3375
0
LINE
8
0
10
47.2
20
-4.3375
11
29
21
-4.3375
0
LINE
8
0
10
29
20
-4.3375
11
29
21
13.8625
0
LINE
8
0
10
29
20
32.9125
11
47.2
21
32.9125
0
LINE
8
0
10
47.2
20
32.9125
11
47.2
21
14.7125
0
LINE
8
0
10
47.2
20
14.7125
11
29
21
14.7125
0
LINE
8
0
10
29
20
14.7125
11
29
21
32.9125
0
LINE
8
0
10
29
20
51.9625
11
47.2
21
51.9625
0
LINE
8
0
10
47.2
20
51.9625
11
47.2
21
33.7625
0
LINE
8
0
10
47.2
20
33.7625
11
29
21
33.7625
0
LINE
8
0
10
29
20
33.7625
11
29
21
51.9625
0
LINE
8
0
10
48.05
20
18.625
11
66.25
21
18.625
0
LINE
8
0
10
66.25
20
18.625
11
66.25
21
0.425
0
LINE
8
0
10
66.25
20
0.425
11
48.05
21
0.425
0
LINE
8
0
10
48.05
20
0.425
11
48.05
21
18.625
0
LINE
8
0
10
48.05
20
37.675
11
66.25
21
37.675
0
LINE
8
0
10
66.25
20
37.675
11
66.25
21
19.475
0
LINE
8
0
10
66.25
20
19.475
11
48.05
21
19.475
0
LINE
8
0
10
48.05
20
19.475
11
48.05
21
37.675
0
LINE
8
0
10
48.05
20
56.725
11
66.25
21
56.725
0
LINE
8
0
10
66.25
20
56.725
11
66.25
21
38.525
0
LINE
8
0
10
66.25
20
38.525
11
48.05
21
38.525
0
LINE
8
0
10
48.05
20
38.525
11
48.05
21
56.725
0
LINE
8
0
10
67.1
20
13.8625
11
85.3
21
13.8625
0
LINE
8
0
10
85.3
20
13.8625
11
85.3
21
-4.3375
0
LINE
8
0
10
85.3
20
-4.3375
11
67.1
21
-4.3375
0
LINE
8
0
10
67.1
20
-4.3375
11
67.1
21
13.8625
0
LINE
8
0
10
67.1
20
32.9125
11
85.3
21
32.9125
0
LINE
8
0
10
85.3
20
32.9125
11
85.3
21
14.7125
0
LINE
8
0
10
85.3
20
14.7125
11
67.1
21
14.7125
0
LINE
8
0
10
67.1
20
14.7125
11
67.1
21
32.9125
0
LINE
8
0
10
67.1
20
51.9625
11
85.3
21
51.9625
0
LINE
8
0
10
85.3
20
51.9625
11
85.3
21
33.7625
0
LINE
8
0
10
85.3
20
33.7625
11
67.1
21
33.7625
0
LINE
8
0
10
67.1
20
33.7625
11
67.1
21
51.9625
0
LINE
8
0
10
86.15
20
9.1
11
104.35
21
9.1
0
LINE
8
0
10
104.35
20
9.1
11
104.35
21
-9.1
0
LINE
8
0
10
104.35
20
-9.1
11
86.15
21
-9.1
0
LINE
8
0
10
86.15
20
-9.1
11
86.15
21
9.1
0
LINE
8
0
10
86.15
20
28.15
11
104.35
21
28.15
0
LINE
8
0
10
104.35
20
28.15
11
104.35
21
9.95
0
LINE
8
0
10
104.35
20
9.95
11
86.15
21
9.95
0
LINE
8
0
10
86.15
20
9.95
11
86.15
21
28.15
0
LINE
8
0
10
86.15
20
47.2
11
104.35
21
47.2
0
LINE
8
0
10
104.35
20
47.2
11
104.35
21
29
0
LINE
8
0
10
104.35
20
29
11
86.15
21
29
0
LINE
8
0
10
86.15
20
29
11
86.15
21
47.2
0
LINE
8
0
10
65.0327282
20
-5.7266931
11
80.9508069
21
-14.5502282
0
LINE
8
0
10
80.9508069
20
-14.5502282
11
72.1272718
21
-30.4683069
0
LINE
8
0
10
72.1272718
20
-30.4683069
11
56.2091931
21
-21.6447718
0
LINE
8
0
10
56.2091931
20
-21.6447718
11
65.0327282
21
-5.7266931
0
LINE
8
0
10
84.0213198
20
-10.7641418
11
99.9393985
21
-19.5876769
0
LINE
8
0
10
99.9393985
20
-19.5876769
11
88.7887772
21
-39.7039302
0
LINE
8
0
10
88.7887772
20
-39.7039302
11
72.8706985
21
-30.8803951
0
LINE
8
0
10
72.8706985
20
-30.8803951
11
84.0213198
21
-10.7641418
0
LINE
8
0
10
100.6828252
20
-19.999765
11
116.6009039
21
-28.8233001
0
LINE
8
0
10
116.6009039
20
-28.8233001
11
105.4502826
21
-48.9395534
0
LINE
8
0
10
105.4502826
20
-48.9395534
11
89.5322039
21
-40.1160183
0
LINE
8
0
10
89.5322039
20
-40.1160183
11
100.6828252
21
-19.999765
0
LINE
8
0
10
109.894208
20
-3.3819906
11
125.8122867
21
-12.2055257
0
LINE
8
0
10
125.8122867
20
-12.2055257
11
116.9887516
21
-28.1236044
0
LINE
8
0
10
116.9887516
20
-28.1236044
11
101.0706729
21
-19.3000693
0
LINE
8
0
10
101.0706729
20
-19.3000693
11
109.894208
21
-3.3819906
0
ENDSEC
0
EOF