0
SECTION
2
HEADER
9
$INSUNITS
70
4
0
ENDSEC
0
SECTION
2
TABLES
0
TABLE
2
LTYPE
0
LTYPE
72
65
70
64
2
CONTINUOUS
3
______
73
0
40
0
0
ENDTAB
0
TABLE
2
LAYER
0
ENDTAB
0
ENDSEC
0
SECTION
2
ENTITIES
0
LINE
8
0
10
-9.525
20
-9.525
11
28.575
21
-9.525
0
LINE
8
0
10
9.525
20
-9.525
11
9.525
21
47.625
0
LINE
8
0
10
-9.525
20
9.525
11
28.575
21
9.525
0
LINE
8
0
10
-9.525
20
-9.525
11
-9.525
21
47.625
0
LINE
8
0
10
-9.525
20
28.575
11
28.575
21
28.575
0
LINE
8
0
10
-9.525
20
47.625
11
28.575
21
47.625
0
LINE
8
0
10
28.575
20
-9.525
11
28.575
21
52.3875
0
LINE
8
0
10
28.575
20
-4.7625
11
47.625
21
-4.7625
0
LINE
8
0
10
47.625
20
-4.7625
11
47.625
21
57.15
0
LINE
8
0
10
28.575
20
14.2875
11
47.625
21
14.2875
0
LINE
8
0
10
28.575
20
33.3375
11
47.625
21
33.3375
0
LINE
8
0
10
47.625
20
52.3875
11
28.575
21
52.3875
0
LINE
8
0
10
47.625
20
0
11
66.675
21
0
0
LINE
8
0
10
66.675
20
-4.7625
11
66.675
21
57.15
0
LINE
8
0
10
47.625
20
19.05
11
66.675
21
19.05
0
LINE
8
0
10
47.625
20
38.1
11
66.675
21
38.1
0
LINE
8
0
10
66.675
20
57.15
11
47.625
21
57.15
0
LINE
8
0
10
66.675
20
-4.7625
11
85.725
21
-4.7625
0
LINE
8
0
10
85.725
20
-9.525
11
85.725
21
52.3875
0
LINE
8
0
10
66.675
20
14.2875
11
85.725
21
14.2875
0
LINE
8
0
10
66.675
20
33.3375
11
85.725
21
33.3375
0
LINE
8
0
10
85.725
20
52.3875
11
66.675
21
52.3875
0
LINE
8
0
10
85.725
20
-9.525
11
104.775
21
-9.525
0
LINE
8
0
10
104.775
20
-9.525
11
104.775
21
47.625
0
LINE
8
0
10
85.725
20
9.525
11
104.775
21
9.525
0
LINE
8
0
10
85.725
20
28.575
11
104.775
21
28.575
0
LINE
8
0
10
104.775
20
47.625
11
85.725
21
47.625
0
LINE
8
0
10
55.6314357
20
-21.8104411
11
72.2929411
21
-31.0460643
0
LINE
8
0
10
72.2929411
20
-31.0460643
11
82.6921074
21
-12.2854717
0
LINE
8
0
10
81.5285643
20
-14.3845589
11
64.8670589
21
-5.1489357
0
LINE
8
0
10
64.8670589
20
-5.1489357
11
55.6314357
21
-21.8104411
0
LINE
8
0
10
73.4564842
20
-28.9469771
11
106.779495
21
-47.4182235
0
LINE
8
0
10
90.1179896
20
-38.1826003
11
99.3536128
21
-21.5210949
0
LINE
8
0
10
82.6921074
20
-12.2854717
11
116.0151182
21
-30.7567181
0
LINE
8
0
10
106.779495
20
-47.4182235
11
116.0151182
21
-30.7567181
0
LINE
8
0
10
100.4929155
20
-19.4657386
11
117.1544209
21
-28.7013618
0
LINE
8
0
10
117.1544209
20
-28.7013618
11
126.3900441
21
-12.0398564
0
LINE
8
0
10
126.3900441
20
-12.0398564
11
109.7285387
21
-2.8042332
0
LINE
8
0
10
109.7285387
20
-2.8042332
11
100.4929155
21
-19.4657386
0
ENDSEC
0
EOF