0
SECTION
2
HEADER
9
$INSUNITS
70
4
0
ENDSEC
0
SECTION
2
TABLES
0
TABLE
2
LTYPE
0
LTYPE
72
65
70
64
2
CONTINUOUS
3
______
73
0
40
0
0
ENDTAB
0
TABLE
2
LAYER
0
ENDTAB
0
ENDSEC
0
SECTION
2
ENTITIES
0
LINE
8
0
10
-7
20
-7
11
7
21
-7
0
LINE
8
0
10
7
20
-7
11
7
21
7
0
LINE
8
0
10
7
20
7
11
-7
21
7
0
LINE
8
0
10
-7
20
7
11
-7
21
-7
0
LINE
8
0
10
-7
20
12.05
11
7
21
12.05
0
LINE
8
0
10
7
20
12.05
11
7
21
26.05
0
LINE
8
0
10
7
20
26.05
11
-7
21
26.05
0
LINE
8
0
10
-7
20
26.05
11
-7
21
12.05
0
LINE
8
0
10
-7
20
31.1
11
7
21
31.1
0
LINE
8
0
10
7
20
31.1
11
7
21
45.1
0
LINE
8
0
10
7
20
45.1
11
-7
21
45.1
0
LINE
8
0
10
-7
20
45.1
11
-7
21
31.1
0
LINE
8
0
10
12.05
20
-7
11
26.05
21
-7
0
LINE
8
0
10
26.05
20
-7
11
26.05
21
7
0
LINE
8
0
10
26.05
20
7
11
12.05
21
7
0
LINE
8
0
10
12.05
20
7
11
12.05
21
-7
0
LINE
8
0
10
12.05
20
12.05
11
26.05
21
12.05
0
LINE
8
0
10
26.05
20
12.05
11
26.05
21
26.05
0
LINE
8
0
10
26.05
20
26.05
11
12.05
21
26.05
0
LINE
8
0
10
12.05
20
26.05
11
12.05
21
12.05
0
LINE
8
0
10
12.05
20
31.1
11
26.05
21
31.1
0
LINE
8
0
10
26.05
20
31.1
11
26.05
21
45.1
0
LINE
8
0
10
26.05
20
45.1
11
12.05
21
45.1
0
LINE
8
0
10
12.05
20
45.1
11
12.05
21
31.1
0
LINE
8
0
10
31.1
20
-2.2375
11
45.1
21
-2.2375
0
LINE
8
0
10
45.1
20
-2.2375
11
45.1
21
11.7625
0
LINE
8
0
10
45.1
20
11.7625
11
31.1
21
11.7625
0
LINE
8
0
10
31.1
20
11.7625
11
31.1
21
-2.2375
0
LINE
8
0
10
31.1
20
16.8125
11
45.1
21
16.8125
0
LINE
8
0
10
45.1
20
16.8125
11
45.1
21
30.8125
0
LINE
8
0
10
45.1
20
30.8125
11
31.1
21
30.8125
0
LINE
8
0
10
31.1
20
30.8125
11
31.1
21
16.8125
0
LINE
8
0
10
31.1
20
35.8625
11
45.1
21
35.8625
0
LINE
8
0
10
45.1
20
35.8625
11
45.1
21
49.8625
0
LINE
8
0
10
45.1
20
49.8625
11
31.1
21
49.8625
0
LINE
8
0
10
31.1
20
49.8625
11
31.1
21
35.8625
0
LINE
8
0
10
50.15
20
2.525
11
64.15
21
2.525
0
LINE
8
0
10
64.15
20
2.525
11
64.15
21
16.525
0
LINE
8
0
10
64.15
20
16.525
11
50.15
21
16.525
0
LINE
8
0
10
50.15
20
16.525
11
50.15
21
2.525
0
LINE
8
0
10
50.15
20
21.575
11
64.15
21
21.575
0
LINE
8
0
10
64.15
20
21.575
11
64.15
21
35.575
0
LINE
8
0
10
64.15
20
35.575
11
50.15
21
35.575
0
LINE
8
0
10
50.15
20
35.575
11
50.15
21
21.575
0
LINE
8
0
10
50.15
20
40.625
11
64.15
21
40.625
0
LINE
8
0
10
64.15
20
40.625
11
64.15
21
54.625
0
LINE
8
0
10
64.15
20
54.625
11
50.15
21
54.625
0
LINE
8
0
10
50.15
20
54.625
11
50.15
21
40.625
0
LINE
8
0
10
69.2
20
-2.2375
11
83.2
21
-2.2375
0
LINE
8
0
10
83.2
20
-2.2375
11
83.2
21
11.7625
0
LINE
8
0
10
83.2
20
11.7625
11
69.2
21
11.7625
0
LINE
8
0
10
69.2
20
11.7625
11
69.2
21
-2.2375
0
LINE
8
0
10
69.2
20
16.8125
11
83.2
21
16.8125
0
LINE
8
0
10
83.2
20
16.8125
11
83.2
21
30.8125
0
LINE
8
0
10
83.2
20
30.8125
11
69.2
21
30.8125
0
LINE
8
0
10
69.2
20
30.8125
11
69.2
21
16.8125
0
LINE
8
0
10
69.2
20
35.8625
11
83.2
21
35.8625
0
LINE
8
0
10
83.2
20
35.8625
11
83.2
21
49.8625
0
LINE
8
0
10
83.2
20
49.8625
11
69.2
21
49.8625
0
LINE
8
0
10
69.2
20
49.8625
11
69.2
21
35.8625
0
LINE
8
0
10
88.25
20
-7
11
102.25
21
-7
0
LINE
8
0
10
102.25
20
-7
11
102.25
21
7
0
LINE
8
0
10
102.25
20
7
11
88.25
21
7
0
LINE
8
0
10
88.25
20
7
11
88.25
21
-7
0
LINE
8
0
10
88.25
20
12.05
11
102.25
21
12.05
0
LINE
8
0
10
102.25
20
12.05
11
102.25
21
26.05
0
LINE
8
0
10
102.25
20
26.05
11
88.25
21
26.05
0
LINE
8
0
10
88.25
20
26.05
11
88.25
21
12.05
0
LINE
8
0
10
88.25
20
31.1
11
102.25
21
31.1
0
LINE
8
0
10
102.25
20
31.1
11
102.25
21
45.1
0
LINE
8
0
10
102.25
20
45.1
11
88.25
21
45.1
0
LINE
8
0
10
88.25
20
45.1
11
88.25
21
31.1
0
LINE
8
0
10
59.0639947
20
-20.8261706
11
71.3086706
21
-27.6135053
0
LINE
8
0
10
71.3086706
20
-27.6135053
11
78.0960053
21
-15.3688294
0
LINE
8
0
10
78.0960053
20
-15.3688294
11
65.8513294
21
-8.5814947
0
LINE
8
0
10
65.8513294
20
-8.5814947
11
59.0639947
21
-20.8261706
0
LINE
8
0
10
76.8890432
20
-27.9627066
11
89.1337191
21
-34.7500413
0
LINE
8
0
10
89.1337191
20
-34.7500413
11
95.9210538
21
-22.5053654
0
LINE
8
0
10
95.9210538
20
-22.5053654
11
83.6763779
21
-15.7180307
0
LINE
8
0
10
83.6763779
20
-15.7180307
11
76.8890432
21
-27.9627066
0
LINE
8
0
10
93.5505486
20
-37.1983298
11
105.7952245
21
-43.9856645
0
LINE
8
0
10
105.7952245
20
-43.9856645
11
112.5825592
21
-31.7409886
0
LINE
8
0
10
112.5825592
20
-31.7409886
11
100.3378833
21
-24.9536539
0
LINE
8
0
10
100.3378833
20
-24.9536539
11
93.5505486
21
-37.1983298
0
LINE
8
0
10
103.9254745
20
-18.4814681
11
116.1701504
21
-25.2688028
0
LINE
8
0
10
116.1701504
20
-25.2688028
11
122.9574851
21
-13.0241269
0
LINE
8
0
10
122.9574851
20
-13.0241269
11
110.7128092
21
-6.2367922
0
LINE
8
0
10
110.7128092
20
-6.2367922
11
103.9254745
21
-18.4814681
0
ENDSEC
0
EOF