  0
SECTION
  2
HEADER
  9
$ANGBASE
  50
0.0
  9
$ANGDIR
  70
1
  9
$MEASUREMENT
  70
1
  0
ENDSEC
  0
SECTION
  2
TABLES
  0
TABLE
  2
LTYPE
  70
4
  0
LTYPE
  5
40F
  2
CONTINUOUS
  70
0
  3
Solid line
  72
65
  73
0
  40
0.0
  0
LTYPE
  5
410
  2
DASHDOT
 70
0
  3
Dash Dot ____ _ ____ _
 72
65
 73
4
 40
2.0
 49
1.25
 49
-0.25
 49
0.25
 49
-0.25
  0
LTYPE
  5
411
  2
DASHED
 70
0
  3
Dashed __ __ __ __ __
 72
65
 73
2
 40
0.75
 49
0.5
 49
-0.25
  0
LTYPE
  5
43B
  2
DOTTED
 70
0
  3
Dotted .  .  .  .
 72
65
 73
2
 40
0.2
 49
0.0
 49
-0.2
  0
ENDTAB
  0
TABLE
  2
STYLE
  70
4
  0
STYLE
  2
KICAD
  70
0
  40
0
  41
1
  42
1
  50
0
  71
0
  3
isocp.shx
  0
STYLE
  2
KICADB
  70
0
  40
0
  41
1
  42
1
  50
0
  71
0
  3
isocp.shx
  0
STYLE
  2
KICADI
  70
0
  40
0
  41
1
  42
1
  50
15
  71
0
  3
isocp.shx
  0
STYLE
  2
KICADBI
  70
0
  40
0
  41
1
  42
1
  50
15
  71
0
  3
isocp.shx
  0
ENDTAB
  0
TABLE
  2
LAYER
  70
1
  0
LAYER
  2
BLACK
  70
0
  62
7
  6
CONTINUOUS
  0
ENDTAB
  0
ENDSEC
  0
SECTION
  2
ENTITIES
0
LINE
8
BLACK
6
CONTINUOUS
10
126.5487819999999886
20
-110.9106839999999892
11
126.2770280000000014
21
-111.4009409999999889
0
LINE
8
BLACK
6
CONTINUOUS
10
126.2770280000000014
20
-111.4009409999999889
11
126.3451529999999963
21
-111.3665609999999901
0
LINE
8
BLACK
6
CONTINUOUS
10
126.3451529999999963
20
-111.3665609999999901
11
126.4180319999999966
21
-111.3525349999999889
0
LINE
8
BLACK
6
CONTINUOUS
10
126.4180319999999966
20
-111.3525349999999889
11
126.4956629999999933
21
-111.3588629999999995
0
LINE
8
BLACK
6
CONTINUOUS
10
126.4956629999999933
20
-111.3588629999999995
11
126.5659879999999902
21
-111.380486999999988
0
LINE
8
BLACK
6
CONTINUOUS
10
126.5659879999999902
20
-111.380486999999988
11
126.6272589999999951
21
-111.4099299999999886
0
LINE
8
BLACK
6
CONTINUOUS
10
126.6272589999999951
20
-111.4099299999999886
11
126.6940629999999999
21
-111.4533659999999884
0
LINE
8
BLACK
6
CONTINUOUS
10
126.6940629999999999
20
-111.4533659999999884
11
126.7498019999999883
21
-111.5034809999999936
0
LINE
8
BLACK
6
CONTINUOUS
10
126.7498019999999883
20
-111.5034809999999936
11
126.8008459999999928
21
-111.5703889999999916
0
LINE
8
BLACK
6
CONTINUOUS
10
126.8008459999999928
20
-111.5703889999999916
11
126.836829999999992
21
-111.6463869999999901
0
LINE
8
BLACK
6
CONTINUOUS
10
126.836829999999992
20
-111.6463869999999901
11
126.855684999999994
21
-111.7187629999999956
0
LINE
8
BLACK
6
CONTINUOUS
10
126.855684999999994
20
-111.7187629999999956
11
126.8634469999999936
21
-111.7954159999999888
0
LINE
8
BLACK
6
CONTINUOUS
10
126.8634469999999936
20
-111.7954159999999888
11
126.8598459999999903
21
-111.8738120000000009
0
LINE
8
BLACK
6
CONTINUOUS
10
126.8598459999999903
20
-111.8738120000000009
11
126.8448829999999958
21
-111.9539499999999919
0
LINE
8
BLACK
6
CONTINUOUS
10
126.8448829999999958
20
-111.9539499999999919
11
126.8185569999999984
21
-112.0358289999999926
0
LINE
8
BLACK
6
CONTINUOUS
10
126.8185569999999984
20
-112.0358289999999926
11
126.7879389999999944
21
-112.1053939999999898
0
LINE
8
BLACK
6
CONTINUOUS
10
126.7879389999999944
20
-112.1053939999999898
11
126.7657799999999924
21
-112.147712999999996
0
LINE
8
BLACK
6
CONTINUOUS
10
126.7657799999999924
20
-112.147712999999996
11
126.7266289999999884
21
-112.2108789999999914
0
LINE
8
BLACK
6
CONTINUOUS
10
126.7266289999999884
20
-112.2108789999999914
11
126.6819079999999929
21
-112.2691609999999969
0
LINE
8
BLACK
6
CONTINUOUS
10
126.6819079999999929
20
-112.2691609999999969
11
126.6316179999999889
21
-112.3225599999999957
0
LINE
8
BLACK
6
CONTINUOUS
10
126.6316179999999889
20
-112.3225599999999957
11
126.5757589999999908
21
-112.3710749999999905
0
LINE
8
BLACK
6
CONTINUOUS
10
126.5757589999999908
20
-112.3710749999999905
11
126.5143300000000011
21
-112.4147069999999928
0
LINE
8
BLACK
6
CONTINUOUS
10
126.5143300000000011
20
-112.4147069999999928
11
126.4926169999999956
21
-112.4281649999999928
0
LINE
8
BLACK
6
CONTINUOUS
10
126.4926169999999956
20
-112.4281649999999928
11
126.4263179999999949
21
-112.4627339999999975
0
LINE
8
BLACK
6
CONTINUOUS
10
126.4263179999999949
20
-112.4627339999999975
11
126.3492709999999875
21
-112.4896529999999899
0
LINE
8
BLACK
6
CONTINUOUS
10
126.3492709999999875
20
-112.4896529999999899
11
126.2749639999999971
21
-112.5006829999999951
0
LINE
8
BLACK
6
CONTINUOUS
10
126.2749639999999971
20
-112.5006829999999951
11
126.1917349999999942
21
-112.4934709999999995
0
LINE
8
BLACK
6
CONTINUOUS
10
126.1917349999999942
20
-112.4934709999999995
11
126.1122340000000008
21
-112.4646339999999896
0
LINE
8
BLACK
6
CONTINUOUS
10
126.1122340000000008
20
-112.4646339999999896
11
126.1011809999999969
21
-112.4587489999999974
0
LINE
8
BLACK
6
CONTINUOUS
10
126.1011809999999969
20
-112.4587489999999974
11
126.0355069999999955
21
-112.4187859999999972
0
LINE
8
BLACK
6
CONTINUOUS
10
126.0355069999999955
20
-112.4187859999999972
11
125.9757859999999994
21
-112.3735469999999879
0
LINE
8
BLACK
6
CONTINUOUS
10
125.9757859999999994
20
-112.3735469999999879
11
125.9291829999999948
21
-112.3269659999999988
0
LINE
8
BLACK
6
CONTINUOUS
10
125.9291829999999948
20
-112.3269659999999988
11
125.8874409999999955
21
-112.2614099999999979
0
LINE
8
BLACK
6
CONTINUOUS
10
125.8874409999999955
20
-112.2614099999999979
11
125.8588419999999957
21
-112.1922670000000011
0
LINE
8
BLACK
6
CONTINUOUS
10
125.8588419999999957
20
-112.1922670000000011
11
125.8514579999999938
21
-112.1686890000000005
0
LINE
8
BLACK
6
CONTINUOUS
10
125.8514579999999938
20
-112.1686890000000005
11
125.7871600000000001
21
-112.2846849999999961
0
LINE
8
BLACK
6
CONTINUOUS
10
125.7871600000000001
20
-112.2846849999999961
11
125.5298559999999952
21
-112.1420579999999916
0
LINE
8
BLACK
6
CONTINUOUS
10
125.5298559999999952
20
-112.1420579999999916
11
125.6137559999999951
21
-111.9906989999999922
0
LINE
8
BLACK
6
CONTINUOUS
10
125.6137559999999951
20
-111.9906989999999922
11
126.0151399999999882
21
-111.9906989999999922
0
LINE
8
BLACK
6
CONTINUOUS
10
126.0151399999999882
20
-111.9906989999999922
11
126.0173459999999892
21
-112.0122439999999955
0
LINE
8
BLACK
6
CONTINUOUS
10
126.0173459999999892
20
-112.0122439999999955
11
126.0379539999999992
21
-112.0835280000000012
0
LINE
8
BLACK
6
CONTINUOUS
10
126.0379539999999992
20
-112.0835280000000012
11
126.0823839999999905
21
-112.145118999999994
0
LINE
8
BLACK
6
CONTINUOUS
10
126.0823839999999905
20
-112.145118999999994
11
126.1307359999999989
21
-112.1802369999999911
0
LINE
8
BLACK
6
CONTINUOUS
10
126.1307359999999989
20
-112.1802369999999911
11
126.2021919999999966
21
-112.2052379999999943
0
LINE
8
BLACK
6
CONTINUOUS
10
126.2021919999999966
20
-112.2052379999999943
11
126.2762149999999934
21
-112.2024429999999882
0
LINE
8
BLACK
6
CONTINUOUS
10
126.2762149999999934
20
-112.2024429999999882
11
126.3269889999999975
21
-112.1851389999999924
0
LINE
8
BLACK
6
CONTINUOUS
10
126.3269889999999975
20
-112.1851389999999924
11
126.3938369999999907
21
-112.1437049999999971
0
LINE
8
BLACK
6
CONTINUOUS
10
126.3938369999999907
20
-112.1437049999999971
11
126.4475079999999991
21
-112.0903330000000011
0
LINE
8
BLACK
6
CONTINUOUS
10
126.4475079999999991
20
-112.0903330000000011
11
126.4900289999999927
21
-112.0295089999999902
0
LINE
8
BLACK
6
CONTINUOUS
10
126.4900289999999927
20
-112.0295089999999902
11
126.4987339999999989
21
-112.0143479999999983
0
LINE
8
BLACK
6
CONTINUOUS
10
126.4987339999999989
20
-112.0143479999999983
11
126.5328019999999896
21
-111.9415899999999908
0
LINE
8
BLACK
6
CONTINUOUS
10
126.5328019999999896
20
-111.9415899999999908
11
126.5540139999999951
21
-111.8642689999999931
0
LINE
8
BLACK
6
CONTINUOUS
10
126.5540139999999951
20
-111.8642689999999931
11
126.557707999999991
21
-111.7906559999999985
0
LINE
8
BLACK
6
CONTINUOUS
10
126.557707999999991
20
-111.7906559999999985
11
126.5553999999999917
21
-111.7692949999999996
0
LINE
8
BLACK
6
CONTINUOUS
10
126.5553999999999917
20
-111.7692949999999996
11
126.534362999999999
21
-111.6982500000000016
0
LINE
8
BLACK
6
CONTINUOUS
10
126.534362999999999
20
-111.6982500000000016
11
126.4890419999999978
21
-111.6364599999999996
0
LINE
8
BLACK
6
CONTINUOUS
10
126.4890419999999978
20
-111.6364599999999996
11
126.4397329999999897
21
-111.600876999999997
0
LINE
8
BLACK
6
CONTINUOUS
10
126.4397329999999897
20
-111.600876999999997
11
126.3663249999999891
21
-111.5777459999999905
0
LINE
8
BLACK
6
CONTINUOUS
10
126.3663249999999891
20
-111.5777459999999905
11
126.2925759999999968
21
-111.5842459999999932
0
LINE
8
BLACK
6
CONTINUOUS
10
126.2925759999999968
20
-111.5842459999999932
11
126.2468999999999966
21
-111.6003849999999886
0
LINE
8
BLACK
6
CONTINUOUS
10
126.2468999999999966
20
-111.6003849999999886
11
126.1781069999999971
21
-111.6418839999999904
0
LINE
8
BLACK
6
CONTINUOUS
10
126.1781069999999971
20
-111.6418839999999904
11
126.1234139999999968
21
-111.6952129999999954
0
LINE
8
BLACK
6
CONTINUOUS
10
126.1234139999999968
20
-111.6952129999999954
11
126.0805779999999885
21
-111.7559129999999925
0
LINE
8
BLACK
6
CONTINUOUS
10
126.0805779999999885
20
-111.7559129999999925
11
126.0718799999999931
21
-111.7710369999999926
0
LINE
8
BLACK
6
CONTINUOUS
10
126.0718799999999931
20
-111.7710369999999926
11
126.0391300000000001
21
-111.8414179999999902
0
LINE
8
BLACK
6
CONTINUOUS
10
126.0391300000000001
20
-111.8414179999999902
11
126.0187229999999943
21
-111.9172859999999901
0
LINE
8
BLACK
6
CONTINUOUS
10
126.0187229999999943
20
-111.9172859999999901
11
126.0151399999999882
21
-111.9906989999999922
0
LINE
8
BLACK
6
CONTINUOUS
10
126.0151399999999882
20
-111.9906989999999922
11
125.6137559999999951
21
-111.9906989999999922
0
LINE
8
BLACK
6
CONTINUOUS
10
125.6137559999999951
20
-111.9906989999999922
11
126.2914770000000004
21
-110.7680569999999989
0
LINE
8
BLACK
6
CONTINUOUS
10
126.2914770000000004
20
-110.7680569999999989
11
126.5487819999999886
21
-110.9106839999999892
0
LINE
8
BLACK
6
CONTINUOUS
10
128.0996319999999855
20
-112.2260799999999961
11
126.9956749999999914
21
-113.2126079999999888
0
LINE
8
BLACK
6
CONTINUOUS
10
126.9956749999999914
20
-113.2126079999999888
11
126.9310949999999991
21
-113.2577099999999888
0
LINE
8
BLACK
6
CONTINUOUS
10
126.9310949999999991
20
-113.2577099999999888
11
126.8617359999999934
21
-113.282361999999992
0
LINE
8
BLACK
6
CONTINUOUS
10
126.8617359999999934
20
-113.282361999999992
11
126.7875959999999935
21
-113.2865659999999934
0
LINE
8
BLACK
6
CONTINUOUS
10
126.7875959999999935
20
-113.2865659999999934
11
126.7086749999999995
21
-113.2703199999999981
0
LINE
8
BLACK
6
CONTINUOUS
10
126.7086749999999995
20
-113.2703199999999981
11
126.6614319999999907
21
-113.2518559999999894
0
LINE
8
BLACK
6
CONTINUOUS
10
126.6614319999999907
20
-113.2518559999999894
11
126.481197999999992
21
-113.1787589999999994
0
LINE
8
BLACK
6
CONTINUOUS
10
126.481197999999992
20
-113.1787589999999994
11
126.5948729999999927
21
-112.9736839999999916
0
LINE
8
BLACK
6
CONTINUOUS
10
126.5948729999999927
20
-112.9736839999999916
11
126.6333239999999876
21
-112.9949979999999954
0
LINE
8
BLACK
6
CONTINUOUS
10
126.6333239999999876
20
-112.9949979999999954
11
126.709904999999992
21
-113.0276259999999979
0
LINE
8
BLACK
6
CONTINUOUS
10
126.709904999999992
20
-113.0276259999999979
11
126.7858449999999948
21
-113.0344419999999985
0
LINE
8
BLACK
6
CONTINUOUS
10
126.7858449999999948
20
-113.0344419999999985
11
126.8565129999999925
21
-113.0032589999999999
0
LINE
8
BLACK
6
CONTINUOUS
10
126.8565129999999925
20
-113.0032589999999999
11
126.9062049999999999
21
-112.9410060000000016
0
LINE
8
BLACK
6
CONTINUOUS
10
126.9062049999999999
20
-112.9410060000000016
11
127.1280900000000003
21
-111.6875450000000001
0
LINE
8
BLACK
6
CONTINUOUS
10
127.1280900000000003
20
-111.6875450000000001
11
127.4126309999999904
21
-111.8452690000000018
0
LINE
8
BLACK
6
CONTINUOUS
10
127.4126309999999904
20
-111.8452690000000018
11
127.2223180000000013
21
-112.6956699999999927
0
LINE
8
BLACK
6
CONTINUOUS
10
127.2223180000000013
20
-112.6956699999999927
11
127.8352779999999882
21
-112.0795459999999935
0
LINE
8
BLACK
6
CONTINUOUS
10
127.8352779999999882
20
-112.0795459999999935
11
128.0996319999999855
21
-112.2260799999999961
0
LINE
8
BLACK
6
CONTINUOUS
10
129.4986940000000004
20
-114.342022
11
129.2231249999999818
21
-114.1892709999999909
0
LINE
8
BLACK
6
CONTINUOUS
10
129.2231249999999818
20
-114.1892709999999909
11
129.8371469999999874
21
-113.0815470000000005
0
LINE
8
BLACK
6
CONTINUOUS
10
129.8371469999999874
20
-113.0815470000000005
11
128.9844049999999811
21
-114.0569469999999939
0
LINE
8
BLACK
6
CONTINUOUS
10
128.9844049999999811
20
-114.0569469999999939
11
128.7088359999999909
21
-113.9041959999999989
0
LINE
8
BLACK
6
CONTINUOUS
10
128.7088359999999909
20
-113.9041959999999989
11
129.0811180000000036
21
-112.6695939999999894
0
LINE
8
BLACK
6
CONTINUOUS
10
129.0811180000000036
20
-112.6695939999999894
11
128.4701159999999902
21
-113.7718709999999902
0
LINE
8
BLACK
6
CONTINUOUS
10
128.4701159999999902
20
-113.7718709999999902
11
128.194547
21
-113.6191209999999927
0
LINE
8
BLACK
6
CONTINUOUS
10
128.194547
20
-113.6191209999999927
11
128.956167999999991
21
-112.2451189999999883
0
LINE
8
BLACK
6
CONTINUOUS
10
128.956167999999991
20
-112.2451189999999883
11
129.3602290000000039
21
-112.4690939999999983
0
LINE
8
BLACK
6
CONTINUOUS
10
129.3602290000000039
20
-112.4690939999999983
11
129.0237050000000067
21
-113.6611029999999971
0
LINE
8
BLACK
6
CONTINUOUS
10
129.0237050000000067
20
-113.6611029999999971
11
129.8597790000000032
21
-112.7459989999999976
0
LINE
8
BLACK
6
CONTINUOUS
10
129.8597790000000032
20
-112.7459989999999976
11
130.2603159999999889
21
-112.9680199999999957
0
LINE
8
BLACK
6
CONTINUOUS
10
130.2603159999999889
20
-112.9680199999999957
11
129.4986940000000004
21
-114.342022
0
LINE
8
BLACK
6
CONTINUOUS
10
130.4602769999999907
20
-113.5662899999999951
11
130.5402239999999949
21
-113.5898849999999953
0
LINE
8
BLACK
6
CONTINUOUS
10
130.5402239999999949
20
-113.5898849999999953
11
130.6135929999999803
21
-113.6213449999999909
0
LINE
8
BLACK
6
CONTINUOUS
10
130.6135929999999803
20
-113.6213449999999909
11
130.6649899999999889
21
-113.6480809999999906
0
LINE
8
BLACK
6
CONTINUOUS
10
130.6649899999999889
20
-113.6480809999999906
11
130.7369479999999839
21
-113.6916679999999928
0
LINE
8
BLACK
6
CONTINUOUS
10
130.7369479999999839
20
-113.6916679999999928
11
130.7985369999999818
21
-113.736906999999988
0
LINE
8
BLACK
6
CONTINUOUS
10
130.7985369999999818
20
-113.736906999999988
11
130.8645229999999913
21
-113.7997949999999889
0
LINE
8
BLACK
6
CONTINUOUS
10
130.8645229999999913
20
-113.7997949999999889
11
130.9120749999999873
21
-113.8656199999999927
0
LINE
8
BLACK
6
CONTINUOUS
10
130.9120749999999873
20
-113.8656199999999927
11
130.941190000000006
21
-113.9343819999999994
0
LINE
8
BLACK
6
CONTINUOUS
10
130.941190000000006
20
-113.9343819999999994
11
130.9516600000000039
21
-114.0244629999999972
0
LINE
8
BLACK
6
CONTINUOUS
10
130.9516600000000039
20
-114.0244629999999972
11
130.9392959999999846
21
-114.0998319999999921
0
LINE
8
BLACK
6
CONTINUOUS
10
130.9392959999999846
20
-114.0998319999999921
11
130.9084969999999828
21
-114.1781369999999924
0
LINE
8
BLACK
6
CONTINUOUS
10
130.9084969999999828
20
-114.1781369999999924
11
130.8979159999999808
21
-114.1981719999999996
0
LINE
8
BLACK
6
CONTINUOUS
10
130.8979159999999808
20
-114.1981719999999996
11
130.5895730000000015
21
-114.7544379999999933
0
LINE
8
BLACK
6
CONTINUOUS
10
130.5895730000000015
20
-114.7544379999999933
11
130.5699669999999912
21
-114.8277709999999985
0
LINE
8
BLACK
6
CONTINUOUS
10
130.5699669999999912
20
-114.8277709999999985
11
130.5837329999999952
21
-114.899485999999996
0
LINE
8
BLACK
6
CONTINUOUS
10
130.5837329999999952
20
-114.899485999999996
11
130.5650829999999871
21
-114.9331309999999888
0
LINE
8
BLACK
6
CONTINUOUS
10
130.5650829999999871
20
-114.9331309999999888
11
130.2914370000000019
21
-114.7814459999999883
0
LINE
8
BLACK
6
CONTINUOUS
10
130.2914370000000019
20
-114.7814459999999883
11
130.3068849999999941
21
-114.7079990000000009
0
LINE
8
BLACK
6
CONTINUOUS
10
130.3068849999999941
20
-114.7079990000000009
11
130.3292429999999911
21
-114.6482529999999969
0
LINE
8
BLACK
6
CONTINUOUS
10
130.3292429999999911
20
-114.6482529999999969
11
130.2488390000000038
21
-114.6651820000000015
0
LINE
8
BLACK
6
CONTINUOUS
10
130.2488390000000038
20
-114.6651820000000015
11
130.1713959999999872
21
-114.6710279999999926
0
LINE
8
BLACK
6
CONTINUOUS
10
130.1713959999999872
20
-114.6710279999999926
11
130.0969159999999931
21
-114.6657929999999936
0
LINE
8
BLACK
6
CONTINUOUS
10
130.0969159999999931
20
-114.6657929999999936
11
130.0253969999999981
21
-114.6494769999999903
0
LINE
8
BLACK
6
CONTINUOUS
10
130.0253969999999981
20
-114.6494769999999903
11
129.9568399999999997
21
-114.6220780000000019
0
LINE
8
BLACK
6
CONTINUOUS
10
129.9568399999999997
20
-114.6220780000000019
11
129.9346459999999865
21
-114.6104819999999904
0
LINE
8
BLACK
6
CONTINUOUS
10
129.9346459999999865
20
-114.6104819999999904
11
129.8700069999999869
21
-114.5682119999999884
0
LINE
8
BLACK
6
CONTINUOUS
10
129.8700069999999869
20
-114.5682119999999884
11
129.8139659999999935
21
-114.5145059999999972
0
LINE
8
BLACK
6
CONTINUOUS
10
129.8139659999999935
20
-114.5145059999999972
11
129.7724100000000078
21
-114.4471939999999961
0
LINE
8
BLACK
6
CONTINUOUS
10
129.7724100000000078
20
-114.4471939999999961
11
129.759806999999995
21
-114.4105220000000003
0
LINE
8
BLACK
6
CONTINUOUS
10
129.759806999999995
20
-114.4105220000000003
11
129.7511079999999879
21
-114.3325669999999974
0
LINE
8
BLACK
6
CONTINUOUS
10
129.7511079999999879
20
-114.3325669999999974
11
129.7511299999999892
21
-114.332419999999999
0
LINE
8
BLACK
6
CONTINUOUS
10
129.7511299999999892
20
-114.332419999999999
11
130.0644900000000064
21
-114.332419999999999
0
LINE
8
BLACK
6
CONTINUOUS
10
130.0644900000000064
20
-114.332419999999999
11
130.1044650000000047
21
-114.4008970000000005
0
LINE
8
BLACK
6
CONTINUOUS
10
130.1044650000000047
20
-114.4008970000000005
11
130.1625459999999919
21
-114.4419149999999945
0
LINE
8
BLACK
6
CONTINUOUS
10
130.1625459999999919
20
-114.4419149999999945
11
130.2405049999999846
21
-114.473596999999998
0
LINE
8
BLACK
6
CONTINUOUS
10
130.2405049999999846
20
-114.473596999999998
11
130.3247079999999869
21
-114.4776719999999983
0
LINE
8
BLACK
6
CONTINUOUS
10
130.3247079999999869
20
-114.4776719999999983
11
130.401645000000002
21
-114.446329999999989
0
LINE
8
BLACK
6
CONTINUOUS
10
130.401645000000002
20
-114.446329999999989
11
130.4618059999999957
21
-114.3912749999999932
0
LINE
8
BLACK
6
CONTINUOUS
10
130.4618059999999957
20
-114.3912749999999932
11
130.5078619999999887
21
-114.3255189999999999
0
LINE
8
BLACK
6
CONTINUOUS
10
130.5078619999999887
20
-114.3255189999999999
11
130.5166289999999947
21
-114.3101999999999947
0
LINE
8
BLACK
6
CONTINUOUS
10
130.5166289999999947
20
-114.3101999999999947
11
130.536877000000004
21
-114.2736709999999931
0
LINE
8
BLACK
6
CONTINUOUS
10
130.536877000000004
20
-114.2736709999999931
11
130.4639229999999941
21
-114.265901999999997
0
LINE
8
BLACK
6
CONTINUOUS
10
130.4639229999999941
20
-114.265901999999997
11
130.4044779999999832
21
-114.2480339999999899
0
LINE
8
BLACK
6
CONTINUOUS
10
130.4044779999999832
20
-114.2480339999999899
11
130.3309030000000064
21
-114.2195249999999902
0
LINE
8
BLACK
6
CONTINUOUS
10
130.3309030000000064
20
-114.2195249999999902
11
130.2590699999999799
21
-114.1966889999999921
0
LINE
8
BLACK
6
CONTINUOUS
10
130.2590699999999799
20
-114.1966889999999921
11
130.2034029999999802
21
-114.1868419999999986
0
LINE
8
BLACK
6
CONTINUOUS
10
130.2034029999999802
20
-114.1868419999999986
11
130.1286690000000021
21
-114.2031489999999962
0
LINE
8
BLACK
6
CONTINUOUS
10
130.1286690000000021
20
-114.2031489999999962
11
130.0810940000000073
21
-114.2556009999999986
0
LINE
8
BLACK
6
CONTINUOUS
10
130.0810940000000073
20
-114.2556009999999986
11
130.0644900000000064
21
-114.332419999999999
0
LINE
8
BLACK
6
CONTINUOUS
10
130.0644900000000064
20
-114.332419999999999
11
129.7511299999999892
21
-114.332419999999999
0
LINE
8
BLACK
6
CONTINUOUS
10
129.7511299999999892
20
-114.332419999999999
11
129.7619929999999897
21
-114.2583009999999888
0
LINE
8
BLACK
6
CONTINUOUS
10
129.7619929999999897
20
-114.2583009999999888
11
129.7865520000000004
21
-114.1890219999999943
0
LINE
8
BLACK
6
CONTINUOUS
10
129.7865520000000004
20
-114.1890219999999943
11
129.8090159999999855
21
-114.1441609999999969
0
LINE
8
BLACK
6
CONTINUOUS
10
129.8090159999999855
20
-114.1441609999999969
11
129.8505169999999964
21
-114.082620999999989
0
LINE
8
BLACK
6
CONTINUOUS
10
129.8505169999999964
20
-114.082620999999989
11
129.906328000000002
21
-114.0280139999999989
0
LINE
8
BLACK
6
CONTINUOUS
10
129.906328000000002
20
-114.0280139999999989
11
129.9723489999999799
21
-113.9879019999999912
0
LINE
8
BLACK
6
CONTINUOUS
10
129.9723489999999799
20
-113.9879019999999912
11
129.9941460000000006
21
-113.9786950000000019
0
LINE
8
BLACK
6
CONTINUOUS
10
129.9941460000000006
20
-113.9786950000000019
11
130.0698229999999853
21
-113.9593319999999892
0
LINE
8
BLACK
6
CONTINUOUS
10
130.0698229999999853
20
-113.9593319999999892
11
130.1478520000000003
21
-113.958453999999989
0
LINE
8
BLACK
6
CONTINUOUS
10
130.1478520000000003
20
-113.958453999999989
11
130.220089999999999
21
-113.9734689999999944
0
LINE
8
BLACK
6
CONTINUOUS
10
130.220089999999999
20
-113.9734689999999944
11
130.2445929999999805
21
-113.9818009999999902
0
LINE
8
BLACK
6
CONTINUOUS
10
130.2445929999999805
20
-113.9818009999999902
11
130.3142839999999865
21
-114.0093559999999968
0
LINE
8
BLACK
6
CONTINUOUS
10
130.3142839999999865
20
-114.0093559999999968
11
130.3839119999999809
21
-114.0367999999999995
0
LINE
8
BLACK
6
CONTINUOUS
10
130.3839119999999809
20
-114.0367999999999995
11
130.4515229999999804
21
-114.0634119999999996
0
LINE
8
BLACK
6
CONTINUOUS
10
130.4515229999999804
20
-114.0634119999999996
11
130.5256669999999986
21
-114.0849369999999965
0
LINE
8
BLACK
6
CONTINUOUS
10
130.5256669999999986
20
-114.0849369999999965
11
130.5898289999999804
21
-114.0889729999999957
0
LINE
8
BLACK
6
CONTINUOUS
10
130.5898289999999804
20
-114.0889729999999957
11
130.6548829999999839
21
-114.0538479999999879
0
LINE
8
BLACK
6
CONTINUOUS
10
130.6548829999999839
20
-114.0538479999999879
11
130.6761319999999955
21
-114.0262259999999941
0
LINE
8
BLACK
6
CONTINUOUS
10
130.6761319999999955
20
-114.0262259999999941
11
130.6899699999999882
21
-113.9542560000000009
0
LINE
8
BLACK
6
CONTINUOUS
10
130.6899699999999882
20
-113.9542560000000009
11
130.6467659999999853
21
-113.8895939999999882
0
LINE
8
BLACK
6
CONTINUOUS
10
130.6467659999999853
20
-113.8895939999999882
11
130.581766999999985
21
-113.8433549999999883
0
LINE
8
BLACK
6
CONTINUOUS
10
130.581766999999985
20
-113.8433549999999883
11
130.5716539999999952
21
-113.8376209999999986
0
LINE
8
BLACK
6
CONTINUOUS
10
130.5716539999999952
20
-113.8376209999999986
11
130.4998549999999966
21
-113.8080849999999913
0
LINE
8
BLACK
6
CONTINUOUS
10
130.4998549999999966
20
-113.8080849999999913
11
130.4266669999999806
21
-113.8043779999999998
0
LINE
8
BLACK
6
CONTINUOUS
10
130.4266669999999806
20
-113.8043779999999998
11
130.355639999999994
21
-113.8385210000000001
0
LINE
8
BLACK
6
CONTINUOUS
10
130.355639999999994
20
-113.8385210000000001
11
130.3025559999999814
21
-113.9029259999999937
0
LINE
8
BLACK
6
CONTINUOUS
10
130.3025559999999814
20
-113.9029259999999937
11
130.0583890000000054
21
-113.7675819999999902
0
LINE
8
BLACK
6
CONTINUOUS
10
130.0583890000000054
20
-113.7675819999999902
11
130.1064939999999979
21
-113.6986359999999934
0
LINE
8
BLACK
6
CONTINUOUS
10
130.1064939999999979
20
-113.6986359999999934
11
130.1584149999999909
21
-113.6432709999999986
0
LINE
8
BLACK
6
CONTINUOUS
10
130.1584149999999909
20
-113.6432709999999986
11
130.2224290000000053
21
-113.596626999999998
0
LINE
8
BLACK
6
CONTINUOUS
10
130.2224290000000053
20
-113.596626999999998
11
130.2914269999999988
21
-113.5677209999999917
0
LINE
8
BLACK
6
CONTINUOUS
10
130.2914269999999988
20
-113.5677209999999917
11
130.3094559999999831
21
-113.5632659999999987
0
LINE
8
BLACK
6
CONTINUOUS
10
130.3094559999999831
20
-113.5632659999999987
11
130.3864169999999945
21
-113.5568119999999936
0
LINE
8
BLACK
6
CONTINUOUS
10
130.3864169999999945
20
-113.5568119999999936
11
130.4602769999999907
21
-113.5662899999999951
0
LINE
8
BLACK
6
CONTINUOUS
10
131.186335999999983
20
-115.2519449999999921
11
131.11454599999999
21
-115.227722
0
LINE
8
BLACK
6
CONTINUOUS
10
131.11454599999999
20
-115.227722
11
131.0455010000000016
21
-115.1982079999999939
0
LINE
8
BLACK
6
CONTINUOUS
10
131.0455010000000016
20
-115.1982079999999939
11
131.0120819999999924
21
-115.1809059999999931
0
LINE
8
BLACK
6
CONTINUOUS
10
131.0120819999999924
20
-115.1809059999999931
11
130.9473959999999977
21
-115.1344469999999944
0
LINE
8
BLACK
6
CONTINUOUS
10
130.9473959999999977
20
-115.1344469999999944
11
130.8994509999999991
21
-115.0760619999999932
0
LINE
8
BLACK
6
CONTINUOUS
10
130.8994509999999991
20
-115.0760619999999932
11
130.8767890000000023
21
-115.0305129999999991
0
LINE
8
BLACK
6
CONTINUOUS
10
130.8767890000000023
20
-115.0305129999999991
11
130.8599130000000059
21
-114.9547859999999986
0
LINE
8
BLACK
6
CONTINUOUS
10
130.8599130000000059
20
-114.9547859999999986
11
130.8719289999999944
21
-114.8793000000000006
0
LINE
8
BLACK
6
CONTINUOUS
10
130.8719289999999944
20
-114.8793000000000006
11
130.8838089999999852
21
-114.853864999999999
0
LINE
8
BLACK
6
CONTINUOUS
10
130.8838089999999852
20
-114.853864999999999
11
131.2299840000000017
21
-114.2293480000000017
0
LINE
8
BLACK
6
CONTINUOUS
10
131.2299840000000017
20
-114.2293480000000017
11
131.1030939999999987
21
-114.1590119999999899
0
LINE
8
BLACK
6
CONTINUOUS
10
131.1030939999999987
20
-114.1590119999999899
11
131.2054019999999923
21
-113.9744449999999887
0
LINE
8
BLACK
6
CONTINUOUS
10
131.2054019999999923
20
-113.9744449999999887
11
131.3322919999999954
21
-114.0447810000000004
0
LINE
8
BLACK
6
CONTINUOUS
10
131.3322919999999954
20
-114.0447810000000004
11
131.4800689999999861
21
-113.778183999999996
0
LINE
8
BLACK
6
CONTINUOUS
10
131.4800689999999861
20
-113.778183999999996
11
131.7370530000000031
21
-113.9206319999999977
0
LINE
8
BLACK
6
CONTINUOUS
10
131.7370530000000031
20
-113.9206319999999977
11
131.5892759999999839
21
-114.1872299999999996
0
LINE
8
BLACK
6
CONTINUOUS
10
131.5892759999999839
20
-114.1872299999999996
11
131.7325079999999957
21
-114.2666239999999931
0
LINE
8
BLACK
6
CONTINUOUS
10
131.7325079999999957
20
-114.2666239999999931
11
131.6302009999999996
21
-114.4511919999999918
0
LINE
8
BLACK
6
CONTINUOUS
10
131.6302009999999996
20
-114.4511919999999918
11
131.4869689999999878
21
-114.3717970000000008
0
LINE
8
BLACK
6
CONTINUOUS
10
131.4869689999999878
20
-114.3717970000000008
11
131.1603309999999851
21
-114.9610669999999999
0
LINE
8
BLACK
6
CONTINUOUS
10
131.1603309999999851
20
-114.9610669999999999
11
131.1728640000000041
21
-115.0345379999999977
0
LINE
8
BLACK
6
CONTINUOUS
10
131.1728640000000041
20
-115.0345379999999977
11
131.2152659999999855
21
-115.0652410000000003
0
LINE
8
BLACK
6
CONTINUOUS
10
131.2152659999999855
20
-115.0652410000000003
11
131.2744339999999852
21
-115.0930120000000016
0
LINE
8
BLACK
6
CONTINUOUS
10
131.2744339999999852
20
-115.0930120000000016
11
131.186335999999983
21
-115.2519449999999921
0
LINE
8
BLACK
6
CONTINUOUS
10
132.1080560000000048
20
-114.4831829999999968
11
132.1869219999999814
21
-114.503194999999991
0
LINE
8
BLACK
6
CONTINUOUS
10
132.1869219999999814
20
-114.503194999999991
11
132.2674710000000005
21
-114.5370689999999883
0
LINE
8
BLACK
6
CONTINUOUS
10
132.2674710000000005
20
-114.5370689999999883
11
132.2946939999999927
21
-114.5514399999999995
0
LINE
8
BLACK
6
CONTINUOUS
10
132.2946939999999927
20
-114.5514399999999995
11
132.3573389999999961
21
-114.5907059999999973
0
LINE
8
BLACK
6
CONTINUOUS
10
132.3573389999999961
20
-114.5907059999999973
11
132.4221029999999928
21
-114.6440410000000014
0
LINE
8
BLACK
6
CONTINUOUS
10
132.4221029999999928
20
-114.6440410000000014
11
132.4755079999999907
21
-114.704156999999995
0
LINE
8
BLACK
6
CONTINUOUS
10
132.4755079999999907
20
-114.704156999999995
11
132.5175559999999848
21
-114.7710549999999898
0
LINE
8
BLACK
6
CONTINUOUS
10
132.5175559999999848
20
-114.7710549999999898
11
132.548246000000006
21
-114.8447339999999883
0
LINE
8
BLACK
6
CONTINUOUS
10
132.548246000000006
20
-114.8447339999999883
11
132.5593319999999835
21
-114.8841159999999917
0
LINE
8
BLACK
6
CONTINUOUS
10
132.5593319999999835
20
-114.8841159999999917
11
132.5723439999999869
21
-114.9651669999999939
0
LINE
8
BLACK
6
CONTINUOUS
10
132.5723439999999869
20
-114.9651669999999939
11
132.5727129999999931
21
-115.0473980000000012
0
LINE
8
BLACK
6
CONTINUOUS
10
132.5727129999999931
20
-115.0473980000000012
11
132.5604419999999948
21
-115.1308089999999993
0
LINE
8
BLACK
6
CONTINUOUS
10
132.5604419999999948
20
-115.1308089999999993
11
132.5355279999999993
21
-115.2154019999999974
0
LINE
8
BLACK
6
CONTINUOUS
10
132.5355279999999993
20
-115.2154019999999974
11
132.5051100000000019
21
-115.2867969999999929
0
LINE
8
BLACK
6
CONTINUOUS
10
132.5051100000000019
20
-115.2867969999999929
11
132.4826459999999884
21
-115.3300270000000012
0
LINE
8
BLACK
6
CONTINUOUS
10
132.4826459999999884
20
-115.3300270000000012
11
132.4427909999999997
21
-115.3934469999999948
0
LINE
8
BLACK
6
CONTINUOUS
10
132.4427909999999997
20
-115.3934469999999948
11
132.4335049999999967
21
-115.4058330000000012
0
LINE
8
BLACK
6
CONTINUOUS
10
132.4335049999999967
20
-115.4058330000000012
11
131.774060999999989
21
-115.0402979999999928
0
LINE
8
BLACK
6
CONTINUOUS
10
131.774060999999989
20
-115.0402979999999928
11
131.7547280000000001
21
-115.0668620000000004
0
LINE
8
BLACK
6
CONTINUOUS
10
131.7547280000000001
20
-115.0668620000000004
11
131.7311619999999834
21
-115.1367139999999978
0
LINE
8
BLACK
6
CONTINUOUS
10
131.7311619999999834
20
-115.1367139999999978
11
131.7388080000000059
21
-115.2128839999999883
0
LINE
8
BLACK
6
CONTINUOUS
10
131.7388080000000059
20
-115.2128839999999883
11
131.744419999999991
21
-115.2282829999999905
0
LINE
8
BLACK
6
CONTINUOUS
10
131.744419999999991
20
-115.2282829999999905
11
131.7860090000000071
21
-115.2948609999999974
0
LINE
8
BLACK
6
CONTINUOUS
10
131.7860090000000071
20
-115.2948609999999974
11
131.8411099999999863
21
-115.3433109999999999
0
LINE
8
BLACK
6
CONTINUOUS
10
131.8411099999999863
20
-115.3433109999999999
11
131.875394
21
-115.3645530000000008
0
LINE
8
BLACK
6
CONTINUOUS
10
131.875394
20
-115.3645530000000008
11
131.9447130000000072
21
-115.3941109999999952
0
LINE
8
BLACK
6
CONTINUOUS
10
131.9447130000000072
20
-115.3941109999999952
11
132.007914999999997
21
-115.4065949999999958
0
LINE
8
BLACK
6
CONTINUOUS
10
132.007914999999997
20
-115.4065949999999958
11
132.082667999999984
21
-115.3985500000000002
0
LINE
8
BLACK
6
CONTINUOUS
10
132.082667999999984
20
-115.3985500000000002
11
132.0991730000000075
21
-115.3893209999999954
0
LINE
8
BLACK
6
CONTINUOUS
10
132.0991730000000075
20
-115.3893209999999954
11
132.3564779999999814
21
-115.5319469999999882
0
LINE
8
BLACK
6
CONTINUOUS
10
132.3564779999999814
20
-115.5319469999999882
11
132.2899270000000058
21
-115.5796979999999934
0
LINE
8
BLACK
6
CONTINUOUS
10
132.2899270000000058
20
-115.5796979999999934
11
132.2173510000000078
21
-115.6153649999999971
0
LINE
8
BLACK
6
CONTINUOUS
10
132.2173510000000078
20
-115.6153649999999971
11
132.13874899999999
21
-115.6389479999999992
0
LINE
8
BLACK
6
CONTINUOUS
10
132.13874899999999
20
-115.6389479999999992
11
132.0650300000000072
21
-115.6496700000000004
0
LINE
8
BLACK
6
CONTINUOUS
10
132.0650300000000072
20
-115.6496700000000004
11
132.0541230000000041
21
-115.6504469999999998
0
LINE
8
BLACK
6
CONTINUOUS
10
132.0541230000000041
20
-115.6504469999999998
11
131.9781739999999957
21
-115.6504580000000004
0
LINE
8
BLACK
6
CONTINUOUS
10
131.9781739999999957
20
-115.6504580000000004
11
131.9036979999999915
21
-115.6409429999999929
0
LINE
8
BLACK
6
CONTINUOUS
10
131.9036979999999915
20
-115.6409429999999929
11
131.8306949999999915
21
-115.6218999999999966
0
LINE
8
BLACK
6
CONTINUOUS
10
131.8306949999999915
20
-115.6218999999999966
11
131.7591639999999984
21
-115.5933319999999895
0
LINE
8
BLACK
6
CONTINUOUS
10
131.7591639999999984
20
-115.5933319999999895
11
131.7189500000000066
21
-115.5727289999999954
0
LINE
8
BLACK
6
CONTINUOUS
10
131.7189500000000066
20
-115.5727289999999954
11
131.6562749999999937
21
-115.5329660000000018
0
LINE
8
BLACK
6
CONTINUOUS
10
131.6562749999999937
20
-115.5329660000000018
11
131.5936049999999966
21
-115.4796759999999978
0
LINE
8
BLACK
6
CONTINUOUS
10
131.5936049999999966
20
-115.4796759999999978
11
131.5421900000000051
21
-115.4189529999999877
0
LINE
8
BLACK
6
CONTINUOUS
10
131.5421900000000051
20
-115.4189529999999877
11
131.5020309999999881
21
-115.3507999999999925
0
LINE
8
BLACK
6
CONTINUOUS
10
131.5020309999999881
20
-115.3507999999999925
11
131.4802359999999908
21
-115.2975689999999958
0
LINE
8
BLACK
6
CONTINUOUS
10
131.4802359999999908
20
-115.2975689999999958
11
131.460218999999995
21
-115.2173429999999996
0
LINE
8
BLACK
6
CONTINUOUS
10
131.460218999999995
20
-115.2173429999999996
11
131.4548169999999914
21
-115.1348209999999881
0
LINE
8
BLACK
6
CONTINUOUS
10
131.4548169999999914
20
-115.1348209999999881
11
131.4640300000000082
21
-115.0500029999999896
0
LINE
8
BLACK
6
CONTINUOUS
10
131.4640300000000082
20
-115.0500029999999896
11
131.4828709999999887
21
-114.9775679999999909
0
LINE
8
BLACK
6
CONTINUOUS
10
131.4828709999999887
20
-114.9775679999999909
11
131.5118609999999819
21
-114.903538999999995
0
LINE
8
BLACK
6
CONTINUOUS
10
131.5118609999999819
20
-114.903538999999995
11
131.536012999999997
21
-114.8557299999999941
0
LINE
8
BLACK
6
CONTINUOUS
10
131.536012999999997
20
-114.8557299999999941
11
131.8763679999999852
21
-114.8557299999999941
0
LINE
8
BLACK
6
CONTINUOUS
10
131.8763679999999852
20
-114.8557299999999941
11
132.2695349999999905
21
-115.0736659999999887
0
LINE
8
BLACK
6
CONTINUOUS
10
132.2695349999999905
20
-115.0736659999999887
11
132.2965370000000007
21
-114.9946199999999976
0
LINE
8
BLACK
6
CONTINUOUS
10
132.2965370000000007
20
-114.9946199999999976
11
132.2955800000000011
21
-114.9149209999999925
0
LINE
8
BLACK
6
CONTINUOUS
10
132.2955800000000011
20
-114.9149209999999925
11
132.2606869999999901
21
-114.8465699999999998
0
LINE
8
BLACK
6
CONTINUOUS
10
132.2606869999999901
20
-114.8465699999999998
11
132.2023159999999962
21
-114.7960719999999952
0
LINE
8
BLACK
6
CONTINUOUS
10
132.2023159999999962
20
-114.7960719999999952
11
132.1808659999999804
21
-114.7832389999999947
0
LINE
8
BLACK
6
CONTINUOUS
10
132.1808659999999804
20
-114.7832389999999947
11
132.1040869999999927
21
-114.7522249999999957
0
LINE
8
BLACK
6
CONTINUOUS
10
132.1040869999999927
20
-114.7522249999999957
11
132.0233139999999992
21
-114.7489209999999957
0
LINE
8
BLACK
6
CONTINUOUS
10
132.0233139999999992
20
-114.7489209999999957
11
131.9499789999999848
21
-114.7798999999999978
0
LINE
8
BLACK
6
CONTINUOUS
10
131.9499789999999848
20
-114.7798999999999978
11
131.8919119999999907
21
-114.8351299999999924
0
LINE
8
BLACK
6
CONTINUOUS
10
131.8919119999999907
20
-114.8351299999999924
11
131.8763679999999852
21
-114.8557299999999941
0
LINE
8
BLACK
6
CONTINUOUS
10
131.8763679999999852
20
-114.8557299999999941
11
131.536012999999997
21
-114.8557299999999941
0
LINE
8
BLACK
6
CONTINUOUS
10
131.536012999999997
20
-114.8557299999999941
11
131.5423600000000022
21
-114.843166999999994
0
LINE
8
BLACK
6
CONTINUOUS
10
131.5423600000000022
20
-114.843166999999994
11
131.5888099999999952
21
-114.7660849999999897
0
LINE
8
BLACK
6
CONTINUOUS
10
131.5888099999999952
20
-114.7660849999999897
11
131.6376850000000047
21
-114.6980590000000007
0
LINE
8
BLACK
6
CONTINUOUS
10
131.6376850000000047
20
-114.6980590000000007
11
131.6889859999999999
21
-114.639088000000001
0
LINE
8
BLACK
6
CONTINUOUS
10
131.6889859999999999
20
-114.639088000000001
11
131.7427119999999832
21
-114.5891729999999882
0
LINE
8
BLACK
6
CONTINUOUS
10
131.7427119999999832
20
-114.5891729999999882
11
131.8103849999999966
21
-114.5412269999999921
0
LINE
8
BLACK
6
CONTINUOUS
10
131.8103849999999966
20
-114.5412269999999921
11
131.8815510000000017
21
-114.5063219999999973
0
LINE
8
BLACK
6
CONTINUOUS
10
131.8815510000000017
20
-114.5063219999999973
11
131.9553709999999853
21
-114.4847469999999987
0
LINE
8
BLACK
6
CONTINUOUS
10
131.9553709999999853
20
-114.4847469999999987
11
132.030871999999988
21
-114.4770339999999891
0
LINE
8
BLACK
6
CONTINUOUS
10
132.030871999999988
20
-114.4770339999999891
11
132.1080560000000048
21
-114.4831829999999968
0
LINE
8
BLACK
6
CONTINUOUS
10
133.2713159999999846
20
-114.9319399999999973
11
133.0140109999999822
21
-114.7893129999999928
0
LINE
8
BLACK
6
CONTINUOUS
10
133.0140109999999822
20
-114.7893129999999928
11
133.1390529999999899
21
-114.56373099999999
0
LINE
8
BLACK
6
CONTINUOUS
10
133.1390529999999899
20
-114.56373099999999
11
133.3963579999999922
21
-114.706356999999997
0
LINE
8
BLACK
6
CONTINUOUS
10
133.3963579999999922
20
-114.706356999999997
11
133.2713159999999846
21
-114.9319399999999973
0
LINE
8
BLACK
6
CONTINUOUS
10
132.6347370000000012
20
-116.0803590000000014
11
132.3774319999999989
21
-115.9377319999999969
0
LINE
8
BLACK
6
CONTINUOUS
10
132.3774319999999989
20
-115.9377319999999969
11
132.9458060000000046
21
-114.9123579999999976
0
LINE
8
BLACK
6
CONTINUOUS
10
132.9458060000000046
20
-114.9123579999999976
11
133.2031110000000069
21
-115.0549839999999904
0
LINE
8
BLACK
6
CONTINUOUS
10
133.2031110000000069
20
-115.0549839999999904
11
132.6347370000000012
21
-116.0803590000000014
0
LINE
8
BLACK
6
CONTINUOUS
10
133.6658789999999897
20
-116.651929999999993
11
133.390309000000002
21
-116.499178999999998
0
LINE
8
BLACK
6
CONTINUOUS
10
133.390309000000002
20
-116.499178999999998
11
134.1519309999999905
21
-115.1251779999999911
0
LINE
8
BLACK
6
CONTINUOUS
10
134.1519309999999905
20
-115.1251779999999911
11
134.4274999999999807
21
-115.2779279999999886
0
LINE
8
BLACK
6
CONTINUOUS
10
134.4274999999999807
20
-115.2779279999999886
11
133.6658789999999897
21
-116.651929999999993
0
LINE
8
BLACK
6
CONTINUOUS
10
134.7096850000000074
20
-115.9236059999999924
11
134.7931879999999865
21
-115.9473219999999998
0
LINE
8
BLACK
6
CONTINUOUS
10
134.7931879999999865
20
-115.9473219999999998
11
134.8643799999999828
21
-115.9773799999999966
0
LINE
8
BLACK
6
CONTINUOUS
10
134.8643799999999828
20
-115.9773799999999966
11
134.9077959999999905
21
-115.9999059999999957
0
LINE
8
BLACK
6
CONTINUOUS
10
134.9077959999999905
20
-115.9999059999999957
11
134.9758579999999881
21
-116.0419699999999921
0
LINE
8
BLACK
6
CONTINUOUS
10
134.9758579999999881
20
-116.0419699999999921
11
135.0352529999999831
21
-116.0879019999999997
0
LINE
8
BLACK
6
CONTINUOUS
10
135.0352529999999831
20
-116.0879019999999997
11
135.0950839999999857
21
-116.1481239999999957
0
LINE
8
BLACK
6
CONTINUOUS
10
135.0950839999999857
20
-116.1481239999999957
11
135.1424329999999827
21
-116.2139150000000001
0
LINE
8
BLACK
6
CONTINUOUS
10
135.1424329999999827
20
-116.2139150000000001
11
135.1773000000000025
21
-116.2852749999999986
0
LINE
8
BLACK
6
CONTINUOUS
10
135.1773000000000025
20
-116.2852749999999986
11
135.1936100000000067
21
-116.3359430000000003
0
LINE
8
BLACK
6
CONTINUOUS
10
135.1936100000000067
20
-116.3359430000000003
11
135.2073689999999999
21
-116.414874999999995
0
LINE
8
BLACK
6
CONTINUOUS
10
135.2073689999999999
20
-116.414874999999995
11
135.207903999999985
21
-116.4961959999999976
0
LINE
8
BLACK
6
CONTINUOUS
10
135.207903999999985
20
-116.4961959999999976
11
135.1952159999999878
21
-116.5799069999999915
0
LINE
8
BLACK
6
CONTINUOUS
10
135.1952159999999878
20
-116.5799069999999915
11
135.1745410000000049
21
-116.6514909999999929
0
LINE
8
BLACK
6
CONTINUOUS
10
135.1745410000000049
20
-116.6514909999999929
11
135.1446839999999838
21
-116.7247349999999955
0
LINE
8
BLACK
6
CONTINUOUS
10
135.1446839999999838
20
-116.7247349999999955
11
135.1141859999999895
21
-116.7845249999999879
0
LINE
8
BLACK
6
CONTINUOUS
10
135.1141859999999895
20
-116.7845249999999879
11
135.0700730000000078
21
-116.8565429999999878
0
LINE
8
BLACK
6
CONTINUOUS
10
135.0700730000000078
20
-116.8565429999999878
11
135.0225460000000055
21
-116.9195909999999969
0
LINE
8
BLACK
6
CONTINUOUS
10
135.0225460000000055
20
-116.9195909999999969
11
134.971603999999985
21
-116.973670999999996
0
LINE
8
BLACK
6
CONTINUOUS
10
134.971603999999985
20
-116.973670999999996
11
134.9059680000000014
21
-117.0267259999999965
0
LINE
8
BLACK
6
CONTINUOUS
10
134.9059680000000014
20
-117.0267259999999965
11
134.8354159999999808
21
-117.0668659999999903
0
LINE
8
BLACK
6
CONTINUOUS
10
134.8354159999999808
20
-117.0668659999999903
11
134.7728669999999909
21
-117.0904499999999899
0
LINE
8
BLACK
6
CONTINUOUS
10
134.7728669999999909
20
-117.0904499999999899
11
134.69459599999999
21
-117.1065679999999958
0
LINE
8
BLACK
6
CONTINUOUS
10
134.69459599999999
20
-117.1065679999999958
11
134.6139969999999835
21
-117.1090839999999957
0
LINE
8
BLACK
6
CONTINUOUS
10
134.6139969999999835
20
-117.1090839999999957
11
134.5310709999999972
21
-117.097999999999999
0
LINE
8
BLACK
6
CONTINUOUS
10
134.5310709999999972
20
-117.097999999999999
11
134.4601889999999855
21
-117.0783729999999991
0
LINE
8
BLACK
6
CONTINUOUS
10
134.4601889999999855
20
-117.0783729999999991
11
134.3876899999999921
21
-117.0492999999999881
0
LINE
8
BLACK
6
CONTINUOUS
10
134.3876899999999921
20
-117.0492999999999881
11
134.3285269999999798
21
-117.0192419999999913
0
LINE
8
BLACK
6
CONTINUOUS
10
134.3285269999999798
20
-117.0192419999999913
11
134.2632969999999943
21
-116.978634999999997
0
LINE
8
BLACK
6
CONTINUOUS
10
134.2632969999999943
20
-116.978634999999997
11
134.1960100000000011
21
-116.9242549999999881
0
LINE
8
BLACK
6
CONTINUOUS
10
134.1960100000000011
20
-116.9242549999999881
11
134.1407130000000052
21
-116.8637090000000001
0
LINE
8
BLACK
6
CONTINUOUS
10
134.1407130000000052
20
-116.8637090000000001
11
134.0974039999999832
21
-116.7969959999999929
0
LINE
8
BLACK
6
CONTINUOUS
10
134.0974039999999832
20
-116.7969959999999929
11
134.0660839999999894
21
-116.7241159999999951
0
LINE
8
BLACK
6
CONTINUOUS
10
134.0660839999999894
20
-116.7241159999999951
11
134.0549199999999814
21
-116.6853639999999928
0
LINE
8
BLACK
6
CONTINUOUS
10
134.0549199999999814
20
-116.6853639999999928
11
134.0422059999999931
21
-116.6053179999999969
0
LINE
8
BLACK
6
CONTINUOUS
10
134.0422059999999931
20
-116.6053179999999969
11
134.0423899999999833
21
-116.5510249999999957
0
LINE
8
BLACK
6
CONTINUOUS
10
134.0423899999999833
20
-116.5510249999999957
11
134.3386569999999836
21
-116.5510249999999957
0
LINE
8
BLACK
6
CONTINUOUS
10
134.3386569999999836
20
-116.5510249999999957
11
134.3456999999999937
21
-116.6308209999999974
0
LINE
8
BLACK
6
CONTINUOUS
10
134.3456999999999937
20
-116.6308209999999974
11
134.3715569999999957
21
-116.7038209999999907
0
LINE
8
BLACK
6
CONTINUOUS
10
134.3715569999999957
20
-116.7038209999999907
11
134.4192280000000039
21
-116.7664719999999932
0
LINE
8
BLACK
6
CONTINUOUS
10
134.4192280000000039
20
-116.7664719999999932
11
134.468309000000005
21
-116.8018299999999954
0
LINE
8
BLACK
6
CONTINUOUS
10
134.468309000000005
20
-116.8018299999999954
11
134.5385530000000074
21
-116.8284909999999996
0
LINE
8
BLACK
6
CONTINUOUS
10
134.5385530000000074
20
-116.8284909999999996
11
134.6171229999999923
21
-116.8306520000000006
0
LINE
8
BLACK
6
CONTINUOUS
10
134.6171229999999923
20
-116.8306520000000006
11
134.677379000000002
21
-116.8138359999999949
0
LINE
8
BLACK
6
CONTINUOUS
10
134.677379000000002
20
-116.8138359999999949
11
134.7474339999999984
21
-116.7739319999999879
0
LINE
8
BLACK
6
CONTINUOUS
10
134.7474339999999984
20
-116.7739319999999879
11
134.8030839999999841
21
-116.7210019999999986
0
LINE
8
BLACK
6
CONTINUOUS
10
134.8030839999999841
20
-116.7210019999999986
11
134.8466259999999863
21
-116.659805999999989
0
LINE
8
BLACK
6
CONTINUOUS
10
134.8466259999999863
20
-116.659805999999989
11
134.8554599999999937
21
-116.6444619999999901
0
LINE
8
BLACK
6
CONTINUOUS
10
134.8554599999999937
20
-116.6444619999999901
11
134.8881700000000023
21
-116.5730789999999928
0
LINE
8
BLACK
6
CONTINUOUS
10
134.8881700000000023
20
-116.5730789999999928
11
134.9072630000000004
21
-116.4958599999999933
0
LINE
8
BLACK
6
CONTINUOUS
10
134.9072630000000004
20
-116.4958599999999933
11
134.9081979999999987
21
-116.4208489999999898
0
LINE
8
BLACK
6
CONTINUOUS
10
134.9081979999999987
20
-116.4208489999999898
11
134.9049379999999871
21
-116.3987750000000005
0
LINE
8
BLACK
6
CONTINUOUS
10
134.9049379999999871
20
-116.3987750000000005
11
134.8809129999999925
21
-116.3253599999999892
0
LINE
8
BLACK
6
CONTINUOUS
10
134.8809129999999925
20
-116.3253599999999892
11
134.8332259999999962
21
-116.2618159999999961
0
LINE
8
BLACK
6
CONTINUOUS
10
134.8332259999999962
20
-116.2618159999999961
11
134.7827529999999854
21
-116.2254889999999961
0
LINE
8
BLACK
6
CONTINUOUS
10
134.7827529999999854
20
-116.2254889999999961
11
134.7119380000000035
21
-116.1995009999999979
0
LINE
8
BLACK
6
CONTINUOUS
10
134.7119380000000035
20
-116.1995009999999979
11
134.6382789999999829
21
-116.1984659999999963
0
LINE
8
BLACK
6
CONTINUOUS
10
134.6382789999999829
20
-116.1984659999999963
11
134.5688490000000002
21
-116.2191809999999919
0
LINE
8
BLACK
6
CONTINUOUS
10
134.5688490000000002
20
-116.2191809999999919
11
134.5023050000000069
21
-116.2583319999999958
0
LINE
8
BLACK
6
CONTINUOUS
10
134.5023050000000069
20
-116.2583319999999958
11
134.4432620000000043
21
-116.3139129999999994
0
LINE
8
BLACK
6
CONTINUOUS
10
134.4432620000000043
20
-116.3139129999999994
11
134.396536999999995
21
-116.3779839999999979
0
LINE
8
BLACK
6
CONTINUOUS
10
134.396536999999995
20
-116.3779839999999979
11
134.3823119999999847
21
-116.4022980000000018
0
LINE
8
BLACK
6
CONTINUOUS
10
134.3823119999999847
20
-116.4022980000000018
11
134.3521769999999833
21
-116.4725289999999944
0
LINE
8
BLACK
6
CONTINUOUS
10
134.3521769999999833
20
-116.4725289999999944
11
134.3386569999999836
21
-116.5510249999999957
0
LINE
8
BLACK
6
CONTINUOUS
10
134.3386569999999836
20
-116.5510249999999957
11
134.0423899999999833
21
-116.5510249999999957
0
LINE
8
BLACK
6
CONTINUOUS
10
134.0423899999999833
20
-116.5510249999999957
11
134.0424849999999992
21
-116.5231379999999888
0
LINE
8
BLACK
6
CONTINUOUS
10
134.0424849999999992
20
-116.5231379999999888
11
134.0557579999999973
21
-116.4388229999999993
0
LINE
8
BLACK
6
CONTINUOUS
10
134.0557579999999973
20
-116.4388229999999993
11
134.0767449999999883
21
-116.3669309999999939
0
LINE
8
BLACK
6
CONTINUOUS
10
134.0767449999999883
20
-116.3669309999999939
11
134.1067549999999926
21
-116.2935569999999927
0
LINE
8
BLACK
6
CONTINUOUS
10
134.1067549999999926
20
-116.2935569999999927
11
134.1372590000000002
21
-116.2337899999999991
0
LINE
8
BLACK
6
CONTINUOUS
10
134.1372590000000002
20
-116.2337899999999991
11
134.1801759999999888
21
-116.1637640000000005
0
LINE
8
BLACK
6
CONTINUOUS
10
134.1801759999999888
20
-116.1637640000000005
11
134.2265569999999855
21
-116.1022849999999949
0
LINE
8
BLACK
6
CONTINUOUS
10
134.2265569999999855
20
-116.1022849999999949
11
134.2867870000000039
21
-116.0397919999999914
0
LINE
8
BLACK
6
CONTINUOUS
10
134.2867870000000039
20
-116.0397919999999914
11
134.3520049999999912
21
-115.9896069999999924
0
LINE
8
BLACK
6
CONTINUOUS
10
134.3520049999999912
20
-115.9896069999999924
11
134.4222110000000043
21
-115.9517299999999977
0
LINE
8
BLACK
6
CONTINUOUS
10
134.4222110000000043
20
-115.9517299999999977
11
134.4717870000000062
21
-115.9333159999999907
0
LINE
8
BLACK
6
CONTINUOUS
10
134.4717870000000062
20
-115.9333159999999907
11
134.5489839999999901
21
-115.9166029999999949
0
LINE
8
BLACK
6
CONTINUOUS
10
134.5489839999999901
20
-115.9166029999999949
11
134.6282829999999819
21
-115.9133659999999963
0
LINE
8
BLACK
6
CONTINUOUS
10
134.6282829999999819
20
-115.9133659999999963
11
134.7096850000000074
21
-115.9236059999999924
0
LINE
8
BLACK
6
CONTINUOUS
10
135.9092049999999858
20
-117.8954260000000005
11
135.6518999999999835
21
-117.752798999999996
0
LINE
8
BLACK
6
CONTINUOUS
10
135.6518999999999835
20
-117.752798999999996
11
136.0293360000000007
21
-117.0718869999999896
0
LINE
8
BLACK
6
CONTINUOUS
10
136.0293360000000007
20
-117.0718869999999896
11
136.044035000000008
21
-116.9988299999999981
0
LINE
8
BLACK
6
CONTINUOUS
10
136.044035000000008
20
-116.9988299999999981
11
136.0316489999999874
21
-116.9596509999999938
0
LINE
8
BLACK
6
CONTINUOUS
10
136.0316489999999874
20
-116.9596509999999938
11
135.9839179999999885
21
-116.8993229999999954
0
LINE
8
BLACK
6
CONTINUOUS
10
135.9839179999999885
20
-116.8993229999999954
11
135.9244429999999966
21
-116.8583379999999892
0
LINE
8
BLACK
6
CONTINUOUS
10
135.9244429999999966
20
-116.8583379999999892
11
135.8548710000000028
21
-116.8296589999999924
0
LINE
8
BLACK
6
CONTINUOUS
10
135.8548710000000028
20
-116.8296589999999924
11
135.780980999999997
21
-116.8214589999999902
0
LINE
8
BLACK
6
CONTINUOUS
10
135.780980999999997
20
-116.8214589999999902
11
135.7548510000000022
21
-116.824231999999995
0
LINE
8
BLACK
6
CONTINUOUS
10
135.7548510000000022
20
-116.824231999999995
11
135.6829079999999976
21
-116.8520029999999963
0
LINE
8
BLACK
6
CONTINUOUS
10
135.6829079999999976
20
-116.8520029999999963
11
135.633230999999995
21
-116.9076149999999927
0
LINE
8
BLACK
6
CONTINUOUS
10
135.633230999999995
20
-116.9076149999999927
11
135.2792409999999848
21
-117.5462309999999917
0
LINE
8
BLACK
6
CONTINUOUS
10
135.2792409999999848
20
-117.5462309999999917
11
135.0219359999999824
21
-117.4036049999999989
0
LINE
8
BLACK
6
CONTINUOUS
10
135.0219359999999824
20
-117.4036049999999989
11
135.5903099999999881
21
-116.3782299999999879
0
LINE
8
BLACK
6
CONTINUOUS
10
135.5903099999999881
20
-116.3782299999999879
11
135.8476149999999905
21
-116.5208569999999924
0
LINE
8
BLACK
6
CONTINUOUS
10
135.8476149999999905
20
-116.5208569999999924
11
135.7598720000000014
21
-116.6791489999999953
0
LINE
8
BLACK
6
CONTINUOUS
10
135.7598720000000014
20
-116.6791489999999953
11
135.8251239999999882
21
-116.6449949999999944
0
LINE
8
BLACK
6
CONTINUOUS
10
135.8251239999999882
20
-116.6449949999999944
11
135.9013119999999901
21
-116.6235719999999958
0
LINE
8
BLACK
6
CONTINUOUS
10
135.9013119999999901
20
-116.6235719999999958
11
135.9775669999999934
21
-116.6219899999999967
0
LINE
8
BLACK
6
CONTINUOUS
10
135.9775669999999934
20
-116.6219899999999967
11
136.0538880000000006
21
-116.6402479999999997
0
LINE
8
BLACK
6
CONTINUOUS
10
136.0538880000000006
20
-116.6402479999999997
11
136.108444999999989
21
-116.6654369999999972
0
LINE
8
BLACK
6
CONTINUOUS
10
136.108444999999989
20
-116.6654369999999972
11
136.1761280000000056
21
-116.7084270000000004
0
LINE
8
BLACK
6
CONTINUOUS
10
136.1761280000000056
20
-116.7084270000000004
11
136.2328239999999937
21
-116.7562700000000007
0
LINE
8
BLACK
6
CONTINUOUS
10
136.2328239999999937
20
-116.7562700000000007
11
136.2841630000000066
21
-116.8168900000000008
0
LINE
8
BLACK
6
CONTINUOUS
10
136.2841630000000066
20
-116.8168900000000008
11
136.3211499999999887
21
-116.8838489999999979
0
LINE
8
BLACK
6
CONTINUOUS
10
136.3211499999999887
20
-116.8838489999999979
11
136.3281549999999811
21
-116.9015799999999956
0
LINE
8
BLACK
6
CONTINUOUS
10
136.3281549999999811
20
-116.9015799999999956
11
136.3461369999999988
21
-116.9732810000000001
0
LINE
8
BLACK
6
CONTINUOUS
10
136.3461369999999988
20
-116.9732810000000001
11
136.3466689999999915
21
-117.0539149999999893
0
LINE
8
BLACK
6
CONTINUOUS
10
136.3466689999999915
20
-117.0539149999999893
11
136.3296320000000037
21
-117.1255649999999946
0
LINE
8
BLACK
6
CONTINUOUS
10
136.3296320000000037
20
-117.1255649999999946
11
136.3012060000000076
21
-117.1882379999999984
0
LINE
8
BLACK
6
CONTINUOUS
10
136.3012060000000076
20
-117.1882379999999984
11
135.9092049999999858
21
-117.8954260000000005
0
LINE
8
BLACK
6
CONTINUOUS
10
136.9016799999999989
20
-117.1403329999999983
11
136.9805460000000039
21
-117.1603439999999949
0
LINE
8
BLACK
6
CONTINUOUS
10
136.9805460000000039
20
-117.1603439999999949
11
137.0610949999999946
21
-117.1942179999999922
0
LINE
8
BLACK
6
CONTINUOUS
10
137.0610949999999946
20
-117.1942179999999922
11
137.0883179999999868
21
-117.2085900000000009
0
LINE
8
BLACK
6
CONTINUOUS
10
137.0883179999999868
20
-117.2085900000000009
11
137.1509629999999902
21
-117.2478550000000013
0
LINE
8
BLACK
6
CONTINUOUS
10
137.1509629999999902
20
-117.2478550000000013
11
137.2157269999999869
21
-117.3011899999999912
0
LINE
8
BLACK
6
CONTINUOUS
10
137.2157269999999869
20
-117.3011899999999912
11
137.2691319999999848
21
-117.3613069999999965
0
LINE
8
BLACK
6
CONTINUOUS
10
137.2691319999999848
20
-117.3613069999999965
11
137.3111800000000073
21
-117.4282039999999938
0
LINE
8
BLACK
6
CONTINUOUS
10
137.3111800000000073
20
-117.4282039999999938
11
137.3418700000000001
21
-117.5018829999999923
0
LINE
8
BLACK
6
CONTINUOUS
10
137.3418700000000001
20
-117.5018829999999923
11
137.352956000000006
21
-117.5412659999999931
0
LINE
8
BLACK
6
CONTINUOUS
10
137.352956000000006
20
-117.5412659999999931
11
137.365967999999981
21
-117.6223159999999979
0
LINE
8
BLACK
6
CONTINUOUS
10
137.365967999999981
20
-117.6223159999999979
11
137.3663369999999873
21
-117.7045469999999909
0
LINE
8
BLACK
6
CONTINUOUS
10
137.3663369999999873
20
-117.7045469999999909
11
137.3540659999999889
21
-117.7879590000000007
0
LINE
8
BLACK
6
CONTINUOUS
10
137.3540659999999889
20
-117.7879590000000007
11
137.3291519999999934
21
-117.8725510000000014
0
LINE
8
BLACK
6
CONTINUOUS
10
137.3291519999999934
20
-117.8725510000000014
11
137.2987339999999961
21
-117.9439459999999968
0
LINE
8
BLACK
6
CONTINUOUS
10
137.2987339999999961
20
-117.9439459999999968
11
137.2762699999999825
21
-117.9871759999999909
0
LINE
8
BLACK
6
CONTINUOUS
10
137.2762699999999825
20
-117.9871759999999909
11
137.2364149999999938
21
-118.0505959999999988
0
LINE
8
BLACK
6
CONTINUOUS
10
137.2364149999999938
20
-118.0505959999999988
11
137.2271289999999908
21
-118.0629829999999885
0
LINE
8
BLACK
6
CONTINUOUS
10
137.2271289999999908
20
-118.0629829999999885
11
136.5676849999999831
21
-117.6974469999999968
0
LINE
8
BLACK
6
CONTINUOUS
10
136.5676849999999831
20
-117.6974469999999968
11
136.5483519999999942
21
-117.7240109999999902
0
LINE
8
BLACK
6
CONTINUOUS
10
136.5483519999999942
20
-117.7240109999999902
11
136.524786000000006
21
-117.7938630000000018
0
LINE
8
BLACK
6
CONTINUOUS
10
136.524786000000006
20
-117.7938630000000018
11
136.532432
21
-117.8700329999999923
0
LINE
8
BLACK
6
CONTINUOUS
10
136.532432
20
-117.8700329999999923
11
136.5380439999999851
21
-117.8854319999999944
0
LINE
8
BLACK
6
CONTINUOUS
10
136.5380439999999851
20
-117.8854319999999944
11
136.5796330000000012
21
-117.9520100000000014
0
LINE
8
BLACK
6
CONTINUOUS
10
136.5796330000000012
20
-117.9520100000000014
11
136.6347339999999804
21
-118.0004599999999897
0
LINE
8
BLACK
6
CONTINUOUS
10
136.6347339999999804
20
-118.0004599999999897
11
136.6690179999999941
21
-118.021702999999988
0
LINE
8
BLACK
6
CONTINUOUS
10
136.6690179999999941
20
-118.021702999999988
11
136.7383370000000014
21
-118.0512599999999992
0
LINE
8
BLACK
6
CONTINUOUS
10
136.7383370000000014
20
-118.0512599999999992
11
136.8015389999999911
21
-118.0637439999999998
0
LINE
8
BLACK
6
CONTINUOUS
10
136.8015389999999911
20
-118.0637439999999998
11
136.8762920000000065
21
-118.0557000000000016
0
LINE
8
BLACK
6
CONTINUOUS
10
136.8762920000000065
20
-118.0557000000000016
11
136.8927970000000016
21
-118.0464699999999993
0
LINE
8
BLACK
6
CONTINUOUS
10
136.8927970000000016
20
-118.0464699999999993
11
137.150102000000004
21
-118.1890959999999922
0
LINE
8
BLACK
6
CONTINUOUS
10
137.150102000000004
20
-118.1890959999999922
11
137.0835509999999999
21
-118.2368469999999974
0
LINE
8
BLACK
6
CONTINUOUS
10
137.0835509999999999
20
-118.2368469999999974
11
137.010975000000002
21
-118.272514000000001
0
LINE
8
BLACK
6
CONTINUOUS
10
137.010975000000002
20
-118.272514000000001
11
136.9323729999999841
21
-118.296096999999989
0
LINE
8
BLACK
6
CONTINUOUS
10
136.9323729999999841
20
-118.296096999999989
11
136.8586540000000014
21
-118.3068189999999902
0
LINE
8
BLACK
6
CONTINUOUS
10
136.8586540000000014
20
-118.3068189999999902
11
136.8477469999999983
21
-118.3075959999999895
0
LINE
8
BLACK
6
CONTINUOUS
10
136.8477469999999983
20
-118.3075959999999895
11
136.7717979999999898
21
-118.3076069999999902
0
LINE
8
BLACK
6
CONTINUOUS
10
136.7717979999999898
20
-118.3076069999999902
11
136.6973219999999856
21
-118.2980919999999969
0
LINE
8
BLACK
6
CONTINUOUS
10
136.6973219999999856
20
-118.2980919999999969
11
136.6243189999999856
21
-118.279049999999998
0
LINE
8
BLACK
6
CONTINUOUS
10
136.6243189999999856
20
-118.279049999999998
11
136.5527879999999925
21
-118.2504809999999935
0
LINE
8
BLACK
6
CONTINUOUS
10
136.5527879999999925
20
-118.2504809999999935
11
136.5125740000000008
21
-118.2298789999999968
0
LINE
8
BLACK
6
CONTINUOUS
10
136.5125740000000008
20
-118.2298789999999968
11
136.4498989999999878
21
-118.1901149999999916
0
LINE
8
BLACK
6
CONTINUOUS
10
136.4498989999999878
20
-118.1901149999999916
11
136.3872289999999907
21
-118.1368250000000018
0
LINE
8
BLACK
6
CONTINUOUS
10
136.3872289999999907
20
-118.1368250000000018
11
136.3358139999999992
21
-118.0761019999999917
0
LINE
8
BLACK
6
CONTINUOUS
10
136.3358139999999992
20
-118.0761019999999917
11
136.2956549999999822
21
-118.0079489999999964
0
LINE
8
BLACK
6
CONTINUOUS
10
136.2956549999999822
20
-118.0079489999999964
11
136.2738599999999849
21
-117.9547179999999997
0
LINE
8
BLACK
6
CONTINUOUS
10
136.2738599999999849
20
-117.9547179999999997
11
136.2538429999999892
21
-117.8744919999999894
0
LINE
8
BLACK
6
CONTINUOUS
10
136.2538429999999892
20
-117.8744919999999894
11
136.2484409999999855
21
-117.7919699999999921
0
LINE
8
BLACK
6
CONTINUOUS
10
136.2484409999999855
20
-117.7919699999999921
11
136.2576540000000023
21
-117.7071519999999936
0
LINE
8
BLACK
6
CONTINUOUS
10
136.2576540000000023
20
-117.7071519999999936
11
136.2764949999999828
21
-117.6347169999999949
0
LINE
8
BLACK
6
CONTINUOUS
10
136.2764949999999828
20
-117.6347169999999949
11
136.3054850000000044
21
-117.560687999999999
0
LINE
8
BLACK
6
CONTINUOUS
10
136.3054850000000044
20
-117.560687999999999
11
136.3296369999999911
21
-117.5128799999999956
0
LINE
8
BLACK
6
CONTINUOUS
10
136.3296369999999911
20
-117.5128799999999956
11
136.6699920000000077
21
-117.5128799999999956
0
LINE
8
BLACK
6
CONTINUOUS
10
136.6699920000000077
20
-117.5128799999999956
11
137.0631589999999846
21
-117.7308159999999901
0
LINE
8
BLACK
6
CONTINUOUS
10
137.0631589999999846
20
-117.7308159999999901
11
137.0901609999999948
21
-117.6517690000000016
0
LINE
8
BLACK
6
CONTINUOUS
10
137.0901609999999948
20
-117.6517690000000016
11
137.0892039999999952
21
-117.5720699999999965
0
LINE
8
BLACK
6
CONTINUOUS
10
137.0892039999999952
20
-117.5720699999999965
11
137.0543109999999842
21
-117.5037189999999896
0
LINE
8
BLACK
6
CONTINUOUS
10
137.0543109999999842
20
-117.5037189999999896
11
136.9959399999999903
21
-117.4532209999999992
0
LINE
8
BLACK
6
CONTINUOUS
10
136.9959399999999903
20
-117.4532209999999992
11
136.974490000000003
21
-117.4403879999999987
0
LINE
8
BLACK
6
CONTINUOUS
10
136.974490000000003
20
-117.4403879999999987
11
136.8977109999999868
21
-117.4093749999999972
0
LINE
8
BLACK
6
CONTINUOUS
10
136.8977109999999868
20
-117.4093749999999972
11
136.8169379999999933
21
-117.4060709999999972
0
LINE
8
BLACK
6
CONTINUOUS
10
136.8169379999999933
20
-117.4060709999999972
11
136.7436030000000073
21
-117.4370489999999876
0
LINE
8
BLACK
6
CONTINUOUS
10
136.7436030000000073
20
-117.4370489999999876
11
136.6855359999999848
21
-117.4922789999999964
0
LINE
8
BLACK
6
CONTINUOUS
10
136.6855359999999848
20
-117.4922789999999964
11
136.6699920000000077
21
-117.5128799999999956
0
LINE
8
BLACK
6
CONTINUOUS
10
136.6699920000000077
20
-117.5128799999999956
11
136.3296369999999911
21
-117.5128799999999956
0
LINE
8
BLACK
6
CONTINUOUS
10
136.3296369999999911
20
-117.5128799999999956
11
136.3359839999999963
21
-117.500315999999998
0
LINE
8
BLACK
6
CONTINUOUS
10
136.3359839999999963
20
-117.500315999999998
11
136.3824339999999893
21
-117.4232349999999911
0
LINE
8
BLACK
6
CONTINUOUS
10
136.3824339999999893
20
-117.4232349999999911
11
136.4313089999999988
21
-117.3552079999999904
0
LINE
8
BLACK
6
CONTINUOUS
10
136.4313089999999988
20
-117.3552079999999904
11
136.482609999999994
21
-117.2962369999999908
0
LINE
8
BLACK
6
CONTINUOUS
10
136.482609999999994
20
-117.2962369999999908
11
136.5363360000000057
21
-117.2463219999999922
0
LINE
8
BLACK
6
CONTINUOUS
10
136.5363360000000057
20
-117.2463219999999922
11
136.6040089999999907
21
-117.1983759999999961
0
LINE
8
BLACK
6
CONTINUOUS
10
136.6040089999999907
20
-117.1983759999999961
11
136.6751749999999959
21
-117.1634710000000013
0
LINE
8
BLACK
6
CONTINUOUS
10
136.6751749999999959
20
-117.1634710000000013
11
136.7489950000000078
21
-117.1418959999999885
0
LINE
8
BLACK
6
CONTINUOUS
10
136.7489950000000078
20
-117.1418959999999885
11
136.8244959999999821
21
-117.1341829999999931
0
LINE
8
BLACK
6
CONTINUOUS
10
136.8244959999999821
20
-117.1341829999999931
11
136.9016799999999989
21
-117.1403329999999983
0
LINE
8
BLACK
6
CONTINUOUS
10
138.1833149999999932
20
-118.731236999999993
11
138.1421559999999999
21
-118.7926169999999928
0
LINE
8
BLACK
6
CONTINUOUS
10
138.1421559999999999
20
-118.7926169999999928
11
138.0854750000000024
21
-118.8486329999999924
0
LINE
8
BLACK
6
CONTINUOUS
10
138.0854750000000024
20
-118.8486329999999924
11
138.0185089999999946
21
-118.889575999999991
0
LINE
8
BLACK
6
CONTINUOUS
10
138.0185089999999946
20
-118.889575999999991
11
137.9412580000000048
21
-118.9154459999999887
0
LINE
8
BLACK
6
CONTINUOUS
10
137.9412580000000048
20
-118.9154459999999887
11
137.930878000000007
21
-118.9176199999999994
0
LINE
8
BLACK
6
CONTINUOUS
10
137.930878000000007
20
-118.9176199999999994
11
137.8568919999999878
21
-118.9254109999999969
0
LINE
8
BLACK
6
CONTINUOUS
10
137.8568919999999878
20
-118.9254109999999969
11
137.7809349999999995
21
-118.9201219999999921
0
LINE
8
BLACK
6
CONTINUOUS
10
137.7809349999999995
20
-118.9201219999999921
11
137.7030069999999853
21
-118.9017549999999943
0
LINE
8
BLACK
6
CONTINUOUS
10
137.7030069999999853
20
-118.9017549999999943
11
137.623108000000002
21
-118.8703099999999893
0
LINE
8
BLACK
6
CONTINUOUS
10
137.623108000000002
20
-118.8703099999999893
11
137.576566999999983
21
-118.8464680000000016
0
LINE
8
BLACK
6
CONTINUOUS
10
137.576566999999983
20
-118.8464680000000016
11
137.5085980000000063
21
-118.8060720000000003
0
LINE
8
BLACK
6
CONTINUOUS
10
137.5085980000000063
20
-118.8060720000000003
11
137.4480839999999944
21
-118.7643679999999904
0
LINE
8
BLACK
6
CONTINUOUS
10
137.4480839999999944
20
-118.7643679999999904
11
137.3853069999999832
21
-118.7125949999999932
0
LINE
8
BLACK
6
CONTINUOUS
10
137.3853069999999832
20
-118.7125949999999932
11
137.3332639999999856
21
-118.658937999999992
0
LINE
8
BLACK
6
CONTINUOUS
10
137.3332639999999856
20
-118.658937999999992
11
137.2861139999999978
21
-118.593956999999989
0
LINE
8
BLACK
6
CONTINUOUS
10
137.2861139999999978
20
-118.593956999999989
11
137.2703799999999887
21
-118.5653229999999922
0
LINE
8
BLACK
6
CONTINUOUS
10
137.2703799999999887
20
-118.5653229999999922
11
137.2416780000000074
21
-118.4877849999999881
0
LINE
8
BLACK
6
CONTINUOUS
10
137.2416780000000074
20
-118.4877849999999881
11
137.2323329999999828
21
-118.4091430000000003
0
LINE
8
BLACK
6
CONTINUOUS
10
137.2323329999999828
20
-118.4091430000000003
11
137.2423459999999977
21
-118.3293979999999976
0
LINE
8
BLACK
6
CONTINUOUS
10
137.2423459999999977
20
-118.3293979999999976
11
137.2669850000000054
21
-118.2587149999999951
0
LINE
8
BLACK
6
CONTINUOUS
10
137.2669850000000054
20
-118.2587149999999951
11
137.2717150000000004
21
-118.248548999999997
0
LINE
8
BLACK
6
CONTINUOUS
10
137.2717150000000004
20
-118.248548999999997
11
137.5251739999999927
21
-118.3890439999999984
0
LINE
8
BLACK
6
CONTINUOUS
10
137.5251739999999927
20
-118.3890439999999984
11
137.5194709999999816
21
-118.4671230000000008
0
LINE
8
BLACK
6
CONTINUOUS
10
137.5194709999999816
20
-118.4671230000000008
11
137.5495329999999967
21
-118.5396810000000016
0
LINE
8
BLACK
6
CONTINUOUS
10
137.5495329999999967
20
-118.5396810000000016
11
137.560418999999996
21
-118.5551889999999986
0
LINE
8
BLACK
6
CONTINUOUS
10
137.560418999999996
20
-118.5551889999999986
11
137.6091949999999997
21
-118.6102879999999971
0
LINE
8
BLACK
6
CONTINUOUS
10
137.6091949999999997
20
-118.6102879999999971
11
137.6686909999999955
21
-118.6552539999999993
0
LINE
8
BLACK
6
CONTINUOUS
10
137.6686909999999955
20
-118.6552539999999993
11
137.6952169999999853
21
-118.6709599999999938
0
LINE
8
BLACK
6
CONTINUOUS
10
137.6952169999999853
20
-118.6709599999999938
11
137.7663009999999986
21
-118.692853999999997
0
LINE
8
BLACK
6
CONTINUOUS
10
137.7663009999999986
20
-118.692853999999997
11
137.80874799999998
21
-118.6890709999999984
0
LINE
8
BLACK
6
CONTINUOUS
10
137.80874799999998
20
-118.6890709999999984
11
137.8750169999999855
21
-118.6516359999999963
0
LINE
8
BLACK
6
CONTINUOUS
10
137.8750169999999855
20
-118.6516359999999963
11
137.8925619999999981
21
-118.6270379999999989
0
LINE
8
BLACK
6
CONTINUOUS
10
137.8925619999999981
20
-118.6270379999999989
11
137.9092029999999909
21
-118.5539789999999982
0
LINE
8
BLACK
6
CONTINUOUS
10
137.9092029999999909
20
-118.5539789999999982
11
137.9060029999999983
21
-118.5423339999999968
0
LINE
8
BLACK
6
CONTINUOUS
10
137.9060029999999983
20
-118.5423339999999968
11
137.8631709999999941
21
-118.4823059999999941
0
LINE
8
BLACK
6
CONTINUOUS
10
137.8631709999999941
20
-118.4823059999999941
11
137.8372760000000028
21
-118.4539719999999932
0
LINE
8
BLACK
6
CONTINUOUS
10
137.8372760000000028
20
-118.4539719999999932
11
137.5922249999999849
21
-118.2121599999999972
0
LINE
8
BLACK
6
CONTINUOUS
10
137.5922249999999849
20
-118.2121599999999972
11
137.5408549999999934
21
-118.1502319999999884
0
LINE
8
BLACK
6
CONTINUOUS
10
137.5408549999999934
20
-118.1502319999999884
11
137.5049630000000036
21
-118.0750400000000013
0
LINE
8
BLACK
6
CONTINUOUS
10
137.5049630000000036
20
-118.0750400000000013
11
137.4949599999999919
21
-117.9966809999999953
0
LINE
8
BLACK
6
CONTINUOUS
10
137.4949599999999919
20
-117.9966809999999953
11
137.5108469999999841
21
-117.9151529999999894
0
LINE
8
BLACK
6
CONTINUOUS
10
137.5108469999999841
20
-117.9151529999999894
11
137.5380449999999826
21
-117.8549799999999976
0
LINE
8
BLACK
6
CONTINUOUS
10
137.5380449999999826
20
-117.8549799999999976
11
137.5810019999999838
21
-117.793730999999994
0
LINE
8
BLACK
6
CONTINUOUS
10
137.5810019999999838
20
-117.793730999999994
11
137.641366000000005
21
-117.7419510000000002
0
LINE
8
BLACK
6
CONTINUOUS
10
137.641366000000005
20
-117.7419510000000002
11
137.7144749999999931
21
-117.7083039999999983
0
LINE
8
BLACK
6
CONTINUOUS
10
137.7144749999999931
20
-117.7083039999999983
11
137.7702960000000019
21
-117.6959449999999947
0
LINE
8
BLACK
6
CONTINUOUS
10
137.7702960000000019
20
-117.6959449999999947
11
137.8509579999999914
21
-117.6928259999999966
0
LINE
8
BLACK
6
CONTINUOUS
10
137.8509579999999914
20
-117.6928259999999966
11
137.9254259999999874
21
-117.7034619999999876
0
LINE
8
BLACK
6
CONTINUOUS
10
137.9254259999999874
20
-117.7034619999999876
11
138.0035220000000038
21
-117.7265719999999902
0
LINE
8
BLACK
6
CONTINUOUS
10
138.0035220000000038
20
-117.7265719999999902
11
138.0733490000000074
21
-117.7563099999999991
0
LINE
8
BLACK
6
CONTINUOUS
10
138.0733490000000074
20
-117.7563099999999991
11
138.1213819999999828
21
-117.7812270000000012
0
LINE
8
BLACK
6
CONTINUOUS
10
138.1213819999999828
20
-117.7812270000000012
11
138.1879889999999875
21
-117.8222559999999959
0
LINE
8
BLACK
6
CONTINUOUS
10
138.1879889999999875
20
-117.8222559999999959
11
138.2548579999999845
21
-117.8745009999999951
0
LINE
8
BLACK
6
CONTINUOUS
10
138.2548579999999845
20
-117.8745009999999951
11
138.3100529999999821
21
-117.9314609999999988
0
LINE
8
BLACK
6
CONTINUOUS
10
138.3100529999999821
20
-117.9314609999999988
11
138.3535760000000039
21
-117.9931339999999977
0
LINE
8
BLACK
6
CONTINUOUS
10
138.3535760000000039
20
-117.9931339999999977
11
138.3775169999999832
21
-118.0400729999999925
0
LINE
8
BLACK
6
CONTINUOUS
10
138.3775169999999832
20
-118.0400729999999925
11
138.4018779999999822
21
-118.1167499999999961
0
LINE
8
BLACK
6
CONTINUOUS
10
138.4018779999999822
20
-118.1167499999999961
11
138.4077049999999929
21
-118.1930479999999903
0
LINE
8
BLACK
6
CONTINUOUS
10
138.4077049999999929
20
-118.1930479999999903
11
138.3949949999999944
21
-118.2689689999999985
0
LINE
8
BLACK
6
CONTINUOUS
10
138.3949949999999944
20
-118.2689689999999985
11
138.3637510000000077
21
-118.3445109999999971
0
LINE
8
BLACK
6
CONTINUOUS
10
138.3637510000000077
20
-118.3445109999999971
11
138.1157389999999907
21
-118.207035999999988
0
LINE
8
BLACK
6
CONTINUOUS
10
138.1157389999999907
20
-118.207035999999988
11
138.1401630000000011
21
-118.1361919999999941
0
LINE
8
BLACK
6
CONTINUOUS
10
138.1401630000000011
20
-118.1361919999999941
11
138.1284259999999904
21
-118.0783500000000004
0
LINE
8
BLACK
6
CONTINUOUS
10
138.1284259999999904
20
-118.0783500000000004
11
138.0858769999999822
21
-118.0174820000000011
0
LINE
8
BLACK
6
CONTINUOUS
10
138.0858769999999822
20
-118.0174820000000011
11
138.0230609999999842
21
-117.9688149999999922
0
LINE
8
BLACK
6
CONTINUOUS
10
138.0230609999999842
20
-117.9688149999999922
11
137.9988879999999938
21
-117.9546039999999891
0
LINE
8
BLACK
6
CONTINUOUS
10
137.9988879999999938
20
-117.9546039999999891
11
137.929507000000001
21
-117.9294000000000011
0
LINE
8
BLACK
6
CONTINUOUS
10
137.929507000000001
20
-117.9294000000000011
11
137.887410999999986
21
-117.9267409999999927
0
LINE
8
BLACK
6
CONTINUOUS
10
137.887410999999986
20
-117.9267409999999927
11
137.8169809999999984
21
-117.9481059999999957
0
LINE
8
BLACK
6
CONTINUOUS
10
137.8169809999999984
20
-117.9481059999999957
11
137.797602999999981
21
-117.971626999999998
0
LINE
8
BLACK
6
CONTINUOUS
10
137.797602999999981
20
-117.971626999999998
11
137.794306000000006
21
-118.0459850000000017
0
LINE
8
BLACK
6
CONTINUOUS
10
137.794306000000006
20
-118.0459850000000017
11
137.7975700000000074
21
-118.0495219999999961
0
LINE
8
BLACK
6
CONTINUOUS
10
137.7975700000000074
20
-118.0495219999999961
11
138.1081219999999803
21
-118.3552880000000016
0
LINE
8
BLACK
6
CONTINUOUS
10
138.1081219999999803
20
-118.3552880000000016
11
138.1586329999999805
21
-118.4115489999999937
0
LINE
8
BLACK
6
CONTINUOUS
10
138.1586329999999805
20
-118.4115489999999937
11
138.2002959999999803
21
-118.4802749999999918
0
LINE
8
BLACK
6
CONTINUOUS
10
138.2002959999999803
20
-118.4802749999999918
11
138.2227739999999869
21
-118.5621280000000013
0
LINE
8
BLACK
6
CONTINUOUS
10
138.2227739999999869
20
-118.5621280000000013
11
138.2171129999999835
21
-118.645781999999997
0
LINE
8
BLACK
6
CONTINUOUS
10
138.2171129999999835
20
-118.645781999999997
11
138.189865999999995
21
-118.7189189999999996
0
LINE
8
BLACK
6
CONTINUOUS
10
138.189865999999995
20
-118.7189189999999996
11
138.1833149999999932
21
-118.731236999999993
0
LINE
8
BLACK
6
CONTINUOUS
10
139.2484129999999993
20
-119.237015999999997
11
139.1921389999999974
21
-119.2968520000000012
0
LINE
8
BLACK
6
CONTINUOUS
10
139.1921389999999974
20
-119.2968520000000012
11
139.1345929999999953
21
-119.347028999999992
0
LINE
8
BLACK
6
CONTINUOUS
10
139.1345929999999953
20
-119.347028999999992
11
139.0558859999999868
21
-119.3989059999999967
0
LINE
8
BLACK
6
CONTINUOUS
10
139.0558859999999868
20
-119.3989059999999967
11
138.9749149999999815
21
-119.4336109999999991
0
LINE
8
BLACK
6
CONTINUOUS
10
138.9749149999999815
20
-119.4336109999999991
11
138.891682000000003
21
-119.4511439999999993
0
LINE
8
BLACK
6
CONTINUOUS
10
138.891682000000003
20
-119.4511439999999993
11
138.8061859999999967
21
-119.4515059999999949
0
LINE
8
BLACK
6
CONTINUOUS
10
138.8061859999999967
20
-119.4515059999999949
11
138.7184279999999887
21
-119.4346959999999882
0
LINE
8
BLACK
6
CONTINUOUS
10
138.7184279999999887
20
-119.4346959999999882
11
138.6284069999999815
21
-119.4007139999999936
0
LINE
8
BLACK
6
CONTINUOUS
10
138.6284069999999815
20
-119.4007139999999936
11
138.5825480000000027
21
-119.3772839999999889
0
LINE
8
BLACK
6
CONTINUOUS
10
138.5825480000000027
20
-119.3772839999999889
11
138.5184250000000077
21
-119.3377209999999877
0
LINE
8
BLACK
6
CONTINUOUS
10
138.5184250000000077
20
-119.3377209999999877
11
138.4524820000000034
21
-119.2857349999999883
0
LINE
8
BLACK
6
CONTINUOUS
10
138.4524820000000034
20
-119.2857349999999883
11
138.3985439999999869
21
-119.2288279999999929
0
LINE
8
BLACK
6
CONTINUOUS
10
138.3985439999999869
20
-119.2288279999999929
11
138.3566109999999867
21
-119.1670009999999991
0
LINE
8
BLACK
6
CONTINUOUS
10
138.3566109999999867
20
-119.1670009999999991
11
138.3228619999999864
21
-119.0886509999999987
0
LINE
8
BLACK
6
CONTINUOUS
10
138.3228619999999864
20
-119.0886509999999987
11
138.3162209999999845
21
-119.0650349999999946
0
LINE
8
BLACK
6
CONTINUOUS
10
138.3162209999999845
20
-119.0650349999999946
11
138.3048220000000015
21
-118.9913479999999879
0
LINE
8
BLACK
6
CONTINUOUS
10
138.3048220000000015
20
-118.9913479999999879
11
138.306336999999985
21
-118.9138629999999921
0
LINE
8
BLACK
6
CONTINUOUS
10
138.306336999999985
20
-118.9138629999999921
11
138.3207669999999894
21
-118.8325809999999905
0
LINE
8
BLACK
6
CONTINUOUS
10
138.3207669999999894
20
-118.8325809999999905
11
138.3426570000000027
21
-118.7619439999999997
0
LINE
8
BLACK
6
CONTINUOUS
10
138.3426570000000027
20
-118.7619439999999997
11
138.3735149999999976
21
-118.6886699999999877
0
LINE
8
BLACK
6
CONTINUOUS
10
138.3735149999999976
20
-118.6886699999999877
11
138.404658999999981
21
-118.6281509999999884
0
LINE
8
BLACK
6
CONTINUOUS
10
138.404658999999981
20
-118.6281509999999884
11
138.4462690000000009
21
-118.5592089999999956
0
LINE
8
BLACK
6
CONTINUOUS
10
138.4462690000000009
20
-118.5592089999999956
11
138.4905069999999796
21
-118.4977779999999967
0
LINE
8
BLACK
6
CONTINUOUS
10
138.4905069999999796
20
-118.4977779999999967
11
138.5470609999999851
21
-118.4339739999999921
0
LINE
8
BLACK
6
CONTINUOUS
10
138.5470609999999851
20
-118.4339739999999921
11
138.6073969999999917
21
-118.3809849999999955
0
LINE
8
BLACK
6
CONTINUOUS
10
138.6073969999999917
20
-118.3809849999999955
11
138.6715179999999918
21
-118.3388109999999926
0
LINE
8
BLACK
6
CONTINUOUS
10
138.6715179999999918
20
-118.3388109999999926
11
138.7163659999999936
21
-118.3167040000000014
0
LINE
8
BLACK
6
CONTINUOUS
10
138.7163659999999936
20
-118.3167040000000014
11
138.7958600000000047
21
-118.2908709999999957
0
LINE
8
BLACK
6
CONTINUOUS
10
138.7958600000000047
20
-118.2908709999999957
11
138.8778499999999951
21
-118.2808840000000004
0
LINE
8
BLACK
6
CONTINUOUS
10
138.8778499999999951
20
-118.2808840000000004
11
138.9623379999999884
21
-118.2867430000000013
0
LINE
8
BLACK
6
CONTINUOUS
10
138.9623379999999884
20
-118.2867430000000013
11
139.0346519999999941
21
-118.3037289999999899
0
LINE
8
BLACK
6
CONTINUOUS
10
139.0346519999999941
20
-118.3037289999999899
11
139.1086990000000014
21
-118.3317189999999925
0
LINE
8
BLACK
6
CONTINUOUS
10
139.1086990000000014
20
-118.3317189999999925
11
139.1691859999999963
21
-118.3620339999999942
0
LINE
8
BLACK
6
CONTINUOUS
10
139.1691859999999963
20
-118.3620339999999942
11
139.2406849999999849
21
-118.4061579999999907
0
LINE
8
BLACK
6
CONTINUOUS
10
139.2406849999999849
20
-118.4061579999999907
11
139.300894999999997
21
-118.4530069999999995
0
LINE
8
BLACK
6
CONTINUOUS
10
139.300894999999997
20
-118.4530069999999995
11
139.3568719999999814
21
-118.511109999999988
0
LINE
8
BLACK
6
CONTINUOUS
10
139.3568719999999814
20
-118.511109999999988
11
139.3974819999999966
21
-118.5729219999999913
0
LINE
8
BLACK
6
CONTINUOUS
10
139.3974819999999966
20
-118.5729219999999913
11
139.4200620000000015
21
-118.628855999999999
0
LINE
8
BLACK
6
CONTINUOUS
10
139.4200620000000015
20
-118.628855999999999
11
139.4328529999999944
21
-118.7023659999999978
0
LINE
8
BLACK
6
CONTINUOUS
10
139.4328529999999944
20
-118.7023659999999978
11
139.4322329999999965
21
-118.7759879999999981
0
LINE
8
BLACK
6
CONTINUOUS
10
139.4322329999999965
20
-118.7759879999999981
11
139.4205859999999859
21
-118.8582909999999941
0
LINE
8
BLACK
6
CONTINUOUS
10
139.4205859999999859
20
-118.8582909999999941
11
139.4018279999999947
21
-118.9357459999999946
0
LINE
8
BLACK
6
CONTINUOUS
10
139.4018279999999947
20
-118.9357459999999946
11
139.384822999999983
21
-118.9909259999999875
0
LINE
8
BLACK
6
CONTINUOUS
10
139.384822999999983
20
-118.9909259999999875
11
139.1313629999999932
21
-118.8504310000000004
0
LINE
8
BLACK
6
CONTINUOUS
10
139.1313629999999932
20
-118.8504310000000004
11
139.1459169999999972
21
-118.7740669999999881
0
LINE
8
BLACK
6
CONTINUOUS
10
139.1459169999999972
20
-118.7740669999999881
11
139.1406609999999944
21
-118.6989349999999916
0
LINE
8
BLACK
6
CONTINUOUS
10
139.1406609999999944
20
-118.6989349999999916
11
139.1368300000000033
21
-118.6871639999999957
0
LINE
8
BLACK
6
CONTINUOUS
10
139.1368300000000033
20
-118.6871639999999957
11
139.0922099999999944
21
-118.6234800000000007
0
LINE
8
BLACK
6
CONTINUOUS
10
139.0922099999999944
20
-118.6234800000000007
11
139.0313270000000045
21
-118.5805119999999988
0
LINE
8
BLACK
6
CONTINUOUS
10
139.0313270000000045
20
-118.5805119999999988
11
138.9596319999999992
21
-118.5539649999999909
0
LINE
8
BLACK
6
CONTINUOUS
10
138.9596319999999992
20
-118.5539649999999909
11
138.8791300000000035
21
-118.5580899999999929
0
LINE
8
BLACK
6
CONTINUOUS
10
138.8791300000000035
20
-118.5580899999999929
11
138.8128219999999828
21
-118.5917069999999995
0
LINE
8
BLACK
6
CONTINUOUS
10
138.8128219999999828
20
-118.5917069999999995
11
138.7489989999999977
21
-118.6530920000000009
0
LINE
8
BLACK
6
CONTINUOUS
10
138.7489989999999977
20
-118.6530920000000009
11
138.6977129999999931
21
-118.7254569999999916
0
LINE
8
BLACK
6
CONTINUOUS
10
138.6977129999999931
20
-118.7254569999999916
11
138.6776810000000069
21
-118.7598029999999909
0
LINE
8
BLACK
6
CONTINUOUS
10
138.6776810000000069
20
-118.7598029999999909
11
138.6437659999999994
21
-118.8289690000000007
0
LINE
8
BLACK
6
CONTINUOUS
10
138.6437659999999994
20
-118.8289690000000007
11
138.6178850000000011
21
-118.9080859999999973
0
LINE
8
BLACK
6
CONTINUOUS
10
138.6178850000000011
20
-118.9080859999999973
11
138.611046999999985
21
-118.9922609999999992
0
LINE
8
BLACK
6
CONTINUOUS
10
138.611046999999985
20
-118.9922609999999992
11
138.6306280000000015
21
-119.0646919999999938
0
LINE
8
BLACK
6
CONTINUOUS
10
138.6306280000000015
20
-119.0646919999999938
11
138.6766299999999887
21
-119.1253770000000003
0
LINE
8
BLACK
6
CONTINUOUS
10
138.6766299999999887
20
-119.1253770000000003
11
138.7351469999999836
21
-119.1669769999999886
0
LINE
8
BLACK
6
CONTINUOUS
10
138.7351469999999836
20
-119.1669769999999886
11
138.8068460000000073
21
-119.1914779999999894
0
LINE
8
BLACK
6
CONTINUOUS
10
138.8068460000000073
20
-119.1914779999999894
11
138.8590719999999976
21
-119.1874969999999934
0
LINE
8
BLACK
6
CONTINUOUS
10
138.8590719999999976
20
-119.1874969999999934
11
138.926967999999988
21
-119.154207999999997
0
LINE
8
BLACK
6
CONTINUOUS
10
138.926967999999988
20
-119.154207999999997
11
138.9870129999999904
21
-119.1066119999999984
0
LINE
8
BLACK
6
CONTINUOUS
10
138.9870129999999904
20
-119.1066119999999984
11
138.9968759999999861
21
-119.0975869999999901
0
LINE
8
BLACK
6
CONTINUOUS
10
138.9968759999999861
20
-119.0975869999999901
11
139.2484129999999993
21
-119.237015999999997
0
LINE
8
BLACK
6
CONTINUOUS
10
140.0821569999999952
20
-120.2085309999999936
11
139.8251730000000066
21
-120.0660819999999944
0
LINE
8
BLACK
6
CONTINUOUS
10
139.8251730000000066
20
-120.0660819999999944
11
139.9027920000000051
21
-119.926054999999991
0
LINE
8
BLACK
6
CONTINUOUS
10
139.9027920000000051
20
-119.926054999999991
11
139.8243249999999875
21
-119.9538859999999971
0
LINE
8
BLACK
6
CONTINUOUS
10
139.8243249999999875
20
-119.9538859999999971
11
139.745160999999996
21
-119.9638119999999901
0
LINE
8
BLACK
6
CONTINUOUS
10
139.745160999999996
20
-119.9638119999999901
11
139.6652980000000071
21
-119.9558320000000009
0
LINE
8
BLACK
6
CONTINUOUS
10
139.6652980000000071
20
-119.9558320000000009
11
139.5847369999999898
21
-119.929946000000001
0
LINE
8
BLACK
6
CONTINUOUS
10
139.5847369999999898
20
-119.929946000000001
11
139.5383889999999951
21
-119.9071149999999903
0
LINE
8
BLACK
6
CONTINUOUS
10
139.5383889999999951
20
-119.9071149999999903
11
139.4721789999999828
21
-119.8642809999999912
0
LINE
8
BLACK
6
CONTINUOUS
10
139.4721789999999828
20
-119.8642809999999912
11
139.4115170000000035
21
-119.8086249999999922
0
LINE
8
BLACK
6
CONTINUOUS
10
139.4115170000000035
20
-119.8086249999999922
11
139.3668610000000001
21
-119.7458179999999999
0
LINE
8
BLACK
6
CONTINUOUS
10
139.3668610000000001
20
-119.7458179999999999
11
139.3382110000000011
21
-119.6758619999999951
0
LINE
8
BLACK
6
CONTINUOUS
10
139.3382110000000011
20
-119.6758619999999951
11
139.335755000000006
21
-119.6666149999999931
0
LINE
8
BLACK
6
CONTINUOUS
10
139.335755000000006
20
-119.6666149999999931
11
139.3246120000000019
21
-119.5880870000000016
0
LINE
8
BLACK
6
CONTINUOUS
10
139.3246120000000019
20
-119.5880870000000016
11
139.3317639999999926
21
-119.5088329999999956
0
LINE
8
BLACK
6
CONTINUOUS
10
139.3317639999999926
20
-119.5088329999999956
11
139.3534809999999879
21
-119.4377749999999878
0
LINE
8
BLACK
6
CONTINUOUS
10
139.3534809999999879
20
-119.4377749999999878
11
139.3792550000000006
21
-119.3841039999999936
0
LINE
8
BLACK
6
CONTINUOUS
10
139.3792550000000006
20
-119.3841039999999936
11
139.7632619999999974
21
-118.6913359999999926
0
LINE
8
BLACK
6
CONTINUOUS
10
139.7632619999999974
20
-118.6913359999999926
11
140.0205669999999998
21
-118.8339619999999996
0
LINE
8
BLACK
6
CONTINUOUS
10
140.0205669999999998
20
-118.8339619999999996
11
139.6486369999999795
21
-119.5049409999999881
0
LINE
8
BLACK
6
CONTINUOUS
10
139.6486369999999795
20
-119.5049409999999881
11
139.6302959999999871
21
-119.5761269999999996
0
LINE
8
BLACK
6
CONTINUOUS
10
139.6302959999999871
20
-119.5761269999999996
11
139.6420619999999815
21
-119.6248669999999947
0
LINE
8
BLACK
6
CONTINUOUS
10
139.6420619999999815
20
-119.6248669999999947
11
139.6884379999999908
21
-119.6868159999999932
0
LINE
8
BLACK
6
CONTINUOUS
10
139.6884379999999908
20
-119.6868159999999932
11
139.7464219999999955
21
-119.7275360000000006
0
LINE
8
BLACK
6
CONTINUOUS
10
139.7464219999999955
20
-119.7275360000000006
11
139.8195249999999987
21
-119.7562709999999981
0
LINE
8
BLACK
6
CONTINUOUS
10
139.8195249999999987
20
-119.7562709999999981
11
139.8941590000000019
21
-119.7622829999999965
0
LINE
8
BLACK
6
CONTINUOUS
10
139.8941590000000019
20
-119.7622829999999965
11
139.9157639999999958
21
-119.7598270000000014
0
LINE
8
BLACK
6
CONTINUOUS
10
139.9157639999999958
20
-119.7598270000000014
11
139.9857010000000059
21
-119.7361729999999937
0
LINE
8
BLACK
6
CONTINUOUS
10
139.9857010000000059
20
-119.7361729999999937
11
140.0376029999999901
21
-119.6828489999999903
0
LINE
8
BLACK
6
CONTINUOUS
10
140.0376029999999901
20
-119.6828489999999903
11
140.3935469999999839
21
-119.0407079999999951
0
LINE
8
BLACK
6
CONTINUOUS
10
140.3935469999999839
20
-119.0407079999999951
11
140.6505310000000009
21
-119.1831569999999942
0
LINE
8
BLACK
6
CONTINUOUS
10
140.6505310000000009
20
-119.1831569999999942
11
140.0821569999999952
21
-120.2085309999999936
0
LINE
8
BLACK
6
CONTINUOUS
10
127.9148689999999959
20
-106.4359549999999928
11
128.0851370000000031
21
-106.5542820000000006
0
LINE
8
BLACK
6
CONTINUOUS
10
128.0851370000000031
20
-106.5542820000000006
11
128.2210399999999879
21
-106.7014489999999967
0
LINE
8
BLACK
6
CONTINUOUS
10
128.2210399999999879
20
-106.7014489999999967
11
128.3225779999999929
21
-106.8774579999999901
0
LINE
8
BLACK
6
CONTINUOUS
10
128.3225779999999929
20
-106.8774579999999901
11
128.3641389999999944
21
-106.9877029999999962
0
LINE
8
BLACK
6
CONTINUOUS
10
128.3641389999999944
20
-106.9877029999999962
11
128.4075959999999839
21
-107.1841269999999895
0
LINE
8
BLACK
6
CONTINUOUS
10
128.4075959999999839
20
-107.1841269999999895
11
128.4101469999999949
21
-107.3868459999999914
0
LINE
8
BLACK
6
CONTINUOUS
10
128.4101469999999949
20
-107.3868459999999914
11
128.3717919999999992
21
-107.5958619999999968
0
LINE
8
BLACK
6
CONTINUOUS
10
128.3717919999999992
20
-107.5958619999999968
11
128.3063589999999863
21
-107.780028999999999
0
LINE
8
BLACK
6
CONTINUOUS
10
128.3063589999999863
20
-107.780028999999999
11
128.228872999999993
21
-107.937035999999992
0
LINE
8
BLACK
6
CONTINUOUS
10
128.228872999999993
20
-107.937035999999992
11
128.118173999999982
21
-108.1065349999999938
0
LINE
8
BLACK
6
CONTINUOUS
10
128.118173999999982
20
-108.1065349999999938
11
127.9619299999999953
21
-108.2724089999999961
0
LINE
8
BLACK
6
CONTINUOUS
10
127.9619299999999953
20
-108.2724089999999961
11
127.7801520000000011
21
-108.3973479999999938
0
LINE
8
BLACK
6
CONTINUOUS
10
127.7801520000000011
20
-108.3973479999999938
11
127.5728409999999968
21
-108.4813520000000011
0
LINE
8
BLACK
6
CONTINUOUS
10
127.5728409999999968
20
-108.4813520000000011
11
127.3805779999999999
21
-108.5200839999999971
0
LINE
8
BLACK
6
CONTINUOUS
10
127.3805779999999999
20
-108.5200839999999971
11
127.2140009999999961
21
-108.5306029999999993
0
LINE
8
BLACK
6
CONTINUOUS
10
127.2140009999999961
20
-108.5306029999999993
11
127.311089999999993
21
-108.708281999999997
0
LINE
8
BLACK
6
CONTINUOUS
10
127.311089999999993
20
-108.708281999999997
11
127.375015999999988
21
-108.892996999999994
0
LINE
8
BLACK
6
CONTINUOUS
10
127.375015999999988
20
-108.892996999999994
11
127.3843729999999965
21
-109.0963679999999982
0
LINE
8
BLACK
6
CONTINUOUS
10
127.3843729999999965
20
-109.0963679999999982
11
127.3442809999999952
21
-109.2205319999999915
0
LINE
8
BLACK
6
CONTINUOUS
10
127.3442809999999952
20
-109.2205319999999915
11
126.8876799999999889
21
-110.1369589999999903
0
LINE
8
BLACK
6
CONTINUOUS
10
126.8876799999999889
20
-110.1369589999999903
11
126.8424239999999941
21
-110.3345529999999997
0
LINE
8
BLACK
6
CONTINUOUS
10
126.8424239999999941
20
-110.3345529999999997
11
126.8780309999999929
21
-110.4667180000000002
0
LINE
8
BLACK
6
CONTINUOUS
10
126.8780309999999929
20
-110.4667180000000002
11
126.7998799999999875
21
-110.6077059999999932
0
LINE
8
BLACK
6
CONTINUOUS
10
126.7998799999999875
20
-110.6077059999999932
11
126.0060689999999965
21
-110.1676899999999932
0
LINE
8
BLACK
6
CONTINUOUS
10
126.0060689999999965
20
-110.1676899999999932
11
126.0450039999999916
21
-109.9655089999999973
0
LINE
8
BLACK
6
CONTINUOUS
10
126.0450039999999916
20
-109.9655089999999973
11
126.1036399999999986
21
-109.7744069999999965
0
LINE
8
BLACK
6
CONTINUOUS
10
126.1036399999999986
20
-109.7744069999999965
11
126.1465209999999928
21
-109.6825639999999993
0
LINE
8
BLACK
6
CONTINUOUS
10
126.1465209999999928
20
-109.6825639999999993
11
126.4591269999999952
21
-109.1186079999999947
0
LINE
8
BLACK
6
CONTINUOUS
10
126.4591269999999952
20
-109.1186079999999947
11
126.543217999999996
21
-108.9379759999999919
0
LINE
8
BLACK
6
CONTINUOUS
10
126.543217999999996
20
-108.9379759999999919
11
126.5769209999999987
21
-108.7549649999999986
0
LINE
8
BLACK
6
CONTINUOUS
10
126.5769209999999987
20
-108.7549649999999986
11
126.5041459999999915
21
-108.5638269999999892
0
LINE
8
BLACK
6
CONTINUOUS
10
126.5041459999999915
20
-108.5638269999999892
11
126.3481949999999898
21
-108.428882999999999
0
LINE
8
BLACK
6
CONTINUOUS
10
126.3481949999999898
20
-108.428882999999999
11
126.2998779999999925
21
-108.4003329999999892
0
LINE
8
BLACK
6
CONTINUOUS
10
126.2998779999999925
20
-108.4003329999999892
11
125.4283099999999962
21
-107.9172149999999988
0
LINE
8
BLACK
6
CONTINUOUS
10
125.4283099999999962
20
-107.9172149999999988
11
124.6098509999999919
21
-109.3937540000000013
0
LINE
8
BLACK
6
CONTINUOUS
10
124.6098509999999919
20
-109.3937540000000013
11
123.8758539999999897
21
-108.9868929999999949
0
LINE
8
BLACK
6
CONTINUOUS
10
123.8758539999999897
20
-108.9868929999999949
11
124.8022330000000011
21
-107.315661999999989
0
LINE
8
BLACK
6
CONTINUOUS
10
124.8022330000000011
20
-107.315661999999989
11
125.7617559999999912
21
-107.315661999999989
0
LINE
8
BLACK
6
CONTINUOUS
10
125.7617559999999912
20
-107.315661999999989
11
126.7760219999999975
21
-107.877878999999993
0
LINE
8
BLACK
6
CONTINUOUS
10
126.7760219999999975
20
-107.877878999999993
11
126.9704969999999946
21
-107.9229429999999894
0
LINE
8
BLACK
6
CONTINUOUS
10
126.9704969999999946
20
-107.9229429999999894
11
127.171053999999998
21
-107.8745609999999999
0
LINE
8
BLACK
6
CONTINUOUS
10
127.171053999999998
20
-107.8745609999999999
11
127.3490809999999982
21
-107.7710450000000009
0
LINE
8
BLACK
6
CONTINUOUS
10
127.3490809999999982
20
-107.7710450000000009
11
127.4819539999999876
21
-107.6271039999999886
0
LINE
8
BLACK
6
CONTINUOUS
10
127.4819539999999876
20
-107.6271039999999886
11
127.5116239999999976
21
-107.5785529999999994
0
LINE
8
BLACK
6
CONTINUOUS
10
127.5116239999999976
20
-107.5785529999999994
11
127.5872499999999974
21
-107.3945809999999881
0
LINE
8
BLACK
6
CONTINUOUS
10
127.5872499999999974
20
-107.3945809999999881
11
127.5906749999999903
21
-107.1875709999999913
0
LINE
8
BLACK
6
CONTINUOUS
10
127.5906749999999903
20
-107.1875709999999913
11
127.4885669999999891
21
-107.0137789999999995
0
LINE
8
BLACK
6
CONTINUOUS
10
127.4885669999999891
20
-107.0137789999999995
11
127.3361869999999954
21
-106.9015720000000016
0
LINE
8
BLACK
6
CONTINUOUS
10
127.3361869999999954
20
-106.9015720000000016
11
126.3073949999999996
21
-106.3313029999999912
0
LINE
8
BLACK
6
CONTINUOUS
10
126.3073949999999996
20
-106.3313029999999912
11
125.7617559999999912
21
-107.315661999999989
0
LINE
8
BLACK
6
CONTINUOUS
10
125.7617559999999912
20
-107.315661999999989
11
124.8022330000000011
21
-107.315661999999989
0
LINE
8
BLACK
6
CONTINUOUS
10
124.8022330000000011
20
-107.315661999999989
11
125.9068449999999899
21
-105.3228889999999893
0
LINE
8
BLACK
6
CONTINUOUS
10
125.9068449999999899
20
-105.3228889999999893
11
127.9148689999999959
21
-106.4359549999999928
0
LINE
8
BLACK
6
CONTINUOUS
10
129.4842419999999947
20
-108.6105659999999915
11
129.7069180000000017
21
-108.6738089999999914
0
LINE
8
BLACK
6
CONTINUOUS
10
129.7069180000000017
20
-108.6738089999999914
11
129.8967629999999929
21
-108.7539629999999988
0
LINE
8
BLACK
6
CONTINUOUS
10
129.8967629999999929
20
-108.7539629999999988
11
130.0125380000000064
21
-108.8140349999999899
0
LINE
8
BLACK
6
CONTINUOUS
10
130.0125380000000064
20
-108.8140349999999899
11
130.1940390000000036
21
-108.9262049999999959
0
LINE
8
BLACK
6
CONTINUOUS
10
130.1940390000000036
20
-108.9262049999999959
11
130.3524249999999824
21
-109.048688999999996
0
LINE
8
BLACK
6
CONTINUOUS
10
130.3524249999999824
20
-109.048688999999996
11
130.5119750000000067
21
-109.2092820000000017
0
LINE
8
BLACK
6
CONTINUOUS
10
130.5119750000000067
20
-109.2092820000000017
11
130.6382389999999987
21
-109.3847249999999889
0
LINE
8
BLACK
6
CONTINUOUS
10
130.6382389999999987
20
-109.3847249999999889
11
130.7312169999999867
21
-109.5750189999999975
0
LINE
8
BLACK
6
CONTINUOUS
10
130.7312169999999867
20
-109.5750189999999975
11
130.7747099999999989
21
-109.7101320000000015
0
LINE
8
BLACK
6
CONTINUOUS
10
130.7747099999999989
20
-109.7101320000000015
11
130.8113999999999919
21
-109.9206169999999929
0
LINE
8
BLACK
6
CONTINUOUS
10
130.8113999999999919
20
-109.9206169999999929
11
130.8128279999999961
21
-110.1374739999999974
0
LINE
8
BLACK
6
CONTINUOUS
10
130.8128279999999961
20
-110.1374739999999974
11
130.7789929999999856
21
-110.3607030000000009
0
LINE
8
BLACK
6
CONTINUOUS
10
130.7789929999999856
20
-110.3607030000000009
11
130.7238600000000019
21
-110.5515939999999944
0
LINE
8
BLACK
6
CONTINUOUS
10
130.7238600000000019
20
-110.5515939999999944
11
130.6442399999999964
21
-110.7469109999999972
0
LINE
8
BLACK
6
CONTINUOUS
10
130.6442399999999964
20
-110.7469109999999972
11
130.562911999999983
21
-110.9063510000000008
0
LINE
8
BLACK
6
CONTINUOUS
10
130.562911999999983
20
-110.9063510000000008
11
130.4452770000000044
21
-111.0983990000000006
0
LINE
8
BLACK
6
CONTINUOUS
10
130.4452770000000044
20
-111.0983990000000006
11
130.3185379999999896
21
-111.2665279999999939
0
LINE
8
BLACK
6
CONTINUOUS
10
130.3185379999999896
20
-111.2665279999999939
11
130.1826949999999954
21
-111.4107389999999924
0
LINE
8
BLACK
6
CONTINUOUS
10
130.1826949999999954
20
-111.4107389999999924
11
130.0076650000000029
21
-111.5522209999999887
0
LINE
8
BLACK
6
CONTINUOUS
10
130.0076650000000029
20
-111.5522209999999887
11
129.8195259999999962
21
-111.6592599999999891
0
LINE
8
BLACK
6
CONTINUOUS
10
129.8195259999999962
20
-111.6592599999999891
11
129.6527279999999962
21
-111.7221499999999992
0
LINE
8
BLACK
6
CONTINUOUS
10
129.6527279999999962
20
-111.7221499999999992
11
129.4440050000000042
21
-111.7651309999999967
0
LINE
8
BLACK
6
CONTINUOUS
10
129.4440050000000042
20
-111.7651309999999967
11
129.2290749999999946
21
-111.7718429999999898
0
LINE
8
BLACK
6
CONTINUOUS
10
129.2290749999999946
20
-111.7718429999999898
11
129.0079399999999907
21
-111.7422839999999979
0
LINE
8
BLACK
6
CONTINUOUS
10
129.0079399999999907
20
-111.7422839999999979
11
128.818918999999994
21
-111.6899449999999945
0
LINE
8
BLACK
6
CONTINUOUS
10
128.818918999999994
20
-111.6899449999999945
11
128.6255889999999908
21
-111.612417999999991
0
LINE
8
BLACK
6
CONTINUOUS
10
128.6255889999999908
20
-111.612417999999991
11
128.4678209999999865
21
-111.5322619999999887
0
LINE
8
BLACK
6
CONTINUOUS
10
128.4678209999999865
20
-111.5322619999999887
11
128.2938739999999882
21
-111.4239779999999911
0
LINE
8
BLACK
6
CONTINUOUS
10
128.2938739999999882
20
-111.4239779999999911
11
128.1144439999999918
21
-111.2789649999999995
0
LINE
8
BLACK
6
CONTINUOUS
10
128.1144439999999918
20
-111.2789649999999995
11
127.9669839999999965
21
-111.1175069999999891
0
LINE
8
BLACK
6
CONTINUOUS
10
127.9669839999999965
20
-111.1175069999999891
11
127.8514939999999882
21
-110.9396059999999977
0
LINE
8
BLACK
6
CONTINUOUS
10
127.8514939999999882
20
-110.9396059999999977
11
127.7679739999999953
21
-110.7452609999999993
0
LINE
8
BLACK
6
CONTINUOUS
10
127.7679739999999953
20
-110.7452609999999993
11
127.7382029999999986
21
-110.6419219999999939
0
LINE
8
BLACK
6
CONTINUOUS
10
127.7382029999999986
20
-110.6419219999999939
11
127.7042989999999918
21
-110.4284660000000002
0
LINE
8
BLACK
6
CONTINUOUS
10
127.7042989999999918
20
-110.4284660000000002
11
127.7047910000000002
21
-110.2836829999999964
0
LINE
8
BLACK
6
CONTINUOUS
10
127.7047910000000002
20
-110.2836829999999964
11
128.4948359999999923
21
-110.2836829999999964
0
LINE
8
BLACK
6
CONTINUOUS
10
128.4948359999999923
20
-110.2836829999999964
11
128.5136159999999848
21
-110.4964729999999946
0
LINE
8
BLACK
6
CONTINUOUS
10
128.5136159999999848
20
-110.4964729999999946
11
128.5825679999999807
21
-110.6911399999999901
0
LINE
8
BLACK
6
CONTINUOUS
10
128.5825679999999807
20
-110.6911399999999901
11
128.7096899999999948
21
-110.8582099999999997
0
LINE
8
BLACK
6
CONTINUOUS
10
128.7096899999999948
20
-110.8582099999999997
11
128.8405740000000037
21
-110.9524969999999939
0
LINE
8
BLACK
6
CONTINUOUS
10
128.8405740000000037
20
-110.9524969999999939
11
129.0278899999999851
21
-111.0235939999999886
0
LINE
8
BLACK
6
CONTINUOUS
10
129.0278899999999851
20
-111.0235939999999886
11
129.2374099999999828
21
-111.0293569999999903
0
LINE
8
BLACK
6
CONTINUOUS
10
129.2374099999999828
20
-111.0293569999999903
11
129.3980939999999862
21
-110.9845129999999926
0
LINE
8
BLACK
6
CONTINUOUS
10
129.3980939999999862
20
-110.9845129999999926
11
129.584906999999987
21
-110.8781019999999984
0
LINE
8
BLACK
6
CONTINUOUS
10
129.584906999999987
20
-110.8781019999999984
11
129.7333079999999939
21
-110.7369569999999896
0
LINE
8
BLACK
6
CONTINUOUS
10
129.7333079999999939
20
-110.7369569999999896
11
129.8494189999999833
21
-110.573765999999992
0
LINE
8
BLACK
6
CONTINUOUS
10
129.8494189999999833
20
-110.573765999999992
11
129.8729769999999917
21
-110.5328499999999963
0
LINE
8
BLACK
6
CONTINUOUS
10
129.8729769999999917
20
-110.5328499999999963
11
129.9602019999999811
21
-110.3424940000000021
0
LINE
8
BLACK
6
CONTINUOUS
10
129.9602019999999811
20
-110.3424940000000021
11
130.011117999999982
21
-110.1365789999999976
0
LINE
8
BLACK
6
CONTINUOUS
10
130.011117999999982
20
-110.1365789999999976
11
130.0136109999999974
21
-109.9365469999999902
0
LINE
8
BLACK
6
CONTINUOUS
10
130.0136109999999974
20
-109.9365469999999902
11
130.0049170000000061
21
-109.8776849999999996
0
LINE
8
BLACK
6
CONTINUOUS
10
130.0049170000000061
20
-109.8776849999999996
11
129.9408509999999808
21
-109.681910000000002
0
LINE
8
BLACK
6
CONTINUOUS
10
129.9408509999999808
20
-109.681910000000002
11
129.8136859999999899
21
-109.5124610000000018
0
LINE
8
BLACK
6
CONTINUOUS
10
129.8136859999999899
20
-109.5124610000000018
11
129.6790919999999971
21
-109.4155879999999996
0
LINE
8
BLACK
6
CONTINUOUS
10
129.6790919999999971
20
-109.4155879999999996
11
129.4902519999999981
21
-109.3462859999999921
0
LINE
8
BLACK
6
CONTINUOUS
10
129.4902519999999981
20
-109.3462859999999921
11
129.2938289999999881
21
-109.3435279999999921
0
LINE
8
BLACK
6
CONTINUOUS
10
129.2938289999999881
20
-109.3435279999999921
11
129.10868099999999
21
-109.3987659999999948
0
LINE
8
BLACK
6
CONTINUOUS
10
129.10868099999999
20
-109.3987659999999948
11
128.9312299999999993
21
-109.5031699999999972
0
LINE
8
BLACK
6
CONTINUOUS
10
128.9312299999999993
20
-109.5031699999999972
11
128.7737829999999803
21
-109.651385999999988
0
LINE
8
BLACK
6
CONTINUOUS
10
128.7737829999999803
20
-109.651385999999988
11
128.6491819999999962
21
-109.8222409999999911
0
LINE
8
BLACK
6
CONTINUOUS
10
128.6491819999999962
20
-109.8222409999999911
11
128.6112479999999891
21
-109.887079
0
LINE
8
BLACK
6
CONTINUOUS
10
128.6112479999999891
20
-109.887079
11
128.5308890000000019
21
-110.0743619999999936
0
LINE
8
BLACK
6
CONTINUOUS
10
128.5308890000000019
20
-110.0743619999999936
11
128.4948359999999923
21
-110.2836829999999964
0
LINE
8
BLACK
6
CONTINUOUS
10
128.4948359999999923
20
-110.2836829999999964
11
127.7047910000000002
21
-110.2836829999999964
0
LINE
8
BLACK
6
CONTINUOUS
10
127.7047910000000002
20
-110.2836829999999964
11
127.7050440000000009
21
-110.2093179999999961
0
LINE
8
BLACK
6
CONTINUOUS
10
127.7050440000000009
20
-110.2093179999999961
11
127.740438999999995
21
-109.9844789999999932
0
LINE
8
BLACK
6
CONTINUOUS
10
127.740438999999995
20
-109.9844789999999932
11
127.796402999999998
21
-109.7927669999999978
0
LINE
8
BLACK
6
CONTINUOUS
10
127.796402999999998
20
-109.7927669999999978
11
127.8764289999999875
21
-109.5971019999999925
0
LINE
8
BLACK
6
CONTINUOUS
10
127.8764289999999875
20
-109.5971019999999925
11
127.9577740000000006
21
-109.4377250000000004
0
LINE
8
BLACK
6
CONTINUOUS
10
127.9577740000000006
20
-109.4377250000000004
11
128.0722189999999898
21
-109.2509889999999899
0
LINE
8
BLACK
6
CONTINUOUS
10
128.0722189999999898
20
-109.2509889999999899
11
128.1959019999999896
21
-109.0870449999999892
0
LINE
8
BLACK
6
CONTINUOUS
10
128.1959019999999896
20
-109.0870449999999892
11
128.3565150000000017
21
-108.9203969999999941
0
LINE
8
BLACK
6
CONTINUOUS
10
128.3565150000000017
20
-108.9203969999999941
11
128.5304299999999955
21
-108.786570999999995
0
LINE
8
BLACK
6
CONTINUOUS
10
128.5304299999999955
20
-108.786570999999995
11
128.7176469999999995
21
-108.6855649999999969
0
LINE
8
BLACK
6
CONTINUOUS
10
128.7176469999999995
20
-108.6855649999999969
11
128.8498479999999802
21
-108.6364609999999971
0
LINE
8
BLACK
6
CONTINUOUS
10
128.8498479999999802
20
-108.6364609999999971
11
129.0557079999999814
21
-108.5918920000000014
0
LINE
8
BLACK
6
CONTINUOUS
10
129.0557079999999814
20
-108.5918920000000014
11
129.267171999999988
21
-108.5832609999999931
0
LINE
8
BLACK
6
CONTINUOUS
10
129.267171999999988
20
-108.5832609999999931
11
129.4842419999999947
21
-108.6105659999999915
0
LINE
8
BLACK
6
CONTINUOUS
10
132.4749170000000049
20
-110.2683239999999927
11
132.697591999999986
21
-110.3315669999999926
0
LINE
8
BLACK
6
CONTINUOUS
10
132.697591999999986
20
-110.3315669999999926
11
132.8874370000000056
21
-110.411721
0
LINE
8
BLACK
6
CONTINUOUS
10
132.8874370000000056
20
-110.411721
11
133.0032129999999881
21
-110.471792999999991
0
LINE
8
BLACK
6
CONTINUOUS
10
133.0032129999999881
20
-110.471792999999991
11
133.1847139999999854
21
-110.5839629999999971
0
LINE
8
BLACK
6
CONTINUOUS
10
133.1847139999999854
20
-110.5839629999999971
11
133.3430989999999952
21
-110.7064469999999972
0
LINE
8
BLACK
6
CONTINUOUS
10
133.3430989999999952
20
-110.7064469999999972
11
133.502648999999991
21
-110.8670399999999887
0
LINE
8
BLACK
6
CONTINUOUS
10
133.502648999999991
20
-110.8670399999999887
11
133.6289139999999804
21
-111.0424829999999901
0
LINE
8
BLACK
6
CONTINUOUS
10
133.6289139999999804
20
-111.0424829999999901
11
133.7218909999999994
21
-111.2327769999999987
0
LINE
8
BLACK
6
CONTINUOUS
10
133.7218909999999994
20
-111.2327769999999987
11
133.7653839999999832
21
-111.3678899999999885
0
LINE
8
BLACK
6
CONTINUOUS
10
133.7653839999999832
20
-111.3678899999999885
11
133.8020750000000021
21
-111.5783739999999966
0
LINE
8
BLACK
6
CONTINUOUS
10
133.8020750000000021
20
-111.5783739999999966
11
133.8035019999999804
21
-111.7952319999999986
0
LINE
8
BLACK
6
CONTINUOUS
10
133.8035019999999804
20
-111.7952319999999986
11
133.7696669999999983
21
-112.0184609999999878
0
LINE
8
BLACK
6
CONTINUOUS
10
133.7696669999999983
20
-112.0184609999999878
11
133.7145349999999837
21
-112.2093519999999955
0
LINE
8
BLACK
6
CONTINUOUS
10
133.7145349999999837
20
-112.2093519999999955
11
133.6349139999999807
21
-112.4046689999999984
0
LINE
8
BLACK
6
CONTINUOUS
10
133.6349139999999807
20
-112.4046689999999984
11
133.5535869999999932
21
-112.564109000000002
0
LINE
8
BLACK
6
CONTINUOUS
10
133.5535869999999932
20
-112.564109000000002
11
133.4359519999999861
21
-112.7561559999999901
0
LINE
8
BLACK
6
CONTINUOUS
10
133.4359519999999861
20
-112.7561559999999901
11
133.3092129999999997
21
-112.9242859999999951
0
LINE
8
BLACK
6
CONTINUOUS
10
133.3092129999999997
20
-112.9242859999999951
11
133.1733690000000081
21
-113.0684969999999936
0
LINE
8
BLACK
6
CONTINUOUS
10
133.1733690000000081
20
-113.0684969999999936
11
132.9983399999999847
21
-113.2099789999999899
0
LINE
8
BLACK
6
CONTINUOUS
10
132.9983399999999847
20
-113.2099789999999899
11
132.8101999999999805
21
-113.3170179999999903
0
LINE
8
BLACK
6
CONTINUOUS
10
132.8101999999999805
20
-113.3170179999999903
11
132.6434019999999805
21
-113.3799080000000004
0
LINE
8
BLACK
6
CONTINUOUS
10
132.6434019999999805
20
-113.3799080000000004
11
132.4346789999999885
21
-113.4228889999999978
0
LINE
8
BLACK
6
CONTINUOUS
10
132.4346789999999885
20
-113.4228889999999978
11
132.2197500000000048
21
-113.429600999999991
0
LINE
8
BLACK
6
CONTINUOUS
10
132.2197500000000048
20
-113.429600999999991
11
131.9986140000000034
21
-113.4000419999999991
0
LINE
8
BLACK
6
CONTINUOUS
10
131.9986140000000034
20
-113.4000419999999991
11
131.8095940000000041
21
-113.3477029999999957
0
LINE
8
BLACK
6
CONTINUOUS
10
131.8095940000000041
20
-113.3477029999999957
11
131.6162630000000036
21
-113.2701759999999922
0
LINE
8
BLACK
6
CONTINUOUS
10
131.6162630000000036
20
-113.2701759999999922
11
131.4584959999999967
21
-113.1900199999999899
0
LINE
8
BLACK
6
CONTINUOUS
10
131.4584959999999967
20
-113.1900199999999899
11
131.2845489999999984
21
-113.0817359999999923
0
LINE
8
BLACK
6
CONTINUOUS
10
131.2845489999999984
20
-113.0817359999999923
11
131.1051180000000045
21
-112.9367230000000006
0
LINE
8
BLACK
6
CONTINUOUS
10
131.1051180000000045
20
-112.9367230000000006
11
130.9576579999999808
21
-112.7752649999999903
0
LINE
8
BLACK
6
CONTINUOUS
10
130.9576579999999808
20
-112.7752649999999903
11
130.8421679999999867
21
-112.5973639999999989
0
LINE
8
BLACK
6
CONTINUOUS
10
130.8421679999999867
20
-112.5973639999999989
11
130.7586489999999912
21
-112.4030190000000005
0
LINE
8
BLACK
6
CONTINUOUS
10
130.7586489999999912
20
-112.4030190000000005
11
130.7288779999999804
21
-112.2996799999999951
0
LINE
8
BLACK
6
CONTINUOUS
10
130.7288779999999804
20
-112.2996799999999951
11
130.694974000000002
21
-112.0862240000000014
0
LINE
8
BLACK
6
CONTINUOUS
10
130.694974000000002
20
-112.0862240000000014
11
130.6954659999999819
21
-111.9414409999999975
0
LINE
8
BLACK
6
CONTINUOUS
10
130.6954659999999819
20
-111.9414409999999975
11
131.485510000000005
21
-111.9414409999999975
0
LINE
8
BLACK
6
CONTINUOUS
10
131.485510000000005
20
-111.9414409999999975
11
131.5042909999999949
21
-112.1542309999999958
0
LINE
8
BLACK
6
CONTINUOUS
10
131.5042909999999949
20
-112.1542309999999958
11
131.5732419999999934
21
-112.3488979999999913
0
LINE
8
BLACK
6
CONTINUOUS
10
131.5732419999999934
20
-112.3488979999999913
11
131.700365000000005
21
-112.5159680000000009
0
LINE
8
BLACK
6
CONTINUOUS
10
131.700365000000005
20
-112.5159680000000009
11
131.831247999999988
21
-112.6102549999999951
0
LINE
8
BLACK
6
CONTINUOUS
10
131.831247999999988
20
-112.6102549999999951
11
132.0185649999999953
21
-112.6813519999999897
0
LINE
8
BLACK
6
CONTINUOUS
10
132.0185649999999953
20
-112.6813519999999897
11
132.228084999999993
21
-112.6871149999999915
0
LINE
8
BLACK
6
CONTINUOUS
10
132.228084999999993
20
-112.6871149999999915
11
132.3887689999999964
21
-112.6422709999999938
0
LINE
8
BLACK
6
CONTINUOUS
10
132.3887689999999964
20
-112.6422709999999938
11
132.5755819999999972
21
-112.5358599999999996
0
LINE
8
BLACK
6
CONTINUOUS
10
132.5755819999999972
20
-112.5358599999999996
11
132.723983000000004
21
-112.3947149999999908
0
LINE
8
BLACK
6
CONTINUOUS
10
132.723983000000004
20
-112.3947149999999908
11
132.8400939999999935
21
-112.2315239999999932
0
LINE
8
BLACK
6
CONTINUOUS
10
132.8400939999999935
20
-112.2315239999999932
11
132.8636520000000019
21
-112.1906079999999974
0
LINE
8
BLACK
6
CONTINUOUS
10
132.8636520000000019
20
-112.1906079999999974
11
132.9508769999999913
21
-112.000251999999989
0
LINE
8
BLACK
6
CONTINUOUS
10
132.9508769999999913
20
-112.000251999999989
11
133.0017929999999922
21
-111.7943369999999987
0
LINE
8
BLACK
6
CONTINUOUS
10
133.0017929999999922
20
-111.7943369999999987
11
133.0042860000000076
21
-111.5943049999999914
0
LINE
8
BLACK
6
CONTINUOUS
10
133.0042860000000076
20
-111.5943049999999914
11
132.9955909999999903
21
-111.5354430000000008
0
LINE
8
BLACK
6
CONTINUOUS
10
132.9955909999999903
20
-111.5354430000000008
11
132.9315249999999935
21
-111.339667999999989
0
LINE
8
BLACK
6
CONTINUOUS
10
132.9315249999999935
20
-111.339667999999989
11
132.8043610000000001
21
-111.1702179999999913
0
LINE
8
BLACK
6
CONTINUOUS
10
132.8043610000000001
20
-111.1702179999999913
11
132.6697659999999814
21
-111.0733449999999891
0
LINE
8
BLACK
6
CONTINUOUS
10
132.6697659999999814
20
-111.0733449999999891
11
132.4809269999999799
21
-111.0040439999999933
0
LINE
8
BLACK
6
CONTINUOUS
10
132.4809269999999799
20
-111.0040439999999933
11
132.2845030000000008
21
-111.0012859999999932
0
LINE
8
BLACK
6
CONTINUOUS
10
132.2845030000000008
20
-111.0012859999999932
11
132.0993550000000027
21
-111.056523999999996
0
LINE
8
BLACK
6
CONTINUOUS
10
132.0993550000000027
20
-111.056523999999996
11
131.9219049999999811
21
-111.1609279999999984
0
LINE
8
BLACK
6
CONTINUOUS
10
131.9219049999999811
20
-111.1609279999999984
11
131.7644569999999931
21
-111.3091439999999892
0
LINE
8
BLACK
6
CONTINUOUS
10
131.7644569999999931
20
-111.3091439999999892
11
131.6398559999999804
21
-111.4799989999999923
0
LINE
8
BLACK
6
CONTINUOUS
10
131.6398559999999804
20
-111.4799989999999923
11
131.6019229999999993
21
-111.5448370000000011
0
LINE
8
BLACK
6
CONTINUOUS
10
131.6019229999999993
20
-111.5448370000000011
11
131.5215639999999837
21
-111.7321199999999948
0
LINE
8
BLACK
6
CONTINUOUS
10
131.5215639999999837
20
-111.7321199999999948
11
131.485510000000005
21
-111.9414409999999975
0
LINE
8
BLACK
6
CONTINUOUS
10
131.485510000000005
20
-111.9414409999999975
11
130.6954659999999819
21
-111.9414409999999975
0
LINE
8
BLACK
6
CONTINUOUS
10
130.6954659999999819
20
-111.9414409999999975
11
130.6957189999999969
21
-111.8670759999999973
0
LINE
8
BLACK
6
CONTINUOUS
10
130.6957189999999969
20
-111.8670759999999973
11
130.7311129999999935
21
-111.6422369999999944
0
LINE
8
BLACK
6
CONTINUOUS
10
130.7311129999999935
20
-111.6422369999999944
11
130.7870769999999823
21
-111.450524999999999
0
LINE
8
BLACK
6
CONTINUOUS
10
130.7870769999999823
20
-111.450524999999999
11
130.867102999999986
21
-111.2548599999999936
0
LINE
8
BLACK
6
CONTINUOUS
10
130.867102999999986
20
-111.2548599999999936
11
130.9484489999999823
21
-111.0954830000000015
0
LINE
8
BLACK
6
CONTINUOUS
10
130.9484489999999823
20
-111.0954830000000015
11
131.062894
21
-110.9087459999999936
0
LINE
8
BLACK
6
CONTINUOUS
10
131.062894
20
-110.9087459999999936
11
131.1865769999999998
21
-110.7448019999999929
0
LINE
8
BLACK
6
CONTINUOUS
10
131.1865769999999998
20
-110.7448019999999929
11
131.347188999999986
21
-110.5781549999999953
0
LINE
8
BLACK
6
CONTINUOUS
10
131.347188999999986
20
-110.5781549999999953
11
131.5211040000000082
21
-110.4443289999999962
0
LINE
8
BLACK
6
CONTINUOUS
10
131.5211040000000082
20
-110.4443289999999962
11
131.7083209999999838
21
-110.343322999999998
0
LINE
8
BLACK
6
CONTINUOUS
10
131.7083209999999838
20
-110.343322999999998
11
131.8405229999999904
21
-110.2942189999999982
0
LINE
8
BLACK
6
CONTINUOUS
10
131.8405229999999904
20
-110.2942189999999982
11
132.0463819999999942
21
-110.2496499999999884
0
LINE
8
BLACK
6
CONTINUOUS
10
132.0463819999999942
20
-110.2496499999999884
11
132.2578469999999982
21
-110.2410189999999943
0
LINE
8
BLACK
6
CONTINUOUS
10
132.2578469999999982
20
-110.2410189999999943
11
132.4749170000000049
21
-110.2683239999999927
0
LINE
8
BLACK
6
CONTINUOUS
10
134.501987999999983
20
-114.8089169999999939
11
134.3105489999999804
21
-114.7443219999999968
0
LINE
8
BLACK
6
CONTINUOUS
10
134.3105489999999804
20
-114.7443219999999968
11
134.1264290000000017
21
-114.6656179999999949
0
LINE
8
BLACK
6
CONTINUOUS
10
134.1264290000000017
20
-114.6656179999999949
11
134.0373119999999858
21
-114.6194809999999933
0
LINE
8
BLACK
6
CONTINUOUS
10
134.0373119999999858
20
-114.6194809999999933
11
133.8648139999999955
21
-114.4955889999999954
0
LINE
8
BLACK
6
CONTINUOUS
10
133.8648139999999955
20
-114.4955889999999954
11
133.7369620000000054
21
-114.3398949999999985
0
LINE
8
BLACK
6
CONTINUOUS
10
133.7369620000000054
20
-114.3398949999999985
11
133.6765299999999854
21
-114.2184319999999929
0
LINE
8
BLACK
6
CONTINUOUS
10
133.6765299999999854
20
-114.2184319999999929
11
133.631526000000008
21
-114.016492999999997
0
LINE
8
BLACK
6
CONTINUOUS
10
133.631526000000008
20
-114.016492999999997
11
133.6635709999999904
21
-113.8151969999999977
0
LINE
8
BLACK
6
CONTINUOUS
10
133.6635709999999904
20
-113.8151969999999977
11
133.6952489999999898
21
-113.7473710000000011
0
LINE
8
BLACK
6
CONTINUOUS
10
133.6952489999999898
20
-113.7473710000000011
11
134.6183839999999918
21
-112.0819919999999996
0
LINE
8
BLACK
6
CONTINUOUS
10
134.6183839999999918
20
-112.0819919999999996
11
134.2800100000000043
21
-111.8944289999999882
0
LINE
8
BLACK
6
CONTINUOUS
10
134.2800100000000043
20
-111.8944289999999882
11
134.5528300000000002
21
-111.4022489999999976
0
LINE
8
BLACK
6
CONTINUOUS
10
134.5528300000000002
20
-111.4022489999999976
11
134.8912029999999902
21
-111.5898129999999924
0
LINE
8
BLACK
6
CONTINUOUS
10
134.8912029999999902
20
-111.5898129999999924
11
135.2852759999999819
21
-110.8788869999999918
0
LINE
8
BLACK
6
CONTINUOUS
10
135.2852759999999819
20
-110.8788869999999918
11
135.9705679999999859
21
-111.258749999999992
0
LINE
8
BLACK
6
CONTINUOUS
10
135.9705679999999859
20
-111.258749999999992
11
135.5764949999999942
21
-111.9696759999999927
0
LINE
8
BLACK
6
CONTINUOUS
10
135.5764949999999942
20
-111.9696759999999927
11
135.9584470000000067
21
-112.1813949999999949
0
LINE
8
BLACK
6
CONTINUOUS
10
135.9584470000000067
20
-112.1813949999999949
11
135.6856269999999824
21
-112.6735749999999996
0
LINE
8
BLACK
6
CONTINUOUS
10
135.6856269999999824
20
-112.6735749999999996
11
135.3036759999999958
21
-112.4618559999999974
0
LINE
8
BLACK
6
CONTINUOUS
10
135.3036759999999958
20
-112.4618559999999974
11
134.4326419999999871
21
-114.0332409999999896
0
LINE
8
BLACK
6
CONTINUOUS
10
134.4326419999999871
20
-114.0332409999999896
11
134.4660639999999887
21
-114.2291649999999947
0
LINE
8
BLACK
6
CONTINUOUS
10
134.4660639999999887
20
-114.2291649999999947
11
134.5791350000000079
21
-114.3110399999999913
0
LINE
8
BLACK
6
CONTINUOUS
10
134.5791350000000079
20
-114.3110399999999913
11
134.7369160000000079
21
-114.3850949999999926
0
LINE
8
BLACK
6
CONTINUOUS
10
134.7369160000000079
20
-114.3850949999999926
11
134.501987999999983
21
-114.8089169999999939
0
LINE
8
BLACK
6
CONTINUOUS
10
138.1413719999999898
20
-116.8943979999999954
11
137.2501509999999882
21
-116.4003859999999975
0
LINE
8
BLACK
6
CONTINUOUS
10
137.2501509999999882
20
-116.4003859999999975
11
137.0023359999999855
21
-114.1551959999999895
0
LINE
8
BLACK
6
CONTINUOUS
10
137.0023359999999855
20
-114.1551959999999895
11
136.38450899999998
21
-114.3690069999999963
0
LINE
8
BLACK
6
CONTINUOUS
10
136.38450899999998
20
-114.3690069999999963
11
135.726616000000007
21
-115.5558769999999953
0
LINE
8
BLACK
6
CONTINUOUS
10
135.726616000000007
20
-115.5558769999999953
11
134.9917639999999892
21
-115.148541999999992
0
LINE
8
BLACK
6
CONTINUOUS
10
134.9917639999999892
20
-115.148541999999992
11
137.0227549999999894
21
-111.4845389999999981
0
LINE
8
BLACK
6
CONTINUOUS
10
137.0227549999999894
20
-111.4845389999999981
11
137.7576059999999813
21
-111.8918740000000014
0
LINE
8
BLACK
6
CONTINUOUS
10
137.7576059999999813
20
-111.8918740000000014
11
136.8671530000000018
21
-113.4982929999999897
0
LINE
8
BLACK
6
CONTINUOUS
10
136.8671530000000018
20
-113.4982929999999897
11
139.153823999999986
21
-112.6658099999999934
0
LINE
8
BLACK
6
CONTINUOUS
10
139.153823999999986
20
-112.6658099999999934
11
140.0305189999999982
21
-113.1517699999999991
0
LINE
8
BLACK
6
CONTINUOUS
10
140.0305189999999982
20
-113.1517699999999991
11
137.7535609999999906
21
-113.9203809999999919
0
LINE
8
BLACK
6
CONTINUOUS
10
137.7535609999999906
20
-113.9203809999999919
11
138.1413719999999898
21
-116.8943979999999954
0
LINE
8
BLACK
6
CONTINUOUS
10
142.1436439999999948
20
-114.3230939999999975
11
142.3257789999999829
21
-114.4358339999999998
0
LINE
8
BLACK
6
CONTINUOUS
10
142.3257789999999829
20
-114.4358339999999998
11
142.4863880000000051
21
-114.5602049999999963
0
LINE
8
BLACK
6
CONTINUOUS
10
142.4863880000000051
20
-114.5602049999999963
11
142.6465579999999989
21
-114.7200019999999938
0
LINE
8
BLACK
6
CONTINUOUS
10
142.6465579999999989
20
-114.7200019999999938
11
142.7774279999999862
21
-114.895629999999997
0
LINE
8
BLACK
6
CONTINUOUS
10
142.7774279999999862
20
-114.895629999999997
11
142.866281999999984
21
-115.0587659999999914
0
LINE
8
BLACK
6
CONTINUOUS
10
142.866281999999984
20
-115.0587659999999914
11
142.9356839999999806
21
-115.2554979999999887
0
LINE
8
BLACK
6
CONTINUOUS
10
142.9356839999999806
20
-115.2554979999999887
11
142.9616749999999854
21
-115.4514719999999954
0
LINE
8
BLACK
6
CONTINUOUS
10
142.9616749999999854
20
-115.4514719999999954
11
142.9442559999999958
21
-115.6466879999999975
0
LINE
8
BLACK
6
CONTINUOUS
10
142.9442559999999958
20
-115.6466879999999975
11
142.8834269999999833
21
-115.8411459999999948
0
LINE
8
BLACK
6
CONTINUOUS
10
142.8834269999999833
20
-115.8411459999999948
11
142.8291769999999872
21
-115.9519239999999911
0
LINE
8
BLACK
6
CONTINUOUS
10
142.8291769999999872
20
-115.9519239999999911
11
142.7130209999999977
21
-116.1232889999999998
0
LINE
8
BLACK
6
CONTINUOUS
10
142.7130209999999977
20
-116.1232889999999998
11
142.5692870000000028
21
-116.2680349999999976
0
LINE
8
BLACK
6
CONTINUOUS
10
142.5692870000000028
20
-116.2680349999999976
11
142.3979740000000049
21
-116.3861629999999963
0
LINE
8
BLACK
6
CONTINUOUS
10
142.3979740000000049
20
-116.3861629999999963
11
142.1990830000000017
21
-116.4776710000000008
0
LINE
8
BLACK
6
CONTINUOUS
10
142.1990830000000017
20
-116.4776710000000008
11
142.073048
21
-116.5180110000000013
0
LINE
8
BLACK
6
CONTINUOUS
10
142.073048
20
-116.5180110000000013
11
142.1428029999999865
21
-116.7380139999999926
0
LINE
8
BLACK
6
CONTINUOUS
10
142.1428029999999865
20
-116.7380139999999926
11
142.174790999999999
21
-116.9545969999999926
0
LINE
8
BLACK
6
CONTINUOUS
10
142.174790999999999
20
-116.9545969999999926
11
142.1690119999999808
21
-117.1677609999999987
0
LINE
8
BLACK
6
CONTINUOUS
10
142.1690119999999808
20
-117.1677609999999987
11
142.1254649999999913
21
-117.3775029999999902
0
LINE
8
BLACK
6
CONTINUOUS
10
142.1254649999999913
20
-117.3775029999999902
11
142.0441509999999994
21
-117.5838259999999877
0
LINE
8
BLACK
6
CONTINUOUS
10
142.0441509999999994
20
-117.5838259999999877
11
142.008654000000007
21
-117.6518409999999903
0
LINE
8
BLACK
6
CONTINUOUS
10
142.008654000000007
20
-117.6518409999999903
11
141.892612999999983
21
-117.8285909999999888
0
LINE
8
BLACK
6
CONTINUOUS
10
141.892612999999983
20
-117.8285909999999888
11
141.7566819999999836
21
-117.9760369999999909
0
LINE
8
BLACK
6
CONTINUOUS
10
141.7566819999999836
20
-117.9760369999999909
11
141.6008630000000039
21
-118.0941769999999877
0
LINE
8
BLACK
6
CONTINUOUS
10
141.6008630000000039
20
-118.0941769999999877
11
141.4251549999999895
21
-118.1830129999999883
0
LINE
8
BLACK
6
CONTINUOUS
10
141.4251549999999895
20
-118.1830129999999883
11
141.3158209999999997
21
-118.2206189999999992
0
LINE
8
BLACK
6
CONTINUOUS
10
141.3158209999999997
20
-118.2206189999999992
11
141.1211889999999869
21
-118.2600229999999897
0
LINE
8
BLACK
6
CONTINUOUS
10
141.1211889999999869
20
-118.2600229999999897
11
140.921213999999992
21
-118.2659909999999996
0
LINE
8
BLACK
6
CONTINUOUS
10
140.921213999999992
20
-118.2659909999999996
11
140.715896999999984
21
-118.2385239999999982
0
LINE
8
BLACK
6
CONTINUOUS
10
140.715896999999984
20
-118.2385239999999982
11
140.5052369999999939
21
-118.1776219999999995
0
LINE
8
BLACK
6
CONTINUOUS
10
140.5052369999999939
20
-118.1776219999999995
11
140.2892339999999933
21
-118.0832849999999894
0
LINE
8
BLACK
6
CONTINUOUS
10
140.2892339999999933
20
-118.0832849999999894
11
140.2160449999999798
21
-118.0444090000000017
0
LINE
8
BLACK
6
CONTINUOUS
10
140.2160449999999798
20
-118.0444090000000017
11
138.5651929999999936
21
-117.1293259999999918
0
LINE
8
BLACK
6
CONTINUOUS
10
138.5651929999999936
20
-117.1293259999999918
11
138.6728499999999826
21
-116.9351079999999996
0
LINE
8
BLACK
6
CONTINUOUS
10
138.6728499999999826
20
-116.9351079999999996
11
139.6334909999999923
21
-116.9351079999999996
0
LINE
8
BLACK
6
CONTINUOUS
10
139.6334909999999923
20
-116.9351079999999996
11
140.5734170000000063
21
-117.4561179999999894
0
LINE
8
BLACK
6
CONTINUOUS
10
140.5734170000000063
20
-117.4561179999999894
11
140.7747659999999996
21
-117.53416
0
LINE
8
BLACK
6
CONTINUOUS
10
140.7747659999999996
20
-117.53416
11
140.9834610000000055
21
-117.5292729999999892
0
LINE
8
BLACK
6
CONTINUOUS
10
140.9834610000000055
20
-117.5292729999999892
11
141.1693109999999933
21
-117.424036000000001
0
LINE
8
BLACK
6
CONTINUOUS
10
141.1693109999999933
20
-117.424036000000001
11
141.3131879999999967
21
-117.2496349999999978
0
LINE
8
BLACK
6
CONTINUOUS
10
141.3131879999999967
20
-117.2496349999999978
11
141.3510829999999885
21
-117.185693999999998
0
LINE
8
BLACK
6
CONTINUOUS
10
141.3510829999999885
20
-117.185693999999998
11
141.4248110000000054
21
-116.9984929999999963
0
LINE
8
BLACK
6
CONTINUOUS
10
141.4248110000000054
20
-116.9984929999999963
11
141.4171709999999962
21
-116.7833369999999888
0
LINE
8
BLACK
6
CONTINUOUS
10
141.4171709999999962
20
-116.7833369999999888
11
141.3136389999999949
21
-116.6161999999999921
0
LINE
8
BLACK
6
CONTINUOUS
10
141.3136389999999949
20
-116.6161999999999921
11
141.1483580000000018
21
-116.4885729999999882
0
LINE
8
BLACK
6
CONTINUOUS
10
141.1483580000000018
20
-116.4885729999999882
11
141.1190560000000005
21
-116.4717589999999916
0
LINE
8
BLACK
6
CONTINUOUS
10
141.1190560000000005
20
-116.4717589999999916
11
140.1791299999999865
21
-115.9507490000000018
0
LINE
8
BLACK
6
CONTINUOUS
10
140.1791299999999865
20
-115.9507490000000018
11
139.6334909999999923
21
-116.9351079999999996
0
LINE
8
BLACK
6
CONTINUOUS
10
139.6334909999999923
20
-116.9351079999999996
11
138.6728499999999826
21
-116.9351079999999996
0
LINE
8
BLACK
6
CONTINUOUS
10
138.6728499999999826
20
-116.9351079999999996
11
139.5519349999999861
21
-115.3491959999999921
0
LINE
8
BLACK
6
CONTINUOUS
10
139.5519349999999861
20
-115.3491959999999921
11
140.5125759999999957
21
-115.3491959999999921
0
LINE
8
BLACK
6
CONTINUOUS
10
140.5125759999999957
20
-115.3491959999999921
11
141.3644909999999868
21
-115.8214199999999892
0
LINE
8
BLACK
6
CONTINUOUS
10
141.3644909999999868
20
-115.8214199999999892
11
141.5615760000000023
21
-115.9024439999999885
0
LINE
8
BLACK
6
CONTINUOUS
10
141.5615760000000023
20
-115.9024439999999885
11
141.7604479999999967
21
-115.9113109999999978
0
LINE
8
BLACK
6
CONTINUOUS
10
141.7604479999999967
20
-115.9113109999999978
11
141.9505599999999959
21
-115.8145279999999957
0
LINE
8
BLACK
6
CONTINUOUS
10
141.9505599999999959
20
-115.8145279999999957
11
142.0738159999999937
21
-115.6611029999999971
0
LINE
8
BLACK
6
CONTINUOUS
10
142.0738159999999937
20
-115.6611029999999971
11
142.089665999999994
21
-115.6336029999999937
0
LINE
8
BLACK
6
CONTINUOUS
10
142.089665999999994
20
-115.6336029999999937
11
142.1639820000000043
21
-115.4324019999999962
0
LINE
8
BLACK
6
CONTINUOUS
10
142.1639820000000043
20
-115.4324019999999962
11
142.1444369999999822
21
-115.2316569999999984
0
LINE
8
BLACK
6
CONTINUOUS
10
142.1444369999999822
20
-115.2316569999999984
11
142.0156749999999874
21
-115.0580229999999915
0
LINE
8
BLACK
6
CONTINUOUS
10
142.0156749999999874
20
-115.0580229999999915
11
141.8691570000000013
21
-114.9573279999999897
0
LINE
8
BLACK
6
CONTINUOUS
10
141.8691570000000013
20
-114.9573279999999897
11
140.9975890000000049
21
-114.4742099999999994
0
LINE
8
BLACK
6
CONTINUOUS
10
140.9975890000000049
20
-114.4742099999999994
11
140.5125759999999957
21
-115.3491959999999921
0
LINE
8
BLACK
6
CONTINUOUS
10
140.5125759999999957
20
-115.3491959999999921
11
139.5519349999999861
21
-115.3491959999999921
0
LINE
8
BLACK
6
CONTINUOUS
10
139.5519349999999861
20
-115.3491959999999921
11
140.5961829999999964
21
-113.4653229999999979
0
LINE
8
BLACK
6
CONTINUOUS
10
140.5961829999999964
20
-113.4653229999999979
11
142.1436439999999948
21
-114.3230939999999975
0
LINE
8
BLACK
6
CONTINUOUS
10
135.7750000000000057
20
-64.3374999999999915
11
135.7750000000000057
21
-78.5374999999999943
0
LINE
8
BLACK
6
CONTINUOUS
10
135.7750000000000057
20
-78.5374999999999943
11
149.9749999999999943
21
-78.5374999999999943
0
LINE
8
BLACK
6
CONTINUOUS
10
149.9749999999999943
20
-64.3374999999999915
11
135.7750000000000057
21
-64.3374999999999915
0
LINE
8
BLACK
6
CONTINUOUS
10
149.9749999999999943
20
-78.5374999999999943
11
149.9749999999999943
21
-64.3374999999999915
0
LINE
8
BLACK
6
CONTINUOUS
10
78.625
20
-73.8624999999999972
11
78.625
21
-88.0625
0
LINE
8
BLACK
6
CONTINUOUS
10
78.625
20
-88.0625
11
92.8250000000000028
21
-88.0625
0
LINE
8
BLACK
6
CONTINUOUS
10
92.8250000000000028
20
-73.8624999999999972
11
78.625
21
-73.8624999999999972
0
LINE
8
BLACK
6
CONTINUOUS
10
92.8250000000000028
20
-88.0625
11
92.8250000000000028
21
-73.8624999999999972
0
LINE
8
BLACK
6
CONTINUOUS
10
116.7249999999999943
20
-88.1499999999999915
11
116.7249999999999943
21
-102.3499999999999943
0
LINE
8
BLACK
6
CONTINUOUS
10
116.7249999999999943
20
-102.3499999999999943
11
130.9249999999999829
21
-102.3499999999999943
0
LINE
8
BLACK
6
CONTINUOUS
10
130.9249999999999829
20
-88.1499999999999915
11
116.7249999999999943
21
-88.1499999999999915
0
LINE
8
BLACK
6
CONTINUOUS
10
130.9249999999999829
20
-102.3499999999999943
11
130.9249999999999829
21
-88.1499999999999915
0
LINE
8
BLACK
6
CONTINUOUS
10
97.6749999999999972
20
-54.8125
11
97.6749999999999972
21
-69.0125000000000028
0
LINE
8
BLACK
6
CONTINUOUS
10
97.6749999999999972
20
-69.0125000000000028
11
111.875
21
-69.0125000000000028
0
LINE
8
BLACK
6
CONTINUOUS
10
111.875
20
-54.8125
11
97.6749999999999972
21
-54.8125
0
LINE
8
BLACK
6
CONTINUOUS
10
111.875
20
-69.0125000000000028
11
111.875
21
-54.8125
0
LINE
8
BLACK
6
CONTINUOUS
10
200.4342919999999992
20
-102.1845439999999883
11
200.4342919999999992
21
-96.084543999999994
0
LINE
8
BLACK
6
CONTINUOUS
10
212.5342919999999935
20
-96.084543999999994
11
200.4342919999999992
21
-96.084543999999994
0
LINE
8
BLACK
6
CONTINUOUS
10
212.5342919999999935
20
-96.334543999999994
11
214.5342919999999935
21
-96.334543999999994
0
LINE
8
BLACK
6
CONTINUOUS
10
212.5342919999999935
20
-101.9345440000000025
11
214.5342909999999961
21
-101.9345440000000025
0
LINE
8
BLACK
6
CONTINUOUS
10
212.5342919999999935
20
-102.1845439999999883
11
200.4342919999999992
21
-102.1845439999999883
0
LINE
8
BLACK
6
CONTINUOUS
10
212.5342919999999935
20
-102.1845439999999883
11
212.5342919999999935
21
-96.084543999999994
0
LINE
8
BLACK
6
CONTINUOUS
10
214.5342909999999961
20
-101.9345440000000025
11
214.5342919999999935
21
-96.334543999999994
0
LINE
8
BLACK
6
CONTINUOUS
10
78.625
20
-54.8125
11
78.625
21
-69.0125000000000028
0
LINE
8
BLACK
6
CONTINUOUS
10
78.625
20
-69.0125000000000028
11
92.8250000000000028
21
-69.0125000000000028
0
LINE
8
BLACK
6
CONTINUOUS
10
92.8250000000000028
20
-54.8125
11
78.625
21
-54.8125
0
LINE
8
BLACK
6
CONTINUOUS
10
92.8250000000000028
20
-69.0125000000000028
11
92.8250000000000028
21
-54.8125
0
LINE
8
BLACK
6
CONTINUOUS
10
173.875
20
-54.8125
11
173.875
21
-69.0125000000000028
0
LINE
8
BLACK
6
CONTINUOUS
10
173.875
20
-69.0125000000000028
11
188.0749999999999886
21
-69.0125000000000028
0
LINE
8
BLACK
6
CONTINUOUS
10
188.0749999999999886
20
-54.8125
11
173.875
21
-54.8125
0
LINE
8
BLACK
6
CONTINUOUS
10
188.0749999999999886
20
-69.0125000000000028
11
188.0749999999999886
21
-54.8125
0
LINE
8
BLACK
6
CONTINUOUS
10
179.1396069999999838
20
-137.1998109999999826
11
191.5592069999999865
21
-144.0841069999999888
0
LINE
8
BLACK
6
CONTINUOUS
10
186.02390299999999
20
-124.7802109999999942
11
179.1396069999999838
21
-137.1998109999999826
0
LINE
8
BLACK
6
CONTINUOUS
10
191.5592069999999865
20
-144.0841069999999888
11
198.4435029999999927
21
-131.6645069999999862
0
LINE
8
BLACK
6
CONTINUOUS
10
198.4435029999999927
20
-131.6645069999999862
11
186.02390299999999
21
-124.7802109999999942
0
LINE
8
BLACK
6
CONTINUOUS
10
144.6530520000000024
20
-120.8276520000000005
11
157.0726509999999791
21
-127.71194899999999
0
LINE
8
BLACK
6
CONTINUOUS
10
151.5373490000000061
20
-108.4080529999999953
11
144.6530520000000024
21
-120.8276520000000005
0
LINE
8
BLACK
6
CONTINUOUS
10
157.0726509999999791
20
-127.71194899999999
11
163.9569479999999828
21
-115.292349999999999
0
LINE
8
BLACK
6
CONTINUOUS
10
163.9569479999999828
20
-115.292349999999999
11
151.5373490000000061
21
-108.4080529999999953
0
LINE
8
BLACK
6
CONTINUOUS
10
189.5145330000000001
20
-118.4829499999999882
11
201.9341330000000028
21
-125.3672459999999944
0
LINE
8
BLACK
6
CONTINUOUS
10
196.3988289999999779
20
-106.0633499999999998
11
189.5145330000000001
21
-118.4829499999999882
0
LINE
8
BLACK
6
CONTINUOUS
10
201.9341330000000028
20
-125.3672459999999944
11
208.8184289999999805
21
-112.9476459999999918
0
LINE
8
BLACK
6
CONTINUOUS
10
208.8184289999999805
20
-112.9476459999999918
11
196.3988289999999779
21
-106.0633499999999998
0
LINE
8
BLACK
6
CONTINUOUS
10
154.8249999999999886
20
-69.0999999999999943
11
154.8249999999999886
21
-83.2999999999999972
0
LINE
8
BLACK
6
CONTINUOUS
10
154.8249999999999886
20
-83.2999999999999972
11
169.0250000000000057
21
-83.2999999999999972
0
LINE
8
BLACK
6
CONTINUOUS
10
169.0250000000000057
20
-69.0999999999999943
11
154.8249999999999886
21
-69.0999999999999943
0
LINE
8
BLACK
6
CONTINUOUS
10
169.0250000000000057
20
-83.2999999999999972
11
169.0250000000000057
21
-69.0999999999999943
0
LINE
8
BLACK
6
CONTINUOUS
10
78.625
20
-92.9124999999999943
11
78.625
21
-107.1124999999999972
0
LINE
8
BLACK
6
CONTINUOUS
10
78.625
20
-107.1124999999999972
11
92.8250000000000028
21
-107.1124999999999972
0
LINE
8
BLACK
6
CONTINUOUS
10
92.8250000000000028
20
-92.9124999999999943
11
78.625
21
-92.9124999999999943
0
LINE
8
BLACK
6
CONTINUOUS
10
92.8250000000000028
20
-107.1124999999999972
11
92.8250000000000028
21
-92.9124999999999943
0
LINE
8
BLACK
6
CONTINUOUS
10
116.7249999999999943
20
-69.0999999999999943
11
116.7249999999999943
21
-83.2999999999999972
0
LINE
8
BLACK
6
CONTINUOUS
10
116.7249999999999943
20
-83.2999999999999972
11
130.9249999999999829
21
-83.2999999999999972
0
LINE
8
BLACK
6
CONTINUOUS
10
130.9249999999999829
20
-69.0999999999999943
11
116.7249999999999943
21
-69.0999999999999943
0
LINE
8
BLACK
6
CONTINUOUS
10
130.9249999999999829
20
-83.2999999999999972
11
130.9249999999999829
21
-69.0999999999999943
0
LINE
8
BLACK
6
CONTINUOUS
10
135.7750000000000057
20
-83.3875000000000028
11
135.7750000000000057
21
-97.5874999999999915
0
LINE
8
BLACK
6
CONTINUOUS
10
135.7750000000000057
20
-97.5874999999999915
11
149.9749999999999943
21
-97.5874999999999915
0
LINE
8
BLACK
6
CONTINUOUS
10
149.9749999999999943
20
-83.3875000000000028
11
135.7750000000000057
21
-83.3875000000000028
0
LINE
8
BLACK
6
CONTINUOUS
10
149.9749999999999943
20
-97.5874999999999915
11
149.9749999999999943
21
-83.3875000000000028
0
LINE
8
BLACK
6
CONTINUOUS
10
173.875
20
-92.9124999999999943
11
173.875
21
-107.1124999999999972
0
LINE
8
BLACK
6
CONTINUOUS
10
173.875
20
-107.1124999999999972
11
188.0749999999999886
21
-107.1124999999999972
0
LINE
8
BLACK
6
CONTINUOUS
10
188.0749999999999886
20
-92.9124999999999943
11
173.875
21
-92.9124999999999943
0
LINE
8
BLACK
6
CONTINUOUS
10
188.0749999999999886
20
-107.1124999999999972
11
188.0749999999999886
21
-92.9124999999999943
0
LINE
8
BLACK
6
CONTINUOUS
10
97.6749999999999972
20
-73.8624999999999972
11
97.6749999999999972
21
-88.0625
0
LINE
8
BLACK
6
CONTINUOUS
10
97.6749999999999972
20
-88.0625
11
111.875
21
-88.0625
0
LINE
8
BLACK
6
CONTINUOUS
10
111.875
20
-73.8624999999999972
11
97.6749999999999972
21
-73.8624999999999972
0
LINE
8
BLACK
6
CONTINUOUS
10
111.875
20
-88.0625
11
111.875
21
-73.8624999999999972
0
LINE
8
BLACK
6
CONTINUOUS
10
154.8249999999999886
20
-88.1499999999999915
11
154.8249999999999886
21
-102.3499999999999943
0
LINE
8
BLACK
6
CONTINUOUS
10
154.8249999999999886
20
-102.3499999999999943
11
169.0250000000000057
21
-102.3499999999999943
0
LINE
8
BLACK
6
CONTINUOUS
10
169.0250000000000057
20
-88.1499999999999915
11
154.8249999999999886
21
-88.1499999999999915
0
LINE
8
BLACK
6
CONTINUOUS
10
169.0250000000000057
20
-102.3499999999999943
11
169.0250000000000057
21
-88.1499999999999915
0
LINE
8
BLACK
6
CONTINUOUS
10
173.875
20
-73.8624999999999972
11
173.875
21
-88.0625
0
LINE
8
BLACK
6
CONTINUOUS
10
173.875
20
-88.0625
11
188.0749999999999886
21
-88.0625
0
LINE
8
BLACK
6
CONTINUOUS
10
188.0749999999999886
20
-73.8624999999999972
11
173.875
21
-73.8624999999999972
0
LINE
8
BLACK
6
CONTINUOUS
10
188.0749999999999886
20
-88.0625
11
188.0749999999999886
21
-73.8624999999999972
0
LINE
8
BLACK
6
CONTINUOUS
10
135.7750000000000057
20
-45.2875000000000014
11
135.7750000000000057
21
-59.4874999999999972
0
LINE
8
BLACK
6
CONTINUOUS
10
135.7750000000000057
20
-59.4874999999999972
11
149.9749999999999943
21
-59.4874999999999972
0
LINE
8
BLACK
6
CONTINUOUS
10
149.9749999999999943
20
-45.2875000000000014
11
135.7750000000000057
21
-45.2875000000000014
0
LINE
8
BLACK
6
CONTINUOUS
10
149.9749999999999943
20
-59.4874999999999972
11
149.9749999999999943
21
-45.2875000000000014
0
LINE
8
BLACK
6
CONTINUOUS
10
116.7249999999999943
20
-50.0499999999999972
11
116.7249999999999943
21
-64.25
0
LINE
8
BLACK
6
CONTINUOUS
10
116.7249999999999943
20
-64.25
11
130.9249999999999829
21
-64.25
0
LINE
8
BLACK
6
CONTINUOUS
10
130.9249999999999829
20
-50.0499999999999972
11
116.7249999999999943
21
-50.0499999999999972
0
LINE
8
BLACK
6
CONTINUOUS
10
130.9249999999999829
20
-64.25
11
130.9249999999999829
21
-50.0499999999999972
0
LINE
8
BLACK
6
CONTINUOUS
10
162.4786159999999882
20
-127.9632599999999911
11
174.8982159999999908
21
-134.8475559999999973
0
LINE
8
BLACK
6
CONTINUOUS
10
169.3629119999999944
20
-115.5436599999999885
11
162.4786159999999882
21
-127.9632599999999911
0
LINE
8
BLACK
6
CONTINUOUS
10
174.8982159999999908
20
-134.8475559999999973
11
181.782511999999997
21
-122.4279559999999947
0
LINE
8
BLACK
6
CONTINUOUS
10
181.782511999999997
20
-122.4279559999999947
11
169.3629119999999944
21
-115.5436599999999885
0
LINE
8
BLACK
6
CONTINUOUS
10
154.8249999999999886
20
-50.0499999999999972
11
154.8249999999999886
21
-64.25
0
LINE
8
BLACK
6
CONTINUOUS
10
154.8249999999999886
20
-64.25
11
169.0250000000000057
21
-64.25
0
LINE
8
BLACK
6
CONTINUOUS
10
169.0250000000000057
20
-50.0499999999999972
11
154.8249999999999886
21
-50.0499999999999972
0
LINE
8
BLACK
6
CONTINUOUS
10
169.0250000000000057
20
-64.25
11
169.0250000000000057
21
-50.0499999999999972
0
LINE
8
BLACK
6
CONTINUOUS
10
97.6749999999999972
20
-92.9124999999999943
11
97.6749999999999972
21
-107.1124999999999972
0
LINE
8
BLACK
6
CONTINUOUS
10
97.6749999999999972
20
-107.1124999999999972
11
111.875
21
-107.1124999999999972
0
LINE
8
BLACK
6
CONTINUOUS
10
111.875
20
-92.9124999999999943
11
97.6749999999999972
21
-92.9124999999999943
0
LINE
8
BLACK
6
CONTINUOUS
10
111.875
20
-107.1124999999999972
11
111.875
21
-92.9124999999999943
0
LINE
8
BLACK
6
CONTINUOUS
10
193.2744999999999891
20
-53.3545449999999946
11
193.2744999999999891
21
-90.474544999999992
0
LINE
8
BLACK
6
CONTINUOUS
10
193.2744999999999891
20
-90.474544999999992
11
211.0544999999999902
21
-90.474544999999992
0
LINE
8
BLACK
6
CONTINUOUS
10
208.5144999999999982
20
-62.5345449999999943
11
208.5144999999999982
21
-59.9945449999999951
0
LINE
8
BLACK
6
CONTINUOUS
10
211.0544999999999902
20
-53.3545449999999946
11
193.2744999999999891
21
-53.3545449999999946
0
LINE
8
BLACK
6
CONTINUOUS
10
211.0544999999999902
20
-59.9945449999999951
11
208.5144999999999982
21
-59.9945449999999951
0
LINE
8
BLACK
6
CONTINUOUS
10
211.0544999999999902
20
-62.5345449999999943
11
208.5144999999999982
21
-62.5345449999999943
0
LINE
8
BLACK
6
CONTINUOUS
10
211.0544999999999902
20
-90.474544999999992
11
211.0544999999999902
21
-53.3545449999999946
0
LINE
8
BLACK
6
CONTINUOUS
10
195.9485659999999996
20
-65.8142840000000007
11
195.9891559999999799
21
-65.8548739999999952
0
LINE
8
BLACK
6
CONTINUOUS
10
195.9891559999999799
20
-65.8548739999999952
11
195.9948650000000043
21
-66.6835749999999905
0
LINE
8
BLACK
6
CONTINUOUS
10
195.9948650000000043
20
-66.6835749999999905
11
195.9891559999999799
21
-66.7122760000000028
0
LINE
8
BLACK
6
CONTINUOUS
10
195.9891559999999799
20
-66.7122760000000028
11
195.9485659999999996
21
-66.7528659999999974
0
LINE
8
BLACK
6
CONTINUOUS
10
195.9485659999999996
20
-66.7528659999999974
11
195.819864999999993
21
-66.7585749999999933
0
LINE
8
BLACK
6
CONTINUOUS
10
195.819864999999993
20
-66.7585749999999933
11
195.7911639999999807
21
-66.7528659999999974
0
LINE
8
BLACK
6
CONTINUOUS
10
195.7911639999999807
20
-66.7528659999999974
11
195.7505740000000003
21
-66.7122760000000028
0
LINE
8
BLACK
6
CONTINUOUS
10
195.7505740000000003
20
-66.7122760000000028
11
195.7448650000000043
21
-65.8835749999999933
0
LINE
8
BLACK
6
CONTINUOUS
10
195.7448650000000043
20
-65.8835749999999933
11
195.7505740000000003
21
-65.8548739999999952
0
LINE
8
BLACK
6
CONTINUOUS
10
195.7505740000000003
20
-65.8548739999999952
11
195.7911639999999807
21
-65.8142840000000007
0
LINE
8
BLACK
6
CONTINUOUS
10
195.7911639999999807
20
-65.8142840000000007
11
195.9198649999999873
21
-65.8085749999999905
0
LINE
8
BLACK
6
CONTINUOUS
10
195.9198649999999873
20
-65.8085749999999905
11
195.9485659999999996
21
-65.8142840000000007
0
LINE
8
BLACK
6
CONTINUOUS
10
196.1485659999999882
20
-66.2142839999999921
11
196.189155999999997
21
-66.2548740000000009
0
LINE
8
BLACK
6
CONTINUOUS
10
196.189155999999997
20
-66.2548740000000009
11
196.194864999999993
21
-66.3835749999999933
0
LINE
8
BLACK
6
CONTINUOUS
10
196.194864999999993
20
-66.3835749999999933
11
196.189155999999997
21
-66.4122759999999914
0
LINE
8
BLACK
6
CONTINUOUS
10
196.189155999999997
20
-66.4122759999999914
11
196.1485659999999882
21
-66.4528660000000002
0
LINE
8
BLACK
6
CONTINUOUS
10
196.1485659999999882
20
-66.4528660000000002
11
196.0198649999999816
21
-66.4585749999999962
0
LINE
8
BLACK
6
CONTINUOUS
10
196.0198649999999816
20
-66.4585749999999962
11
195.9911639999999977
21
-66.4528660000000002
0
LINE
8
BLACK
6
CONTINUOUS
10
195.9911639999999977
20
-66.4528660000000002
11
195.9505739999999889
21
-66.4122759999999914
0
LINE
8
BLACK
6
CONTINUOUS
10
195.9505739999999889
20
-66.4122759999999914
11
195.944864999999993
21
-66.283574999999999
0
LINE
8
BLACK
6
CONTINUOUS
10
195.944864999999993
20
-66.283574999999999
11
195.9505739999999889
21
-66.2548740000000009
0
LINE
8
BLACK
6
CONTINUOUS
10
195.9505739999999889
20
-66.2548740000000009
11
195.9911639999999977
21
-66.2142839999999921
0
LINE
8
BLACK
6
CONTINUOUS
10
195.9911639999999977
20
-66.2142839999999921
11
196.1198650000000043
21
-66.2085749999999962
0
LINE
8
BLACK
6
CONTINUOUS
10
196.1198650000000043
20
-66.2085749999999962
11
196.1485659999999882
21
-66.2142839999999921
0
LINE
8
BLACK
6
CONTINUOUS
10
196.3485660000000053
20
-65.8142840000000007
11
196.3891559999999856
21
-65.8548739999999952
0
LINE
8
BLACK
6
CONTINUOUS
10
196.3891559999999856
20
-65.8548739999999952
11
196.3948649999999816
21
-65.9835750000000019
0
LINE
8
BLACK
6
CONTINUOUS
10
196.3948649999999816
20
-65.9835750000000019
11
196.3891559999999856
21
-66.012276
0
LINE
8
BLACK
6
CONTINUOUS
10
196.3891559999999856
20
-66.012276
11
196.3485660000000053
21
-66.0528659999999945
0
LINE
8
BLACK
6
CONTINUOUS
10
196.3485660000000053
20
-66.0528659999999945
11
195.819864999999993
21
-66.0585749999999905
0
LINE
8
BLACK
6
CONTINUOUS
10
195.819864999999993
20
-66.0585749999999905
11
195.7911639999999807
21
-66.0528659999999945
0
LINE
8
BLACK
6
CONTINUOUS
10
195.7911639999999807
20
-66.0528659999999945
11
195.7505740000000003
21
-66.012276
0
LINE
8
BLACK
6
CONTINUOUS
10
195.7505740000000003
20
-66.012276
11
195.7448650000000043
21
-65.8835749999999933
0
LINE
8
BLACK
6
CONTINUOUS
10
195.7448650000000043
20
-65.8835749999999933
11
195.7505740000000003
21
-65.8548739999999952
0
LINE
8
BLACK
6
CONTINUOUS
10
195.7505740000000003
20
-65.8548739999999952
11
195.7911639999999807
21
-65.8142840000000007
0
LINE
8
BLACK
6
CONTINUOUS
10
195.7911639999999807
20
-65.8142840000000007
11
196.319864999999993
21
-65.8085749999999905
0
LINE
8
BLACK
6
CONTINUOUS
10
196.319864999999993
20
-65.8085749999999905
11
196.3485660000000053
21
-65.8142840000000007
0
LINE
8
BLACK
6
CONTINUOUS
10
196.3485660000000053
20
-65.8142840000000007
11
196.3891559999999856
21
-65.8548739999999952
0
LINE
8
BLACK
6
CONTINUOUS
10
196.3891559999999856
20
-65.8548739999999952
11
196.3948649999999816
21
-66.1835749999999905
0
LINE
8
BLACK
6
CONTINUOUS
10
196.3948649999999816
20
-66.1835749999999905
11
196.3891559999999856
21
-66.2122760000000028
0
LINE
8
BLACK
6
CONTINUOUS
10
196.3891559999999856
20
-66.2122760000000028
11
196.3485660000000053
21
-66.2528659999999974
0
LINE
8
BLACK
6
CONTINUOUS
10
196.3485660000000053
20
-66.2528659999999974
11
196.2198649999999986
21
-66.2585749999999933
0
LINE
8
BLACK
6
CONTINUOUS
10
196.2198649999999986
20
-66.2585749999999933
11
196.1911639999999863
21
-66.2528659999999974
0
LINE
8
BLACK
6
CONTINUOUS
10
196.1911639999999863
20
-66.2528659999999974
11
196.1505739999999776
21
-66.2122760000000028
0
LINE
8
BLACK
6
CONTINUOUS
10
196.1505739999999776
20
-66.2122760000000028
11
196.1448649999999816
21
-65.8835749999999933
0
LINE
8
BLACK
6
CONTINUOUS
10
196.1448649999999816
20
-65.8835749999999933
11
196.1505739999999776
21
-65.8548739999999952
0
LINE
8
BLACK
6
CONTINUOUS
10
196.1505739999999776
20
-65.8548739999999952
11
196.1911639999999863
21
-65.8142840000000007
0
LINE
8
BLACK
6
CONTINUOUS
10
196.1911639999999863
20
-65.8142840000000007
11
196.319864999999993
21
-65.8085749999999905
0
LINE
8
BLACK
6
CONTINUOUS
10
196.319864999999993
20
-65.8085749999999905
11
196.3485660000000053
21
-65.8142840000000007
0
LINE
8
BLACK
6
CONTINUOUS
10
196.3485660000000053
20
-66.414283999999995
11
196.3891559999999856
21
-66.4548740000000038
0
LINE
8
BLACK
6
CONTINUOUS
10
196.3891559999999856
20
-66.4548740000000038
11
196.3948649999999816
21
-66.6835749999999905
0
LINE
8
BLACK
6
CONTINUOUS
10
196.3948649999999816
20
-66.6835749999999905
11
196.3891559999999856
21
-66.7122760000000028
0
LINE
8
BLACK
6
CONTINUOUS
10
196.3891559999999856
20
-66.7122760000000028
11
196.3485660000000053
21
-66.7528659999999974
0
LINE
8
BLACK
6
CONTINUOUS
10
196.3485660000000053
20
-66.7528659999999974
11
196.2198649999999986
21
-66.7585749999999933
0
LINE
8
BLACK
6
CONTINUOUS
10
196.2198649999999986
20
-66.7585749999999933
11
196.1911639999999863
21
-66.7528659999999974
0
LINE
8
BLACK
6
CONTINUOUS
10
196.1911639999999863
20
-66.7528659999999974
11
196.1505739999999776
21
-66.7122760000000028
0
LINE
8
BLACK
6
CONTINUOUS
10
196.1505739999999776
20
-66.7122760000000028
11
196.1448649999999816
21
-66.4835750000000019
0
LINE
8
BLACK
6
CONTINUOUS
10
196.1448649999999816
20
-66.4835750000000019
11
196.1505739999999776
21
-66.4548740000000038
0
LINE
8
BLACK
6
CONTINUOUS
10
196.1505739999999776
20
-66.4548740000000038
11
196.1911639999999863
21
-66.414283999999995
0
LINE
8
BLACK
6
CONTINUOUS
10
196.1911639999999863
20
-66.414283999999995
11
196.319864999999993
21
-66.408574999999999
0
LINE
8
BLACK
6
CONTINUOUS
10
196.319864999999993
20
-66.408574999999999
11
196.3485660000000053
21
-66.414283999999995
0
LINE
8
BLACK
6
CONTINUOUS
10
210.6607999999999947
20
-60.3882449999999977
11
208.9081999999999937
21
-60.3882449999999977
0
LINE
8
BLACK
6
CONTINUOUS
10
208.9081999999999937
20
-60.3882449999999977
11
208.9081999999999937
21
-62.1408449999999988
0
LINE
8
BLACK
6
CONTINUOUS
10
208.9081999999999937
20
-62.1408449999999988
11
210.6607999999999947
21
-62.1408449999999988
0
LINE
8
BLACK
6
CONTINUOUS
10
210.6607999999999947
20
-62.1408449999999988
11
210.6607999999999947
21
-60.3882449999999977
0
CIRCLE
8
BLACK
10
209.78449999999998
20
-63.8045449999999974
40
0.8763
0
CIRCLE
8
BLACK
10
209.78449999999998
20
-66.3445449999999965
40
0.8763
0
CIRCLE
8
BLACK
10
209.78449999999998
20
-68.8845450000000028
40
0.8763
0
CIRCLE
8
BLACK
10
209.78449999999998
20
-71.4245449999999948
40
0.8763
0
CIRCLE
8
BLACK
10
209.78449999999998
20
-73.9645450000000011
40
0.8763
0
CIRCLE
8
BLACK
10
209.78449999999998
20
-76.5045449999999931
40
0.8763
0
CIRCLE
8
BLACK
10
209.78449999999998
20
-79.0445449999999994
40
0.8763
0
CIRCLE
8
BLACK
10
209.78449999999998
20
-81.5845449999999914
40
0.8763
0
CIRCLE
8
BLACK
10
209.78449999999998
20
-84.1245449999999977
40
0.8763
0
CIRCLE
8
BLACK
10
209.78449999999998
20
-86.6645449999999897
40
0.8763
0
CIRCLE
8
BLACK
10
209.78449999999998
20
-89.204544999999996
40
0.8763
0
CIRCLE
8
BLACK
10
194.5444999999999993
20
-89.204544999999996
40
0.8763
0
CIRCLE
8
BLACK
10
194.5444999999999993
20
-86.6645449999999897
40
0.8763
0
CIRCLE
8
BLACK
10
194.5444999999999993
20
-84.1245449999999977
40
0.8763
0
CIRCLE
8
BLACK
10
194.5444999999999993
20
-81.5845449999999914
40
0.8763
0
CIRCLE
8
BLACK
10
194.5444999999999993
20
-79.0445449999999994
40
0.8763
0
CIRCLE
8
BLACK
10
194.5444999999999993
20
-76.5045449999999931
40
0.8763
0
CIRCLE
8
BLACK
10
194.5444999999999993
20
-73.9645450000000011
40
0.8763
0
CIRCLE
8
BLACK
10
194.5444999999999993
20
-71.4245449999999948
40
0.8763
0
CIRCLE
8
BLACK
10
194.5444999999999993
20
-68.8845450000000028
40
0.8763
0
CIRCLE
8
BLACK
10
194.5444999999999993
20
-66.3445449999999965
40
0.8763
0
CIRCLE
8
BLACK
10
194.5444999999999993
20
-63.8045449999999974
40
0.8763
0
CIRCLE
8
BLACK
10
194.5444999999999993
20
-61.2645449999999983
40
0.8763
  0
ENDSEC
  0
EOF
