  0
SECTION
  2
HEADER
  9
$ANGBASE
  50
0.0
  9
$ANGDIR
  70
1
  9
$MEASUREMENT
  70
1
  0
ENDSEC
  0
SECTION
  2
TABLES
  0
TABLE
  2
LTYPE
  70
4
  0
LTYPE
  5
40F
  2
CONTINUOUS
  70
0
  3
Solid line
  72
65
  73
0
  40
0.0
  0
LTYPE
  5
410
  2
DASHDOT
 70
0
  3
Dash Dot ____ _ ____ _
 72
65
 73
4
 40
2.0
 49
1.25
 49
-0.25
 49
0.25
 49
-0.25
  0
LTYPE
  5
411
  2
DASHED
 70
0
  3
Dashed __ __ __ __ __
 72
65
 73
2
 40
0.75
 49
0.5
 49
-0.25
  0
LTYPE
  5
43B
  2
DOTTED
 70
0
  3
Dotted .  .  .  .
 72
65
 73
2
 40
0.2
 49
0.0
 49
-0.2
  0
ENDTAB
  0
TABLE
  2
STYLE
  70
4
  0
STYLE
  2
KICAD
  70
0
  40
0
  41
1
  42
1
  50
0
  71
0
  3
isocp.shx
  0
STYLE
  2
KICADB
  70
0
  40
0
  41
1
  42
1
  50
0
  71
0
  3
isocp.shx
  0
STYLE
  2
KICADI
  70
0
  40
0
  41
1
  42
1
  50
15
  71
0
  3
isocp.shx
  0
STYLE
  2
KICADBI
  70
0
  40
0
  41
1
  42
1
  50
15
  71
0
  3
isocp.shx
  0
ENDTAB
  0
TABLE
  2
LAYER
  70
1
  0
LAYER
  2
BLACK
  70
0
  62
7
  6
CONTINUOUS
  0
ENDTAB
  0
ENDSEC
  0
SECTION
  2
ENTITIES
  0
TEXT
  7
KICADB
  8
BLACK
  10
125.3092919999999992
  11
125.3092919999999992
  20
-112.2845449999999943
  21
-112.2845449999999943
  40
1.5
  41
1.
  50
331.00000000
  51
0.00000000
  71
0
  72
0
  73
1
  1
by Matei Ionescu
  0
TEXT
  7
KICADB
  8
BLACK
  10
123.1842919999999992
  11
123.1842919999999992
  20
-109.309545
  21
-109.309545
  40
4.
  41
1.
  50
331.00000000
  51
0.00000000
  71
0
  72
0
  73
1
  1
RootKB
0
LINE
8
BLACK
6
CONTINUOUS
10
135.7750000000000057
20
-64.3374999999999915
11
135.7750000000000057
21
-78.5374999999999943
0
LINE
8
BLACK
6
CONTINUOUS
10
135.7750000000000057
20
-78.5374999999999943
11
149.9749999999999943
21
-78.5374999999999943
0
LINE
8
BLACK
6
CONTINUOUS
10
149.9749999999999943
20
-64.3374999999999915
11
135.7750000000000057
21
-64.3374999999999915
0
LINE
8
BLACK
6
CONTINUOUS
10
149.9749999999999943
20
-78.5374999999999943
11
149.9749999999999943
21
-64.3374999999999915
0
LINE
8
BLACK
6
CONTINUOUS
10
78.625
20
-73.8624999999999972
11
78.625
21
-88.0625
0
LINE
8
BLACK
6
CONTINUOUS
10
78.625
20
-88.0625
11
92.8250000000000028
21
-88.0625
0
LINE
8
BLACK
6
CONTINUOUS
10
92.8250000000000028
20
-73.8624999999999972
11
78.625
21
-73.8624999999999972
0
LINE
8
BLACK
6
CONTINUOUS
10
92.8250000000000028
20
-88.0625
11
92.8250000000000028
21
-73.8624999999999972
0
LINE
8
BLACK
6
CONTINUOUS
10
116.7249999999999943
20
-88.1499999999999915
11
116.7249999999999943
21
-102.3499999999999943
0
LINE
8
BLACK
6
CONTINUOUS
10
116.7249999999999943
20
-102.3499999999999943
11
130.9249999999999829
21
-102.3499999999999943
0
LINE
8
BLACK
6
CONTINUOUS
10
130.9249999999999829
20
-88.1499999999999915
11
116.7249999999999943
21
-88.1499999999999915
0
LINE
8
BLACK
6
CONTINUOUS
10
130.9249999999999829
20
-102.3499999999999943
11
130.9249999999999829
21
-88.1499999999999915
0
LINE
8
BLACK
6
CONTINUOUS
10
97.6749999999999972
20
-54.8125
11
97.6749999999999972
21
-69.0125000000000028
0
LINE
8
BLACK
6
CONTINUOUS
10
97.6749999999999972
20
-69.0125000000000028
11
111.875
21
-69.0125000000000028
0
LINE
8
BLACK
6
CONTINUOUS
10
111.875
20
-54.8125
11
97.6749999999999972
21
-54.8125
0
LINE
8
BLACK
6
CONTINUOUS
10
111.875
20
-69.0125000000000028
11
111.875
21
-54.8125
0
LINE
8
BLACK
6
CONTINUOUS
10
200.4342919999999992
20
-102.1845439999999883
11
200.4342919999999992
21
-96.084543999999994
0
LINE
8
BLACK
6
CONTINUOUS
10
212.5342919999999935
20
-96.084543999999994
11
200.4342919999999992
21
-96.084543999999994
0
LINE
8
BLACK
6
CONTINUOUS
10
212.5342919999999935
20
-96.334543999999994
11
214.5342919999999935
21
-96.334543999999994
0
LINE
8
BLACK
6
CONTINUOUS
10
212.5342919999999935
20
-101.9345440000000025
11
214.5342909999999961
21
-101.9345440000000025
0
LINE
8
BLACK
6
CONTINUOUS
10
212.5342919999999935
20
-102.1845439999999883
11
200.4342919999999992
21
-102.1845439999999883
0
LINE
8
BLACK
6
CONTINUOUS
10
212.5342919999999935
20
-102.1845439999999883
11
212.5342919999999935
21
-96.084543999999994
0
LINE
8
BLACK
6
CONTINUOUS
10
214.5342909999999961
20
-101.9345440000000025
11
214.5342919999999935
21
-96.334543999999994
0
LINE
8
BLACK
6
CONTINUOUS
10
78.625
20
-54.8125
11
78.625
21
-69.0125000000000028
0
LINE
8
BLACK
6
CONTINUOUS
10
78.625
20
-69.0125000000000028
11
92.8250000000000028
21
-69.0125000000000028
0
LINE
8
BLACK
6
CONTINUOUS
10
92.8250000000000028
20
-54.8125
11
78.625
21
-54.8125
0
LINE
8
BLACK
6
CONTINUOUS
10
92.8250000000000028
20
-69.0125000000000028
11
92.8250000000000028
21
-54.8125
0
LINE
8
BLACK
6
CONTINUOUS
10
173.875
20
-54.8125
11
173.875
21
-69.0125000000000028
0
LINE
8
BLACK
6
CONTINUOUS
10
173.875
20
-69.0125000000000028
11
188.0749999999999886
21
-69.0125000000000028
0
LINE
8
BLACK
6
CONTINUOUS
10
188.0749999999999886
20
-54.8125
11
173.875
21
-54.8125
0
LINE
8
BLACK
6
CONTINUOUS
10
188.0749999999999886
20
-69.0125000000000028
11
188.0749999999999886
21
-54.8125
0
LINE
8
BLACK
6
CONTINUOUS
10
179.1396069999999838
20
-137.1998109999999826
11
191.5592069999999865
21
-144.0841069999999888
0
LINE
8
BLACK
6
CONTINUOUS
10
186.02390299999999
20
-124.7802109999999942
11
179.1396069999999838
21
-137.1998109999999826
0
LINE
8
BLACK
6
CONTINUOUS
10
191.5592069999999865
20
-144.0841069999999888
11
198.4435029999999927
21
-131.6645069999999862
0
LINE
8
BLACK
6
CONTINUOUS
10
198.4435029999999927
20
-131.6645069999999862
11
186.02390299999999
21
-124.7802109999999942
0
LINE
8
BLACK
6
CONTINUOUS
10
144.6530520000000024
20
-120.8276520000000005
11
157.0726509999999791
21
-127.71194899999999
0
LINE
8
BLACK
6
CONTINUOUS
10
151.5373490000000061
20
-108.4080529999999953
11
144.6530520000000024
21
-120.8276520000000005
0
LINE
8
BLACK
6
CONTINUOUS
10
157.0726509999999791
20
-127.71194899999999
11
163.9569479999999828
21
-115.292349999999999
0
LINE
8
BLACK
6
CONTINUOUS
10
163.9569479999999828
20
-115.292349999999999
11
151.5373490000000061
21
-108.4080529999999953
0
LINE
8
BLACK
6
CONTINUOUS
10
189.5145330000000001
20
-118.4829499999999882
11
201.9341330000000028
21
-125.3672459999999944
0
LINE
8
BLACK
6
CONTINUOUS
10
196.3988289999999779
20
-106.0633499999999998
11
189.5145330000000001
21
-118.4829499999999882
0
LINE
8
BLACK
6
CONTINUOUS
10
201.9341330000000028
20
-125.3672459999999944
11
208.8184289999999805
21
-112.9476459999999918
0
LINE
8
BLACK
6
CONTINUOUS
10
208.8184289999999805
20
-112.9476459999999918
11
196.3988289999999779
21
-106.0633499999999998
0
LINE
8
BLACK
6
CONTINUOUS
10
154.8249999999999886
20
-69.0999999999999943
11
154.8249999999999886
21
-83.2999999999999972
0
LINE
8
BLACK
6
CONTINUOUS
10
154.8249999999999886
20
-83.2999999999999972
11
169.0250000000000057
21
-83.2999999999999972
0
LINE
8
BLACK
6
CONTINUOUS
10
169.0250000000000057
20
-69.0999999999999943
11
154.8249999999999886
21
-69.0999999999999943
0
LINE
8
BLACK
6
CONTINUOUS
10
169.0250000000000057
20
-83.2999999999999972
11
169.0250000000000057
21
-69.0999999999999943
0
LINE
8
BLACK
6
CONTINUOUS
10
78.625
20
-92.9124999999999943
11
78.625
21
-107.1124999999999972
0
LINE
8
BLACK
6
CONTINUOUS
10
78.625
20
-107.1124999999999972
11
92.8250000000000028
21
-107.1124999999999972
0
LINE
8
BLACK
6
CONTINUOUS
10
92.8250000000000028
20
-92.9124999999999943
11
78.625
21
-92.9124999999999943
0
LINE
8
BLACK
6
CONTINUOUS
10
92.8250000000000028
20
-107.1124999999999972
11
92.8250000000000028
21
-92.9124999999999943
0
LINE
8
BLACK
6
CONTINUOUS
10
116.7249999999999943
20
-69.0999999999999943
11
116.7249999999999943
21
-83.2999999999999972
0
LINE
8
BLACK
6
CONTINUOUS
10
116.7249999999999943
20
-83.2999999999999972
11
130.9249999999999829
21
-83.2999999999999972
0
LINE
8
BLACK
6
CONTINUOUS
10
130.9249999999999829
20
-69.0999999999999943
11
116.7249999999999943
21
-69.0999999999999943
0
LINE
8
BLACK
6
CONTINUOUS
10
130.9249999999999829
20
-83.2999999999999972
11
130.9249999999999829
21
-69.0999999999999943
0
LINE
8
BLACK
6
CONTINUOUS
10
135.7750000000000057
20
-83.3875000000000028
11
135.7750000000000057
21
-97.5874999999999915
0
LINE
8
BLACK
6
CONTINUOUS
10
135.7750000000000057
20
-97.5874999999999915
11
149.9749999999999943
21
-97.5874999999999915
0
LINE
8
BLACK
6
CONTINUOUS
10
149.9749999999999943
20
-83.3875000000000028
11
135.7750000000000057
21
-83.3875000000000028
0
LINE
8
BLACK
6
CONTINUOUS
10
149.9749999999999943
20
-97.5874999999999915
11
149.9749999999999943
21
-83.3875000000000028
0
LINE
8
BLACK
6
CONTINUOUS
10
173.875
20
-92.9124999999999943
11
173.875
21
-107.1124999999999972
0
LINE
8
BLACK
6
CONTINUOUS
10
173.875
20
-107.1124999999999972
11
188.0749999999999886
21
-107.1124999999999972
0
LINE
8
BLACK
6
CONTINUOUS
10
188.0749999999999886
20
-92.9124999999999943
11
173.875
21
-92.9124999999999943
0
LINE
8
BLACK
6
CONTINUOUS
10
188.0749999999999886
20
-107.1124999999999972
11
188.0749999999999886
21
-92.9124999999999943
0
LINE
8
BLACK
6
CONTINUOUS
10
97.6749999999999972
20
-73.8624999999999972
11
97.6749999999999972
21
-88.0625
0
LINE
8
BLACK
6
CONTINUOUS
10
97.6749999999999972
20
-88.0625
11
111.875
21
-88.0625
0
LINE
8
BLACK
6
CONTINUOUS
10
111.875
20
-73.8624999999999972
11
97.6749999999999972
21
-73.8624999999999972
0
LINE
8
BLACK
6
CONTINUOUS
10
111.875
20
-88.0625
11
111.875
21
-73.8624999999999972
0
LINE
8
BLACK
6
CONTINUOUS
10
154.8249999999999886
20
-88.1499999999999915
11
154.8249999999999886
21
-102.3499999999999943
0
LINE
8
BLACK
6
CONTINUOUS
10
154.8249999999999886
20
-102.3499999999999943
11
169.0250000000000057
21
-102.3499999999999943
0
LINE
8
BLACK
6
CONTINUOUS
10
169.0250000000000057
20
-88.1499999999999915
11
154.8249999999999886
21
-88.1499999999999915
0
LINE
8
BLACK
6
CONTINUOUS
10
169.0250000000000057
20
-102.3499999999999943
11
169.0250000000000057
21
-88.1499999999999915
0
LINE
8
BLACK
6
CONTINUOUS
10
173.875
20
-73.8624999999999972
11
173.875
21
-88.0625
0
LINE
8
BLACK
6
CONTINUOUS
10
173.875
20
-88.0625
11
188.0749999999999886
21
-88.0625
0
LINE
8
BLACK
6
CONTINUOUS
10
188.0749999999999886
20
-73.8624999999999972
11
173.875
21
-73.8624999999999972
0
LINE
8
BLACK
6
CONTINUOUS
10
188.0749999999999886
20
-88.0625
11
188.0749999999999886
21
-73.8624999999999972
0
LINE
8
BLACK
6
CONTINUOUS
10
135.7750000000000057
20
-45.2875000000000014
11
135.7750000000000057
21
-59.4874999999999972
0
LINE
8
BLACK
6
CONTINUOUS
10
135.7750000000000057
20
-59.4874999999999972
11
149.9749999999999943
21
-59.4874999999999972
0
LINE
8
BLACK
6
CONTINUOUS
10
149.9749999999999943
20
-45.2875000000000014
11
135.7750000000000057
21
-45.2875000000000014
0
LINE
8
BLACK
6
CONTINUOUS
10
149.9749999999999943
20
-59.4874999999999972
11
149.9749999999999943
21
-45.2875000000000014
0
LINE
8
BLACK
6
CONTINUOUS
10
116.7249999999999943
20
-50.0499999999999972
11
116.7249999999999943
21
-64.25
0
LINE
8
BLACK
6
CONTINUOUS
10
116.7249999999999943
20
-64.25
11
130.9249999999999829
21
-64.25
0
LINE
8
BLACK
6
CONTINUOUS
10
130.9249999999999829
20
-50.0499999999999972
11
116.7249999999999943
21
-50.0499999999999972
0
LINE
8
BLACK
6
CONTINUOUS
10
130.9249999999999829
20
-64.25
11
130.9249999999999829
21
-50.0499999999999972
0
LINE
8
BLACK
6
CONTINUOUS
10
162.4786159999999882
20
-127.9632599999999911
11
174.8982159999999908
21
-134.8475559999999973
0
LINE
8
BLACK
6
CONTINUOUS
10
169.3629119999999944
20
-115.5436599999999885
11
162.4786159999999882
21
-127.9632599999999911
0
LINE
8
BLACK
6
CONTINUOUS
10
174.8982159999999908
20
-134.8475559999999973
11
181.782511999999997
21
-122.4279559999999947
0
LINE
8
BLACK
6
CONTINUOUS
10
181.782511999999997
20
-122.4279559999999947
11
169.3629119999999944
21
-115.5436599999999885
0
LINE
8
BLACK
6
CONTINUOUS
10
154.8249999999999886
20
-50.0499999999999972
11
154.8249999999999886
21
-64.25
0
LINE
8
BLACK
6
CONTINUOUS
10
154.8249999999999886
20
-64.25
11
169.0250000000000057
21
-64.25
0
LINE
8
BLACK
6
CONTINUOUS
10
169.0250000000000057
20
-50.0499999999999972
11
154.8249999999999886
21
-50.0499999999999972
0
LINE
8
BLACK
6
CONTINUOUS
10
169.0250000000000057
20
-64.25
11
169.0250000000000057
21
-50.0499999999999972
0
LINE
8
BLACK
6
CONTINUOUS
10
97.6749999999999972
20
-92.9124999999999943
11
97.6749999999999972
21
-107.1124999999999972
0
LINE
8
BLACK
6
CONTINUOUS
10
97.6749999999999972
20
-107.1124999999999972
11
111.875
21
-107.1124999999999972
0
LINE
8
BLACK
6
CONTINUOUS
10
111.875
20
-92.9124999999999943
11
97.6749999999999972
21
-92.9124999999999943
0
LINE
8
BLACK
6
CONTINUOUS
10
111.875
20
-107.1124999999999972
11
111.875
21
-92.9124999999999943
0
LINE
8
BLACK
6
CONTINUOUS
10
193.2744999999999891
20
-53.3545449999999946
11
193.2744999999999891
21
-90.474544999999992
0
LINE
8
BLACK
6
CONTINUOUS
10
193.2744999999999891
20
-90.474544999999992
11
211.0544999999999902
21
-90.474544999999992
0
LINE
8
BLACK
6
CONTINUOUS
10
208.5144999999999982
20
-62.5345449999999943
11
208.5144999999999982
21
-59.9945449999999951
0
LINE
8
BLACK
6
CONTINUOUS
10
211.0544999999999902
20
-53.3545449999999946
11
193.2744999999999891
21
-53.3545449999999946
0
LINE
8
BLACK
6
CONTINUOUS
10
211.0544999999999902
20
-59.9945449999999951
11
208.5144999999999982
21
-59.9945449999999951
0
LINE
8
BLACK
6
CONTINUOUS
10
211.0544999999999902
20
-62.5345449999999943
11
208.5144999999999982
21
-62.5345449999999943
0
LINE
8
BLACK
6
CONTINUOUS
10
211.0544999999999902
20
-90.474544999999992
11
211.0544999999999902
21
-53.3545449999999946
0
LINE
8
BLACK
6
CONTINUOUS
10
195.9485659999999996
20
-65.8142840000000007
11
195.9891559999999799
21
-65.8548739999999952
0
LINE
8
BLACK
6
CONTINUOUS
10
195.9891559999999799
20
-65.8548739999999952
11
195.9948650000000043
21
-66.6835749999999905
0
LINE
8
BLACK
6
CONTINUOUS
10
195.9948650000000043
20
-66.6835749999999905
11
195.9891559999999799
21
-66.7122760000000028
0
LINE
8
BLACK
6
CONTINUOUS
10
195.9891559999999799
20
-66.7122760000000028
11
195.9485659999999996
21
-66.7528659999999974
0
LINE
8
BLACK
6
CONTINUOUS
10
195.9485659999999996
20
-66.7528659999999974
11
195.819864999999993
21
-66.7585749999999933
0
LINE
8
BLACK
6
CONTINUOUS
10
195.819864999999993
20
-66.7585749999999933
11
195.7911639999999807
21
-66.7528659999999974
0
LINE
8
BLACK
6
CONTINUOUS
10
195.7911639999999807
20
-66.7528659999999974
11
195.7505740000000003
21
-66.7122760000000028
0
LINE
8
BLACK
6
CONTINUOUS
10
195.7505740000000003
20
-66.7122760000000028
11
195.7448650000000043
21
-65.8835749999999933
0
LINE
8
BLACK
6
CONTINUOUS
10
195.7448650000000043
20
-65.8835749999999933
11
195.7505740000000003
21
-65.8548739999999952
0
LINE
8
BLACK
6
CONTINUOUS
10
195.7505740000000003
20
-65.8548739999999952
11
195.7911639999999807
21
-65.8142840000000007
0
LINE
8
BLACK
6
CONTINUOUS
10
195.7911639999999807
20
-65.8142840000000007
11
195.9198649999999873
21
-65.8085749999999905
0
LINE
8
BLACK
6
CONTINUOUS
10
195.9198649999999873
20
-65.8085749999999905
11
195.9485659999999996
21
-65.8142840000000007
0
LINE
8
BLACK
6
CONTINUOUS
10
196.1485659999999882
20
-66.2142839999999921
11
196.189155999999997
21
-66.2548740000000009
0
LINE
8
BLACK
6
CONTINUOUS
10
196.189155999999997
20
-66.2548740000000009
11
196.194864999999993
21
-66.3835749999999933
0
LINE
8
BLACK
6
CONTINUOUS
10
196.194864999999993
20
-66.3835749999999933
11
196.189155999999997
21
-66.4122759999999914
0
LINE
8
BLACK
6
CONTINUOUS
10
196.189155999999997
20
-66.4122759999999914
11
196.1485659999999882
21
-66.4528660000000002
0
LINE
8
BLACK
6
CONTINUOUS
10
196.1485659999999882
20
-66.4528660000000002
11
196.0198649999999816
21
-66.4585749999999962
0
LINE
8
BLACK
6
CONTINUOUS
10
196.0198649999999816
20
-66.4585749999999962
11
195.9911639999999977
21
-66.4528660000000002
0
LINE
8
BLACK
6
CONTINUOUS
10
195.9911639999999977
20
-66.4528660000000002
11
195.9505739999999889
21
-66.4122759999999914
0
LINE
8
BLACK
6
CONTINUOUS
10
195.9505739999999889
20
-66.4122759999999914
11
195.944864999999993
21
-66.283574999999999
0
LINE
8
BLACK
6
CONTINUOUS
10
195.944864999999993
20
-66.283574999999999
11
195.9505739999999889
21
-66.2548740000000009
0
LINE
8
BLACK
6
CONTINUOUS
10
195.9505739999999889
20
-66.2548740000000009
11
195.9911639999999977
21
-66.2142839999999921
0
LINE
8
BLACK
6
CONTINUOUS
10
195.9911639999999977
20
-66.2142839999999921
11
196.1198650000000043
21
-66.2085749999999962
0
LINE
8
BLACK
6
CONTINUOUS
10
196.1198650000000043
20
-66.2085749999999962
11
196.1485659999999882
21
-66.2142839999999921
0
LINE
8
BLACK
6
CONTINUOUS
10
196.3485660000000053
20
-65.8142840000000007
11
196.3891559999999856
21
-65.8548739999999952
0
LINE
8
BLACK
6
CONTINUOUS
10
196.3891559999999856
20
-65.8548739999999952
11
196.3948649999999816
21
-65.9835750000000019
0
LINE
8
BLACK
6
CONTINUOUS
10
196.3948649999999816
20
-65.9835750000000019
11
196.3891559999999856
21
-66.012276
0
LINE
8
BLACK
6
CONTINUOUS
10
196.3891559999999856
20
-66.012276
11
196.3485660000000053
21
-66.0528659999999945
0
LINE
8
BLACK
6
CONTINUOUS
10
196.3485660000000053
20
-66.0528659999999945
11
195.819864999999993
21
-66.0585749999999905
0
LINE
8
BLACK
6
CONTINUOUS
10
195.819864999999993
20
-66.0585749999999905
11
195.7911639999999807
21
-66.0528659999999945
0
LINE
8
BLACK
6
CONTINUOUS
10
195.7911639999999807
20
-66.0528659999999945
11
195.7505740000000003
21
-66.012276
0
LINE
8
BLACK
6
CONTINUOUS
10
195.7505740000000003
20
-66.012276
11
195.7448650000000043
21
-65.8835749999999933
0
LINE
8
BLACK
6
CONTINUOUS
10
195.7448650000000043
20
-65.8835749999999933
11
195.7505740000000003
21
-65.8548739999999952
0
LINE
8
BLACK
6
CONTINUOUS
10
195.7505740000000003
20
-65.8548739999999952
11
195.7911639999999807
21
-65.8142840000000007
0
LINE
8
BLACK
6
CONTINUOUS
10
195.7911639999999807
20
-65.8142840000000007
11
196.319864999999993
21
-65.8085749999999905
0
LINE
8
BLACK
6
CONTINUOUS
10
196.319864999999993
20
-65.8085749999999905
11
196.3485660000000053
21
-65.8142840000000007
0
LINE
8
BLACK
6
CONTINUOUS
10
196.3485660000000053
20
-65.8142840000000007
11
196.3891559999999856
21
-65.8548739999999952
0
LINE
8
BLACK
6
CONTINUOUS
10
196.3891559999999856
20
-65.8548739999999952
11
196.3948649999999816
21
-66.1835749999999905
0
LINE
8
BLACK
6
CONTINUOUS
10
196.3948649999999816
20
-66.1835749999999905
11
196.3891559999999856
21
-66.2122760000000028
0
LINE
8
BLACK
6
CONTINUOUS
10
196.3891559999999856
20
-66.2122760000000028
11
196.3485660000000053
21
-66.2528659999999974
0
LINE
8
BLACK
6
CONTINUOUS
10
196.3485660000000053
20
-66.2528659999999974
11
196.2198649999999986
21
-66.2585749999999933
0
LINE
8
BLACK
6
CONTINUOUS
10
196.2198649999999986
20
-66.2585749999999933
11
196.1911639999999863
21
-66.2528659999999974
0
LINE
8
BLACK
6
CONTINUOUS
10
196.1911639999999863
20
-66.2528659999999974
11
196.1505739999999776
21
-66.2122760000000028
0
LINE
8
BLACK
6
CONTINUOUS
10
196.1505739999999776
20
-66.2122760000000028
11
196.1448649999999816
21
-65.8835749999999933
0
LINE
8
BLACK
6
CONTINUOUS
10
196.1448649999999816
20
-65.8835749999999933
11
196.1505739999999776
21
-65.8548739999999952
0
LINE
8
BLACK
6
CONTINUOUS
10
196.1505739999999776
20
-65.8548739999999952
11
196.1911639999999863
21
-65.8142840000000007
0
LINE
8
BLACK
6
CONTINUOUS
10
196.1911639999999863
20
-65.8142840000000007
11
196.319864999999993
21
-65.8085749999999905
0
LINE
8
BLACK
6
CONTINUOUS
10
196.319864999999993
20
-65.8085749999999905
11
196.3485660000000053
21
-65.8142840000000007
0
LINE
8
BLACK
6
CONTINUOUS
10
196.3485660000000053
20
-66.414283999999995
11
196.3891559999999856
21
-66.4548740000000038
0
LINE
8
BLACK
6
CONTINUOUS
10
196.3891559999999856
20
-66.4548740000000038
11
196.3948649999999816
21
-66.6835749999999905
0
LINE
8
BLACK
6
CONTINUOUS
10
196.3948649999999816
20
-66.6835749999999905
11
196.3891559999999856
21
-66.7122760000000028
0
LINE
8
BLACK
6
CONTINUOUS
10
196.3891559999999856
20
-66.7122760000000028
11
196.3485660000000053
21
-66.7528659999999974
0
LINE
8
BLACK
6
CONTINUOUS
10
196.3485660000000053
20
-66.7528659999999974
11
196.2198649999999986
21
-66.7585749999999933
0
LINE
8
BLACK
6
CONTINUOUS
10
196.2198649999999986
20
-66.7585749999999933
11
196.1911639999999863
21
-66.7528659999999974
0
LINE
8
BLACK
6
CONTINUOUS
10
196.1911639999999863
20
-66.7528659999999974
11
196.1505739999999776
21
-66.7122760000000028
0
LINE
8
BLACK
6
CONTINUOUS
10
196.1505739999999776
20
-66.7122760000000028
11
196.1448649999999816
21
-66.4835750000000019
0
LINE
8
BLACK
6
CONTINUOUS
10
196.1448649999999816
20
-66.4835750000000019
11
196.1505739999999776
21
-66.4548740000000038
0
LINE
8
BLACK
6
CONTINUOUS
10
196.1505739999999776
20
-66.4548740000000038
11
196.1911639999999863
21
-66.414283999999995
0
LINE
8
BLACK
6
CONTINUOUS
10
196.1911639999999863
20
-66.414283999999995
11
196.319864999999993
21
-66.408574999999999
0
LINE
8
BLACK
6
CONTINUOUS
10
196.319864999999993
20
-66.408574999999999
11
196.3485660000000053
21
-66.414283999999995
0
LINE
8
BLACK
6
CONTINUOUS
10
210.6607999999999947
20
-60.3882449999999977
11
208.9081999999999937
21
-60.3882449999999977
0
LINE
8
BLACK
6
CONTINUOUS
10
208.9081999999999937
20
-60.3882449999999977
11
208.9081999999999937
21
-62.1408449999999988
0
LINE
8
BLACK
6
CONTINUOUS
10
208.9081999999999937
20
-62.1408449999999988
11
210.6607999999999947
21
-62.1408449999999988
0
LINE
8
BLACK
6
CONTINUOUS
10
210.6607999999999947
20
-62.1408449999999988
11
210.6607999999999947
21
-60.3882449999999977
0
CIRCLE
8
BLACK
10
209.78449999999998
20
-63.8045449999999974
40
0.8763
0
CIRCLE
8
BLACK
10
209.78449999999998
20
-66.3445449999999965
40
0.8763
0
CIRCLE
8
BLACK
10
209.78449999999998
20
-68.8845450000000028
40
0.8763
0
CIRCLE
8
BLACK
10
209.78449999999998
20
-71.4245449999999948
40
0.8763
0
CIRCLE
8
BLACK
10
209.78449999999998
20
-73.9645450000000011
40
0.8763
0
CIRCLE
8
BLACK
10
209.78449999999998
20
-76.5045449999999931
40
0.8763
0
CIRCLE
8
BLACK
10
209.78449999999998
20
-79.0445449999999994
40
0.8763
0
CIRCLE
8
BLACK
10
209.78449999999998
20
-81.5845449999999914
40
0.8763
0
CIRCLE
8
BLACK
10
209.78449999999998
20
-84.1245449999999977
40
0.8763
0
CIRCLE
8
BLACK
10
209.78449999999998
20
-86.6645449999999897
40
0.8763
0
CIRCLE
8
BLACK
10
209.78449999999998
20
-89.204544999999996
40
0.8763
0
CIRCLE
8
BLACK
10
194.5444999999999993
20
-89.204544999999996
40
0.8763
0
CIRCLE
8
BLACK
10
194.5444999999999993
20
-86.6645449999999897
40
0.8763
0
CIRCLE
8
BLACK
10
194.5444999999999993
20
-84.1245449999999977
40
0.8763
0
CIRCLE
8
BLACK
10
194.5444999999999993
20
-81.5845449999999914
40
0.8763
0
CIRCLE
8
BLACK
10
194.5444999999999993
20
-79.0445449999999994
40
0.8763
0
CIRCLE
8
BLACK
10
194.5444999999999993
20
-76.5045449999999931
40
0.8763
0
CIRCLE
8
BLACK
10
194.5444999999999993
20
-73.9645450000000011
40
0.8763
0
CIRCLE
8
BLACK
10
194.5444999999999993
20
-71.4245449999999948
40
0.8763
0
CIRCLE
8
BLACK
10
194.5444999999999993
20
-68.8845450000000028
40
0.8763
0
CIRCLE
8
BLACK
10
194.5444999999999993
20
-66.3445449999999965
40
0.8763
0
CIRCLE
8
BLACK
10
194.5444999999999993
20
-63.8045449999999974
40
0.8763
0
CIRCLE
8
BLACK
10
194.5444999999999993
20
-61.2645449999999983
40
0.8763
  0
ENDSEC
  0
EOF
