  0
SECTION
  2
HEADER
  9
$ANGBASE
  50
0.0
  9
$ANGDIR
  70
1
  9
$MEASUREMENT
  70
1
  0
ENDSEC
  0
SECTION
  2
TABLES
  0
TABLE
  2
LTYPE
  70
4
  0
LTYPE
  5
40F
  2
CONTINUOUS
  70
0
  3
Solid line
  72
65
  73
0
  40
0.0
  0
LTYPE
  5
410
  2
DASHDOT
 70
0
  3
Dash Dot ____ _ ____ _
 72
65
 73
4
 40
2.0
 49
1.25
 49
-0.25
 49
0.25
 49
-0.25
  0
LTYPE
  5
411
  2
DASHED
 70
0
  3
Dashed __ __ __ __ __
 72
65
 73
2
 40
0.75
 49
0.5
 49
-0.25
  0
LTYPE
  5
43B
  2
DOTTED
 70
0
  3
Dotted .  .  .  .
 72
65
 73
2
 40
0.2
 49
0.0
 49
-0.2
  0
ENDTAB
  0
TABLE
  2
STYLE
  70
4
  0
STYLE
  2
KICAD
  70
0
  40
0
  41
1
  42
1
  50
0
  71
0
  3
isocp.shx
  0
STYLE
  2
KICADB
  70
0
  40
0
  41
1
  42
1
  50
0
  71
0
  3
isocp.shx
  0
STYLE
  2
KICADI
  70
0
  40
0
  41
1
  42
1
  50
15
  71
0
  3
isocp.shx
  0
STYLE
  2
KICADBI
  70
0
  40
0
  41
1
  42
1
  50
15
  71
0
  3
isocp.shx
  0
ENDTAB
  0
TABLE
  2
LAYER
  70
1
  0
LAYER
  2
BLACK
  70
0
  62
7
  6
CONTINUOUS
  0
ENDTAB
  0
ENDSEC
  0
SECTION
  2
ENTITIES
0
LINE
8
BLACK
6
CONTINUOUS
10
76.2000000000000028
20
-109.4874999999999972
11
76.2000000000000028
21
-52.4375
0
LINE
8
BLACK
6
CONTINUOUS
10
190.5
20
-52.4375
11
171.4499999999999886
21
-52.4375
0
LINE
8
BLACK
6
CONTINUOUS
10
171.4499999999999886
20
-85.6749999999999972
11
152.4000000000000057
21
-85.6749999999999972
0
LINE
8
BLACK
6
CONTINUOUS
10
195.4535389999999779
20
-102.7667330000000021
11
186.2179160000000024
21
-119.4282389999999907
0
LINE
8
BLACK
6
CONTINUOUS
10
133.3499999999999943
20
-80.9124999999999943
11
133.3499999999999943
21
-80.9624999999999915
0
LINE
8
BLACK
6
CONTINUOUS
10
158.0179409999999791
20
-131.0085640000000069
11
168.4171069999999872
21
-112.2479719999999901
0
LINE
8
BLACK
6
CONTINUOUS
10
114.2999999999999972
20
-66.6749999999999972
11
114.2999999999999972
21
-66.7249999999999943
0
LINE
8
BLACK
6
CONTINUOUS
10
152.4000000000000057
20
-42.9125000000000014
11
133.3499999999999943
21
-42.9125000000000014
0
LINE
8
BLACK
6
CONTINUOUS
10
190.5
20
-71.4874999999999972
11
190.5
21
-71.4375
0
LINE
8
BLACK
6
CONTINUOUS
10
167.253563999999983
20
-114.3470590000000016
11
150.5920590000000061
21
-105.1114359999999976
0
LINE
8
BLACK
6
CONTINUOUS
10
202.8794209999999794
20
-128.6638619999999946
11
212.1150439999999833
21
-112.0023559999999918
0
LINE
8
BLACK
6
CONTINUOUS
10
152.4000000000000057
20
-61.9124999999999943
11
133.3499999999999943
21
-61.9124999999999943
0
LINE
8
BLACK
6
CONTINUOUS
10
152.4000000000000057
20
-80.9124999999999943
11
133.3499999999999943
21
-80.9124999999999943
0
LINE
8
BLACK
6
CONTINUOUS
10
133.3499999999999943
20
-85.6749999999999972
11
114.2999999999999972
21
-85.6749999999999972
0
LINE
8
BLACK
6
CONTINUOUS
10
168.4171069999999872
20
-112.2479719999999901
11
201.7401179999999954
21
-130.7192179999999837
0
LINE
8
BLACK
6
CONTINUOUS
10
186.2179160000000024
20
-119.4282389999999907
11
202.8794209999999794
21
-128.6638619999999946
0
LINE
8
BLACK
6
CONTINUOUS
10
76.2000000000000028
20
-90.4375
11
114.2999999999999972
21
-90.4375
0
LINE
8
BLACK
6
CONTINUOUS
10
152.4000000000000057
20
-80.9624999999999915
11
152.4000000000000057
21
-80.9124999999999943
0
LINE
8
BLACK
6
CONTINUOUS
10
190.5
20
-109.4874999999999972
11
190.5
21
-52.4375
0
LINE
8
BLACK
6
CONTINUOUS
10
152.4000000000000057
20
-66.7249999999999943
11
171.4499999999999886
21
-66.7249999999999943
0
LINE
8
BLACK
6
CONTINUOUS
10
159.1814839999999833
20
-128.9094769999999812
11
192.5044949999999915
21
-147.3807239999999865
0
LINE
8
BLACK
6
CONTINUOUS
10
150.5920590000000061
20
-105.1114359999999976
11
141.3564360000000022
21
-121.7729409999999888
0
CIRCLE
8
BLACK
10
209.8973569999999995
20
-106.3135249999999985
40
2.
0
LINE
8
BLACK
6
CONTINUOUS
10
114.2999999999999972
20
-71.4874999999999972
11
114.2999999999999972
21
-71.4375
0
LINE
8
BLACK
6
CONTINUOUS
10
141.3564360000000022
20
-121.7729409999999888
11
158.0179409999999791
21
-131.0085640000000069
0
LINE
8
BLACK
6
CONTINUOUS
10
152.4000000000000057
20
-85.6749999999999972
11
152.4000000000000057
21
-85.7249999999999943
0
LINE
8
BLACK
6
CONTINUOUS
10
152.4000000000000057
20
-85.7249999999999943
11
171.4499999999999886
21
-85.7249999999999943
0
LINE
8
BLACK
6
CONTINUOUS
10
171.4499999999999886
20
-109.4874999999999972
11
171.4499999999999886
21
-47.6749999999999972
0
LINE
8
BLACK
6
CONTINUOUS
10
190.5
20
-90.4874999999999972
11
190.5
21
-90.4375
0
LINE
8
BLACK
6
CONTINUOUS
10
133.3499999999999943
20
-99.9624999999999915
11
152.4000000000000057
21
-99.9624999999999915
0
LINE
8
BLACK
6
CONTINUOUS
10
133.3499999999999943
20
-66.6749999999999972
11
114.2999999999999972
21
-66.6749999999999972
0
LINE
8
BLACK
6
CONTINUOUS
10
114.2999999999999972
20
-90.4375
11
114.2999999999999972
21
-90.4874999999999972
0
CIRCLE
8
BLACK
10
194.9002519999999947
20
-98.0004939999999891
40
2.
0
LINE
8
BLACK
6
CONTINUOUS
10
152.4000000000000057
20
-61.9624999999999986
11
152.4000000000000057
21
-61.9124999999999943
0
LINE
8
BLACK
6
CONTINUOUS
10
192.5044949999999915
20
-147.3807239999999865
11
201.7401179999999954
21
-130.7192179999999837
0
LINE
8
BLACK
6
CONTINUOUS
10
133.3499999999999943
20
-61.9124999999999943
11
133.3499999999999943
21
-61.9624999999999986
0
LINE
8
BLACK
6
CONTINUOUS
10
175.8429899999999861
20
-138.1450999999999851
11
185.0786129999999901
21
-121.483594999999994
0
LINE
8
BLACK
6
CONTINUOUS
10
133.3499999999999943
20
-80.9624999999999915
11
152.4000000000000057
21
-80.9624999999999915
0
LINE
8
BLACK
6
CONTINUOUS
10
171.4499999999999886
20
-90.4874999999999972
11
190.5
21
-90.4874999999999972
0
LINE
8
BLACK
6
CONTINUOUS
10
171.4499999999999886
20
-109.4874999999999972
11
190.5
21
-109.4874999999999972
0
LINE
8
BLACK
6
CONTINUOUS
10
76.2000000000000028
20
-71.4375
11
114.2999999999999972
21
-71.4375
0
LINE
8
BLACK
6
CONTINUOUS
10
76.2000000000000028
20
-52.4375
11
114.2999999999999972
21
-52.4375
0
LINE
8
BLACK
6
CONTINUOUS
10
152.4000000000000057
20
-66.6749999999999972
11
152.4000000000000057
21
-66.7249999999999943
0
LINE
8
BLACK
6
CONTINUOUS
10
133.3499999999999943
20
-47.6749999999999972
11
114.2999999999999972
21
-47.6749999999999972
0
LINE
8
BLACK
6
CONTINUOUS
10
212.1150439999999833
20
-112.0023559999999918
11
195.4535389999999779
21
-102.7667330000000021
0
LINE
8
BLACK
6
CONTINUOUS
10
114.2999999999999972
20
-85.6749999999999972
11
114.2999999999999972
21
-85.7249999999999943
0
LINE
8
BLACK
6
CONTINUOUS
10
152.4000000000000057
20
-104.7249999999999943
11
152.4000000000000057
21
-42.9125000000000014
0
LINE
8
BLACK
6
CONTINUOUS
10
95.25
20
-109.4874999999999972
11
95.25
21
-52.4375
0
LINE
8
BLACK
6
CONTINUOUS
10
114.2999999999999972
20
-109.4874999999999972
11
114.2999999999999972
21
-47.6749999999999972
0
LINE
8
BLACK
6
CONTINUOUS
10
133.3499999999999943
20
-85.7249999999999943
11
133.3499999999999943
21
-85.6749999999999972
0
LINE
8
BLACK
6
CONTINUOUS
10
171.4499999999999886
20
-85.7249999999999943
11
171.4499999999999886
21
-85.6749999999999972
0
LINE
8
BLACK
6
CONTINUOUS
10
76.2000000000000028
20
-90.4874999999999972
11
76.2000000000000028
21
-90.4375
0
LINE
8
BLACK
6
CONTINUOUS
10
133.3499999999999943
20
-66.7249999999999943
11
133.3499999999999943
21
-66.6749999999999972
0
LINE
8
BLACK
6
CONTINUOUS
10
76.2000000000000028
20
-109.4874999999999972
11
114.2999999999999972
21
-109.4874999999999972
0
LINE
8
BLACK
6
CONTINUOUS
10
171.4499999999999886
20
-47.6749999999999972
11
152.4000000000000057
21
-47.6749999999999972
0
LINE
8
BLACK
6
CONTINUOUS
10
171.4499999999999886
20
-90.4375
11
171.4499999999999886
21
-90.4874999999999972
0
LINE
8
BLACK
6
CONTINUOUS
10
133.3499999999999943
20
-104.7249999999999943
11
133.3499999999999943
21
-42.9125000000000014
0
LINE
8
BLACK
6
CONTINUOUS
10
171.4499999999999886
20
-66.6749999999999972
11
152.4000000000000057
21
-66.6749999999999972
0
LINE
8
BLACK
6
CONTINUOUS
10
171.4499999999999886
20
-71.4874999999999972
11
190.5
21
-71.4874999999999972
0
LINE
8
BLACK
6
CONTINUOUS
10
76.2000000000000028
20
-90.4874999999999972
11
114.2999999999999972
21
-90.4874999999999972
0
LINE
8
BLACK
6
CONTINUOUS
10
114.2999999999999972
20
-66.7249999999999943
11
133.3499999999999943
21
-66.7249999999999943
0
LINE
8
BLACK
6
CONTINUOUS
10
171.4499999999999886
20
-71.4375
11
171.4499999999999886
21
-71.4874999999999972
0
LINE
8
BLACK
6
CONTINUOUS
10
133.3499999999999943
20
-61.9624999999999986
11
152.4000000000000057
21
-61.9624999999999986
0
LINE
8
BLACK
6
CONTINUOUS
10
171.4499999999999886
20
-66.7249999999999943
11
171.4499999999999886
21
-66.6749999999999972
0
LINE
8
BLACK
6
CONTINUOUS
10
114.2999999999999972
20
-85.7249999999999943
11
133.3499999999999943
21
-85.7249999999999943
0
LINE
8
BLACK
6
CONTINUOUS
10
76.2000000000000028
20
-71.4874999999999972
11
114.2999999999999972
21
-71.4874999999999972
0
LINE
8
BLACK
6
CONTINUOUS
10
190.5
20
-90.4375
11
171.4499999999999886
21
-90.4375
0
LINE
8
BLACK
6
CONTINUOUS
10
152.4000000000000057
20
-104.7249999999999943
11
171.4499999999999886
21
-104.7249999999999943
0
LINE
8
BLACK
6
CONTINUOUS
10
76.2000000000000028
20
-71.4375
11
76.2000000000000028
21
-71.4874999999999972
0
LINE
8
BLACK
6
CONTINUOUS
10
114.2999999999999972
20
-104.7249999999999943
11
133.3499999999999943
21
-104.7249999999999943
0
LINE
8
BLACK
6
CONTINUOUS
10
190.5
20
-71.4375
11
171.4499999999999886
21
-71.4375
0
LINE
8
BLACK
6
CONTINUOUS
10
133.3499999999999943
20
-61.9124999999999943
11
133.3499999999999943
21
-80.9624999999999915
0
LINE
8
BLACK
6
CONTINUOUS
10
133.3499999999999943
20
-80.9624999999999915
11
152.4000000000000057
21
-80.9624999999999915
0
LINE
8
BLACK
6
CONTINUOUS
10
152.4000000000000057
20
-61.9124999999999943
11
133.3499999999999943
21
-61.9124999999999943
0
LINE
8
BLACK
6
CONTINUOUS
10
152.4000000000000057
20
-80.9624999999999915
11
152.4000000000000057
21
-61.9124999999999943
0
LINE
8
BLACK
6
CONTINUOUS
10
76.2000000000000028
20
-71.4375
11
76.2000000000000028
21
-90.4874999999999972
0
LINE
8
BLACK
6
CONTINUOUS
10
76.2000000000000028
20
-90.4874999999999972
11
95.25
21
-90.4874999999999972
0
LINE
8
BLACK
6
CONTINUOUS
10
95.25
20
-71.4375
11
76.2000000000000028
21
-71.4375
0
LINE
8
BLACK
6
CONTINUOUS
10
95.25
20
-90.4874999999999972
11
95.25
21
-71.4375
0
LINE
8
BLACK
6
CONTINUOUS
10
114.2999999999999972
20
-85.7249999999999943
11
114.2999999999999972
21
-104.7749999999999915
0
LINE
8
BLACK
6
CONTINUOUS
10
114.2999999999999972
20
-104.7749999999999915
11
133.3499999999999943
21
-104.7749999999999915
0
LINE
8
BLACK
6
CONTINUOUS
10
133.3499999999999943
20
-85.7249999999999943
11
114.2999999999999972
21
-85.7249999999999943
0
LINE
8
BLACK
6
CONTINUOUS
10
133.3499999999999943
20
-104.7749999999999915
11
133.3499999999999943
21
-85.7249999999999943
0
LINE
8
BLACK
6
CONTINUOUS
10
196.1645000000000039
20
-56.2345449999999971
11
208.1645000000000039
21
-56.2345449999999971
0
LINE
8
BLACK
6
CONTINUOUS
10
196.1645000000000039
20
-58.4845449999999971
11
208.1645000000000039
21
-58.4845449999999971
0
LINE
8
BLACK
6
CONTINUOUS
10
196.1645000000000039
20
-88.4845449999999971
11
208.1645000000000039
21
-88.4845449999999971
0
LINE
8
BLACK
6
CONTINUOUS
10
196.1645000000000039
20
-94.2345449999999971
11
196.1645000000000039
21
-56.2345449999999971
0
LINE
8
BLACK
6
CONTINUOUS
10
196.1645000000000039
20
-94.2345449999999971
11
208.1645000000000039
21
-94.2345449999999971
0
LINE
8
BLACK
6
CONTINUOUS
10
198.3845000000000027
20
-87.1745449999999948
11
198.3845000000000027
21
-64.7945449999999994
0
LINE
8
BLACK
6
CONTINUOUS
10
198.3845000000000027
20
-87.1745449999999948
11
203.9044999999999845
21
-87.1745449999999948
0
LINE
8
BLACK
6
CONTINUOUS
10
203.9044999999999845
20
-64.7945449999999994
11
198.3845000000000027
21
-64.7945449999999994
0
LINE
8
BLACK
6
CONTINUOUS
10
203.9044999999999845
20
-87.1745449999999948
11
203.9044999999999845
21
-64.7945449999999994
0
LINE
8
BLACK
6
CONTINUOUS
10
208.1645000000000039
20
-56.2345449999999971
11
208.1645000000000039
21
-94.2345449999999971
0
LINE
8
BLACK
6
CONTINUOUS
10
95.25
20
-52.3874999999999957
11
95.25
21
-71.4375
0
LINE
8
BLACK
6
CONTINUOUS
10
95.25
20
-71.4375
11
114.2999999999999972
21
-71.4375
0
LINE
8
BLACK
6
CONTINUOUS
10
114.2999999999999972
20
-52.3874999999999957
11
95.25
21
-52.3874999999999957
0
LINE
8
BLACK
6
CONTINUOUS
10
114.2999999999999972
20
-71.4375
11
114.2999999999999972
21
-52.3874999999999957
0
LINE
8
BLACK
6
CONTINUOUS
10
76.2000000000000028
20
-52.3874999999999957
11
76.2000000000000028
21
-71.4375
0
LINE
8
BLACK
6
CONTINUOUS
10
76.2000000000000028
20
-71.4375
11
95.25
21
-71.4375
0
LINE
8
BLACK
6
CONTINUOUS
10
95.25
20
-52.3874999999999957
11
76.2000000000000028
21
-52.3874999999999957
0
LINE
8
BLACK
6
CONTINUOUS
10
95.25
20
-71.4375
11
95.25
21
-52.3874999999999957
0
LINE
8
BLACK
6
CONTINUOUS
10
171.4499999999999886
20
-52.3874999999999957
11
171.4499999999999886
21
-71.4375
0
LINE
8
BLACK
6
CONTINUOUS
10
171.4499999999999886
20
-71.4375
11
190.5
21
-71.4375
0
LINE
8
BLACK
6
CONTINUOUS
10
190.5
20
-52.3874999999999957
11
171.4499999999999886
21
-52.3874999999999957
0
LINE
8
BLACK
6
CONTINUOUS
10
190.5
20
-71.4375
11
190.5
21
-52.3874999999999957
0
LINE
8
BLACK
6
CONTINUOUS
10
174.6885379999999941
20
-140.2277880000000039
11
186.2330670000000055
21
-119.400905999999992
0
LINE
8
BLACK
6
CONTINUOUS
10
186.2330670000000055
20
-119.400905999999992
11
202.8945719999999824
21
-128.6365299999999934
0
LINE
8
BLACK
6
CONTINUOUS
10
191.3500429999999994
20
-149.4634120000000053
11
174.6885379999999941
21
-140.2277880000000039
0
LINE
8
BLACK
6
CONTINUOUS
10
202.8945719999999824
20
-128.6365299999999934
11
191.3500429999999994
21
-149.4634120000000053
0
LINE
8
BLACK
6
CONTINUOUS
10
141.3564360000000022
20
-121.7729420000000005
11
158.0179409999999791
21
-131.0085650000000044
0
LINE
8
BLACK
6
CONTINUOUS
10
150.5920590000000061
20
-105.1114369999999951
11
141.3564360000000022
21
-121.7729420000000005
0
LINE
8
BLACK
6
CONTINUOUS
10
158.0179409999999791
20
-131.0085650000000044
11
167.253563999999983
21
-114.347059999999999
0
LINE
8
BLACK
6
CONTINUOUS
10
167.253563999999983
20
-114.347059999999999
11
150.5920590000000061
21
-105.1114369999999951
0
LINE
8
BLACK
6
CONTINUOUS
10
186.2179169999999999
20
-119.4282389999999907
11
202.8794219999999768
21
-128.6638619999999946
0
LINE
8
BLACK
6
CONTINUOUS
10
195.4535400000000038
20
-102.7667339999999996
11
186.2179169999999999
21
-119.4282389999999907
0
LINE
8
BLACK
6
CONTINUOUS
10
202.8794219999999768
20
-128.6638619999999946
11
212.1150449999999807
21
-112.0023569999999893
0
LINE
8
BLACK
6
CONTINUOUS
10
212.1150449999999807
20
-112.0023569999999893
11
195.4535400000000038
21
-102.7667339999999996
0
LINE
8
BLACK
6
CONTINUOUS
10
152.4000000000000057
20
-66.6749999999999972
11
152.4000000000000057
21
-85.7249999999999943
0
LINE
8
BLACK
6
CONTINUOUS
10
152.4000000000000057
20
-85.7249999999999943
11
171.4499999999999886
21
-85.7249999999999943
0
LINE
8
BLACK
6
CONTINUOUS
10
171.4499999999999886
20
-66.6749999999999972
11
152.4000000000000057
21
-66.6749999999999972
0
LINE
8
BLACK
6
CONTINUOUS
10
171.4499999999999886
20
-85.7249999999999943
11
171.4499999999999886
21
-66.6749999999999972
0
LINE
8
BLACK
6
CONTINUOUS
10
76.2000000000000028
20
-90.4874999999999972
11
76.2000000000000028
21
-109.5374999999999943
0
LINE
8
BLACK
6
CONTINUOUS
10
76.2000000000000028
20
-109.5374999999999943
11
95.25
21
-109.5374999999999943
0
LINE
8
BLACK
6
CONTINUOUS
10
95.25
20
-90.4874999999999972
11
76.2000000000000028
21
-90.4874999999999972
0
LINE
8
BLACK
6
CONTINUOUS
10
95.25
20
-109.5374999999999943
11
95.25
21
-90.4874999999999972
0
LINE
8
BLACK
6
CONTINUOUS
10
114.2999999999999972
20
-66.6749999999999972
11
114.2999999999999972
21
-85.7249999999999943
0
LINE
8
BLACK
6
CONTINUOUS
10
114.2999999999999972
20
-85.7249999999999943
11
133.3499999999999943
21
-85.7249999999999943
0
LINE
8
BLACK
6
CONTINUOUS
10
133.3499999999999943
20
-66.6749999999999972
11
114.2999999999999972
21
-66.6749999999999972
0
LINE
8
BLACK
6
CONTINUOUS
10
133.3499999999999943
20
-85.7249999999999943
11
133.3499999999999943
21
-66.6749999999999972
0
LINE
8
BLACK
6
CONTINUOUS
10
133.3499999999999943
20
-80.9624999999999915
11
133.3499999999999943
21
-100.0124999999999886
0
LINE
8
BLACK
6
CONTINUOUS
10
133.3499999999999943
20
-100.0124999999999886
11
152.4000000000000057
21
-100.0124999999999886
0
LINE
8
BLACK
6
CONTINUOUS
10
152.4000000000000057
20
-80.9624999999999915
11
133.3499999999999943
21
-80.9624999999999915
0
LINE
8
BLACK
6
CONTINUOUS
10
152.4000000000000057
20
-100.0124999999999886
11
152.4000000000000057
21
-80.9624999999999915
0
LINE
8
BLACK
6
CONTINUOUS
10
171.4499999999999886
20
-90.4874999999999972
11
171.4499999999999886
21
-109.5374999999999943
0
LINE
8
BLACK
6
CONTINUOUS
10
171.4499999999999886
20
-109.5374999999999943
11
190.5
21
-109.5374999999999943
0
LINE
8
BLACK
6
CONTINUOUS
10
190.5
20
-90.4874999999999972
11
171.4499999999999886
21
-90.4874999999999972
0
LINE
8
BLACK
6
CONTINUOUS
10
190.5
20
-109.5374999999999943
11
190.5
21
-90.4874999999999972
0
LINE
8
BLACK
6
CONTINUOUS
10
95.25
20
-71.4375
11
95.25
21
-90.4874999999999972
0
LINE
8
BLACK
6
CONTINUOUS
10
95.25
20
-90.4874999999999972
11
114.2999999999999972
21
-90.4874999999999972
0
LINE
8
BLACK
6
CONTINUOUS
10
114.2999999999999972
20
-71.4375
11
95.25
21
-71.4375
0
LINE
8
BLACK
6
CONTINUOUS
10
114.2999999999999972
20
-90.4874999999999972
11
114.2999999999999972
21
-71.4375
0
LINE
8
BLACK
6
CONTINUOUS
10
152.4000000000000057
20
-85.7249999999999943
11
152.4000000000000057
21
-104.7749999999999915
0
LINE
8
BLACK
6
CONTINUOUS
10
152.4000000000000057
20
-104.7749999999999915
11
171.4499999999999886
21
-104.7749999999999915
0
LINE
8
BLACK
6
CONTINUOUS
10
171.4499999999999886
20
-85.7249999999999943
11
152.4000000000000057
21
-85.7249999999999943
0
LINE
8
BLACK
6
CONTINUOUS
10
171.4499999999999886
20
-104.7749999999999915
11
171.4499999999999886
21
-85.7249999999999943
0
LINE
8
BLACK
6
CONTINUOUS
10
171.4499999999999886
20
-71.4375
11
171.4499999999999886
21
-90.4874999999999972
0
LINE
8
BLACK
6
CONTINUOUS
10
171.4499999999999886
20
-90.4874999999999972
11
190.5
21
-90.4874999999999972
0
LINE
8
BLACK
6
CONTINUOUS
10
190.5
20
-71.4375
11
171.4499999999999886
21
-71.4375
0
LINE
8
BLACK
6
CONTINUOUS
10
190.5
20
-90.4874999999999972
11
190.5
21
-71.4375
0
LINE
8
BLACK
6
CONTINUOUS
10
133.3499999999999943
20
-42.8624999999999972
11
133.3499999999999943
21
-61.9124999999999943
0
LINE
8
BLACK
6
CONTINUOUS
10
133.3499999999999943
20
-61.9124999999999943
11
152.4000000000000057
21
-61.9124999999999943
0
LINE
8
BLACK
6
CONTINUOUS
10
152.4000000000000057
20
-42.8624999999999972
11
133.3499999999999943
21
-42.8624999999999972
0
LINE
8
BLACK
6
CONTINUOUS
10
152.4000000000000057
20
-61.9124999999999943
11
152.4000000000000057
21
-42.8624999999999972
0
LINE
8
BLACK
6
CONTINUOUS
10
114.2999999999999972
20
-47.625
11
114.2999999999999972
21
-66.6749999999999972
0
LINE
8
BLACK
6
CONTINUOUS
10
114.2999999999999972
20
-66.6749999999999972
11
133.3499999999999943
21
-66.6749999999999972
0
LINE
8
BLACK
6
CONTINUOUS
10
133.3499999999999943
20
-47.625
11
114.2999999999999972
21
-47.625
0
LINE
8
BLACK
6
CONTINUOUS
10
133.3499999999999943
20
-66.6749999999999972
11
133.3499999999999943
21
-47.625
0
LINE
8
BLACK
6
CONTINUOUS
10
158.0275469999999984
20
-130.9912369999999839
11
169.5720759999999814
21
-110.1643550000000005
0
LINE
8
BLACK
6
CONTINUOUS
10
169.5720759999999814
20
-110.1643550000000005
11
186.2335809999999867
21
-119.3999789999999876
0
LINE
8
BLACK
6
CONTINUOUS
10
174.6890520000000038
20
-140.2268609999999853
11
158.0275469999999984
21
-130.9912369999999839
0
LINE
8
BLACK
6
CONTINUOUS
10
186.2335809999999867
20
-119.3999789999999876
11
174.6890520000000038
21
-140.2268609999999853
0
LINE
8
BLACK
6
CONTINUOUS
10
152.4000000000000057
20
-47.625
11
152.4000000000000057
21
-66.6749999999999972
0
LINE
8
BLACK
6
CONTINUOUS
10
152.4000000000000057
20
-66.6749999999999972
11
171.4499999999999886
21
-66.6749999999999972
0
LINE
8
BLACK
6
CONTINUOUS
10
171.4499999999999886
20
-47.625
11
152.4000000000000057
21
-47.625
0
LINE
8
BLACK
6
CONTINUOUS
10
171.4499999999999886
20
-66.6749999999999972
11
171.4499999999999886
21
-47.625
0
LINE
8
BLACK
6
CONTINUOUS
10
95.25
20
-90.4874999999999972
11
95.25
21
-109.5374999999999943
0
LINE
8
BLACK
6
CONTINUOUS
10
95.25
20
-109.5374999999999943
11
114.2999999999999972
21
-109.5374999999999943
0
LINE
8
BLACK
6
CONTINUOUS
10
114.2999999999999972
20
-90.4874999999999972
11
95.25
21
-90.4874999999999972
0
LINE
8
BLACK
6
CONTINUOUS
10
114.2999999999999972
20
-109.5374999999999943
11
114.2999999999999972
21
-90.4874999999999972
0
LINE
8
BLACK
6
CONTINUOUS
10
76.2000000000000028
20
-52.3874999999999957
11
76.2000000000000028
21
-71.4375
0
LINE
8
BLACK
6
CONTINUOUS
10
76.2000000000000028
20
-71.4375
11
95.25
21
-71.4375
0
LINE
8
BLACK
6
CONTINUOUS
10
95.25
20
-52.3874999999999957
11
76.2000000000000028
21
-52.3874999999999957
0
LINE
8
BLACK
6
CONTINUOUS
10
95.25
20
-71.4375
11
95.25
21
-52.3874999999999957
0
LINE
8
BLACK
6
CONTINUOUS
10
152.4000000000000057
20
-47.625
11
152.4000000000000057
21
-66.6749999999999972
0
LINE
8
BLACK
6
CONTINUOUS
10
152.4000000000000057
20
-66.6749999999999972
11
171.4499999999999886
21
-66.6749999999999972
0
LINE
8
BLACK
6
CONTINUOUS
10
171.4499999999999886
20
-47.625
11
152.4000000000000057
21
-47.625
0
LINE
8
BLACK
6
CONTINUOUS
10
171.4499999999999886
20
-66.6749999999999972
11
171.4499999999999886
21
-47.625
0
LINE
8
BLACK
6
CONTINUOUS
10
152.4000000000000057
20
-85.7249999999999943
11
152.4000000000000057
21
-104.7749999999999915
0
LINE
8
BLACK
6
CONTINUOUS
10
152.4000000000000057
20
-104.7749999999999915
11
171.4499999999999886
21
-104.7749999999999915
0
LINE
8
BLACK
6
CONTINUOUS
10
171.4499999999999886
20
-85.7249999999999943
11
152.4000000000000057
21
-85.7249999999999943
0
LINE
8
BLACK
6
CONTINUOUS
10
171.4499999999999886
20
-104.7749999999999915
11
171.4499999999999886
21
-85.7249999999999943
0
LINE
8
BLACK
6
CONTINUOUS
10
152.4000000000000057
20
-66.6749999999999972
11
152.4000000000000057
21
-85.7249999999999943
0
LINE
8
BLACK
6
CONTINUOUS
10
152.4000000000000057
20
-85.7249999999999943
11
171.4499999999999886
21
-85.7249999999999943
0
LINE
8
BLACK
6
CONTINUOUS
10
171.4499999999999886
20
-66.6749999999999972
11
152.4000000000000057
21
-66.6749999999999972
0
LINE
8
BLACK
6
CONTINUOUS
10
171.4499999999999886
20
-85.7249999999999943
11
171.4499999999999886
21
-66.6749999999999972
0
LINE
8
BLACK
6
CONTINUOUS
10
171.4499999999999886
20
-90.4874999999999972
11
171.4499999999999886
21
-109.5374999999999943
0
LINE
8
BLACK
6
CONTINUOUS
10
171.4499999999999886
20
-109.5374999999999943
11
190.5
21
-109.5374999999999943
0
LINE
8
BLACK
6
CONTINUOUS
10
190.5
20
-90.4874999999999972
11
171.4499999999999886
21
-90.4874999999999972
0
LINE
8
BLACK
6
CONTINUOUS
10
190.5
20
-109.5374999999999943
11
190.5
21
-90.4874999999999972
0
LINE
8
BLACK
6
CONTINUOUS
10
141.3564360000000022
20
-121.7729420000000005
11
158.0179409999999791
21
-131.0085650000000044
0
LINE
8
BLACK
6
CONTINUOUS
10
150.5920590000000061
20
-105.1114369999999951
11
141.3564360000000022
21
-121.7729420000000005
0
LINE
8
BLACK
6
CONTINUOUS
10
158.0179409999999791
20
-131.0085650000000044
11
167.253563999999983
21
-114.347059999999999
0
LINE
8
BLACK
6
CONTINUOUS
10
167.253563999999983
20
-114.347059999999999
11
150.5920590000000061
21
-105.1114369999999951
0
LINE
8
BLACK
6
CONTINUOUS
10
186.2179169999999999
20
-119.4282389999999907
11
202.8794219999999768
21
-128.6638619999999946
0
LINE
8
BLACK
6
CONTINUOUS
10
195.4535400000000038
20
-102.7667339999999996
11
186.2179169999999999
21
-119.4282389999999907
0
LINE
8
BLACK
6
CONTINUOUS
10
202.8794219999999768
20
-128.6638619999999946
11
212.1150449999999807
21
-112.0023569999999893
0
LINE
8
BLACK
6
CONTINUOUS
10
212.1150449999999807
20
-112.0023569999999893
11
195.4535400000000038
21
-102.7667339999999996
0
LINE
8
BLACK
6
CONTINUOUS
10
197.6144999999999925
20
-52.0545449999999974
11
206.7144999999999868
21
-52.0545449999999974
0
LINE
8
BLACK
6
CONTINUOUS
10
197.6144999999999925
20
-59.454544999999996
11
197.6144999999999925
21
-52.0545449999999974
0
LINE
8
BLACK
6
CONTINUOUS
10
206.7144999999999868
20
-52.0545449999999974
11
206.7144999999999868
21
-59.454544999999996
0
LINE
8
BLACK
6
CONTINUOUS
10
206.7144999999999868
20
-59.454544999999996
11
197.6144999999999925
21
-59.454544999999996
0
LINE
8
BLACK
6
CONTINUOUS
10
171.4499999999999886
20
-71.4375
11
171.4499999999999886
21
-90.4874999999999972
0
LINE
8
BLACK
6
CONTINUOUS
10
171.4499999999999886
20
-90.4874999999999972
11
190.5
21
-90.4874999999999972
0
LINE
8
BLACK
6
CONTINUOUS
10
190.5
20
-71.4375
11
171.4499999999999886
21
-71.4375
0
LINE
8
BLACK
6
CONTINUOUS
10
190.5
20
-90.4874999999999972
11
190.5
21
-71.4375
0
LINE
8
BLACK
6
CONTINUOUS
10
114.2999999999999972
20
-47.625
11
114.2999999999999972
21
-66.6749999999999972
0
LINE
8
BLACK
6
CONTINUOUS
10
114.2999999999999972
20
-66.6749999999999972
11
133.3499999999999943
21
-66.6749999999999972
0
LINE
8
BLACK
6
CONTINUOUS
10
133.3499999999999943
20
-47.625
11
114.2999999999999972
21
-47.625
0
LINE
8
BLACK
6
CONTINUOUS
10
133.3499999999999943
20
-66.6749999999999972
11
133.3499999999999943
21
-47.625
0
LINE
8
BLACK
6
CONTINUOUS
10
114.2999999999999972
20
-66.6749999999999972
11
114.2999999999999972
21
-85.7249999999999943
0
LINE
8
BLACK
6
CONTINUOUS
10
114.2999999999999972
20
-85.7249999999999943
11
133.3499999999999943
21
-85.7249999999999943
0
LINE
8
BLACK
6
CONTINUOUS
10
133.3499999999999943
20
-66.6749999999999972
11
114.2999999999999972
21
-66.6749999999999972
0
LINE
8
BLACK
6
CONTINUOUS
10
133.3499999999999943
20
-85.7249999999999943
11
133.3499999999999943
21
-66.6749999999999972
0
LINE
8
BLACK
6
CONTINUOUS
10
133.3499999999999943
20
-61.9124999999999943
11
133.3499999999999943
21
-80.9624999999999915
0
LINE
8
BLACK
6
CONTINUOUS
10
133.3499999999999943
20
-80.9624999999999915
11
152.4000000000000057
21
-80.9624999999999915
0
LINE
8
BLACK
6
CONTINUOUS
10
152.4000000000000057
20
-61.9124999999999943
11
133.3499999999999943
21
-61.9124999999999943
0
LINE
8
BLACK
6
CONTINUOUS
10
152.4000000000000057
20
-80.9624999999999915
11
152.4000000000000057
21
-61.9124999999999943
0
LINE
8
BLACK
6
CONTINUOUS
10
133.3499999999999943
20
-80.9624999999999915
11
133.3499999999999943
21
-100.0124999999999886
0
LINE
8
BLACK
6
CONTINUOUS
10
133.3499999999999943
20
-100.0124999999999886
11
152.4000000000000057
21
-100.0124999999999886
0
LINE
8
BLACK
6
CONTINUOUS
10
152.4000000000000057
20
-80.9624999999999915
11
133.3499999999999943
21
-80.9624999999999915
0
LINE
8
BLACK
6
CONTINUOUS
10
152.4000000000000057
20
-100.0124999999999886
11
152.4000000000000057
21
-80.9624999999999915
0
LINE
8
BLACK
6
CONTINUOUS
10
159.1880759999999952
20
-128.9092519999999809
11
175.8495810000000006
21
-138.1448749999999848
0
LINE
8
BLACK
6
CONTINUOUS
10
168.4236989999999992
20
-112.2477469999999897
11
159.1880759999999952
21
-128.9092519999999809
0
LINE
8
BLACK
6
CONTINUOUS
10
175.8495810000000006
20
-138.1448749999999848
11
185.0852040000000045
21
-121.4833699999999936
0
LINE
8
BLACK
6
CONTINUOUS
10
185.0852040000000045
20
-121.4833699999999936
11
168.4236989999999992
21
-112.2477469999999897
0
LINE
8
BLACK
6
CONTINUOUS
10
133.3499999999999943
20
-42.8624999999999972
11
133.3499999999999943
21
-61.9124999999999943
0
LINE
8
BLACK
6
CONTINUOUS
10
133.3499999999999943
20
-61.9124999999999943
11
152.4000000000000057
21
-61.9124999999999943
0
LINE
8
BLACK
6
CONTINUOUS
10
152.4000000000000057
20
-42.8624999999999972
11
133.3499999999999943
21
-42.8624999999999972
0
LINE
8
BLACK
6
CONTINUOUS
10
152.4000000000000057
20
-61.9124999999999943
11
152.4000000000000057
21
-42.8624999999999972
0
LINE
8
BLACK
6
CONTINUOUS
10
175.8429909999999836
20
-138.1450999999999851
11
192.504495999999989
21
-147.380722999999989
0
LINE
8
BLACK
6
CONTINUOUS
10
185.0786139999999875
20
-121.483594999999994
11
175.8429909999999836
21
-138.1450999999999851
0
LINE
8
BLACK
6
CONTINUOUS
10
192.504495999999989
20
-147.380722999999989
11
201.7401189999999929
21
-130.7192179999999837
0
LINE
8
BLACK
6
CONTINUOUS
10
201.7401189999999929
20
-130.7192179999999837
11
185.0786139999999875
21
-121.483594999999994
0
LINE
8
BLACK
6
CONTINUOUS
10
171.4499999999999886
20
-52.3874999999999957
11
171.4499999999999886
21
-71.4375
0
LINE
8
BLACK
6
CONTINUOUS
10
171.4499999999999886
20
-71.4375
11
190.5
21
-71.4375
0
LINE
8
BLACK
6
CONTINUOUS
10
190.5
20
-52.3874999999999957
11
171.4499999999999886
21
-52.3874999999999957
0
LINE
8
BLACK
6
CONTINUOUS
10
190.5
20
-71.4375
11
190.5
21
-52.3874999999999957
0
LINE
8
BLACK
6
CONTINUOUS
10
76.2000000000000028
20
-90.4874999999999972
11
76.2000000000000028
21
-109.5374999999999943
0
LINE
8
BLACK
6
CONTINUOUS
10
76.2000000000000028
20
-109.5374999999999943
11
95.25
21
-109.5374999999999943
0
LINE
8
BLACK
6
CONTINUOUS
10
95.25
20
-90.4874999999999972
11
76.2000000000000028
21
-90.4874999999999972
0
LINE
8
BLACK
6
CONTINUOUS
10
95.25
20
-109.5374999999999943
11
95.25
21
-90.4874999999999972
0
LINE
8
BLACK
6
CONTINUOUS
10
76.2000000000000028
20
-71.4375
11
76.2000000000000028
21
-90.4874999999999972
0
LINE
8
BLACK
6
CONTINUOUS
10
76.2000000000000028
20
-90.4874999999999972
11
95.25
21
-90.4874999999999972
0
LINE
8
BLACK
6
CONTINUOUS
10
95.25
20
-71.4375
11
76.2000000000000028
21
-71.4375
0
LINE
8
BLACK
6
CONTINUOUS
10
95.25
20
-90.4874999999999972
11
95.25
21
-71.4375
0
LINE
8
BLACK
6
CONTINUOUS
10
95.25
20
-71.4375
11
95.25
21
-90.4874999999999972
0
LINE
8
BLACK
6
CONTINUOUS
10
95.25
20
-90.4874999999999972
11
114.2999999999999972
21
-90.4874999999999972
0
LINE
8
BLACK
6
CONTINUOUS
10
114.2999999999999972
20
-71.4375
11
95.25
21
-71.4375
0
LINE
8
BLACK
6
CONTINUOUS
10
114.2999999999999972
20
-90.4874999999999972
11
114.2999999999999972
21
-71.4375
0
LINE
8
BLACK
6
CONTINUOUS
10
114.2999999999999972
20
-85.7249999999999943
11
114.2999999999999972
21
-104.7749999999999915
0
LINE
8
BLACK
6
CONTINUOUS
10
114.2999999999999972
20
-104.7749999999999915
11
133.3499999999999943
21
-104.7749999999999915
0
LINE
8
BLACK
6
CONTINUOUS
10
133.3499999999999943
20
-85.7249999999999943
11
114.2999999999999972
21
-85.7249999999999943
0
LINE
8
BLACK
6
CONTINUOUS
10
133.3499999999999943
20
-104.7749999999999915
11
133.3499999999999943
21
-85.7249999999999943
0
LINE
8
BLACK
6
CONTINUOUS
10
95.25
20
-52.3874999999999957
11
95.25
21
-71.4375
0
LINE
8
BLACK
6
CONTINUOUS
10
95.25
20
-71.4375
11
114.2999999999999972
21
-71.4375
0
LINE
8
BLACK
6
CONTINUOUS
10
114.2999999999999972
20
-52.3874999999999957
11
95.25
21
-52.3874999999999957
0
LINE
8
BLACK
6
CONTINUOUS
10
114.2999999999999972
20
-71.4375
11
114.2999999999999972
21
-52.3874999999999957
0
LINE
8
BLACK
6
CONTINUOUS
10
95.25
20
-90.4874999999999972
11
95.25
21
-109.5374999999999943
0
LINE
8
BLACK
6
CONTINUOUS
10
95.25
20
-109.5374999999999943
11
114.2999999999999972
21
-109.5374999999999943
0
LINE
8
BLACK
6
CONTINUOUS
10
114.2999999999999972
20
-90.4874999999999972
11
95.25
21
-90.4874999999999972
0
LINE
8
BLACK
6
CONTINUOUS
10
114.2999999999999972
20
-109.5374999999999943
11
114.2999999999999972
21
-90.4874999999999972
  0
ENDSEC
  0
EOF
