  0
SECTION
  2
HEADER
  9
$ANGBASE
  50
0.0
  9
$ANGDIR
  70
1
  9
$MEASUREMENT
  70
1
  0
ENDSEC
  0
SECTION
  2
TABLES
  0
TABLE
  2
LTYPE
  70
4
  0
LTYPE
  5
40F
  2
CONTINUOUS
  70
0
  3
Solid line
  72
65
  73
0
  40
0.0
  0
LTYPE
  5
410
  2
DASHDOT
 70
0
  3
Dash Dot ____ _ ____ _
 72
65
 73
4
 40
2.0
 49
1.25
 49
-0.25
 49
0.25
 49
-0.25
  0
LTYPE
  5
411
  2
DASHED
 70
0
  3
Dashed __ __ __ __ __
 72
65
 73
2
 40
0.75
 49
0.5
 49
-0.25
  0
LTYPE
  5
43B
  2
DOTTED
 70
0
  3
Dotted .  .  .  .
 72
65
 73
2
 40
0.2
 49
0.0
 49
-0.2
  0
ENDTAB
  0
TABLE
  2
STYLE
  70
4
  0
STYLE
  2
KICAD
  70
0
  40
0
  41
1
  42
1
  50
0
  71
0
  3
isocp.shx
  0
STYLE
  2
KICADB
  70
0
  40
0
  41
1
  42
1
  50
0
  71
0
  3
isocp.shx
  0
STYLE
  2
KICADI
  70
0
  40
0
  41
1
  42
1
  50
15
  71
0
  3
isocp.shx
  0
STYLE
  2
KICADBI
  70
0
  40
0
  41
1
  42
1
  50
15
  71
0
  3
isocp.shx
  0
ENDTAB
  0
TABLE
  2
LAYER
  70
1
  0
LAYER
  2
BLACK
  70
0
  62
7
  6
CONTINUOUS
  0
ENDTAB
  0
ENDSEC
  0
SECTION
  2
ENTITIES
0
LINE
8
BLACK
6
CONTINUOUS
10
213.1898939999999811
20
-110.8378319999999917
11
213.1898939999999811
21
-52.5
0
CIRCLE
8
BLACK
10
170.8499999999999943
20
-66.7374999999999972
40
2.
0
CIRCLE
8
BLACK
10
194.9002519999999947
20
-98.0004939999999891
40
1.0999999999999999
0
LINE
8
BLACK
6
CONTINUOUS
10
212.6898939999999811
20
-52.
11
172.3874999999999886
21
-52.
0
CIRCLE
8
BLACK
10
131.9842919999999822
20
-66.7095449999999914
40
2.
0
LINE
8
BLACK
6
CONTINUOUS
10
171.3874999999999886
20
-47.2374999999999972
11
153.3375000000000057
21
-47.2374999999999972
0
ARC
8
BLACK
10
133.4124999999999943
20
-42.9750000000000014
40
0.5
50
90.00000000
51
180.00000000
0
ARC
8
BLACK
10
119.1417999999999893
20
-110.524799999999999
40
0.4998000005762304
50
60.99128021
51
90.00275130
0
CIRCLE
8
BLACK
10
185.75
20
-120.5374999999999943
40
2.
0
LINE
8
BLACK
6
CONTINUOUS
10
113.8624999999999972
20
-47.7374999999999972
11
113.8624999999999972
21
-51.5
0
ARC
8
BLACK
10
113.3624999999999972
20
-51.5
40
0.5
50
-90.00000000
51
-0.00000000
0
ARC
8
BLACK
10
76.2625000000000028
20
-52.5
40
0.5
50
90.00000000
51
180.00000000
0
LINE
8
BLACK
6
CONTINUOUS
10
191.7570779999999786
20
-149.6329649999999845
11
213.1272039999999777
21
-111.0802369999999968
0
LINE
8
BLACK
6
CONTINUOUS
10
76.2625000000000028
20
-110.0249999999999915
11
119.141775999999993
21
-110.0249999999999915
0
ARC
8
BLACK
10
153.3375000000000057
20
-46.7374999999999972
40
0.5
50
-180.00000000
51
-90.00000000
0
CIRCLE
8
BLACK
10
95.25
20
-71.4375
40
2.
0
LINE
8
BLACK
6
CONTINUOUS
10
152.8375000000000057
20
-46.7374999999999972
11
152.8375000000000057
21
-42.9750000000000014
0
LINE
8
BLACK
6
CONTINUOUS
10
113.3624999999999972
20
-52.
11
76.2625000000000028
21
-52.
0
ARC
8
BLACK
10
152.3375000000000057
20
-42.9750000000000014
40
0.5
50
0.00000000
51
90.00000000
0
CIRCLE
8
BLACK
10
209.8973569999999995
20
-106.3135249999999985
40
1.0999999999999999
0
CIRCLE
8
BLACK
10
95.25
20
-90.4375
40
2.
0
ARC
8
BLACK
10
114.3624999999999972
20
-47.7374999999999972
40
0.5
50
90.00000000
51
180.00000000
0
LINE
8
BLACK
6
CONTINUOUS
10
132.9124999999999943
20
-42.9750000000000014
11
132.9124999999999943
21
-46.7374999999999972
0
ARC
8
BLACK
10
132.4124999999999943
20
-46.7374999999999972
40
0.5
50
-90.00000000
51
-0.00000000
0
ARC
8
BLACK
10
212.6898999999999944
20
-52.5
40
0.500000000036
50
0.00000000
51
90.00068755
0
LINE
8
BLACK
6
CONTINUOUS
10
152.3375000000000057
20
-42.4750000000000014
11
142.875
21
-42.4750000000000014
0
LINE
8
BLACK
6
CONTINUOUS
10
142.875
20
-42.4750000000000014
11
133.4124999999999943
21
-42.4750000000000014
0
LINE
8
BLACK
6
CONTINUOUS
10
75.7625000000000028
20
-52.5
11
75.7625000000000028
21
-109.5249999999999915
0
ARC
8
BLACK
10
191.3197999999999865
20
-149.3906000000000063
40
0.4999528402849612
50
-119.00544048
51
-28.99777949
0
ARC
8
BLACK
10
171.3874999999999886
20
-47.7374999999999972
40
0.5
50
0.00000000
51
90.00000000
0
LINE
8
BLACK
6
CONTINUOUS
10
132.4124999999999943
20
-47.2374999999999972
11
114.3624999999999972
21
-47.2374999999999972
0
ARC
8
BLACK
10
212.6898999999999944
20
-110.8378000000000014
40
0.4999940010240123
50
-29.00355132
51
-0.00366697
0
LINE
8
BLACK
6
CONTINUOUS
10
171.8874999999999886
20
-51.5
11
171.8874999999999886
21
-47.7374999999999972
0
LINE
8
BLACK
6
CONTINUOUS
10
119.3841809999999981
20
-110.0876899999999949
11
191.0773629999999912
21
-149.8278699999999901
0
ARC
8
BLACK
10
172.3874999999999886
20
-51.5
40
0.5
50
-180.00000000
51
-90.00000000
0
CIRCLE
8
BLACK
10
138.9842919999999822
20
-109.5845449999999914
40
2.
0
ARC
8
BLACK
10
76.2625000000000028
20
-109.5249999999999915
40
0.5
50
-180.00000000
51
-90.00000000
0
LINE
8
BLACK
6
CONTINUOUS
10
84.0250010000000032
20
-66.2896569999999912
11
84.0250010000000032
21
-67.6953409999999991
0
LINE
8
BLACK
6
CONTINUOUS
10
84.9305480000000017
20
-68.4924989999999951
11
86.5194520000000011
21
-68.4924989999999951
0
LINE
8
BLACK
6
CONTINUOUS
10
86.5194529999999986
20
-65.4924999999999926
11
84.9305480000000017
21
-65.4924999999999926
0
LINE
8
BLACK
6
CONTINUOUS
10
87.4249989999999997
20
-67.6953409999999991
11
87.4249989999999997
21
-66.2896569999999912
0
ARC
8
BLACK
10
83.5245000000000033
20
-66.2897999999999996
40
0.5005132832373183
50
0.01637019
51
25.69604498
0
ARC
8
BLACK
10
84.4260299999999972
20
-65.8558999999999912
40
0.4999993648365966
50
-300.29939530
51
-154.29367517
0
ARC
8
BLACK
10
83.5246499999999941
20
-67.6952599999999904
40
0.500351006719283
50
-25.69709515
51
-0.00938992
0
ARC
8
BLACK
10
84.4260299999999972
20
-68.129099999999994
40
0.4999960394813143
50
-205.70653133
51
-59.70037344
0
ARC
8
BLACK
10
84.9305499999999967
20
-68.9925099999999958
40
0.5000103584367028
50
90.00022918
51
120.29880049
0
ARC
8
BLACK
10
84.9305499999999967
20
-64.9924900000000036
40
0.5000090000089998
50
-120.29901505
51
-90.00034377
0
ARC
8
BLACK
10
86.519449999999992
20
-68.9925080000000008
40
0.5000090000039998
50
59.70098495
51
89.99977082
0
ARC
8
BLACK
10
86.519449999999992
20
-64.9924910000000011
40
0.500009136137531
50
-89.99965623
51
-59.70098495
0
ARC
8
BLACK
10
87.0239689999999939
20
-65.8559010000000029
40
0.499998988562977
50
-25.70617187
51
120.29929636
0
ARC
8
BLACK
10
87.9249889999999965
20
-66.2896549999999962
40
0.499990000001
50
-205.70646243
51
-179.99988541
0
ARC
8
BLACK
10
87.0239699999999914
20
-68.129097999999999
40
0.4999997985959594
50
-120.29939530
51
25.70642808
0
ARC
8
BLACK
10
87.9249889999999965
20
-67.695342999999994
40
0.4999899543000839
50
-180.00022919
51
-154.29353757
0
LINE
8
BLACK
6
CONTINUOUS
10
160.2250009999999918
20
-61.5271569999999954
11
160.2250009999999918
21
-62.9328409999999963
0
LINE
8
BLACK
6
CONTINUOUS
10
161.1305480000000045
20
-63.7299989999999994
11
162.7194519999999898
21
-63.7299989999999994
0
LINE
8
BLACK
6
CONTINUOUS
10
162.7194529999999872
20
-60.7299999999999969
11
161.1305480000000045
21
-60.7299999999999969
0
LINE
8
BLACK
6
CONTINUOUS
10
163.6249990000000025
20
-62.9328409999999963
11
163.6249990000000025
21
-61.5271569999999954
0
ARC
8
BLACK
10
159.7245000000000061
20
-61.5272999999999968
40
0.5005132832373183
50
0.01637019
51
25.69604498
0
ARC
8
BLACK
10
160.6260299999999859
20
-61.0933999999999955
40
0.4999993648365966
50
-300.29939530
51
-154.29367517
0
ARC
8
BLACK
10
159.7246499999999969
20
-62.9327599999999947
40
0.500351006719283
50
-25.69709515
51
-0.00938992
0
ARC
8
BLACK
10
160.6260299999999859
20
-63.3665999999999983
40
0.4999960394813143
50
-205.70653133
51
-59.70037344
0
ARC
8
BLACK
10
161.1305499999999995
20
-64.2300099999999929
40
0.5000103584367028
50
90.00022918
51
120.29880049
0
ARC
8
BLACK
10
161.1305499999999995
20
-60.2299900000000008
40
0.5000090000089998
50
-120.29901505
51
-90.00034377
0
ARC
8
BLACK
10
162.7194499999999948
20
-64.230007999999998
40
0.5000090000039998
50
59.70098495
51
89.99977082
0
ARC
8
BLACK
10
162.7194499999999948
20
-60.2299909999999983
40
0.500009136137531
50
-89.99965623
51
-59.70098495
0
ARC
8
BLACK
10
163.2239689999999825
20
-61.0934010000000001
40
0.499998988562977
50
-25.70617187
51
120.29929636
0
ARC
8
BLACK
10
164.1249889999999994
20
-61.5271550000000005
40
0.499990000001
50
-205.70646243
51
-179.99988541
0
ARC
8
BLACK
10
163.22396999999998
20
-63.3665979999999962
40
0.4999997985959594
50
-120.29939530
51
25.70642808
0
ARC
8
BLACK
10
164.1249889999999994
20
-62.9328429999999983
40
0.4999899543000839
50
-180.00022919
51
-154.29353757
0
LINE
8
BLACK
6
CONTINUOUS
10
160.2250009999999918
20
-99.6271569999999969
11
160.2250009999999918
21
-101.0328409999999906
0
LINE
8
BLACK
6
CONTINUOUS
10
161.1305480000000045
20
-101.8299990000000008
11
162.7194519999999898
21
-101.8299990000000008
0
LINE
8
BLACK
6
CONTINUOUS
10
162.7194529999999872
20
-98.8299999999999983
11
161.1305480000000045
21
-98.8299999999999983
0
LINE
8
BLACK
6
CONTINUOUS
10
163.6249990000000025
20
-101.0328409999999906
11
163.6249990000000025
21
-99.6271569999999969
0
ARC
8
BLACK
10
159.7245000000000061
20
-99.6272999999999911
40
0.5005132832373183
50
0.01637019
51
25.69604498
0
ARC
8
BLACK
10
160.6260299999999859
20
-99.1933999999999969
40
0.4999993648365966
50
-300.29939530
51
-154.29367517
0
ARC
8
BLACK
10
159.7246499999999969
20
-101.0327599999999961
40
0.500351006719283
50
-25.69709515
51
-0.00938992
0
ARC
8
BLACK
10
160.6260299999999859
20
-101.4665999999999997
40
0.4999960394813143
50
-205.70653133
51
-59.70037344
0
ARC
8
BLACK
10
161.1305499999999995
20
-102.3300100000000015
40
0.5000103584367028
50
90.00022918
51
120.29880049
0
ARC
8
BLACK
10
161.1305499999999995
20
-98.3299899999999951
40
0.5000090000089998
50
-120.29901505
51
-90.00034377
0
ARC
8
BLACK
10
162.7194499999999948
20
-102.3300079999999923
40
0.5000090000039998
50
59.70098495
51
89.99977082
0
ARC
8
BLACK
10
162.7194499999999948
20
-98.3299909999999926
40
0.500009136137531
50
-89.99965623
51
-59.70098495
0
ARC
8
BLACK
10
163.2239689999999825
20
-99.1934009999999944
40
0.499998988562977
50
-25.70617187
51
120.29929636
0
ARC
8
BLACK
10
164.1249889999999994
20
-99.6271550000000019
40
0.499990000001
50
-205.70646243
51
-179.99988541
0
ARC
8
BLACK
10
163.22396999999998
20
-101.4665979999999905
40
0.4999997985959594
50
-120.29939530
51
25.70642808
0
ARC
8
BLACK
10
164.1249889999999994
20
-101.0328429999999997
40
0.4999899543000839
50
-180.00022919
51
-154.29353757
0
LINE
8
BLACK
6
CONTINUOUS
10
160.2250009999999918
20
-80.5771569999999997
11
160.2250009999999918
21
-81.9828409999999934
0
LINE
8
BLACK
6
CONTINUOUS
10
161.1305480000000045
20
-82.7799989999999895
11
162.7194519999999898
21
-82.7799989999999895
0
LINE
8
BLACK
6
CONTINUOUS
10
162.7194529999999872
20
-79.7800000000000011
11
161.1305480000000045
21
-79.7800000000000011
0
LINE
8
BLACK
6
CONTINUOUS
10
163.6249990000000025
20
-81.9828409999999934
11
163.6249990000000025
21
-80.5771569999999997
0
ARC
8
BLACK
10
159.7245000000000061
20
-80.5772999999999939
40
0.5005132832373183
50
0.01637019
51
25.69604498
0
ARC
8
BLACK
10
160.6260299999999859
20
-80.1433999999999997
40
0.4999993648365966
50
-300.29939530
51
-154.29367517
0
ARC
8
BLACK
10
159.7246499999999969
20
-81.982759999999999
40
0.500351006719283
50
-25.69709515
51
-0.00938992
0
ARC
8
BLACK
10
160.6260299999999859
20
-82.4166000000000025
40
0.4999960394813143
50
-205.70653133
51
-59.70037344
0
ARC
8
BLACK
10
161.1305499999999995
20
-83.2800099999999901
40
0.5000103584367028
50
90.00022918
51
120.29880049
0
ARC
8
BLACK
10
161.1305499999999995
20
-79.279989999999998
40
0.5000090000089998
50
-120.29901505
51
-90.00034377
0
ARC
8
BLACK
10
162.7194499999999948
20
-83.2800079999999951
40
0.5000090000039998
50
59.70098495
51
89.99977082
0
ARC
8
BLACK
10
162.7194499999999948
20
-79.2799909999999954
40
0.500009136137531
50
-89.99965623
51
-59.70098495
0
ARC
8
BLACK
10
163.2239689999999825
20
-80.1434009999999972
40
0.499998988562977
50
-25.70617187
51
120.29929636
0
ARC
8
BLACK
10
164.1249889999999994
20
-80.5771549999999905
40
0.499990000001
50
-205.70646243
51
-179.99988541
0
ARC
8
BLACK
10
163.22396999999998
20
-82.4165979999999934
40
0.4999997985959594
50
-120.29939530
51
25.70642808
0
ARC
8
BLACK
10
164.1249889999999994
20
-81.9828430000000026
40
0.4999899543000839
50
-180.00022919
51
-154.29353757
0
LINE
8
BLACK
6
CONTINUOUS
10
179.2750010000000032
20
-104.3896569999999997
11
179.2750010000000032
21
-105.7953409999999934
0
LINE
8
BLACK
6
CONTINUOUS
10
180.1805479999999875
20
-106.5924989999999895
11
181.7694520000000011
21
-106.5924989999999895
0
LINE
8
BLACK
6
CONTINUOUS
10
181.7694529999999986
20
-103.5925000000000011
11
180.1805479999999875
21
-103.5925000000000011
0
LINE
8
BLACK
6
CONTINUOUS
10
182.6749989999999855
20
-105.7953409999999934
11
182.6749989999999855
21
-104.3896569999999997
0
ARC
8
BLACK
10
178.7744999999999891
20
-104.3897999999999939
40
0.5005132832373183
50
0.01637019
51
25.69604498
0
ARC
8
BLACK
10
179.6760299999999972
20
-103.9558999999999997
40
0.4999993648365966
50
-300.29939530
51
-154.29367517
0
ARC
8
BLACK
10
178.7746499999999799
20
-105.795259999999999
40
0.500351006719283
50
-25.69709515
51
-0.00938992
0
ARC
8
BLACK
10
179.6760299999999972
20
-106.2290999999999883
40
0.4999960394813143
50
-205.70653133
51
-59.70037344
0
ARC
8
BLACK
10
180.1805499999999824
20
-107.0925099999999901
40
0.5000103584367028
50
90.00022918
51
120.29880049
0
ARC
8
BLACK
10
180.1805499999999824
20
-103.092489999999998
40
0.5000090000089998
50
-120.29901505
51
-90.00034377
0
ARC
8
BLACK
10
181.7694499999999778
20
-107.0925079999999951
40
0.5000090000039998
50
59.70098495
51
89.99977082
0
ARC
8
BLACK
10
181.7694499999999778
20
-103.0924909999999954
40
0.500009136137531
50
-89.99965623
51
-59.70098495
0
ARC
8
BLACK
10
182.2739689999999939
20
-103.9559009999999972
40
0.499998988562977
50
-25.70617187
51
120.29929636
0
ARC
8
BLACK
10
183.1749889999999823
20
-104.3896549999999905
40
0.499990000001
50
-205.70646243
51
-179.99988541
0
ARC
8
BLACK
10
182.2739699999999914
20
-106.2290979999999934
40
0.4999997985959594
50
-120.29939530
51
25.70642808
0
ARC
8
BLACK
10
183.1749889999999823
20
-105.7953429999999884
40
0.4999899543000839
50
-180.00022919
51
-154.29353757
0
LINE
8
BLACK
6
CONTINUOUS
10
150.420109999999994
20
-123.4298399999999987
11
151.8097960000000057
21
-124.2001569999999901
0
LINE
8
BLACK
6
CONTINUOUS
10
150.6960589999999911
20
-121.0641729999999967
11
150.0145689999999945
21
-122.2936109999999985
0
LINE
8
BLACK
6
CONTINUOUS
10
152.9882749999999874
20
-123.9419639999999987
11
153.6697659999999814
21
-122.7125249999999994
0
LINE
8
BLACK
6
CONTINUOUS
10
153.2642259999999794
20
-121.5762979999999942
11
151.8745380000000011
21
-120.8059809999999885
0
ARC
8
BLACK
10
149.5769799999999918
20
-122.0509469999999936
40
0.5003711725559337
50
-54.69706378
51
-29.01050592
0
ARC
8
BLACK
10
150.1550279999999873
20
-122.867408999999995
40
0.4999956132697566
50
-234.70661563
51
-88.70040889
0
ARC
8
BLACK
10
150.1777009999999848
20
-123.8671599999999984
40
0.5000104507037828
50
61.00014376
51
91.29875021
0
ARC
8
BLACK
10
150.2582419999999956
20
-120.8216499999999911
40
0.5005129303794259
50
-28.98368724
51
-3.30395136
0
ARC
8
BLACK
10
151.2570969999999875
20
-120.8792229999999961
40
0.499999922804994
50
30.70063089
51
176.70631402
0
ARC
8
BLACK
10
151.5673529999999971
20
-124.6375079999999969
40
0.5000545024794797
50
30.70258582
51
60.99845852
0
ARC
8
BLACK
10
152.1169820000000072
20
-120.3686249999999944
40
0.5000584857404182
50
-149.29711862
51
-119.00141949
0
ARC
8
BLACK
10
153.4255839999999864
20
-124.1843700000000013
40
0.4999990968281842
50
150.99983333
51
176.70596423
0
ARC
8
BLACK
10
152.4272379999999885
20
-124.1269129999999876
40
0.4999998653519819
50
-149.29936911
51
-3.29357158
0
ARC
8
BLACK
10
153.5066269999999804
20
-121.1390069999999923
40
0.499981639552894
50
-119.00066557
51
-88.70025793
0
ARC
8
BLACK
10
153.5293059999999912
20
-122.1387299999999954
40
0.4999985671419469
50
-54.70625727
51
91.29935419
0
ARC
8
BLACK
10
154.1070959999999843
20
-122.9549489999999992
40
0.5000282833860501
50
125.29454240
51
150.99915133
0
LINE
8
BLACK
6
CONTINUOUS
10
195.2815909999999917
20
-121.0851369999999889
11
196.6712770000000035
21
-121.8554539999999946
0
LINE
8
BLACK
6
CONTINUOUS
10
195.5575399999999888
20
-118.7194700000000012
11
194.8760499999999922
21
-119.9489079999999888
0
LINE
8
BLACK
6
CONTINUOUS
10
197.8497559999999851
20
-121.5972609999999889
11
198.5312469999999792
21
-120.3678219999999897
0
LINE
8
BLACK
6
CONTINUOUS
10
198.1257069999999771
20
-119.2315949999999987
11
196.7360189999999989
21
-118.461277999999993
0
ARC
8
BLACK
10
194.4384609999999896
20
-119.7062439999999981
40
0.5003711725559337
50
-54.69706378
51
-29.01050592
0
ARC
8
BLACK
10
195.016508999999985
20
-120.5227059999999994
40
0.4999956132697566
50
-234.70661563
51
-88.70040889
0
ARC
8
BLACK
10
195.0391819999999825
20
-121.5224569999999886
40
0.5000104507037828
50
61.00014376
51
91.29875021
0
ARC
8
BLACK
10
195.1197229999999934
20
-118.4769469999999956
40
0.5005129303794259
50
-28.98368724
51
-3.30395136
0
ARC
8
BLACK
10
196.1185779999999852
20
-118.5345200000000006
40
0.499999922804994
50
30.70063089
51
176.70631402
0
ARC
8
BLACK
10
196.4288339999999948
20
-122.2928050000000013
40
0.5000545024794797
50
30.70258582
51
60.99845852
0
ARC
8
BLACK
10
196.978463000000005
20
-118.0239219999999989
40
0.5000584857404182
50
-149.29711862
51
-119.00141949
0
ARC
8
BLACK
10
198.2870649999999841
20
-121.8396669999999915
40
0.4999990968281842
50
150.99983333
51
176.70596423
0
ARC
8
BLACK
10
197.2887189999999862
20
-121.7822099999999921
40
0.4999998653519819
50
-149.29936911
51
-3.29357158
0
ARC
8
BLACK
10
198.3681079999999781
20
-118.7943039999999968
40
0.499981639552894
50
-119.00066557
51
-88.70025793
0
ARC
8
BLACK
10
198.3907869999999889
20
-119.7940269999999998
40
0.4999985671419469
50
-54.70625727
51
91.29935419
0
ARC
8
BLACK
10
198.968576999999982
20
-120.6102459999999894
40
0.5000282833860501
50
125.29454240
51
150.99915133
0
LINE
8
BLACK
6
CONTINUOUS
10
179.2750010000000032
20
-85.3396570000000025
11
179.2750010000000032
21
-86.7453409999999963
0
LINE
8
BLACK
6
CONTINUOUS
10
180.1805479999999875
20
-87.5424989999999923
11
181.7694520000000011
21
-87.5424989999999923
0
LINE
8
BLACK
6
CONTINUOUS
10
181.7694529999999986
20
-84.5424999999999898
11
180.1805479999999875
21
-84.5424999999999898
0
LINE
8
BLACK
6
CONTINUOUS
10
182.6749989999999855
20
-86.7453409999999963
11
182.6749989999999855
21
-85.3396570000000025
0
ARC
8
BLACK
10
178.7744999999999891
20
-85.3397999999999968
40
0.5005132832373183
50
0.01637019
51
25.69604498
0
ARC
8
BLACK
10
179.6760299999999972
20
-84.9059000000000026
40
0.4999993648365966
50
-300.29939530
51
-154.29367517
0
ARC
8
BLACK
10
178.7746499999999799
20
-86.7452600000000018
40
0.500351006719283
50
-25.69709515
51
-0.00938992
0
ARC
8
BLACK
10
179.6760299999999972
20
-87.1790999999999912
40
0.4999960394813143
50
-205.70653133
51
-59.70037344
0
ARC
8
BLACK
10
180.1805499999999824
20
-88.0425099999999929
40
0.5000103584367028
50
90.00022918
51
120.29880049
0
ARC
8
BLACK
10
180.1805499999999824
20
-84.0424900000000008
40
0.5000090000089998
50
-120.29901505
51
-90.00034377
0
ARC
8
BLACK
10
181.7694499999999778
20
-88.042507999999998
40
0.5000090000039998
50
59.70098495
51
89.99977082
0
ARC
8
BLACK
10
181.7694499999999778
20
-84.0424909999999983
40
0.500009136137531
50
-89.99965623
51
-59.70098495
0
ARC
8
BLACK
10
182.2739689999999939
20
-84.9059010000000001
40
0.499998988562977
50
-25.70617187
51
120.29929636
0
ARC
8
BLACK
10
183.1749889999999823
20
-85.3396549999999934
40
0.499990000001
50
-205.70646243
51
-179.99988541
0
ARC
8
BLACK
10
182.2739699999999914
20
-87.1790979999999962
40
0.4999997985959594
50
-120.29939530
51
25.70642808
0
ARC
8
BLACK
10
183.1749889999999823
20
-86.7453429999999912
40
0.4999899543000839
50
-180.00022919
51
-154.29353757
0
LINE
8
BLACK
6
CONTINUOUS
10
122.1250009999999975
20
-61.5271569999999954
11
122.1250009999999975
21
-62.9328409999999963
0
LINE
8
BLACK
6
CONTINUOUS
10
123.030547999999996
20
-63.7299989999999994
11
124.6194519999999955
21
-63.7299989999999994
0
LINE
8
BLACK
6
CONTINUOUS
10
124.6194529999999929
20
-60.7299999999999969
11
123.030547999999996
21
-60.7299999999999969
0
LINE
8
BLACK
6
CONTINUOUS
10
125.524998999999994
20
-62.9328409999999963
11
125.524998999999994
21
-61.5271569999999954
0
ARC
8
BLACK
10
121.6244999999999976
20
-61.5272999999999968
40
0.5005132832373183
50
0.01637019
51
25.69604498
0
ARC
8
BLACK
10
122.5260299999999916
20
-61.0933999999999955
40
0.4999993648365966
50
-300.29939530
51
-154.29367517
0
ARC
8
BLACK
10
121.6246499999999884
20
-62.9327599999999947
40
0.500351006719283
50
-25.69709515
51
-0.00938992
0
ARC
8
BLACK
10
122.5260299999999916
20
-63.3665999999999983
40
0.4999960394813143
50
-205.70653133
51
-59.70037344
0
ARC
8
BLACK
10
123.030549999999991
20
-64.2300099999999929
40
0.5000103584367028
50
90.00022918
51
120.29880049
0
ARC
8
BLACK
10
123.030549999999991
20
-60.2299900000000008
40
0.5000090000089998
50
-120.29901505
51
-90.00034377
0
ARC
8
BLACK
10
124.6194500000000005
20
-64.230007999999998
40
0.5000090000039998
50
59.70098495
51
89.99977082
0
ARC
8
BLACK
10
124.6194500000000005
20
-60.2299909999999983
40
0.500009136137531
50
-89.99965623
51
-59.70098495
0
ARC
8
BLACK
10
125.1239689999999882
20
-61.0934010000000001
40
0.499998988562977
50
-25.70617187
51
120.29929636
0
ARC
8
BLACK
10
126.0249889999999908
20
-61.5271550000000005
40
0.499990000001
50
-205.70646243
51
-179.99988541
0
ARC
8
BLACK
10
125.1239699999999999
20
-63.3665979999999962
40
0.4999997985959594
50
-120.29939530
51
25.70642808
0
ARC
8
BLACK
10
126.0249889999999908
20
-62.9328429999999983
40
0.4999899543000839
50
-180.00022919
51
-154.29353757
0
LINE
8
BLACK
6
CONTINUOUS
10
122.1250009999999975
20
-80.5771569999999997
11
122.1250009999999975
21
-81.9828409999999934
0
LINE
8
BLACK
6
CONTINUOUS
10
123.030547999999996
20
-82.7799989999999895
11
124.6194519999999955
21
-82.7799989999999895
0
LINE
8
BLACK
6
CONTINUOUS
10
124.6194529999999929
20
-79.7800000000000011
11
123.030547999999996
21
-79.7800000000000011
0
LINE
8
BLACK
6
CONTINUOUS
10
125.524998999999994
20
-81.9828409999999934
11
125.524998999999994
21
-80.5771569999999997
0
ARC
8
BLACK
10
121.6244999999999976
20
-80.5772999999999939
40
0.5005132832373183
50
0.01637019
51
25.69604498
0
ARC
8
BLACK
10
122.5260299999999916
20
-80.1433999999999997
40
0.4999993648365966
50
-300.29939530
51
-154.29367517
0
ARC
8
BLACK
10
121.6246499999999884
20
-81.982759999999999
40
0.500351006719283
50
-25.69709515
51
-0.00938992
0
ARC
8
BLACK
10
122.5260299999999916
20
-82.4166000000000025
40
0.4999960394813143
50
-205.70653133
51
-59.70037344
0
ARC
8
BLACK
10
123.030549999999991
20
-83.2800099999999901
40
0.5000103584367028
50
90.00022918
51
120.29880049
0
ARC
8
BLACK
10
123.030549999999991
20
-79.279989999999998
40
0.5000090000089998
50
-120.29901505
51
-90.00034377
0
ARC
8
BLACK
10
124.6194500000000005
20
-83.2800079999999951
40
0.5000090000039998
50
59.70098495
51
89.99977082
0
ARC
8
BLACK
10
124.6194500000000005
20
-79.2799909999999954
40
0.500009136137531
50
-89.99965623
51
-59.70098495
0
ARC
8
BLACK
10
125.1239689999999882
20
-80.1434009999999972
40
0.499998988562977
50
-25.70617187
51
120.29929636
0
ARC
8
BLACK
10
126.0249889999999908
20
-80.5771549999999905
40
0.499990000001
50
-205.70646243
51
-179.99988541
0
ARC
8
BLACK
10
125.1239699999999999
20
-82.4165979999999934
40
0.4999997985959594
50
-120.29939530
51
25.70642808
0
ARC
8
BLACK
10
126.0249889999999908
20
-81.9828430000000026
40
0.4999899543000839
50
-180.00022919
51
-154.29353757
0
LINE
8
BLACK
6
CONTINUOUS
10
141.1750009999999804
20
-75.8146569999999969
11
141.1750009999999804
21
-77.2203409999999906
0
LINE
8
BLACK
6
CONTINUOUS
10
142.0805479999999932
20
-78.0174990000000008
11
143.6694520000000068
21
-78.0174990000000008
0
LINE
8
BLACK
6
CONTINUOUS
10
143.6694530000000043
20
-75.0174999999999983
11
142.0805479999999932
21
-75.0174999999999983
0
LINE
8
BLACK
6
CONTINUOUS
10
144.5749989999999912
20
-77.2203409999999906
11
144.5749989999999912
21
-75.8146569999999969
0
ARC
8
BLACK
10
140.6744999999999948
20
-75.8147999999999911
40
0.5005132832373183
50
0.01637019
51
25.69604498
0
ARC
8
BLACK
10
141.5760300000000029
20
-75.3808999999999969
40
0.4999993648365966
50
-300.29939530
51
-154.29367517
0
ARC
8
BLACK
10
140.6746499999999855
20
-77.2202599999999961
40
0.500351006719283
50
-25.69709515
51
-0.00938992
0
ARC
8
BLACK
10
141.5760300000000029
20
-77.6540999999999997
40
0.4999960394813143
50
-205.70653133
51
-59.70037344
0
ARC
8
BLACK
10
142.0805499999999881
20
-78.5175100000000015
40
0.5000103584367028
50
90.00022918
51
120.29880049
0
ARC
8
BLACK
10
142.0805499999999881
20
-74.5174899999999951
40
0.5000090000089998
50
-120.29901505
51
-90.00034377
0
ARC
8
BLACK
10
143.6694499999999834
20
-78.5175079999999923
40
0.5000090000039998
50
59.70098495
51
89.99977082
0
ARC
8
BLACK
10
143.6694499999999834
20
-74.5174909999999926
40
0.500009136137531
50
-89.99965623
51
-59.70098495
0
ARC
8
BLACK
10
144.1739689999999996
20
-75.3809009999999944
40
0.499998988562977
50
-25.70617187
51
120.29929636
0
ARC
8
BLACK
10
145.074988999999988
20
-75.8146550000000019
40
0.499990000001
50
-205.70646243
51
-179.99988541
0
ARC
8
BLACK
10
144.1739699999999971
20
-77.6540979999999905
40
0.4999997985959594
50
-120.29939530
51
25.70642808
0
ARC
8
BLACK
10
145.074988999999988
20
-77.2203429999999997
40
0.4999899543000839
50
-180.00022919
51
-154.29353757
0
LINE
8
BLACK
6
CONTINUOUS
10
141.1750009999999804
20
-94.864656999999994
11
141.1750009999999804
21
-96.2703410000000019
0
LINE
8
BLACK
6
CONTINUOUS
10
142.0805479999999932
20
-97.067498999999998
11
143.6694520000000068
21
-97.067498999999998
0
LINE
8
BLACK
6
CONTINUOUS
10
143.6694530000000043
20
-94.0674999999999955
11
142.0805479999999932
21
-94.0674999999999955
0
LINE
8
BLACK
6
CONTINUOUS
10
144.5749989999999912
20
-96.2703410000000019
11
144.5749989999999912
21
-94.864656999999994
0
ARC
8
BLACK
10
140.6744999999999948
20
-94.8648000000000025
40
0.5005132832373183
50
0.01637019
51
25.69604498
0
ARC
8
BLACK
10
141.5760300000000029
20
-94.4308999999999941
40
0.4999993648365966
50
-300.29939530
51
-154.29367517
0
ARC
8
BLACK
10
140.6746499999999855
20
-96.2702599999999933
40
0.500351006719283
50
-25.69709515
51
-0.00938992
0
ARC
8
BLACK
10
141.5760300000000029
20
-96.7040999999999968
40
0.4999960394813143
50
-205.70653133
51
-59.70037344
0
ARC
8
BLACK
10
142.0805499999999881
20
-97.5675099999999986
40
0.5000103584367028
50
90.00022918
51
120.29880049
0
ARC
8
BLACK
10
142.0805499999999881
20
-93.5674899999999923
40
0.5000090000089998
50
-120.29901505
51
-90.00034377
0
ARC
8
BLACK
10
143.6694499999999834
20
-97.5675079999999895
40
0.5000090000039998
50
59.70098495
51
89.99977082
0
ARC
8
BLACK
10
143.6694499999999834
20
-93.5674909999999898
40
0.500009136137531
50
-89.99965623
51
-59.70098495
0
ARC
8
BLACK
10
144.1739689999999996
20
-94.4309009999999915
40
0.499998988562977
50
-25.70617187
51
120.29929636
0
ARC
8
BLACK
10
145.074988999999988
20
-94.8646549999999991
40
0.499990000001
50
-205.70646243
51
-179.99988541
0
ARC
8
BLACK
10
144.1739699999999971
20
-96.7040980000000019
40
0.4999997985959594
50
-120.29939530
51
25.70642808
0
ARC
8
BLACK
10
145.074988999999988
20
-96.2703429999999969
40
0.4999899543000839
50
-180.00022919
51
-154.29353757
0
LINE
8
BLACK
6
CONTINUOUS
10
168.251749999999987
20
-130.5661499999999933
11
169.6414359999999988
21
-131.336466999999999
0
LINE
8
BLACK
6
CONTINUOUS
10
168.5276989999999842
20
-128.2004829999999913
11
167.8462089999999876
21
-129.4299210000000073
0
LINE
8
BLACK
6
CONTINUOUS
10
170.8199149999999804
20
-131.0782739999999933
11
171.5014060000000029
21
-129.8488350000000082
0
LINE
8
BLACK
6
CONTINUOUS
10
171.0958660000000009
20
-128.7126079999999888
11
169.7061779999999942
21
-127.9422909999999973
0
ARC
8
BLACK
10
167.4086199999999849
20
-129.1872569999999882
40
0.5003711725559337
50
-54.69706378
51
-29.01050592
0
ARC
8
BLACK
10
167.9866679999999803
20
-130.0037189999999896
40
0.4999956132697566
50
-234.70661563
51
-88.70040889
0
ARC
8
BLACK
10
168.0093410000000063
20
-131.003469999999993
40
0.5000104507037828
50
61.00014376
51
91.29875021
0
ARC
8
BLACK
10
168.0898819999999887
20
-127.9579599999999999
40
0.5005129303794259
50
-28.98368724
51
-3.30395136
0
ARC
8
BLACK
10
169.0887369999999805
20
-128.0155330000000049
40
0.499999922804994
50
30.70063089
51
176.70631402
0
ARC
8
BLACK
10
169.3989929999999902
20
-131.7738180000000057
40
0.5000545024794797
50
30.70258582
51
60.99845852
0
ARC
8
BLACK
10
169.9486220000000003
20
-127.504934999999989
40
0.5000584857404182
50
-149.29711862
51
-119.00141949
0
ARC
8
BLACK
10
171.2572239999999795
20
-131.3206799999999816
40
0.4999990968281842
50
150.99983333
51
176.70596423
0
ARC
8
BLACK
10
170.2588779999999815
20
-131.2632229999999822
40
0.4999998653519819
50
-149.29936911
51
-3.29357158
0
ARC
8
BLACK
10
171.3382670000000019
20
-128.2753170000000011
40
0.499981639552894
50
-119.00066557
51
-88.70025793
0
ARC
8
BLACK
10
171.3609459999999842
20
-129.27503999999999
40
0.4999985671419469
50
-54.70625727
51
91.29935419
0
ARC
8
BLACK
10
171.9387360000000058
20
-130.091259000000008
40
0.5000282833860501
50
125.29454240
51
150.99915133
0
LINE
8
BLACK
6
CONTINUOUS
10
141.1750009999999804
20
-56.7646569999999997
11
141.1750009999999804
21
-58.1703410000000005
0
LINE
8
BLACK
6
CONTINUOUS
10
142.0805479999999932
20
-58.9674989999999966
11
143.6694520000000068
21
-58.9674989999999966
0
LINE
8
BLACK
6
CONTINUOUS
10
143.6694530000000043
20
-55.967499999999994
11
142.0805479999999932
21
-55.967499999999994
0
LINE
8
BLACK
6
CONTINUOUS
10
144.5749989999999912
20
-58.1703410000000005
11
144.5749989999999912
21
-56.7646569999999997
0
ARC
8
BLACK
10
140.6744999999999948
20
-56.7647999999999939
40
0.5005132832373183
50
0.01637019
51
25.69604498
0
ARC
8
BLACK
10
141.5760300000000029
20
-56.3308999999999997
40
0.4999993648365966
50
-300.29939530
51
-154.29367517
0
ARC
8
BLACK
10
140.6746499999999855
20
-58.170259999999999
40
0.500351006719283
50
-25.69709515
51
-0.00938992
0
ARC
8
BLACK
10
141.5760300000000029
20
-58.6040999999999954
40
0.4999960394813143
50
-205.70653133
51
-59.70037344
0
ARC
8
BLACK
10
142.0805499999999881
20
-59.4675099999999972
40
0.5000103584367028
50
90.00022918
51
120.29880049
0
ARC
8
BLACK
10
142.0805499999999881
20
-55.467489999999998
40
0.5000090000089998
50
-120.29901505
51
-90.00034377
0
ARC
8
BLACK
10
143.6694499999999834
20
-59.4675079999999951
40
0.5000090000039998
50
59.70098495
51
89.99977082
0
ARC
8
BLACK
10
143.6694499999999834
20
-55.4674909999999954
40
0.500009136137531
50
-89.99965623
51
-59.70098495
0
ARC
8
BLACK
10
144.1739689999999996
20
-56.3309009999999972
40
0.499998988562977
50
-25.70617187
51
120.29929636
0
ARC
8
BLACK
10
145.074988999999988
20
-56.7646549999999976
40
0.499990000001
50
-205.70646243
51
-179.99988541
0
ARC
8
BLACK
10
144.1739699999999971
20
-58.6040980000000005
40
0.4999997985959594
50
-120.29939530
51
25.70642808
0
ARC
8
BLACK
10
145.074988999999988
20
-58.1703429999999955
40
0.4999899543000839
50
-180.00022919
51
-154.29353757
0
LINE
8
BLACK
6
CONTINUOUS
10
184.9066650000000038
20
-139.8019979999999975
11
186.2963509999999872
21
-140.5723150000000032
0
LINE
8
BLACK
6
CONTINUOUS
10
185.1826140000000009
20
-137.4363309999999956
11
184.5011240000000043
21
-138.6657689999999832
0
LINE
8
BLACK
6
CONTINUOUS
10
187.4748299999999972
20
-140.3141219999999976
11
188.1563209999999913
21
-139.0846829999999841
0
LINE
8
BLACK
6
CONTINUOUS
10
187.7507809999999893
20
-137.9484559999999931
11
186.3610929999999826
21
-137.1781389999999874
0
ARC
8
BLACK
10
184.0635350000000017
20
-138.4231049999999925
40
0.5003711725559337
50
-54.69706378
51
-29.01050592
0
ARC
8
BLACK
10
184.6415829999999971
20
-139.2395669999999939
40
0.4999956132697566
50
-234.70661563
51
-88.70040889
0
ARC
8
BLACK
10
184.6642559999999946
20
-140.2393179999999973
40
0.5000104507037828
50
61.00014376
51
91.29875021
0
ARC
8
BLACK
10
184.7447970000000055
20
-137.19380799999999
40
0.5005129303794259
50
-28.98368724
51
-3.30395136
0
ARC
8
BLACK
10
185.7436519999999973
20
-137.2513809999999808
40
0.499999922804994
50
30.70063089
51
176.70631402
0
ARC
8
BLACK
10
186.0539079999999785
20
-141.0096659999999815
40
0.5000545024794797
50
30.70258582
51
60.99845852
0
ARC
8
BLACK
10
186.6035369999999887
20
-136.7407829999999933
40
0.5000584857404182
50
-149.29711862
51
-119.00141949
0
ARC
8
BLACK
10
187.9121389999999963
20
-140.5565279999999859
40
0.4999990968281842
50
150.99983333
51
176.70596423
0
ARC
8
BLACK
10
186.9137929999999983
20
-140.4990709999999865
40
0.4999998653519819
50
-149.29936911
51
-3.29357158
0
ARC
8
BLACK
10
187.9931819999999902
20
-137.5111650000000054
40
0.499981639552894
50
-119.00066557
51
-88.70025793
0
ARC
8
BLACK
10
188.015861000000001
20
-138.5108879999999942
40
0.4999985671419469
50
-54.70625727
51
91.29935419
0
ARC
8
BLACK
10
188.5936509999999942
20
-139.3271069999999838
40
0.5000282833860501
50
125.29454240
51
150.99915133
0
LINE
8
BLACK
6
CONTINUOUS
10
179.2750010000000032
20
-66.2896569999999912
11
179.2750010000000032
21
-67.6953409999999991
0
LINE
8
BLACK
6
CONTINUOUS
10
180.1805479999999875
20
-68.4924989999999951
11
181.7694520000000011
21
-68.4924989999999951
0
LINE
8
BLACK
6
CONTINUOUS
10
181.7694529999999986
20
-65.4924999999999926
11
180.1805479999999875
21
-65.4924999999999926
0
LINE
8
BLACK
6
CONTINUOUS
10
182.6749989999999855
20
-67.6953409999999991
11
182.6749989999999855
21
-66.2896569999999912
0
ARC
8
BLACK
10
178.7744999999999891
20
-66.2897999999999996
40
0.5005132832373183
50
0.01637019
51
25.69604498
0
ARC
8
BLACK
10
179.6760299999999972
20
-65.8558999999999912
40
0.4999993648365966
50
-300.29939530
51
-154.29367517
0
ARC
8
BLACK
10
178.7746499999999799
20
-67.6952599999999904
40
0.500351006719283
50
-25.69709515
51
-0.00938992
0
ARC
8
BLACK
10
179.6760299999999972
20
-68.129099999999994
40
0.4999960394813143
50
-205.70653133
51
-59.70037344
0
ARC
8
BLACK
10
180.1805499999999824
20
-68.9925099999999958
40
0.5000103584367028
50
90.00022918
51
120.29880049
0
ARC
8
BLACK
10
180.1805499999999824
20
-64.9924900000000036
40
0.5000090000089998
50
-120.29901505
51
-90.00034377
0
ARC
8
BLACK
10
181.7694499999999778
20
-68.9925080000000008
40
0.5000090000039998
50
59.70098495
51
89.99977082
0
ARC
8
BLACK
10
181.7694499999999778
20
-64.9924910000000011
40
0.500009136137531
50
-89.99965623
51
-59.70098495
0
ARC
8
BLACK
10
182.2739689999999939
20
-65.8559010000000029
40
0.499998988562977
50
-25.70617187
51
120.29929636
0
ARC
8
BLACK
10
183.1749889999999823
20
-66.2896549999999962
40
0.499990000001
50
-205.70646243
51
-179.99988541
0
ARC
8
BLACK
10
182.2739699999999914
20
-68.129097999999999
40
0.4999997985959594
50
-120.29939530
51
25.70642808
0
ARC
8
BLACK
10
183.1749889999999823
20
-67.695342999999994
40
0.4999899543000839
50
-180.00022919
51
-154.29353757
0
LINE
8
BLACK
6
CONTINUOUS
10
84.0250010000000032
20
-104.3896569999999997
11
84.0250010000000032
21
-105.7953409999999934
0
LINE
8
BLACK
6
CONTINUOUS
10
84.9305480000000017
20
-106.5924989999999895
11
86.5194520000000011
21
-106.5924989999999895
0
LINE
8
BLACK
6
CONTINUOUS
10
86.5194529999999986
20
-103.5925000000000011
11
84.9305480000000017
21
-103.5925000000000011
0
LINE
8
BLACK
6
CONTINUOUS
10
87.4249989999999997
20
-105.7953409999999934
11
87.4249989999999997
21
-104.3896569999999997
0
ARC
8
BLACK
10
83.5245000000000033
20
-104.3897999999999939
40
0.5005132832373183
50
0.01637019
51
25.69604498
0
ARC
8
BLACK
10
84.4260299999999972
20
-103.9558999999999997
40
0.4999993648365966
50
-300.29939530
51
-154.29367517
0
ARC
8
BLACK
10
83.5246499999999941
20
-105.795259999999999
40
0.500351006719283
50
-25.69709515
51
-0.00938992
0
ARC
8
BLACK
10
84.4260299999999972
20
-106.2290999999999883
40
0.4999960394813143
50
-205.70653133
51
-59.70037344
0
ARC
8
BLACK
10
84.9305499999999967
20
-107.0925099999999901
40
0.5000103584367028
50
90.00022918
51
120.29880049
0
ARC
8
BLACK
10
84.9305499999999967
20
-103.092489999999998
40
0.5000090000089998
50
-120.29901505
51
-90.00034377
0
ARC
8
BLACK
10
86.519449999999992
20
-107.0925079999999951
40
0.5000090000039998
50
59.70098495
51
89.99977082
0
ARC
8
BLACK
10
86.519449999999992
20
-103.0924909999999954
40
0.500009136137531
50
-89.99965623
51
-59.70098495
0
ARC
8
BLACK
10
87.0239689999999939
20
-103.9559009999999972
40
0.499998988562977
50
-25.70617187
51
120.29929636
0
ARC
8
BLACK
10
87.9249889999999965
20
-104.3896549999999905
40
0.499990000001
50
-205.70646243
51
-179.99988541
0
ARC
8
BLACK
10
87.0239699999999914
20
-106.2290979999999934
40
0.4999997985959594
50
-120.29939530
51
25.70642808
0
ARC
8
BLACK
10
87.9249889999999965
20
-105.7953429999999884
40
0.4999899543000839
50
-180.00022919
51
-154.29353757
0
LINE
8
BLACK
6
CONTINUOUS
10
84.0250010000000032
20
-85.3396570000000025
11
84.0250010000000032
21
-86.7453409999999963
0
LINE
8
BLACK
6
CONTINUOUS
10
84.9305480000000017
20
-87.5424989999999923
11
86.5194520000000011
21
-87.5424989999999923
0
LINE
8
BLACK
6
CONTINUOUS
10
86.5194529999999986
20
-84.5424999999999898
11
84.9305480000000017
21
-84.5424999999999898
0
LINE
8
BLACK
6
CONTINUOUS
10
87.4249989999999997
20
-86.7453409999999963
11
87.4249989999999997
21
-85.3396570000000025
0
ARC
8
BLACK
10
83.5245000000000033
20
-85.3397999999999968
40
0.5005132832373183
50
0.01637019
51
25.69604498
0
ARC
8
BLACK
10
84.4260299999999972
20
-84.9059000000000026
40
0.4999993648365966
50
-300.29939530
51
-154.29367517
0
ARC
8
BLACK
10
83.5246499999999941
20
-86.7452600000000018
40
0.500351006719283
50
-25.69709515
51
-0.00938992
0
ARC
8
BLACK
10
84.4260299999999972
20
-87.1790999999999912
40
0.4999960394813143
50
-205.70653133
51
-59.70037344
0
ARC
8
BLACK
10
84.9305499999999967
20
-88.0425099999999929
40
0.5000103584367028
50
90.00022918
51
120.29880049
0
ARC
8
BLACK
10
84.9305499999999967
20
-84.0424900000000008
40
0.5000090000089998
50
-120.29901505
51
-90.00034377
0
ARC
8
BLACK
10
86.519449999999992
20
-88.042507999999998
40
0.5000090000039998
50
59.70098495
51
89.99977082
0
ARC
8
BLACK
10
86.519449999999992
20
-84.0424909999999983
40
0.500009136137531
50
-89.99965623
51
-59.70098495
0
ARC
8
BLACK
10
87.0239689999999939
20
-84.9059010000000001
40
0.499998988562977
50
-25.70617187
51
120.29929636
0
ARC
8
BLACK
10
87.9249889999999965
20
-85.3396549999999934
40
0.499990000001
50
-205.70646243
51
-179.99988541
0
ARC
8
BLACK
10
87.0239699999999914
20
-87.1790979999999962
40
0.4999997985959594
50
-120.29939530
51
25.70642808
0
ARC
8
BLACK
10
87.9249889999999965
20
-86.7453429999999912
40
0.4999899543000839
50
-180.00022919
51
-154.29353757
0
LINE
8
BLACK
6
CONTINUOUS
10
103.0750010000000003
20
-85.3396570000000025
11
103.0750010000000003
21
-86.7453409999999963
0
LINE
8
BLACK
6
CONTINUOUS
10
103.9805479999999989
20
-87.5424989999999923
11
105.5694519999999983
21
-87.5424989999999923
0
LINE
8
BLACK
6
CONTINUOUS
10
105.5694529999999958
20
-84.5424999999999898
11
103.9805479999999989
21
-84.5424999999999898
0
LINE
8
BLACK
6
CONTINUOUS
10
106.4749989999999968
20
-86.7453409999999963
11
106.4749989999999968
21
-85.3396570000000025
0
ARC
8
BLACK
10
102.5745000000000005
20
-85.3397999999999968
40
0.5005132832373183
50
0.01637019
51
25.69604498
0
ARC
8
BLACK
10
103.4760299999999944
20
-84.9059000000000026
40
0.4999993648365966
50
-300.29939530
51
-154.29367517
0
ARC
8
BLACK
10
102.5746499999999912
20
-86.7452600000000018
40
0.500351006719283
50
-25.69709515
51
-0.00938992
0
ARC
8
BLACK
10
103.4760299999999944
20
-87.1790999999999912
40
0.4999960394813143
50
-205.70653133
51
-59.70037344
0
ARC
8
BLACK
10
103.9805499999999938
20
-88.0425099999999929
40
0.5000103584367028
50
90.00022918
51
120.29880049
0
ARC
8
BLACK
10
103.9805499999999938
20
-84.0424900000000008
40
0.5000090000089998
50
-120.29901505
51
-90.00034377
0
ARC
8
BLACK
10
105.5694499999999891
20
-88.042507999999998
40
0.5000090000039998
50
59.70098495
51
89.99977082
0
ARC
8
BLACK
10
105.5694499999999891
20
-84.0424909999999983
40
0.500009136137531
50
-89.99965623
51
-59.70098495
0
ARC
8
BLACK
10
106.0739689999999911
20
-84.9059010000000001
40
0.499998988562977
50
-25.70617187
51
120.29929636
0
ARC
8
BLACK
10
106.9749889999999937
20
-85.3396549999999934
40
0.499990000001
50
-205.70646243
51
-179.99988541
0
ARC
8
BLACK
10
106.0739699999999885
20
-87.1790979999999962
40
0.4999997985959594
50
-120.29939530
51
25.70642808
0
ARC
8
BLACK
10
106.9749889999999937
20
-86.7453429999999912
40
0.4999899543000839
50
-180.00022919
51
-154.29353757
0
LINE
8
BLACK
6
CONTINUOUS
10
122.1250009999999975
20
-99.6271569999999969
11
122.1250009999999975
21
-101.0328409999999906
0
LINE
8
BLACK
6
CONTINUOUS
10
123.030547999999996
20
-101.8299990000000008
11
124.6194519999999955
21
-101.8299990000000008
0
LINE
8
BLACK
6
CONTINUOUS
10
124.6194529999999929
20
-98.8299999999999983
11
123.030547999999996
21
-98.8299999999999983
0
LINE
8
BLACK
6
CONTINUOUS
10
125.524998999999994
20
-101.0328409999999906
11
125.524998999999994
21
-99.6271569999999969
0
ARC
8
BLACK
10
121.6244999999999976
20
-99.6272999999999911
40
0.5005132832373183
50
0.01637019
51
25.69604498
0
ARC
8
BLACK
10
122.5260299999999916
20
-99.1933999999999969
40
0.4999993648365966
50
-300.29939530
51
-154.29367517
0
ARC
8
BLACK
10
121.6246499999999884
20
-101.0327599999999961
40
0.500351006719283
50
-25.69709515
51
-0.00938992
0
ARC
8
BLACK
10
122.5260299999999916
20
-101.4665999999999997
40
0.4999960394813143
50
-205.70653133
51
-59.70037344
0
ARC
8
BLACK
10
123.030549999999991
20
-102.3300100000000015
40
0.5000103584367028
50
90.00022918
51
120.29880049
0
ARC
8
BLACK
10
123.030549999999991
20
-98.3299899999999951
40
0.5000090000089998
50
-120.29901505
51
-90.00034377
0
ARC
8
BLACK
10
124.6194500000000005
20
-102.3300079999999923
40
0.5000090000039998
50
59.70098495
51
89.99977082
0
ARC
8
BLACK
10
124.6194500000000005
20
-98.3299909999999926
40
0.500009136137531
50
-89.99965623
51
-59.70098495
0
ARC
8
BLACK
10
125.1239689999999882
20
-99.1934009999999944
40
0.499998988562977
50
-25.70617187
51
120.29929636
0
ARC
8
BLACK
10
126.0249889999999908
20
-99.6271550000000019
40
0.499990000001
50
-205.70646243
51
-179.99988541
0
ARC
8
BLACK
10
125.1239699999999999
20
-101.4665979999999905
40
0.4999997985959594
50
-120.29939530
51
25.70642808
0
ARC
8
BLACK
10
126.0249889999999908
20
-101.0328429999999997
40
0.4999899543000839
50
-180.00022919
51
-154.29353757
0
LINE
8
BLACK
6
CONTINUOUS
10
103.0750010000000003
20
-66.2896569999999912
11
103.0750010000000003
21
-67.6953409999999991
0
LINE
8
BLACK
6
CONTINUOUS
10
103.9805479999999989
20
-68.4924989999999951
11
105.5694519999999983
21
-68.4924989999999951
0
LINE
8
BLACK
6
CONTINUOUS
10
105.5694529999999958
20
-65.4924999999999926
11
103.9805479999999989
21
-65.4924999999999926
0
LINE
8
BLACK
6
CONTINUOUS
10
106.4749989999999968
20
-67.6953409999999991
11
106.4749989999999968
21
-66.2896569999999912
0
ARC
8
BLACK
10
102.5745000000000005
20
-66.2897999999999996
40
0.5005132832373183
50
0.01637019
51
25.69604498
0
ARC
8
BLACK
10
103.4760299999999944
20
-65.8558999999999912
40
0.4999993648365966
50
-300.29939530
51
-154.29367517
0
ARC
8
BLACK
10
102.5746499999999912
20
-67.6952599999999904
40
0.500351006719283
50
-25.69709515
51
-0.00938992
0
ARC
8
BLACK
10
103.4760299999999944
20
-68.129099999999994
40
0.4999960394813143
50
-205.70653133
51
-59.70037344
0
ARC
8
BLACK
10
103.9805499999999938
20
-68.9925099999999958
40
0.5000103584367028
50
90.00022918
51
120.29880049
0
ARC
8
BLACK
10
103.9805499999999938
20
-64.9924900000000036
40
0.5000090000089998
50
-120.29901505
51
-90.00034377
0
ARC
8
BLACK
10
105.5694499999999891
20
-68.9925080000000008
40
0.5000090000039998
50
59.70098495
51
89.99977082
0
ARC
8
BLACK
10
105.5694499999999891
20
-64.9924910000000011
40
0.500009136137531
50
-89.99965623
51
-59.70098495
0
ARC
8
BLACK
10
106.0739689999999911
20
-65.8559010000000029
40
0.499998988562977
50
-25.70617187
51
120.29929636
0
ARC
8
BLACK
10
106.9749889999999937
20
-66.2896549999999962
40
0.499990000001
50
-205.70646243
51
-179.99988541
0
ARC
8
BLACK
10
106.0739699999999885
20
-68.129097999999999
40
0.4999997985959594
50
-120.29939530
51
25.70642808
0
ARC
8
BLACK
10
106.9749889999999937
20
-67.695342999999994
40
0.4999899543000839
50
-180.00022919
51
-154.29353757
0
LINE
8
BLACK
6
CONTINUOUS
10
103.0750010000000003
20
-104.3896569999999997
11
103.0750010000000003
21
-105.7953409999999934
0
LINE
8
BLACK
6
CONTINUOUS
10
103.9805479999999989
20
-106.5924989999999895
11
105.5694519999999983
21
-106.5924989999999895
0
LINE
8
BLACK
6
CONTINUOUS
10
105.5694529999999958
20
-103.5925000000000011
11
103.9805479999999989
21
-103.5925000000000011
0
LINE
8
BLACK
6
CONTINUOUS
10
106.4749989999999968
20
-105.7953409999999934
11
106.4749989999999968
21
-104.3896569999999997
0
ARC
8
BLACK
10
102.5745000000000005
20
-104.3897999999999939
40
0.5005132832373183
50
0.01637019
51
25.69604498
0
ARC
8
BLACK
10
103.4760299999999944
20
-103.9558999999999997
40
0.4999993648365966
50
-300.29939530
51
-154.29367517
0
ARC
8
BLACK
10
102.5746499999999912
20
-105.795259999999999
40
0.500351006719283
50
-25.69709515
51
-0.00938992
0
ARC
8
BLACK
10
103.4760299999999944
20
-106.2290999999999883
40
0.4999960394813143
50
-205.70653133
51
-59.70037344
0
ARC
8
BLACK
10
103.9805499999999938
20
-107.0925099999999901
40
0.5000103584367028
50
90.00022918
51
120.29880049
0
ARC
8
BLACK
10
103.9805499999999938
20
-103.092489999999998
40
0.5000090000089998
50
-120.29901505
51
-90.00034377
0
ARC
8
BLACK
10
105.5694499999999891
20
-107.0925079999999951
40
0.5000090000039998
50
59.70098495
51
89.99977082
0
ARC
8
BLACK
10
105.5694499999999891
20
-103.0924909999999954
40
0.500009136137531
50
-89.99965623
51
-59.70098495
0
ARC
8
BLACK
10
106.0739689999999911
20
-103.9559009999999972
40
0.499998988562977
50
-25.70617187
51
120.29929636
0
ARC
8
BLACK
10
106.9749889999999937
20
-104.3896549999999905
40
0.499990000001
50
-205.70646243
51
-179.99988541
0
ARC
8
BLACK
10
106.0739699999999885
20
-106.2290979999999934
40
0.4999997985959594
50
-120.29939530
51
25.70642808
0
ARC
8
BLACK
10
106.9749889999999937
20
-105.7953429999999884
40
0.4999899543000839
50
-180.00022919
51
-154.29353757
  0
ENDSEC
  0
EOF
