  0
SECTION
  2
HEADER
  9
$ANGBASE
  50
0.0
  9
$ANGDIR
  70
1
  9
$MEASUREMENT
  70
1
  0
ENDSEC
  0
SECTION
  2
TABLES
  0
TABLE
  2
LTYPE
  70
4
  0
LTYPE
  5
40F
  2
CONTINUOUS
  70
0
  3
Solid line
  72
65
  73
0
  40
0.0
  0
LTYPE
  5
410
  2
DASHDOT
 70
0
  3
Dash Dot ____ _ ____ _
 72
65
 73
4
 40
2.0
 49
1.25
 49
-0.25
 49
0.25
 49
-0.25
  0
LTYPE
  5
411
  2
DASHED
 70
0
  3
Dashed __ __ __ __ __
 72
65
 73
2
 40
0.75
 49
0.5
 49
-0.25
  0
LTYPE
  5
43B
  2
DOTTED
 70
0
  3
Dotted .  .  .  .
 72
65
 73
2
 40
0.2
 49
0.0
 49
-0.2
  0
ENDTAB
  0
TABLE
  2
STYLE
  70
4
  0
STYLE
  2
KICAD
  70
0
  40
0
  41
1
  42
1
  50
0
  71
0
  3
isocp.shx
  0
STYLE
  2
KICADB
  70
0
  40
0
  41
1
  42
1
  50
0
  71
0
  3
isocp.shx
  0
STYLE
  2
KICADI
  70
0
  40
0
  41
1
  42
1
  50
15
  71
0
  3
isocp.shx
  0
STYLE
  2
KICADBI
  70
0
  40
0
  41
1
  42
1
  50
15
  71
0
  3
isocp.shx
  0
ENDTAB
  0
TABLE
  2
LAYER
  70
1
  0
LAYER
  2
BLACK
  70
0
  62
7
  6
CONTINUOUS
  0
ENDTAB
  0
ENDSEC
  0
SECTION
  2
ENTITIES
0
LINE
8
BLACK
6
CONTINUOUS
10
135.625
20
-64.1875
11
135.625
21
-78.6875
0
LINE
8
BLACK
6
CONTINUOUS
10
135.625
20
-78.6875
11
150.125
21
-78.6875
0
LINE
8
BLACK
6
CONTINUOUS
10
150.125
20
-64.1875
11
135.625
21
-64.1875
0
LINE
8
BLACK
6
CONTINUOUS
10
150.125
20
-78.6875
11
150.125
21
-64.1875
0
LINE
8
BLACK
6
CONTINUOUS
10
78.4749999999999943
20
-73.7124999999999915
11
78.4749999999999943
21
-88.2124999999999915
0
LINE
8
BLACK
6
CONTINUOUS
10
78.4749999999999943
20
-88.2124999999999915
11
92.9749999999999943
21
-88.2124999999999915
0
LINE
8
BLACK
6
CONTINUOUS
10
92.9749999999999943
20
-73.7124999999999915
11
78.4749999999999943
21
-73.7124999999999915
0
LINE
8
BLACK
6
CONTINUOUS
10
92.9749999999999943
20
-88.2124999999999915
11
92.9749999999999943
21
-73.7124999999999915
0
LINE
8
BLACK
6
CONTINUOUS
10
116.5749999999999886
20
-88.
11
116.5749999999999886
21
-102.5
0
LINE
8
BLACK
6
CONTINUOUS
10
116.5749999999999886
20
-102.5
11
131.0749999999999886
21
-102.5
0
LINE
8
BLACK
6
CONTINUOUS
10
131.0749999999999886
20
-88.
11
116.5749999999999886
21
-88.
0
LINE
8
BLACK
6
CONTINUOUS
10
131.0749999999999886
20
-102.5
11
131.0749999999999886
21
-88.
0
LINE
8
BLACK
6
CONTINUOUS
10
97.5249999999999915
20
-54.6624999999999943
11
97.5249999999999915
21
-69.1624999999999943
0
LINE
8
BLACK
6
CONTINUOUS
10
97.5249999999999915
20
-69.1624999999999943
11
112.0249999999999915
21
-69.1624999999999943
0
LINE
8
BLACK
6
CONTINUOUS
10
112.0249999999999915
20
-54.6624999999999943
11
97.5249999999999915
21
-54.6624999999999943
0
LINE
8
BLACK
6
CONTINUOUS
10
112.0249999999999915
20
-69.1624999999999943
11
112.0249999999999915
21
-54.6624999999999943
0
LINE
8
BLACK
6
CONTINUOUS
10
78.4749999999999943
20
-54.6624999999999943
11
78.4749999999999943
21
-69.1624999999999943
0
LINE
8
BLACK
6
CONTINUOUS
10
78.4749999999999943
20
-69.1624999999999943
11
92.9749999999999943
21
-69.1624999999999943
0
LINE
8
BLACK
6
CONTINUOUS
10
92.9749999999999943
20
-54.6624999999999943
11
78.4749999999999943
21
-54.6624999999999943
0
LINE
8
BLACK
6
CONTINUOUS
10
92.9749999999999943
20
-69.1624999999999943
11
92.9749999999999943
21
-54.6624999999999943
0
LINE
8
BLACK
6
CONTINUOUS
10
173.7249999999999943
20
-54.6624999999999943
11
173.7249999999999943
21
-69.1624999999999943
0
LINE
8
BLACK
6
CONTINUOUS
10
173.7249999999999943
20
-69.1624999999999943
11
188.2249999999999943
21
-69.1624999999999943
0
LINE
8
BLACK
6
CONTINUOUS
10
188.2249999999999943
20
-54.6624999999999943
11
173.7249999999999943
21
-54.6624999999999943
0
LINE
8
BLACK
6
CONTINUOUS
10
188.2249999999999943
20
-69.1624999999999943
11
188.2249999999999943
21
-54.6624999999999943
0
LINE
8
BLACK
6
CONTINUOUS
10
178.9356919999999889
20
-137.2582819999999799
11
191.6176779999999837
21
-144.2880219999999838
0
LINE
8
BLACK
6
CONTINUOUS
10
185.9654319999999927
20
-124.5762959999999993
11
178.9356919999999889
21
-137.2582819999999799
0
LINE
8
BLACK
6
CONTINUOUS
10
191.6176779999999837
20
-144.2880219999999838
11
198.6474179999999876
21
-131.6060359999999889
0
LINE
8
BLACK
6
CONTINUOUS
10
198.6474179999999876
20
-131.6060359999999889
11
185.9654319999999927
21
-124.5762959999999993
0
LINE
8
BLACK
6
CONTINUOUS
10
144.4491370000000074
20
-120.8861239999999952
11
157.1311230000000023
21
-127.9158639999999991
0
LINE
8
BLACK
6
CONTINUOUS
10
151.4788769999999829
20
-108.2041380000000004
11
144.4491370000000074
21
-120.8861239999999952
0
LINE
8
BLACK
6
CONTINUOUS
10
157.1311230000000023
20
-127.9158639999999991
11
164.1608630000000062
21
-115.23387799999999
0
LINE
8
BLACK
6
CONTINUOUS
10
164.1608630000000062
20
-115.23387799999999
11
151.4788769999999829
21
-108.2041380000000004
0
LINE
8
BLACK
6
CONTINUOUS
10
189.3106180000000052
20
-118.5414209999999997
11
201.992604
21
-125.5711609999999894
0
LINE
8
BLACK
6
CONTINUOUS
10
196.3403579999999806
20
-105.8594349999999906
11
189.3106180000000052
21
-118.5414209999999997
0
LINE
8
BLACK
6
CONTINUOUS
10
201.992604
20
-125.5711609999999894
11
209.0223440000000039
21
-112.8891749999999945
0
LINE
8
BLACK
6
CONTINUOUS
10
209.0223440000000039
20
-112.8891749999999945
11
196.3403579999999806
21
-105.8594349999999906
0
LINE
8
BLACK
6
CONTINUOUS
10
154.6749999999999829
20
-68.9500000000000028
11
154.6749999999999829
21
-83.4500000000000028
0
LINE
8
BLACK
6
CONTINUOUS
10
154.6749999999999829
20
-83.4500000000000028
11
169.1749999999999829
21
-83.4500000000000028
0
LINE
8
BLACK
6
CONTINUOUS
10
169.1749999999999829
20
-68.9500000000000028
11
154.6749999999999829
21
-68.9500000000000028
0
LINE
8
BLACK
6
CONTINUOUS
10
169.1749999999999829
20
-83.4500000000000028
11
169.1749999999999829
21
-68.9500000000000028
0
LINE
8
BLACK
6
CONTINUOUS
10
78.4749999999999943
20
-92.7625000000000028
11
78.4749999999999943
21
-107.2624999999999886
0
LINE
8
BLACK
6
CONTINUOUS
10
78.4749999999999943
20
-107.2624999999999886
11
92.9749999999999943
21
-107.2624999999999886
0
LINE
8
BLACK
6
CONTINUOUS
10
92.9749999999999943
20
-92.7625000000000028
11
78.4749999999999943
21
-92.7625000000000028
0
LINE
8
BLACK
6
CONTINUOUS
10
92.9749999999999943
20
-107.2624999999999886
11
92.9749999999999943
21
-92.7625000000000028
0
LINE
8
BLACK
6
CONTINUOUS
10
116.5749999999999886
20
-68.9500000000000028
11
116.5749999999999886
21
-83.4500000000000028
0
LINE
8
BLACK
6
CONTINUOUS
10
116.5749999999999886
20
-83.4500000000000028
11
131.0749999999999886
21
-83.4500000000000028
0
LINE
8
BLACK
6
CONTINUOUS
10
131.0749999999999886
20
-68.9500000000000028
11
116.5749999999999886
21
-68.9500000000000028
0
LINE
8
BLACK
6
CONTINUOUS
10
131.0749999999999886
20
-83.4500000000000028
11
131.0749999999999886
21
-68.9500000000000028
0
LINE
8
BLACK
6
CONTINUOUS
10
135.625
20
-83.2374999999999972
11
135.625
21
-97.7374999999999972
0
LINE
8
BLACK
6
CONTINUOUS
10
135.625
20
-97.7374999999999972
11
150.125
21
-97.7374999999999972
0
LINE
8
BLACK
6
CONTINUOUS
10
150.125
20
-83.2374999999999972
11
135.625
21
-83.2374999999999972
0
LINE
8
BLACK
6
CONTINUOUS
10
150.125
20
-97.7374999999999972
11
150.125
21
-83.2374999999999972
0
LINE
8
BLACK
6
CONTINUOUS
10
173.7249999999999943
20
-92.7625000000000028
11
173.7249999999999943
21
-107.2624999999999886
0
LINE
8
BLACK
6
CONTINUOUS
10
173.7249999999999943
20
-107.2624999999999886
11
188.2249999999999943
21
-107.2624999999999886
0
LINE
8
BLACK
6
CONTINUOUS
10
188.2249999999999943
20
-92.7625000000000028
11
173.7249999999999943
21
-92.7625000000000028
0
LINE
8
BLACK
6
CONTINUOUS
10
188.2249999999999943
20
-107.2624999999999886
11
188.2249999999999943
21
-92.7625000000000028
0
LINE
8
BLACK
6
CONTINUOUS
10
97.5249999999999915
20
-73.7124999999999915
11
97.5249999999999915
21
-88.2124999999999915
0
LINE
8
BLACK
6
CONTINUOUS
10
97.5249999999999915
20
-88.2124999999999915
11
112.0249999999999915
21
-88.2124999999999915
0
LINE
8
BLACK
6
CONTINUOUS
10
112.0249999999999915
20
-73.7124999999999915
11
97.5249999999999915
21
-73.7124999999999915
0
LINE
8
BLACK
6
CONTINUOUS
10
112.0249999999999915
20
-88.2124999999999915
11
112.0249999999999915
21
-73.7124999999999915
0
LINE
8
BLACK
6
CONTINUOUS
10
154.6749999999999829
20
-88.
11
154.6749999999999829
21
-102.5
0
LINE
8
BLACK
6
CONTINUOUS
10
154.6749999999999829
20
-102.5
11
169.1749999999999829
21
-102.5
0
LINE
8
BLACK
6
CONTINUOUS
10
169.1749999999999829
20
-88.
11
154.6749999999999829
21
-88.
0
LINE
8
BLACK
6
CONTINUOUS
10
169.1749999999999829
20
-102.5
11
169.1749999999999829
21
-88.
0
LINE
8
BLACK
6
CONTINUOUS
10
173.7249999999999943
20
-73.7124999999999915
11
173.7249999999999943
21
-88.2124999999999915
0
LINE
8
BLACK
6
CONTINUOUS
10
173.7249999999999943
20
-88.2124999999999915
11
188.2249999999999943
21
-88.2124999999999915
0
LINE
8
BLACK
6
CONTINUOUS
10
188.2249999999999943
20
-73.7124999999999915
11
173.7249999999999943
21
-73.7124999999999915
0
LINE
8
BLACK
6
CONTINUOUS
10
188.2249999999999943
20
-88.2124999999999915
11
188.2249999999999943
21
-73.7124999999999915
0
LINE
8
BLACK
6
CONTINUOUS
10
135.625
20
-45.1374999999999957
11
135.625
21
-59.6374999999999957
0
LINE
8
BLACK
6
CONTINUOUS
10
135.625
20
-59.6374999999999957
11
150.125
21
-59.6374999999999957
0
LINE
8
BLACK
6
CONTINUOUS
10
150.125
20
-45.1374999999999957
11
135.625
21
-45.1374999999999957
0
LINE
8
BLACK
6
CONTINUOUS
10
150.125
20
-59.6374999999999957
11
150.125
21
-45.1374999999999957
0
LINE
8
BLACK
6
CONTINUOUS
10
116.5749999999999886
20
-49.8999999999999986
11
116.5749999999999886
21
-64.3999999999999915
0
LINE
8
BLACK
6
CONTINUOUS
10
116.5749999999999886
20
-64.3999999999999915
11
131.0749999999999886
21
-64.3999999999999915
0
LINE
8
BLACK
6
CONTINUOUS
10
131.0749999999999886
20
-49.8999999999999986
11
116.5749999999999886
21
-49.8999999999999986
0
LINE
8
BLACK
6
CONTINUOUS
10
131.0749999999999886
20
-64.3999999999999915
11
131.0749999999999886
21
-49.8999999999999986
0
LINE
8
BLACK
6
CONTINUOUS
10
162.2747009999999932
20
-128.0217309999999884
11
174.9566869999999881
21
-135.0514709999999923
0
LINE
8
BLACK
6
CONTINUOUS
10
169.3044409999999971
20
-115.3397449999999935
11
162.2747009999999932
21
-128.0217309999999884
0
LINE
8
BLACK
6
CONTINUOUS
10
174.9566869999999881
20
-135.0514709999999923
11
181.9864269999999919
21
-122.3694849999999974
0
LINE
8
BLACK
6
CONTINUOUS
10
181.9864269999999919
20
-122.3694849999999974
11
169.3044409999999971
21
-115.3397449999999935
0
LINE
8
BLACK
6
CONTINUOUS
10
154.6749999999999829
20
-49.8999999999999986
11
154.6749999999999829
21
-64.3999999999999915
0
LINE
8
BLACK
6
CONTINUOUS
10
154.6749999999999829
20
-64.3999999999999915
11
169.1749999999999829
21
-64.3999999999999915
0
LINE
8
BLACK
6
CONTINUOUS
10
169.1749999999999829
20
-49.8999999999999986
11
154.6749999999999829
21
-49.8999999999999986
0
LINE
8
BLACK
6
CONTINUOUS
10
169.1749999999999829
20
-64.3999999999999915
11
169.1749999999999829
21
-49.8999999999999986
0
LINE
8
BLACK
6
CONTINUOUS
10
97.5249999999999915
20
-92.7625000000000028
11
97.5249999999999915
21
-107.2624999999999886
0
LINE
8
BLACK
6
CONTINUOUS
10
97.5249999999999915
20
-107.2624999999999886
11
112.0249999999999915
21
-107.2624999999999886
0
LINE
8
BLACK
6
CONTINUOUS
10
112.0249999999999915
20
-92.7625000000000028
11
97.5249999999999915
21
-92.7625000000000028
0
LINE
8
BLACK
6
CONTINUOUS
10
112.0249999999999915
20
-107.2624999999999886
11
112.0249999999999915
21
-92.7625000000000028
  0
ENDSEC
  0
EOF
