  0
SECTION
  2
HEADER
  9
$ANGBASE
  50
0.0
  9
$ANGDIR
  70
1
  9
$MEASUREMENT
  70
1
  0
ENDSEC
  0
SECTION
  2
TABLES
  0
TABLE
  2
LTYPE
  70
4
  0
LTYPE
  5
40F
  2
CONTINUOUS
  70
0
  3
Solid line
  72
65
  73
0
  40
0.0
  0
LTYPE
  5
410
  2
DASHDOT
 70
0
  3
Dash Dot ____ _ ____ _
 72
65
 73
4
 40
2.0
 49
1.25
 49
-0.25
 49
0.25
 49
-0.25
  0
LTYPE
  5
411
  2
DASHED
 70
0
  3
Dashed __ __ __ __ __
 72
65
 73
2
 40
0.75
 49
0.5
 49
-0.25
  0
LTYPE
  5
43B
  2
DOTTED
 70
0
  3
Dotted .  .  .  .
 72
65
 73
2
 40
0.2
 49
0.0
 49
-0.2
  0
ENDTAB
  0
TABLE
  2
STYLE
  70
4
  0
STYLE
  2
KICAD
  70
0
  40
0
  41
1
  42
1
  50
0
  71
0
  3
isocp.shx
  0
STYLE
  2
KICADB
  70
0
  40
0
  41
1
  42
1
  50
0
  71
0
  3
isocp.shx
  0
STYLE
  2
KICADI
  70
0
  40
0
  41
1
  42
1
  50
15
  71
0
  3
isocp.shx
  0
STYLE
  2
KICADBI
  70
0
  40
0
  41
1
  42
1
  50
15
  71
0
  3
isocp.shx
  0
ENDTAB
  0
TABLE
  2
LAYER
  70
1
  0
LAYER
  2
BLACK
  70
0
  62
7
  6
CONTINUOUS
  0
ENDTAB
  0
ENDSEC
  0
SECTION
  2
ENTITIES
0
ARC
8
BLACK
10
181.7944999999999993
20
-48.5748999999999995
40
0.5000070026009635
50
-179.99919794
51
-90.00584409
0
CIRCLE
8
BLACK
10
100.2566969999999884
20
-95.0754009999999994
40
1.0999999999999999
0
ARC
8
BLACK
10
142.819500000000005
20
-40.0499000000000009
40
0.5000510000489949
50
-269.99415575
51
-179.99919794
0
ARC
8
BLACK
10
82.4671000000000021
20
-49.5748999999999995
40
0.5000450000489955
50
-269.99484331
51
-179.99919793
0
LINE
8
BLACK
6
CONTINUOUS
10
152.2819489999999973
20
-39.5499069999999975
11
142.8194489999999917
21
-39.5499069999999975
0
LINE
8
BLACK
6
CONTINUOUS
10
161.744449000000003
20
-39.5499069999999975
11
152.2819489999999973
21
-39.5499069999999975
0
CIRCLE
8
BLACK
10
85.2595919999999978
20
-103.3884319999999946
40
1.0999999999999999
0
ARC
8
BLACK
10
82.4676999999999936
20
-107.9125999999999976
40
0.5006317748215747
50
-179.98409229
51
-151.02186337
0
CIRCLE
8
BLACK
10
163.1726569999999867
20
-63.7844519999999946
40
2.
0
CIRCLE
8
BLACK
10
109.4069489999999973
20
-117.6124069999999904
40
2.
0
ARC
8
BLACK
10
103.8371999999999957
20
-146.4655999999999949
40
0.4998746866215572
50
-151.01437582
51
-60.99450316
0
LINE
8
BLACK
6
CONTINUOUS
10
104.0795859999999919
20
-146.9027769999999862
11
175.772767999999985
21
-107.162596999999991
0
LINE
8
BLACK
6
CONTINUOUS
10
176.0151730000000043
20
-107.0999070000000017
11
218.8944489999999803
21
-107.0999070000000017
0
ARC
8
BLACK
10
180.794399999999996
20
-44.8123999999999967
40
0.4999930024010336
50
-0.00080206
51
89.99438494
0
LINE
8
BLACK
6
CONTINUOUS
10
162.244449000000003
20
-43.8124070000000003
11
162.244449000000003
21
-40.0499069999999975
0
LINE
8
BLACK
6
CONTINUOUS
10
122.7694489999999945
20
-49.0749069999999961
11
82.467055000000002
21
-49.0749069999999961
0
ARC
8
BLACK
10
162.7444999999999879
20
-43.8123999999999967
40
0.5000070026009635
50
-179.99919794
51
-90.00584409
0
LINE
8
BLACK
6
CONTINUOUS
10
142.3194489999999917
20
-40.0499069999999975
11
142.3194489999999917
21
-43.8124070000000003
0
ARC
8
BLACK
10
122.7693999999999903
20
-48.5748999999999995
40
0.5000490000489952
50
-89.99438509
51
-0.00080206
0
CIRCLE
8
BLACK
10
124.3069489999999888
20
-63.8124070000000003
40
2.
0
LINE
8
BLACK
6
CONTINUOUS
10
219.3944489999999803
20
-106.5999070000000017
11
219.3944489999999803
21
-49.5749069999999961
0
LINE
8
BLACK
6
CONTINUOUS
10
218.8944489999999803
20
-49.0749069999999961
11
181.794448999999986
21
-49.0749069999999961
0
ARC
8
BLACK
10
141.8194000000000017
20
-43.8123999999999967
40
0.5000490000489952
50
-89.99438509
51
-0.00080206
0
CIRCLE
8
BLACK
10
156.1726569999999867
20
-106.6594520000000017
40
2.
0
ARC
8
BLACK
10
176.015199999999993
20
-107.6000999999999976
40
0.5001821164665926
50
90.00309278
51
118.99199773
0
LINE
8
BLACK
6
CONTINUOUS
10
81.967055000000002
20
-49.5749069999999961
11
81.967055000000002
21
-107.912739000000002
0
CIRCLE
8
BLACK
10
199.9069489999999973
20
-87.5124069999999961
40
2.
0
LINE
8
BLACK
6
CONTINUOUS
10
141.8194489999999917
20
-44.3124070000000003
11
123.7694489999999945
21
-44.3124070000000003
0
ARC
8
BLACK
10
161.7443999999999846
20
-40.0499000000000009
40
0.4999930024010336
50
-0.00080206
51
89.99438494
0
CIRCLE
8
BLACK
10
199.9069489999999973
20
-68.5124069999999961
40
2.
0
LINE
8
BLACK
6
CONTINUOUS
10
181.294448999999986
20
-48.5749069999999961
11
181.294448999999986
21
-44.8124070000000003
0
LINE
8
BLACK
6
CONTINUOUS
10
123.2694489999999945
20
-44.8124070000000003
11
123.2694489999999945
21
-48.5749069999999961
0
ARC
8
BLACK
10
218.8943999999999903
20
-49.5748999999999995
40
0.4999930024010336
50
-0.00080206
51
89.99438494
0
LINE
8
BLACK
6
CONTINUOUS
10
82.0297449999999913
20
-108.1551439999999928
11
103.3998709999999903
21
-146.7078719999999805
0
ARC
8
BLACK
10
218.8943999999999903
20
-106.599899999999991
40
0.5000490000489952
50
-89.99438509
51
-0.00080206
0
LINE
8
BLACK
6
CONTINUOUS
10
180.794448999999986
20
-44.3124070000000003
11
162.744449000000003
21
-44.3124070000000003
0
ARC
8
BLACK
10
123.7694999999999936
20
-44.8123999999999967
40
0.5000510000489949
50
-269.99415575
51
-179.99919794
0
LINE
8
BLACK
6
CONTINUOUS
10
150.5819500000000062
20
-72.8895639999999929
11
150.5819500000000062
21
-74.2952480000000008
0
LINE
8
BLACK
6
CONTINUOUS
10
151.4874969999999905
20
-75.0924059999999969
11
153.0764010000000042
21
-75.0924059999999969
0
LINE
8
BLACK
6
CONTINUOUS
10
153.0764020000000016
20
-72.0924069999999944
11
151.4874969999999905
21
-72.0924069999999944
0
LINE
8
BLACK
6
CONTINUOUS
10
153.9819479999999885
20
-74.2952480000000008
11
153.9819479999999885
21
-72.8895639999999929
0
ARC
8
BLACK
10
150.0814489999999921
20
-72.8897070000000014
40
0.5005132832373183
50
0.01637019
51
25.69604498
0
ARC
8
BLACK
10
150.9829790000000003
20
-72.455806999999993
40
0.4999993648365966
50
-300.29939530
51
-154.29367517
0
ARC
8
BLACK
10
150.0815989999999829
20
-74.2951669999999922
40
0.500351006719283
50
-25.69709515
51
-0.00938992
0
ARC
8
BLACK
10
150.9829790000000003
20
-74.7290069999999957
40
0.4999960394813143
50
-205.70653133
51
-59.70037344
0
ARC
8
BLACK
10
151.4874989999999855
20
-75.5924169999999975
40
0.5000103584367028
50
90.00022918
51
120.29880049
0
ARC
8
BLACK
10
151.4874989999999855
20
-71.5923969999999912
40
0.5000090000089998
50
-120.29901505
51
-90.00034377
0
ARC
8
BLACK
10
153.0763989999999808
20
-75.5924150000000026
40
0.5000090000039998
50
59.70098495
51
89.99977082
0
ARC
8
BLACK
10
153.0763989999999808
20
-71.5923980000000029
40
0.500009136137531
50
-89.99965623
51
-59.70098495
0
ARC
8
BLACK
10
153.5809179999999969
20
-72.4558079999999904
40
0.499998988562977
50
-25.70617187
51
120.29929636
0
ARC
8
BLACK
10
154.4819379999999853
20
-72.889561999999998
40
0.499990000001
50
-205.70646243
51
-179.99988541
0
ARC
8
BLACK
10
153.5809189999999944
20
-74.7290050000000008
40
0.4999997985959594
50
-120.29939530
51
25.70642808
0
ARC
8
BLACK
10
154.4819379999999853
20
-74.2952499999999958
40
0.4999899543000839
50
-180.00022919
51
-154.29353757
0
LINE
8
BLACK
6
CONTINUOUS
10
141.4871829999999875
20
-119.7874319999999955
11
142.1686719999999866
21
-121.0168709999999948
0
LINE
8
BLACK
6
CONTINUOUS
10
143.2824119999999937
20
-117.8808879999999988
11
141.892723999999987
21
-118.6512039999999928
0
LINE
8
BLACK
6
CONTINUOUS
10
143.3471529999999916
20
-121.2750640000000004
11
144.7368400000000008
21
-120.5047479999999922
0
LINE
8
BLACK
6
CONTINUOUS
10
145.1423790000000054
20
-119.368518999999992
11
144.4608910000000037
21
-118.1390789999999953
0
ARC
8
BLACK
10
141.0495059999999796
20
-120.0302039999999977
40
0.5005123256204587
50
29.01638804
51
54.69605338
0
ARC
8
BLACK
10
141.6276430000000062
20
-119.2136359999999939
40
0.5000003916568466
50
-271.29935159
51
-125.29367652
0
ARC
8
BLACK
10
141.6503009999999847
20
-118.2138360000000006
40
0.5000591900045434
50
-91.29713902
51
-61.00150731
0
ARC
8
BLACK
10
141.7310039999999844
20
-121.2593710000000016
40
0.5003611484717814
50
3.30253400
51
28.98953990
0
ARC
8
BLACK
10
142.7297120000000064
20
-121.2018219999999928
40
0.4999958602078621
50
-176.70667040
51
-30.70035378
0
ARC
8
BLACK
10
143.589507999999995
20
-121.7123209999999887
40
0.4999311024581287
50
118.99794382
51
149.30137069
0
ARC
8
BLACK
10
143.0400249999999858
20
-117.4435969999999969
40
0.499974954961746
50
-61.00073763
51
-30.69991039
0
ARC
8
BLACK
10
143.8998519999999814
20
-117.9541320000000013
40
0.4999992728124712
50
3.29391478
51
149.29921207
0
ARC
8
BLACK
10
144.8982269999999914
20
-117.8966679999999911
40
0.5000276184022239
50
-176.70557661
51
-151.00094325
0
ARC
8
BLACK
10
144.979266999999993
20
-120.9421389999999974
40
0.5000817305301204
50
88.70349854
51
118.99771624
0
ARC
8
BLACK
10
145.0019199999999842
20
-119.9423139999999961
40
0.4999998138899653
50
-91.29935159
51
54.70641701
0
ARC
8
BLACK
10
145.5797239999999988
20
-119.1260839999999916
40
0.5000454390762903
50
-150.99892691
51
-125.29521697
0
LINE
8
BLACK
6
CONTINUOUS
10
188.6819500000000005
20
-101.4645639999999958
11
188.6819500000000005
21
-102.8702479999999895
0
LINE
8
BLACK
6
CONTINUOUS
10
189.5874969999999848
20
-103.6674059999999997
11
191.1764009999999985
21
-103.6674059999999997
0
LINE
8
BLACK
6
CONTINUOUS
10
191.176401999999996
20
-100.6674069999999972
11
189.5874969999999848
21
-100.6674069999999972
0
LINE
8
BLACK
6
CONTINUOUS
10
192.0819479999999828
20
-102.8702479999999895
11
192.0819479999999828
21
-101.4645639999999958
0
ARC
8
BLACK
10
188.1814489999999864
20
-101.46470699999999
40
0.5005132832373183
50
0.01637019
51
25.69604498
0
ARC
8
BLACK
10
189.0829789999999946
20
-101.0308069999999958
40
0.4999993648365966
50
-300.29939530
51
-154.29367517
0
ARC
8
BLACK
10
188.1815990000000056
20
-102.870166999999995
40
0.500351006719283
50
-25.69709515
51
-0.00938992
0
ARC
8
BLACK
10
189.0829789999999946
20
-103.3040069999999986
40
0.4999960394813143
50
-205.70653133
51
-59.70037344
0
ARC
8
BLACK
10
189.5874989999999798
20
-104.1674170000000004
40
0.5000103584367028
50
90.00022918
51
120.29880049
0
ARC
8
BLACK
10
189.5874989999999798
20
-100.167396999999994
40
0.5000090000089998
50
-120.29901505
51
-90.00034377
0
ARC
8
BLACK
10
191.1763990000000035
20
-104.1674149999999912
40
0.5000090000039998
50
59.70098495
51
89.99977082
0
ARC
8
BLACK
10
191.1763990000000035
20
-100.1673979999999915
40
0.500009136137531
50
-89.99965623
51
-59.70098495
0
ARC
8
BLACK
10
191.6809179999999913
20
-101.0308079999999933
40
0.499998988562977
50
-25.70617187
51
120.29929636
0
ARC
8
BLACK
10
192.5819379999999796
20
-101.4645620000000008
40
0.499990000001
50
-205.70646243
51
-179.99988541
0
ARC
8
BLACK
10
191.6809189999999887
20
-103.3040049999999894
40
0.4999997985959594
50
-120.29939530
51
25.70642808
0
ARC
8
BLACK
10
192.5819379999999796
20
-102.8702499999999986
40
0.4999899543000839
50
-180.00022919
51
-154.29353757
0
LINE
8
BLACK
6
CONTINUOUS
10
123.6555429999999944
20
-126.9237419999999901
11
124.3370319999999936
21
-128.1531809999999894
0
LINE
8
BLACK
6
CONTINUOUS
10
125.4507720000000006
20
-125.0171979999999934
11
124.0610839999999939
21
-125.7875139999999874
0
LINE
8
BLACK
6
CONTINUOUS
10
125.5155129999999986
20
-128.411373999999995
11
126.9051999999999936
21
-127.641058000000001
0
LINE
8
BLACK
6
CONTINUOUS
10
127.3107389999999981
20
-126.5048290000000009
11
126.6292509999999965
21
-125.2753889999999899
0
ARC
8
BLACK
10
123.2178660000000008
20
-127.1665139999999923
40
0.5005123256204587
50
29.01638804
51
54.69605338
0
ARC
8
BLACK
10
123.7960029999999989
20
-126.3499459999999885
40
0.5000003916568466
50
-271.29935159
51
-125.29367652
0
ARC
8
BLACK
10
123.8186609999999916
20
-125.3501459999999952
40
0.5000591900045434
50
-91.29713902
51
-61.00150731
0
ARC
8
BLACK
10
123.8993639999999914
20
-128.3956809999999962
40
0.5003611484717814
50
3.30253400
51
28.98953990
0
ARC
8
BLACK
10
124.8980719999999991
20
-128.3381320000000017
40
0.4999958602078621
50
-176.70667040
51
-30.70035378
0
ARC
8
BLACK
10
125.7578679999999878
20
-128.8486309999999833
40
0.4999311024581287
50
118.99794382
51
149.30137069
0
ARC
8
BLACK
10
125.2083849999999927
20
-124.5799069999999915
40
0.499974954961746
50
-61.00073763
51
-30.69991039
0
ARC
8
BLACK
10
126.0682119999999884
20
-125.0904419999999959
40
0.4999992728124712
50
3.29391478
51
149.29921207
0
ARC
8
BLACK
10
127.0665869999999984
20
-125.032978
40
0.5000276184022239
50
-176.70557661
51
-151.00094325
0
ARC
8
BLACK
10
127.147627
20
-128.0784490000000062
40
0.5000817305301204
50
88.70349854
51
118.99771624
0
ARC
8
BLACK
10
127.1702799999999911
20
-127.0786239999999907
40
0.4999998138899653
50
-91.29935159
51
54.70641701
0
ARC
8
BLACK
10
127.7480839999999915
20
-126.2623940000000005
40
0.5000454390762903
50
-150.99892691
51
-125.29521697
0
LINE
8
BLACK
6
CONTINUOUS
10
169.6319499999999891
20
-58.6020639999999986
11
169.6319499999999891
21
-60.0077479999999994
0
LINE
8
BLACK
6
CONTINUOUS
10
170.5374970000000019
20
-60.8049059999999955
11
172.1264009999999871
21
-60.8049059999999955
0
LINE
8
BLACK
6
CONTINUOUS
10
172.1264019999999846
20
-57.804907
11
170.5374970000000019
21
-57.804907
0
LINE
8
BLACK
6
CONTINUOUS
10
173.0319479999999999
20
-60.0077479999999994
11
173.0319479999999999
21
-58.6020639999999986
0
ARC
8
BLACK
10
169.1314490000000035
20
-58.6022069999999999
40
0.5005132832373183
50
0.01637019
51
25.69604498
0
ARC
8
BLACK
10
170.0329789999999832
20
-58.1683069999999987
40
0.4999993648365966
50
-300.29939530
51
-154.29367517
0
ARC
8
BLACK
10
169.1315989999999942
20
-60.0076669999999979
40
0.500351006719283
50
-25.69709515
51
-0.00938992
0
ARC
8
BLACK
10
170.0329789999999832
20
-60.4415069999999943
40
0.4999960394813143
50
-205.70653133
51
-59.70037344
0
ARC
8
BLACK
10
170.5374989999999968
20
-61.3049169999999961
40
0.5000103584367028
50
90.00022918
51
120.29880049
0
ARC
8
BLACK
10
170.5374989999999968
20
-57.3048969999999969
40
0.5000090000089998
50
-120.29901505
51
-90.00034377
0
ARC
8
BLACK
10
172.1263989999999922
20
-61.3049149999999941
40
0.5000090000039998
50
59.70098495
51
89.99977082
0
ARC
8
BLACK
10
172.1263989999999922
20
-57.3048979999999943
40
0.500009136137531
50
-89.99965623
51
-59.70098495
0
ARC
8
BLACK
10
172.6309179999999799
20
-58.1683079999999961
40
0.499998988562977
50
-25.70617187
51
120.29929636
0
ARC
8
BLACK
10
173.5319379999999967
20
-58.6020619999999965
40
0.499990000001
50
-205.70646243
51
-179.99988541
0
ARC
8
BLACK
10
172.6309190000000058
20
-60.4415049999999994
40
0.4999997985959594
50
-120.29939530
51
25.70642808
0
ARC
8
BLACK
10
173.5319379999999967
20
-60.0077499999999944
40
0.4999899543000839
50
-180.00022919
51
-154.29353757
0
LINE
8
BLACK
6
CONTINUOUS
10
112.4819499999999977
20
-101.4645639999999958
11
112.4819499999999977
21
-102.8702479999999895
0
LINE
8
BLACK
6
CONTINUOUS
10
113.3874969999999962
20
-103.6674059999999997
11
114.9764009999999956
21
-103.6674059999999997
0
LINE
8
BLACK
6
CONTINUOUS
10
114.9764019999999931
20
-100.6674069999999972
11
113.3874969999999962
21
-100.6674069999999972
0
LINE
8
BLACK
6
CONTINUOUS
10
115.8819479999999942
20
-102.8702479999999895
11
115.8819479999999942
21
-101.4645639999999958
0
ARC
8
BLACK
10
111.9814489999999978
20
-101.46470699999999
40
0.5005132832373183
50
0.01637019
51
25.69604498
0
ARC
8
BLACK
10
112.8829789999999917
20
-101.0308069999999958
40
0.4999993648365966
50
-300.29939530
51
-154.29367517
0
ARC
8
BLACK
10
111.9815989999999886
20
-102.870166999999995
40
0.500351006719283
50
-25.69709515
51
-0.00938992
0
ARC
8
BLACK
10
112.8829789999999917
20
-103.3040069999999986
40
0.4999960394813143
50
-205.70653133
51
-59.70037344
0
ARC
8
BLACK
10
113.3874989999999912
20
-104.1674170000000004
40
0.5000103584367028
50
90.00022918
51
120.29880049
0
ARC
8
BLACK
10
113.3874989999999912
20
-100.167396999999994
40
0.5000090000089998
50
-120.29901505
51
-90.00034377
0
ARC
8
BLACK
10
114.9763990000000007
20
-104.1674149999999912
40
0.5000090000039998
50
59.70098495
51
89.99977082
0
ARC
8
BLACK
10
114.9763990000000007
20
-100.1673979999999915
40
0.500009136137531
50
-89.99965623
51
-59.70098495
0
ARC
8
BLACK
10
115.4809179999999884
20
-101.0308079999999933
40
0.499998988562977
50
-25.70617187
51
120.29929636
0
ARC
8
BLACK
10
116.381937999999991
20
-101.4645620000000008
40
0.499990000001
50
-205.70646243
51
-179.99988541
0
ARC
8
BLACK
10
115.4809190000000001
20
-103.3040049999999894
40
0.4999997985959594
50
-120.29939530
51
25.70642808
0
ARC
8
BLACK
10
116.381937999999991
20
-102.8702499999999986
40
0.4999899543000839
50
-180.00022919
51
-154.29353757
0
LINE
8
BLACK
6
CONTINUOUS
10
112.4819499999999977
20
-63.3645639999999943
11
112.4819499999999977
21
-64.7702479999999952
0
LINE
8
BLACK
6
CONTINUOUS
10
113.3874969999999962
20
-65.5674059999999912
11
114.9764009999999956
21
-65.5674059999999912
0
LINE
8
BLACK
6
CONTINUOUS
10
114.9764019999999931
20
-62.5674069999999958
11
113.3874969999999962
21
-62.5674069999999958
0
LINE
8
BLACK
6
CONTINUOUS
10
115.8819479999999942
20
-64.7702479999999952
11
115.8819479999999942
21
-63.3645639999999943
0
ARC
8
BLACK
10
111.9814489999999978
20
-63.3647069999999957
40
0.5005132832373183
50
0.01637019
51
25.69604498
0
ARC
8
BLACK
10
112.8829789999999917
20
-62.9308069999999944
40
0.4999993648365966
50
-300.29939530
51
-154.29367517
0
ARC
8
BLACK
10
111.9815989999999886
20
-64.7701670000000007
40
0.500351006719283
50
-25.69709515
51
-0.00938992
0
ARC
8
BLACK
10
112.8829789999999917
20
-65.2040069999999901
40
0.4999960394813143
50
-205.70653133
51
-59.70037344
0
ARC
8
BLACK
10
113.3874989999999912
20
-66.0674169999999918
40
0.5000103584367028
50
90.00022918
51
120.29880049
0
ARC
8
BLACK
10
113.3874989999999912
20
-62.0673969999999997
40
0.5000090000089998
50
-120.29901505
51
-90.00034377
0
ARC
8
BLACK
10
114.9763990000000007
20
-66.0674149999999969
40
0.5000090000039998
50
59.70098495
51
89.99977082
0
ARC
8
BLACK
10
114.9763990000000007
20
-62.0673979999999972
40
0.500009136137531
50
-89.99965623
51
-59.70098495
0
ARC
8
BLACK
10
115.4809179999999884
20
-62.930807999999999
40
0.499998988562977
50
-25.70617187
51
120.29929636
0
ARC
8
BLACK
10
116.381937999999991
20
-63.3645619999999994
40
0.499990000001
50
-205.70646243
51
-179.99988541
0
ARC
8
BLACK
10
115.4809190000000001
20
-65.2040049999999951
40
0.4999997985959594
50
-120.29939530
51
25.70642808
0
ARC
8
BLACK
10
116.381937999999991
20
-64.7702499999999901
40
0.4999899543000839
50
-180.00022919
51
-154.29353757
0
LINE
8
BLACK
6
CONTINUOUS
10
150.5819500000000062
20
-53.8395639999999958
11
150.5819500000000062
21
-55.2452479999999966
0
LINE
8
BLACK
6
CONTINUOUS
10
151.4874969999999905
20
-56.0424059999999997
11
153.0764010000000042
21
-56.0424059999999997
0
LINE
8
BLACK
6
CONTINUOUS
10
153.0764020000000016
20
-53.0424069999999972
11
151.4874969999999905
21
-53.0424069999999972
0
LINE
8
BLACK
6
CONTINUOUS
10
153.9819479999999885
20
-55.2452479999999966
11
153.9819479999999885
21
-53.8395639999999958
0
ARC
8
BLACK
10
150.0814489999999921
20
-53.8397069999999971
40
0.5005132832373183
50
0.01637019
51
25.69604498
0
ARC
8
BLACK
10
150.9829790000000003
20
-53.4058069999999958
40
0.4999993648365966
50
-300.29939530
51
-154.29367517
0
ARC
8
BLACK
10
150.0815989999999829
20
-55.245166999999995
40
0.500351006719283
50
-25.69709515
51
-0.00938992
0
ARC
8
BLACK
10
150.9829790000000003
20
-55.6790069999999986
40
0.4999960394813143
50
-205.70653133
51
-59.70037344
0
ARC
8
BLACK
10
151.4874989999999855
20
-56.5424170000000004
40
0.5000103584367028
50
90.00022918
51
120.29880049
0
ARC
8
BLACK
10
151.4874989999999855
20
-52.5423970000000011
40
0.5000090000089998
50
-120.29901505
51
-90.00034377
0
ARC
8
BLACK
10
153.0763989999999808
20
-56.5424149999999983
40
0.5000090000039998
50
59.70098495
51
89.99977082
0
ARC
8
BLACK
10
153.0763989999999808
20
-52.5423979999999986
40
0.500009136137531
50
-89.99965623
51
-59.70098495
0
ARC
8
BLACK
10
153.5809179999999969
20
-53.4058080000000004
40
0.499998988562977
50
-25.70617187
51
120.29929636
0
ARC
8
BLACK
10
154.4819379999999853
20
-53.8395620000000008
40
0.499990000001
50
-205.70646243
51
-179.99988541
0
ARC
8
BLACK
10
153.5809189999999944
20
-55.6790049999999965
40
0.4999997985959594
50
-120.29939530
51
25.70642808
0
ARC
8
BLACK
10
154.4819379999999853
20
-55.2452499999999986
40
0.4999899543000839
50
-180.00022919
51
-154.29353757
0
LINE
8
BLACK
6
CONTINUOUS
10
207.7319499999999834
20
-63.3645639999999943
11
207.7319499999999834
21
-64.7702479999999952
0
LINE
8
BLACK
6
CONTINUOUS
10
208.6374969999999962
20
-65.5674059999999912
11
210.2264009999999814
21
-65.5674059999999912
0
LINE
8
BLACK
6
CONTINUOUS
10
210.2264019999999789
20
-62.5674069999999958
11
208.6374969999999962
21
-62.5674069999999958
0
LINE
8
BLACK
6
CONTINUOUS
10
211.1319479999999942
20
-64.7702479999999952
11
211.1319479999999942
21
-63.3645639999999943
0
ARC
8
BLACK
10
207.2314489999999978
20
-63.3647069999999957
40
0.5005132832373183
50
0.01637019
51
25.69604498
0
ARC
8
BLACK
10
208.1329789999999775
20
-62.9308069999999944
40
0.4999993648365966
50
-300.29939530
51
-154.29367517
0
ARC
8
BLACK
10
207.2315989999999886
20
-64.7701670000000007
40
0.500351006719283
50
-25.69709515
51
-0.00938992
0
ARC
8
BLACK
10
208.1329789999999775
20
-65.2040069999999901
40
0.4999960394813143
50
-205.70653133
51
-59.70037344
0
ARC
8
BLACK
10
208.6374989999999912
20
-66.0674169999999918
40
0.5000103584367028
50
90.00022918
51
120.29880049
0
ARC
8
BLACK
10
208.6374989999999912
20
-62.0673969999999997
40
0.5000090000089998
50
-120.29901505
51
-90.00034377
0
ARC
8
BLACK
10
210.2263989999999865
20
-66.0674149999999969
40
0.5000090000039998
50
59.70098495
51
89.99977082
0
ARC
8
BLACK
10
210.2263989999999865
20
-62.0673979999999972
40
0.500009136137531
50
-89.99965623
51
-59.70098495
0
ARC
8
BLACK
10
210.7309180000000026
20
-62.930807999999999
40
0.499998988562977
50
-25.70617187
51
120.29929636
0
ARC
8
BLACK
10
211.631937999999991
20
-63.3645619999999994
40
0.499990000001
50
-205.70646243
51
-179.99988541
0
ARC
8
BLACK
10
210.7309190000000001
20
-65.2040049999999951
40
0.4999997985959594
50
-120.29939530
51
25.70642808
0
ARC
8
BLACK
10
211.631937999999991
20
-64.7702499999999901
40
0.4999899543000839
50
-180.00022919
51
-154.29353757
0
LINE
8
BLACK
6
CONTINUOUS
10
96.6257019999999898
20
-117.4427289999999999
11
97.3071909999999889
21
-118.6721679999999992
0
LINE
8
BLACK
6
CONTINUOUS
10
98.4209309999999959
20
-115.536184999999989
11
97.0312429999999893
21
-116.3065009999999972
0
LINE
8
BLACK
6
CONTINUOUS
10
98.4856719999999939
20
-118.9303609999999907
11
99.8753589999999889
21
-118.1600449999999967
0
LINE
8
BLACK
6
CONTINUOUS
10
100.2808979999999934
20
-117.0238159999999965
11
99.5994099999999918
21
-115.7943759999999997
0
ARC
8
BLACK
10
96.1880249999999961
20
-117.6855009999999879
40
0.5005123256204587
50
29.01638804
51
54.69605338
0
ARC
8
BLACK
10
96.7661619999999942
20
-116.8689329999999984
40
0.5000003916568466
50
-271.29935159
51
-125.29367652
0
ARC
8
BLACK
10
96.7888200000000012
20
-115.8691329999999908
40
0.5000591900045434
50
-91.29713902
51
-61.00150731
0
ARC
8
BLACK
10
96.8695230000000009
20
-118.9146679999999918
40
0.5003611484717814
50
3.30253400
51
28.98953990
0
ARC
8
BLACK
10
97.8682309999999944
20
-118.8571189999999973
40
0.4999958602078621
50
-176.70667040
51
-30.70035378
0
ARC
8
BLACK
10
98.7280269999999973
20
-119.3676179999999931
40
0.4999311024581287
50
118.99794382
51
149.30137069
0
ARC
8
BLACK
10
98.1785440000000023
20
-115.0988940000000014
40
0.499974954961746
50
-61.00073763
51
-30.69991039
0
ARC
8
BLACK
10
99.0383709999999979
20
-115.6094289999999916
40
0.4999992728124712
50
3.29391478
51
149.29921207
0
ARC
8
BLACK
10
100.0367459999999937
20
-115.5519649999999956
40
0.5000276184022239
50
-176.70557661
51
-151.00094325
0
ARC
8
BLACK
10
100.1177859999999953
20
-118.5974359999999876
40
0.5000817305301204
50
88.70349854
51
118.99771624
0
ARC
8
BLACK
10
100.1404390000000006
20
-117.5976110000000006
40
0.4999998138899653
50
-91.29935159
51
54.70641701
0
ARC
8
BLACK
10
100.7182430000000011
20
-116.7813809999999961
40
0.5000454390762903
50
-150.99892691
51
-125.29521697
0
LINE
8
BLACK
6
CONTINUOUS
10
188.6819500000000005
20
-63.3645639999999943
11
188.6819500000000005
21
-64.7702479999999952
0
LINE
8
BLACK
6
CONTINUOUS
10
189.5874969999999848
20
-65.5674059999999912
11
191.1764009999999985
21
-65.5674059999999912
0
LINE
8
BLACK
6
CONTINUOUS
10
191.176401999999996
20
-62.5674069999999958
11
189.5874969999999848
21
-62.5674069999999958
0
LINE
8
BLACK
6
CONTINUOUS
10
192.0819479999999828
20
-64.7702479999999952
11
192.0819479999999828
21
-63.3645639999999943
0
ARC
8
BLACK
10
188.1814489999999864
20
-63.3647069999999957
40
0.5005132832373183
50
0.01637019
51
25.69604498
0
ARC
8
BLACK
10
189.0829789999999946
20
-62.9308069999999944
40
0.4999993648365966
50
-300.29939530
51
-154.29367517
0
ARC
8
BLACK
10
188.1815990000000056
20
-64.7701670000000007
40
0.500351006719283
50
-25.69709515
51
-0.00938992
0
ARC
8
BLACK
10
189.0829789999999946
20
-65.2040069999999901
40
0.4999960394813143
50
-205.70653133
51
-59.70037344
0
ARC
8
BLACK
10
189.5874989999999798
20
-66.0674169999999918
40
0.5000103584367028
50
90.00022918
51
120.29880049
0
ARC
8
BLACK
10
189.5874989999999798
20
-62.0673969999999997
40
0.5000090000089998
50
-120.29901505
51
-90.00034377
0
ARC
8
BLACK
10
191.1763990000000035
20
-66.0674149999999969
40
0.5000090000039998
50
59.70098495
51
89.99977082
0
ARC
8
BLACK
10
191.1763990000000035
20
-62.0673979999999972
40
0.500009136137531
50
-89.99965623
51
-59.70098495
0
ARC
8
BLACK
10
191.6809179999999913
20
-62.930807999999999
40
0.499998988562977
50
-25.70617187
51
120.29929636
0
ARC
8
BLACK
10
192.5819379999999796
20
-63.3645619999999994
40
0.499990000001
50
-205.70646243
51
-179.99988541
0
ARC
8
BLACK
10
191.6809189999999887
20
-65.2040049999999951
40
0.4999997985959594
50
-120.29939530
51
25.70642808
0
ARC
8
BLACK
10
192.5819379999999796
20
-64.7702499999999901
40
0.4999899543000839
50
-180.00022919
51
-154.29353757
0
LINE
8
BLACK
6
CONTINUOUS
10
207.7319499999999834
20
-101.4645639999999958
11
207.7319499999999834
21
-102.8702479999999895
0
LINE
8
BLACK
6
CONTINUOUS
10
208.6374969999999962
20
-103.6674059999999997
11
210.2264009999999814
21
-103.6674059999999997
0
LINE
8
BLACK
6
CONTINUOUS
10
210.2264019999999789
20
-100.6674069999999972
11
208.6374969999999962
21
-100.6674069999999972
0
LINE
8
BLACK
6
CONTINUOUS
10
211.1319479999999942
20
-102.8702479999999895
11
211.1319479999999942
21
-101.4645639999999958
0
ARC
8
BLACK
10
207.2314489999999978
20
-101.46470699999999
40
0.5005132832373183
50
0.01637019
51
25.69604498
0
ARC
8
BLACK
10
208.1329789999999775
20
-101.0308069999999958
40
0.4999993648365966
50
-300.29939530
51
-154.29367517
0
ARC
8
BLACK
10
207.2315989999999886
20
-102.870166999999995
40
0.500351006719283
50
-25.69709515
51
-0.00938992
0
ARC
8
BLACK
10
208.1329789999999775
20
-103.3040069999999986
40
0.4999960394813143
50
-205.70653133
51
-59.70037344
0
ARC
8
BLACK
10
208.6374989999999912
20
-104.1674170000000004
40
0.5000103584367028
50
90.00022918
51
120.29880049
0
ARC
8
BLACK
10
208.6374989999999912
20
-100.167396999999994
40
0.5000090000089998
50
-120.29901505
51
-90.00034377
0
ARC
8
BLACK
10
210.2263989999999865
20
-104.1674149999999912
40
0.5000090000039998
50
59.70098495
51
89.99977082
0
ARC
8
BLACK
10
210.2263989999999865
20
-100.1673979999999915
40
0.500009136137531
50
-89.99965623
51
-59.70098495
0
ARC
8
BLACK
10
210.7309180000000026
20
-101.0308079999999933
40
0.499998988562977
50
-25.70617187
51
120.29929636
0
ARC
8
BLACK
10
211.631937999999991
20
-101.4645620000000008
40
0.499990000001
50
-205.70646243
51
-179.99988541
0
ARC
8
BLACK
10
210.7309190000000001
20
-103.3040049999999894
40
0.4999997985959594
50
-120.29939530
51
25.70642808
0
ARC
8
BLACK
10
211.631937999999991
20
-102.8702499999999986
40
0.4999899543000839
50
-180.00022919
51
-154.29353757
0
LINE
8
BLACK
6
CONTINUOUS
10
131.5319499999999948
20
-58.6020639999999986
11
131.5319499999999948
21
-60.0077479999999994
0
LINE
8
BLACK
6
CONTINUOUS
10
132.4374970000000076
20
-60.8049059999999955
11
134.0264009999999928
21
-60.8049059999999955
0
LINE
8
BLACK
6
CONTINUOUS
10
134.0264019999999903
20
-57.804907
11
132.4374970000000076
21
-57.804907
0
LINE
8
BLACK
6
CONTINUOUS
10
134.9319480000000055
20
-60.0077479999999994
11
134.9319480000000055
21
-58.6020639999999986
0
ARC
8
BLACK
10
131.0314489999999807
20
-58.6022069999999999
40
0.5005132832373183
50
0.01637019
51
25.69604498
0
ARC
8
BLACK
10
131.9329789999999889
20
-58.1683069999999987
40
0.4999993648365966
50
-300.29939530
51
-154.29367517
0
ARC
8
BLACK
10
131.0315989999999999
20
-60.0076669999999979
40
0.500351006719283
50
-25.69709515
51
-0.00938992
0
ARC
8
BLACK
10
131.9329789999999889
20
-60.4415069999999943
40
0.4999960394813143
50
-205.70653133
51
-59.70037344
0
ARC
8
BLACK
10
132.4374990000000025
20
-61.3049169999999961
40
0.5000103584367028
50
90.00022918
51
120.29880049
0
ARC
8
BLACK
10
132.4374990000000025
20
-57.3048969999999969
40
0.5000090000089998
50
-120.29901505
51
-90.00034377
0
ARC
8
BLACK
10
134.0263989999999978
20
-61.3049149999999941
40
0.5000090000039998
50
59.70098495
51
89.99977082
0
ARC
8
BLACK
10
134.0263989999999978
20
-57.3048979999999943
40
0.500009136137531
50
-89.99965623
51
-59.70098495
0
ARC
8
BLACK
10
134.5309179999999856
20
-58.1683079999999961
40
0.499998988562977
50
-25.70617187
51
120.29929636
0
ARC
8
BLACK
10
135.4319380000000024
20
-58.6020619999999965
40
0.499990000001
50
-205.70646243
51
-179.99988541
0
ARC
8
BLACK
10
134.530918999999983
20
-60.4415049999999994
40
0.4999997985959594
50
-120.29939530
51
25.70642808
0
ARC
8
BLACK
10
135.4319380000000024
20
-60.0077499999999944
40
0.4999899543000839
50
-180.00022919
51
-154.29353757
0
LINE
8
BLACK
6
CONTINUOUS
10
169.6319499999999891
20
-77.6520639999999958
11
169.6319499999999891
21
-79.0577479999999895
0
LINE
8
BLACK
6
CONTINUOUS
10
170.5374970000000019
20
-79.8549059999999997
11
172.1264009999999871
21
-79.8549059999999997
0
LINE
8
BLACK
6
CONTINUOUS
10
172.1264019999999846
20
-76.8549069999999972
11
170.5374970000000019
21
-76.8549069999999972
0
LINE
8
BLACK
6
CONTINUOUS
10
173.0319479999999999
20
-79.0577479999999895
11
173.0319479999999999
21
-77.6520639999999958
0
ARC
8
BLACK
10
169.1314490000000035
20
-77.65220699999999
40
0.5005132832373183
50
0.01637019
51
25.69604498
0
ARC
8
BLACK
10
170.0329789999999832
20
-77.2183069999999958
40
0.4999993648365966
50
-300.29939530
51
-154.29367517
0
ARC
8
BLACK
10
169.1315989999999942
20
-79.057666999999995
40
0.500351006719283
50
-25.69709515
51
-0.00938992
0
ARC
8
BLACK
10
170.0329789999999832
20
-79.4915069999999986
40
0.4999960394813143
50
-205.70653133
51
-59.70037344
0
ARC
8
BLACK
10
170.5374989999999968
20
-80.3549170000000004
40
0.5000103584367028
50
90.00022918
51
120.29880049
0
ARC
8
BLACK
10
170.5374989999999968
20
-76.354896999999994
40
0.5000090000089998
50
-120.29901505
51
-90.00034377
0
ARC
8
BLACK
10
172.1263989999999922
20
-80.3549149999999912
40
0.5000090000039998
50
59.70098495
51
89.99977082
0
ARC
8
BLACK
10
172.1263989999999922
20
-76.3548979999999915
40
0.500009136137531
50
-89.99965623
51
-59.70098495
0
ARC
8
BLACK
10
172.6309179999999799
20
-77.2183079999999933
40
0.499998988562977
50
-25.70617187
51
120.29929636
0
ARC
8
BLACK
10
173.5319379999999967
20
-77.6520620000000008
40
0.499990000001
50
-205.70646243
51
-179.99988541
0
ARC
8
BLACK
10
172.6309190000000058
20
-79.4915049999999894
40
0.4999997985959594
50
-120.29939530
51
25.70642808
0
ARC
8
BLACK
10
173.5319379999999967
20
-79.0577499999999986
40
0.4999899543000839
50
-180.00022919
51
-154.29353757
0
LINE
8
BLACK
6
CONTINUOUS
10
131.5319499999999948
20
-96.7020639999999929
11
131.5319499999999948
21
-98.1077480000000008
0
LINE
8
BLACK
6
CONTINUOUS
10
132.4374970000000076
20
-98.9049059999999969
11
134.0264009999999928
21
-98.9049059999999969
0
LINE
8
BLACK
6
CONTINUOUS
10
134.0264019999999903
20
-95.9049069999999944
11
132.4374970000000076
21
-95.9049069999999944
0
LINE
8
BLACK
6
CONTINUOUS
10
134.9319480000000055
20
-98.1077480000000008
11
134.9319480000000055
21
-96.7020639999999929
0
ARC
8
BLACK
10
131.0314489999999807
20
-96.7022070000000014
40
0.5005132832373183
50
0.01637019
51
25.69604498
0
ARC
8
BLACK
10
131.9329789999999889
20
-96.268306999999993
40
0.4999993648365966
50
-300.29939530
51
-154.29367517
0
ARC
8
BLACK
10
131.0315989999999999
20
-98.1076669999999922
40
0.500351006719283
50
-25.69709515
51
-0.00938992
0
ARC
8
BLACK
10
131.9329789999999889
20
-98.5415069999999957
40
0.4999960394813143
50
-205.70653133
51
-59.70037344
0
ARC
8
BLACK
10
132.4374990000000025
20
-99.4049169999999975
40
0.5000103584367028
50
90.00022918
51
120.29880049
0
ARC
8
BLACK
10
132.4374990000000025
20
-95.4048969999999912
40
0.5000090000089998
50
-120.29901505
51
-90.00034377
0
ARC
8
BLACK
10
134.0263989999999978
20
-99.4049150000000026
40
0.5000090000039998
50
59.70098495
51
89.99977082
0
ARC
8
BLACK
10
134.0263989999999978
20
-95.4048979999999887
40
0.500009136137531
50
-89.99965623
51
-59.70098495
0
ARC
8
BLACK
10
134.5309179999999856
20
-96.2683079999999904
40
0.499998988562977
50
-25.70617187
51
120.29929636
0
ARC
8
BLACK
10
135.4319380000000024
20
-96.702061999999998
40
0.499990000001
50
-205.70646243
51
-179.99988541
0
ARC
8
BLACK
10
134.530918999999983
20
-98.5415050000000008
40
0.4999997985959594
50
-120.29939530
51
25.70642808
0
ARC
8
BLACK
10
135.4319380000000024
20
-98.1077499999999958
40
0.4999899543000839
50
-180.00022919
51
-154.29353757
0
LINE
8
BLACK
6
CONTINUOUS
10
150.5819500000000062
20
-91.9395639999999901
11
150.5819500000000062
21
-93.345247999999998
0
LINE
8
BLACK
6
CONTINUOUS
10
151.4874969999999905
20
-94.142405999999994
11
153.0764010000000042
21
-94.142405999999994
0
LINE
8
BLACK
6
CONTINUOUS
10
153.0764020000000016
20
-91.1424069999999915
11
151.4874969999999905
21
-91.1424069999999915
0
LINE
8
BLACK
6
CONTINUOUS
10
153.9819479999999885
20
-93.345247999999998
11
153.9819479999999885
21
-91.9395639999999901
0
ARC
8
BLACK
10
150.0814489999999921
20
-91.9397069999999985
40
0.5005132832373183
50
0.01637019
51
25.69604498
0
ARC
8
BLACK
10
150.9829790000000003
20
-91.5058069999999901
40
0.4999993648365966
50
-300.29939530
51
-154.29367517
0
ARC
8
BLACK
10
150.0815989999999829
20
-93.3451669999999893
40
0.500351006719283
50
-25.69709515
51
-0.00938992
0
ARC
8
BLACK
10
150.9829790000000003
20
-93.7790069999999929
40
0.4999960394813143
50
-205.70653133
51
-59.70037344
0
ARC
8
BLACK
10
151.4874989999999855
20
-94.6424169999999947
40
0.5000103584367028
50
90.00022918
51
120.29880049
0
ARC
8
BLACK
10
151.4874989999999855
20
-90.6423970000000025
40
0.5000090000089998
50
-120.29901505
51
-90.00034377
0
ARC
8
BLACK
10
153.0763989999999808
20
-94.6424149999999997
40
0.5000090000039998
50
59.70098495
51
89.99977082
0
ARC
8
BLACK
10
153.0763989999999808
20
-90.642398
40
0.500009136137531
50
-89.99965623
51
-59.70098495
0
ARC
8
BLACK
10
153.5809179999999969
20
-91.5058080000000018
40
0.499998988562977
50
-25.70617187
51
120.29929636
0
ARC
8
BLACK
10
154.4819379999999853
20
-91.9395619999999951
40
0.499990000001
50
-205.70646243
51
-179.99988541
0
ARC
8
BLACK
10
153.5809189999999944
20
-93.7790049999999979
40
0.4999997985959594
50
-120.29939530
51
25.70642808
0
ARC
8
BLACK
10
154.4819379999999853
20
-93.345249999999993
40
0.4999899543000839
50
-180.00022919
51
-154.29353757
0
LINE
8
BLACK
6
CONTINUOUS
10
207.7319499999999834
20
-82.4145639999999986
11
207.7319499999999834
21
-83.8202479999999923
0
LINE
8
BLACK
6
CONTINUOUS
10
208.6374969999999962
20
-84.6174060000000026
11
210.2264009999999814
21
-84.6174060000000026
0
LINE
8
BLACK
6
CONTINUOUS
10
210.2264019999999789
20
-81.617407
11
208.6374969999999962
21
-81.617407
0
LINE
8
BLACK
6
CONTINUOUS
10
211.1319479999999942
20
-83.8202479999999923
11
211.1319479999999942
21
-82.4145639999999986
0
ARC
8
BLACK
10
207.2314489999999978
20
-82.4147069999999928
40
0.5005132832373183
50
0.01637019
51
25.69604498
0
ARC
8
BLACK
10
208.1329789999999775
20
-81.9808069999999987
40
0.4999993648365966
50
-300.29939530
51
-154.29367517
0
ARC
8
BLACK
10
207.2315989999999886
20
-83.8201669999999979
40
0.500351006719283
50
-25.69709515
51
-0.00938992
0
ARC
8
BLACK
10
208.1329789999999775
20
-84.2540070000000014
40
0.4999960394813143
50
-205.70653133
51
-59.70037344
0
ARC
8
BLACK
10
208.6374989999999912
20
-85.1174170000000032
40
0.5000103584367028
50
90.00022918
51
120.29880049
0
ARC
8
BLACK
10
208.6374989999999912
20
-81.1173969999999969
40
0.5000090000089998
50
-120.29901505
51
-90.00034377
0
ARC
8
BLACK
10
210.2263989999999865
20
-85.1174149999999941
40
0.5000090000039998
50
59.70098495
51
89.99977082
0
ARC
8
BLACK
10
210.2263989999999865
20
-81.1173979999999943
40
0.500009136137531
50
-89.99965623
51
-59.70098495
0
ARC
8
BLACK
10
210.7309180000000026
20
-81.9808079999999961
40
0.499998988562977
50
-25.70617187
51
120.29929636
0
ARC
8
BLACK
10
211.631937999999991
20
-82.4145619999999894
40
0.499990000001
50
-205.70646243
51
-179.99988541
0
ARC
8
BLACK
10
210.7309190000000001
20
-84.2540049999999923
40
0.4999997985959594
50
-120.29939530
51
25.70642808
0
ARC
8
BLACK
10
211.631937999999991
20
-83.8202500000000015
40
0.4999899543000839
50
-180.00022919
51
-154.29353757
0
LINE
8
BLACK
6
CONTINUOUS
10
169.6319499999999891
20
-96.7020639999999929
11
169.6319499999999891
21
-98.1077480000000008
0
LINE
8
BLACK
6
CONTINUOUS
10
170.5374970000000019
20
-98.9049059999999969
11
172.1264009999999871
21
-98.9049059999999969
0
LINE
8
BLACK
6
CONTINUOUS
10
172.1264019999999846
20
-95.9049069999999944
11
170.5374970000000019
21
-95.9049069999999944
0
LINE
8
BLACK
6
CONTINUOUS
10
173.0319479999999999
20
-98.1077480000000008
11
173.0319479999999999
21
-96.7020639999999929
0
ARC
8
BLACK
10
169.1314490000000035
20
-96.7022070000000014
40
0.5005132832373183
50
0.01637019
51
25.69604498
0
ARC
8
BLACK
10
170.0329789999999832
20
-96.268306999999993
40
0.4999993648365966
50
-300.29939530
51
-154.29367517
0
ARC
8
BLACK
10
169.1315989999999942
20
-98.1076669999999922
40
0.500351006719283
50
-25.69709515
51
-0.00938992
0
ARC
8
BLACK
10
170.0329789999999832
20
-98.5415069999999957
40
0.4999960394813143
50
-205.70653133
51
-59.70037344
0
ARC
8
BLACK
10
170.5374989999999968
20
-99.4049169999999975
40
0.5000103584367028
50
90.00022918
51
120.29880049
0
ARC
8
BLACK
10
170.5374989999999968
20
-95.4048969999999912
40
0.5000090000089998
50
-120.29901505
51
-90.00034377
0
ARC
8
BLACK
10
172.1263989999999922
20
-99.4049150000000026
40
0.5000090000039998
50
59.70098495
51
89.99977082
0
ARC
8
BLACK
10
172.1263989999999922
20
-95.4048979999999887
40
0.500009136137531
50
-89.99965623
51
-59.70098495
0
ARC
8
BLACK
10
172.6309179999999799
20
-96.2683079999999904
40
0.499998988562977
50
-25.70617187
51
120.29929636
0
ARC
8
BLACK
10
173.5319379999999967
20
-96.702061999999998
40
0.499990000001
50
-205.70646243
51
-179.99988541
0
ARC
8
BLACK
10
172.6309190000000058
20
-98.5415050000000008
40
0.4999997985959594
50
-120.29939530
51
25.70642808
0
ARC
8
BLACK
10
173.5319379999999967
20
-98.1077499999999958
40
0.4999899543000839
50
-180.00022919
51
-154.29353757
0
LINE
8
BLACK
6
CONTINUOUS
10
107.0006279999999919
20
-136.1595899999999801
11
107.682116999999991
21
-137.3890289999999936
0
LINE
8
BLACK
6
CONTINUOUS
10
108.795856999999998
20
-134.2530459999999835
11
107.4061689999999913
21
-135.0233619999999917
0
LINE
8
BLACK
6
CONTINUOUS
10
108.860597999999996
20
-137.6472219999999993
11
110.250284999999991
21
-136.8769059999999911
0
LINE
8
BLACK
6
CONTINUOUS
10
110.6558239999999955
20
-135.7406770000000051
11
109.9743359999999939
21
-134.5112369999999942
0
ARC
8
BLACK
10
106.5629509999999982
20
-136.4023619999999823
40
0.5005123256204587
50
29.01638804
51
54.69605338
0
ARC
8
BLACK
10
107.1410879999999963
20
-135.5857939999999928
40
0.5000003916568466
50
-271.29935159
51
-125.29367652
0
ARC
8
BLACK
10
107.1637459999999891
20
-134.5859939999999995
40
0.5000591900045434
50
-91.29713902
51
-61.00150731
0
ARC
8
BLACK
10
107.2444489999999888
20
-137.6315290000000005
40
0.5003611484717814
50
3.30253400
51
28.98953990
0
ARC
8
BLACK
10
108.2431569999999965
20
-137.5739800000000059
40
0.4999958602078621
50
-176.70667040
51
-30.70035378
0
ARC
8
BLACK
10
109.1029529999999994
20
-138.0844789999999875
40
0.4999311024581287
50
118.99794382
51
149.30137069
0
ARC
8
BLACK
10
108.5534699999999901
20
-133.8157549999999958
40
0.499974954961746
50
-61.00073763
51
-30.69991039
0
ARC
8
BLACK
10
109.413297
20
-134.3262900000000002
40
0.4999992728124712
50
3.29391478
51
149.29921207
0
ARC
8
BLACK
10
110.4116719999999958
20
-134.26882599999999
40
0.5000276184022239
50
-176.70557661
51
-151.00094325
0
ARC
8
BLACK
10
110.4927119999999974
20
-137.3142969999999821
40
0.5000817305301204
50
88.70349854
51
118.99771624
0
ARC
8
BLACK
10
110.5153649999999885
20
-136.314471999999995
40
0.4999998138899653
50
-91.29935159
51
54.70641701
0
ARC
8
BLACK
10
111.093168999999989
20
-135.4982420000000047
40
0.5000454390762903
50
-150.99892691
51
-125.29521697
0
LINE
8
BLACK
6
CONTINUOUS
10
112.4819499999999977
20
-82.4145639999999986
11
112.4819499999999977
21
-83.8202479999999923
0
LINE
8
BLACK
6
CONTINUOUS
10
113.3874969999999962
20
-84.6174060000000026
11
114.9764009999999956
21
-84.6174060000000026
0
LINE
8
BLACK
6
CONTINUOUS
10
114.9764019999999931
20
-81.617407
11
113.3874969999999962
21
-81.617407
0
LINE
8
BLACK
6
CONTINUOUS
10
115.8819479999999942
20
-83.8202479999999923
11
115.8819479999999942
21
-82.4145639999999986
0
ARC
8
BLACK
10
111.9814489999999978
20
-82.4147069999999928
40
0.5005132832373183
50
0.01637019
51
25.69604498
0
ARC
8
BLACK
10
112.8829789999999917
20
-81.9808069999999987
40
0.4999993648365966
50
-300.29939530
51
-154.29367517
0
ARC
8
BLACK
10
111.9815989999999886
20
-83.8201669999999979
40
0.500351006719283
50
-25.69709515
51
-0.00938992
0
ARC
8
BLACK
10
112.8829789999999917
20
-84.2540070000000014
40
0.4999960394813143
50
-205.70653133
51
-59.70037344
0
ARC
8
BLACK
10
113.3874989999999912
20
-85.1174170000000032
40
0.5000103584367028
50
90.00022918
51
120.29880049
0
ARC
8
BLACK
10
113.3874989999999912
20
-81.1173969999999969
40
0.5000090000089998
50
-120.29901505
51
-90.00034377
0
ARC
8
BLACK
10
114.9763990000000007
20
-85.1174149999999941
40
0.5000090000039998
50
59.70098495
51
89.99977082
0
ARC
8
BLACK
10
114.9763990000000007
20
-81.1173979999999943
40
0.500009136137531
50
-89.99965623
51
-59.70098495
0
ARC
8
BLACK
10
115.4809179999999884
20
-81.9808079999999961
40
0.499998988562977
50
-25.70617187
51
120.29929636
0
ARC
8
BLACK
10
116.381937999999991
20
-82.4145619999999894
40
0.499990000001
50
-205.70646243
51
-179.99988541
0
ARC
8
BLACK
10
115.4809190000000001
20
-84.2540049999999923
40
0.4999997985959594
50
-120.29939530
51
25.70642808
0
ARC
8
BLACK
10
116.381937999999991
20
-83.8202500000000015
40
0.4999899543000839
50
-180.00022919
51
-154.29353757
0
LINE
8
BLACK
6
CONTINUOUS
10
188.6819500000000005
20
-82.4145639999999986
11
188.6819500000000005
21
-83.8202479999999923
0
LINE
8
BLACK
6
CONTINUOUS
10
189.5874969999999848
20
-84.6174060000000026
11
191.1764009999999985
21
-84.6174060000000026
0
LINE
8
BLACK
6
CONTINUOUS
10
191.176401999999996
20
-81.617407
11
189.5874969999999848
21
-81.617407
0
LINE
8
BLACK
6
CONTINUOUS
10
192.0819479999999828
20
-83.8202479999999923
11
192.0819479999999828
21
-82.4145639999999986
0
ARC
8
BLACK
10
188.1814489999999864
20
-82.4147069999999928
40
0.5005132832373183
50
0.01637019
51
25.69604498
0
ARC
8
BLACK
10
189.0829789999999946
20
-81.9808069999999987
40
0.4999993648365966
50
-300.29939530
51
-154.29367517
0
ARC
8
BLACK
10
188.1815990000000056
20
-83.8201669999999979
40
0.500351006719283
50
-25.69709515
51
-0.00938992
0
ARC
8
BLACK
10
189.0829789999999946
20
-84.2540070000000014
40
0.4999960394813143
50
-205.70653133
51
-59.70037344
0
ARC
8
BLACK
10
189.5874989999999798
20
-85.1174170000000032
40
0.5000103584367028
50
90.00022918
51
120.29880049
0
ARC
8
BLACK
10
189.5874989999999798
20
-81.1173969999999969
40
0.5000090000089998
50
-120.29901505
51
-90.00034377
0
ARC
8
BLACK
10
191.1763990000000035
20
-85.1174149999999941
40
0.5000090000039998
50
59.70098495
51
89.99977082
0
ARC
8
BLACK
10
191.1763990000000035
20
-81.1173979999999943
40
0.500009136137531
50
-89.99965623
51
-59.70098495
0
ARC
8
BLACK
10
191.6809179999999913
20
-81.9808079999999961
40
0.499998988562977
50
-25.70617187
51
120.29929636
0
ARC
8
BLACK
10
192.5819379999999796
20
-82.4145619999999894
40
0.499990000001
50
-205.70646243
51
-179.99988541
0
ARC
8
BLACK
10
191.6809189999999887
20
-84.2540049999999923
40
0.4999997985959594
50
-120.29939530
51
25.70642808
0
ARC
8
BLACK
10
192.5819379999999796
20
-83.8202500000000015
40
0.4999899543000839
50
-180.00022919
51
-154.29353757
0
LINE
8
BLACK
6
CONTINUOUS
10
131.5319499999999948
20
-77.6520639999999958
11
131.5319499999999948
21
-79.0577479999999895
0
LINE
8
BLACK
6
CONTINUOUS
10
132.4374970000000076
20
-79.8549059999999997
11
134.0264009999999928
21
-79.8549059999999997
0
LINE
8
BLACK
6
CONTINUOUS
10
134.0264019999999903
20
-76.8549069999999972
11
132.4374970000000076
21
-76.8549069999999972
0
LINE
8
BLACK
6
CONTINUOUS
10
134.9319480000000055
20
-79.0577479999999895
11
134.9319480000000055
21
-77.6520639999999958
0
ARC
8
BLACK
10
131.0314489999999807
20
-77.65220699999999
40
0.5005132832373183
50
0.01637019
51
25.69604498
0
ARC
8
BLACK
10
131.9329789999999889
20
-77.2183069999999958
40
0.4999993648365966
50
-300.29939530
51
-154.29367517
0
ARC
8
BLACK
10
131.0315989999999999
20
-79.057666999999995
40
0.500351006719283
50
-25.69709515
51
-0.00938992
0
ARC
8
BLACK
10
131.9329789999999889
20
-79.4915069999999986
40
0.4999960394813143
50
-205.70653133
51
-59.70037344
0
ARC
8
BLACK
10
132.4374990000000025
20
-80.3549170000000004
40
0.5000103584367028
50
90.00022918
51
120.29880049
0
ARC
8
BLACK
10
132.4374990000000025
20
-76.354896999999994
40
0.5000090000089998
50
-120.29901505
51
-90.00034377
0
ARC
8
BLACK
10
134.0263989999999978
20
-80.3549149999999912
40
0.5000090000039998
50
59.70098495
51
89.99977082
0
ARC
8
BLACK
10
134.0263989999999978
20
-76.3548979999999915
40
0.500009136137531
50
-89.99965623
51
-59.70098495
0
ARC
8
BLACK
10
134.5309179999999856
20
-77.2183079999999933
40
0.499998988562977
50
-25.70617187
51
120.29929636
0
ARC
8
BLACK
10
135.4319380000000024
20
-77.6520620000000008
40
0.499990000001
50
-205.70646243
51
-179.99988541
0
ARC
8
BLACK
10
134.530918999999983
20
-79.4915049999999894
40
0.4999997985959594
50
-120.29939530
51
25.70642808
0
ARC
8
BLACK
10
135.4319380000000024
20
-79.0577499999999986
40
0.4999899543000839
50
-180.00022919
51
-154.29353757
  0
ENDSEC
  0
EOF
